G75*
G70*
%OFA0B0*%
%FSLAX24Y24*%
%IPPOS*%
%LPD*%
%AMOC8*
5,1,8,0,0,1.08239X$1,22.5*
%
%ADD10C,0.0640*%
%ADD11OC8,0.0640*%
%ADD12C,0.0640*%
%ADD13R,0.0634X0.0634*%
%ADD14C,0.0634*%
%ADD15C,0.1650*%
%ADD16C,0.0700*%
%ADD17C,0.0436*%
%ADD18C,0.0100*%
%ADD19C,0.0240*%
%ADD20C,0.0160*%
%ADD21C,0.0318*%
%ADD22C,0.0120*%
D10*
X029187Y006687D03*
D11*
X028187Y006687D03*
X027187Y006687D03*
X027187Y005687D03*
X028187Y005687D03*
X029187Y005687D03*
D12*
X005707Y018087D02*
X005067Y018087D01*
X005067Y019087D02*
X005707Y019087D01*
X005707Y020087D02*
X005067Y020087D01*
X005067Y021087D02*
X005707Y021087D01*
X005707Y022087D02*
X005067Y022087D01*
X005067Y023087D02*
X005707Y023087D01*
D13*
X009937Y021937D03*
X009937Y002937D03*
D14*
X010937Y002937D03*
X011937Y002937D03*
X012937Y002937D03*
X013937Y002937D03*
X014937Y002937D03*
X015937Y002937D03*
X016937Y002937D03*
X017937Y002937D03*
X018937Y002937D03*
X019937Y002937D03*
X020937Y002937D03*
X021937Y002937D03*
X022937Y002937D03*
X023937Y002937D03*
X024937Y002937D03*
X025937Y002937D03*
X026937Y002937D03*
X027937Y002937D03*
X028937Y002937D03*
X029937Y002937D03*
X030937Y002937D03*
X031937Y002937D03*
X031937Y003937D03*
X030937Y003937D03*
X029937Y003937D03*
X028937Y003937D03*
X027937Y003937D03*
X026937Y003937D03*
X025937Y003937D03*
X024937Y003937D03*
X023937Y003937D03*
X022937Y003937D03*
X021937Y003937D03*
X020937Y003937D03*
X019937Y003937D03*
X018937Y003937D03*
X017937Y003937D03*
X016937Y003937D03*
X015937Y003937D03*
X014937Y003937D03*
X013937Y003937D03*
X012937Y003937D03*
X011937Y003937D03*
X010937Y003937D03*
X009937Y003937D03*
X010937Y021937D03*
X011937Y021937D03*
X012937Y021937D03*
X013937Y021937D03*
X014937Y021937D03*
X015937Y021937D03*
X016937Y021937D03*
X017937Y021937D03*
X018937Y021937D03*
X019937Y021937D03*
X020937Y021937D03*
X021937Y021937D03*
X022937Y021937D03*
X023937Y021937D03*
X024937Y021937D03*
X025937Y021937D03*
X026937Y021937D03*
X027937Y021937D03*
X028937Y021937D03*
X029937Y021937D03*
X030937Y021937D03*
X031937Y021937D03*
X031937Y022937D03*
X030937Y022937D03*
X029937Y022937D03*
X028937Y022937D03*
X027937Y022937D03*
X026937Y022937D03*
X025937Y022937D03*
X024937Y022937D03*
X023937Y022937D03*
X022937Y022937D03*
X021937Y022937D03*
X020937Y022937D03*
X019937Y022937D03*
X018937Y022937D03*
X017937Y022937D03*
X016937Y022937D03*
X015937Y022937D03*
X014937Y022937D03*
X013937Y022937D03*
X012937Y022937D03*
X011937Y022937D03*
X010937Y022937D03*
X009937Y022937D03*
D15*
X033937Y021187D03*
X033937Y004687D03*
X007937Y003437D03*
D16*
X012687Y006187D03*
X012687Y007187D03*
X012687Y008187D03*
X012687Y009187D03*
X012723Y020687D03*
X011723Y020687D03*
X021187Y020687D03*
X022187Y020687D03*
X023187Y020687D03*
D17*
X019497Y019007D03*
X019507Y017327D03*
X017687Y015687D03*
X015687Y016687D03*
X014227Y015587D03*
X011687Y016687D03*
X010687Y017187D03*
X011187Y015187D03*
X014957Y012317D03*
X015527Y013587D03*
X012187Y011687D03*
X014187Y010187D03*
X016687Y009087D03*
X016687Y007117D03*
X014187Y007687D03*
X020187Y008527D03*
X022367Y006637D03*
X022207Y006057D03*
X021687Y005687D03*
X020187Y005187D03*
X020187Y006517D03*
X025407Y006637D03*
X025397Y005847D03*
X026937Y008337D03*
X026467Y008767D03*
X025417Y010907D03*
X024917Y011267D03*
X025907Y011477D03*
X028237Y013177D03*
X028847Y013797D03*
X029767Y012977D03*
X030447Y012277D03*
X031697Y011847D03*
X031687Y011187D03*
X031687Y008687D03*
X030787Y008187D03*
X035455Y008187D03*
X035455Y012497D03*
X032187Y016687D03*
X031637Y017387D03*
X030787Y017337D03*
X028187Y018687D03*
X028187Y019687D03*
X028187Y020687D03*
X026227Y017457D03*
X026197Y015187D03*
X026317Y014437D03*
X025417Y013857D03*
X024647Y013407D03*
X023617Y014447D03*
X021687Y013927D03*
X022187Y012947D03*
X021457Y011937D03*
X026857Y013397D03*
X027367Y013777D03*
X035455Y017077D03*
D18*
X032777Y018268D02*
X032663Y018154D01*
X032777Y018268D02*
X032777Y018667D01*
X031637Y017387D02*
X031587Y017337D01*
X030787Y017337D01*
X031697Y016227D02*
X032187Y016687D01*
X031697Y016227D02*
X031697Y011847D01*
X031687Y011187D02*
X031687Y008687D01*
X030787Y008187D02*
X030687Y008287D01*
X030687Y011687D01*
X030877Y011877D01*
X030877Y012547D01*
X030447Y012977D01*
X029767Y012977D01*
X030087Y012277D02*
X030447Y012277D01*
X030087Y012277D02*
X029127Y011317D01*
X029127Y010687D01*
X029047Y010257D02*
X028677Y010627D01*
X028677Y010977D01*
X026707Y012947D01*
X022187Y012947D01*
X021687Y012687D02*
X021687Y013927D01*
X021687Y012687D02*
X021957Y012417D01*
X026497Y012417D01*
X028547Y010367D01*
X028547Y010097D01*
X028567Y010077D01*
X028187Y010087D02*
X028187Y009687D01*
X028187Y010087D02*
X026337Y011937D01*
X021457Y011937D01*
X023687Y010687D02*
X014687Y010687D01*
X013687Y011687D01*
X013687Y012357D02*
X013997Y012357D01*
X014687Y011687D01*
X016687Y011687D01*
X016687Y014687D01*
X017187Y015187D01*
X026197Y015187D01*
X026307Y014447D02*
X026317Y014437D01*
X026307Y014447D02*
X023617Y014447D01*
X026857Y013397D02*
X026877Y013407D01*
X025687Y011687D02*
X024687Y011687D01*
X023687Y010687D01*
X025687Y011687D02*
X025897Y011477D01*
X025907Y011477D01*
X029047Y010257D02*
X029047Y009677D01*
X029747Y008337D02*
X026937Y008337D01*
X026697Y007897D02*
X029477Y007897D01*
X030187Y007187D01*
X032687Y007187D01*
X033187Y007687D01*
X033187Y013367D01*
X032567Y008747D02*
X032537Y008717D01*
X032537Y007917D01*
X032207Y007587D01*
X030497Y007587D01*
X029747Y008337D01*
X029009Y007467D02*
X029289Y007187D01*
X029289Y006789D01*
X029187Y006687D01*
X029009Y007467D02*
X026597Y007467D01*
X026187Y007057D01*
X026187Y005687D01*
X025687Y005187D01*
X022187Y005187D01*
X021687Y005687D01*
X022207Y006057D02*
X022417Y005847D01*
X025397Y005847D01*
X025407Y006637D02*
X022367Y006637D01*
X020947Y006137D02*
X020947Y003947D01*
X020937Y003937D01*
X021937Y003937D02*
X021937Y004227D01*
X021247Y004917D01*
X021247Y008227D01*
X020947Y008527D01*
X020187Y008527D01*
X020187Y006517D02*
X020567Y006517D01*
X020947Y006137D01*
X026467Y008127D02*
X026697Y007897D01*
X026467Y008127D02*
X026467Y008767D01*
X027187Y005687D02*
X027187Y005187D01*
X027687Y004687D01*
X030697Y004687D01*
X030937Y004447D01*
X030937Y003937D01*
X015877Y012437D02*
X015527Y012787D01*
X015527Y013587D01*
X014957Y013417D02*
X014187Y014187D01*
X014187Y015547D01*
X014227Y015587D01*
X014957Y013417D02*
X014957Y012317D01*
X013177Y011197D02*
X014187Y010187D01*
X013687Y009687D02*
X012687Y010687D01*
X012687Y018407D01*
X011987Y019107D01*
X005407Y019107D01*
X005387Y019087D01*
X005397Y019097D01*
X005387Y018087D02*
X010287Y018087D01*
X010687Y017687D01*
X010687Y017187D01*
X012137Y019527D02*
X013177Y018487D01*
X013177Y011197D01*
X012187Y011687D02*
X011687Y011187D01*
X011687Y008687D01*
X012187Y008187D01*
X012687Y008187D01*
X024187Y017187D02*
X024187Y018687D01*
X024687Y019187D01*
X026687Y019187D01*
X028187Y020687D01*
X028187Y019687D02*
X027427Y018927D01*
X024907Y018927D01*
X024527Y018547D01*
X024527Y017857D01*
X024687Y017697D01*
X024687Y017687D01*
X025037Y018337D02*
X027837Y018337D01*
X028187Y018687D01*
X019497Y019007D02*
X019497Y017337D01*
X019507Y017327D01*
X012137Y019527D02*
X010847Y019527D01*
D19*
X026227Y017737D02*
X026227Y017457D01*
X026227Y017737D02*
X026317Y017827D01*
X029687Y017827D01*
X030187Y018187D01*
X032617Y018187D01*
X032663Y018154D01*
X033117Y017827D01*
X034728Y017827D01*
X035455Y017077D01*
D20*
X003466Y002744D02*
X003064Y003064D01*
X002744Y003466D01*
X002521Y003929D01*
X002406Y004430D01*
X002392Y004687D01*
X002392Y010232D01*
X010272Y010232D01*
X010392Y010352D01*
X010392Y010522D01*
X010392Y016947D01*
X010473Y016867D01*
X010612Y016809D01*
X010762Y016809D01*
X010901Y016867D01*
X011008Y016973D01*
X011065Y017112D01*
X011065Y017262D01*
X011008Y017401D01*
X010901Y017508D01*
X010897Y017509D01*
X010897Y017774D01*
X010774Y017897D01*
X010374Y018297D01*
X010200Y018297D01*
X006140Y018297D01*
X006114Y018359D01*
X005979Y018494D01*
X005803Y018567D01*
X004972Y018567D01*
X004795Y018494D01*
X004660Y018359D01*
X004642Y018315D01*
X004642Y018859D01*
X004660Y018815D01*
X004795Y018680D01*
X004972Y018607D01*
X005803Y018607D01*
X005979Y018680D01*
X006114Y018815D01*
X006148Y018897D01*
X011900Y018897D01*
X012477Y018320D01*
X012477Y011932D01*
X012401Y012008D01*
X012262Y012065D01*
X012112Y012065D01*
X011973Y012008D01*
X011867Y011901D01*
X011809Y011762D01*
X011809Y011612D01*
X011811Y011608D01*
X011600Y011397D01*
X011477Y011274D01*
X011477Y008774D01*
X011477Y008600D01*
X011977Y008100D01*
X012100Y007977D01*
X012222Y007977D01*
X012255Y007898D01*
X012398Y007755D01*
X012539Y007696D01*
X012484Y007678D01*
X012409Y007640D01*
X012342Y007591D01*
X012283Y007532D01*
X012234Y007465D01*
X012196Y007391D01*
X012170Y007311D01*
X012157Y007229D01*
X012157Y007207D01*
X012667Y007207D01*
X012667Y007167D01*
X012157Y007167D01*
X012157Y007145D01*
X012170Y007063D01*
X012196Y006984D01*
X012234Y006909D01*
X012283Y006842D01*
X012342Y006783D01*
X012409Y006734D01*
X012484Y006696D01*
X012539Y006678D01*
X012398Y006619D01*
X012255Y006476D01*
X012177Y006289D01*
X012177Y006086D01*
X012255Y005898D01*
X012398Y005755D01*
X012586Y005677D01*
X012789Y005677D01*
X012976Y005755D01*
X013119Y005898D01*
X013197Y006086D01*
X013197Y006289D01*
X013119Y006476D01*
X012976Y006619D01*
X012835Y006678D01*
X012891Y006696D01*
X012965Y006734D01*
X013032Y006783D01*
X013091Y006842D01*
X013140Y006909D01*
X013178Y006984D01*
X013204Y007063D01*
X013217Y007145D01*
X013217Y007167D01*
X012707Y007167D01*
X012707Y007207D01*
X013217Y007207D01*
X013217Y007229D01*
X013204Y007311D01*
X013178Y007391D01*
X013140Y007465D01*
X013091Y007532D01*
X013032Y007591D01*
X012965Y007640D01*
X012891Y007678D01*
X012835Y007696D01*
X012976Y007755D01*
X013119Y007898D01*
X013197Y008086D01*
X013197Y008289D01*
X013119Y008476D01*
X012976Y008619D01*
X012813Y008687D01*
X012976Y008755D01*
X013119Y008898D01*
X013197Y009086D01*
X013197Y009289D01*
X013119Y009476D01*
X012976Y009619D01*
X012789Y009697D01*
X012586Y009697D01*
X012398Y009619D01*
X012255Y009476D01*
X012177Y009289D01*
X012177Y009086D01*
X012255Y008898D01*
X012398Y008755D01*
X012562Y008687D01*
X012398Y008619D01*
X012255Y008476D01*
X012237Y008434D01*
X011897Y008774D01*
X011897Y011100D01*
X012108Y011311D01*
X012112Y011309D01*
X012262Y011309D01*
X012401Y011367D01*
X012477Y011442D01*
X012477Y010600D01*
X012600Y010477D01*
X013467Y009610D01*
X013467Y009596D01*
X014196Y008867D01*
X014378Y008867D01*
X016372Y008867D01*
X016473Y008767D01*
X016612Y008709D01*
X016762Y008709D01*
X016901Y008767D01*
X017002Y008867D01*
X017496Y008867D01*
X017678Y008867D01*
X018778Y009967D01*
X023746Y009967D01*
X023928Y009967D01*
X024850Y010889D01*
X024992Y010889D01*
X025039Y010908D01*
X025039Y010832D01*
X025043Y010823D01*
X024200Y009897D01*
X018968Y009907D01*
X018872Y009907D01*
X018786Y009907D01*
X018727Y009848D01*
X018657Y009779D01*
X018657Y009778D01*
X016687Y007808D01*
X016588Y007907D01*
X016406Y007907D01*
X014502Y007907D01*
X014401Y008008D01*
X014262Y008065D01*
X014112Y008065D01*
X013973Y008008D01*
X013867Y007901D01*
X013809Y007762D01*
X013809Y007612D01*
X013867Y007473D01*
X013973Y007367D01*
X014112Y007309D01*
X014262Y007309D01*
X014401Y007367D01*
X014502Y007467D01*
X016406Y007467D01*
X016454Y007419D01*
X014454Y007419D01*
X013920Y007419D02*
X013164Y007419D01*
X013212Y007260D02*
X016337Y007260D01*
X016309Y007192D02*
X016309Y007042D01*
X016367Y006903D01*
X016473Y006797D01*
X016612Y006739D01*
X016762Y006739D01*
X016901Y006797D01*
X017008Y006903D01*
X017065Y007042D01*
X017065Y007192D01*
X017008Y007331D01*
X016920Y007419D01*
X021037Y007419D01*
X021037Y007578D02*
X017079Y007578D01*
X017237Y007736D02*
X021037Y007736D01*
X021037Y007895D02*
X017396Y007895D01*
X017554Y008053D02*
X021037Y008053D01*
X021037Y008140D02*
X020860Y008317D01*
X020509Y008317D01*
X020508Y008313D01*
X020401Y008207D01*
X020262Y008149D01*
X020112Y008149D01*
X019973Y008207D01*
X019867Y008313D01*
X019809Y008452D01*
X019809Y008602D01*
X019867Y008741D01*
X019973Y008848D01*
X020112Y008905D01*
X020262Y008905D01*
X020401Y008848D01*
X020508Y008741D01*
X020509Y008737D01*
X021034Y008737D01*
X021157Y008614D01*
X021457Y008314D01*
X021457Y008140D01*
X021457Y005992D01*
X021457Y005992D01*
X021473Y006008D01*
X021612Y006065D01*
X021762Y006065D01*
X021829Y006038D01*
X021829Y006132D01*
X021887Y006271D01*
X021993Y006378D01*
X022063Y006407D01*
X022047Y006423D01*
X021989Y006562D01*
X021989Y006712D01*
X022047Y006851D01*
X022153Y006958D01*
X022292Y007015D01*
X022442Y007015D01*
X022581Y006958D01*
X022688Y006851D01*
X022689Y006847D01*
X025085Y006847D01*
X025087Y006851D01*
X025193Y006958D01*
X025332Y007015D01*
X025482Y007015D01*
X025621Y006958D01*
X025728Y006851D01*
X025785Y006712D01*
X025785Y006562D01*
X025728Y006423D01*
X025621Y006317D01*
X025482Y006259D01*
X025332Y006259D01*
X025193Y006317D01*
X025087Y006423D01*
X025085Y006427D01*
X022689Y006427D01*
X022688Y006423D01*
X022581Y006317D01*
X022511Y006288D01*
X022528Y006271D01*
X022585Y006132D01*
X022585Y006057D01*
X025075Y006057D01*
X025077Y006061D01*
X025183Y006168D01*
X025322Y006225D01*
X025472Y006225D01*
X025611Y006168D01*
X025718Y006061D01*
X025775Y005922D01*
X025775Y005772D01*
X025718Y005633D01*
X025611Y005527D01*
X025472Y005469D01*
X025322Y005469D01*
X025183Y005527D01*
X025077Y005633D01*
X025075Y005637D01*
X022504Y005637D01*
X022330Y005637D01*
X022286Y005681D01*
X022282Y005679D01*
X022132Y005679D01*
X022065Y005707D01*
X022065Y005612D01*
X022063Y005608D01*
X022274Y005397D01*
X025600Y005397D01*
X025977Y005774D01*
X025977Y006970D01*
X025977Y007144D01*
X026387Y007554D01*
X026510Y007677D01*
X028922Y007677D01*
X029096Y007677D01*
X029376Y007397D01*
X029499Y007274D01*
X029499Y007054D01*
X029594Y006959D01*
X029667Y006783D01*
X029667Y006592D01*
X029594Y006415D01*
X029459Y006280D01*
X029283Y006207D01*
X029092Y006207D01*
X028915Y006280D01*
X028780Y006415D01*
X028707Y006592D01*
X028707Y006783D01*
X028780Y006959D01*
X028915Y007094D01*
X029036Y007144D01*
X028922Y007257D01*
X026684Y007257D01*
X026397Y006970D01*
X026397Y005600D01*
X026274Y005477D01*
X025774Y004977D01*
X025600Y004977D01*
X022100Y004977D01*
X021977Y005100D01*
X021766Y005311D01*
X021762Y005309D01*
X021612Y005309D01*
X021473Y005367D01*
X021457Y005382D01*
X021457Y005004D01*
X022058Y004403D01*
X022207Y004341D01*
X022341Y004207D01*
X022414Y004032D01*
X022414Y003842D01*
X022341Y003667D01*
X022207Y003533D01*
X022032Y003460D01*
X021842Y003460D01*
X021667Y003533D01*
X021533Y003667D01*
X021460Y003842D01*
X021460Y004032D01*
X021533Y004207D01*
X021596Y004271D01*
X021160Y004707D01*
X021157Y004710D01*
X021157Y004362D01*
X021207Y004341D01*
X021341Y004207D01*
X021414Y004032D01*
X021414Y003842D01*
X021341Y003667D01*
X021207Y003533D01*
X021032Y003460D01*
X020842Y003460D01*
X020667Y003533D01*
X020533Y003667D01*
X020460Y003842D01*
X020460Y004032D01*
X020533Y004207D01*
X020667Y004341D01*
X020737Y004370D01*
X020737Y006050D01*
X020496Y006291D01*
X020401Y006197D01*
X020262Y006139D01*
X020112Y006139D01*
X019973Y006197D01*
X019867Y006303D01*
X019809Y006442D01*
X019809Y006592D01*
X019867Y006731D01*
X019973Y006838D01*
X020112Y006895D01*
X020262Y006895D01*
X020401Y006838D01*
X020508Y006731D01*
X020509Y006727D01*
X020654Y006727D01*
X021034Y006347D01*
X021037Y006344D01*
X021037Y008140D01*
X020965Y008212D02*
X020406Y008212D01*
X019968Y008212D02*
X017713Y008212D01*
X017871Y008370D02*
X019843Y008370D01*
X019809Y008529D02*
X018030Y008529D01*
X018188Y008687D02*
X019844Y008687D01*
X019971Y008846D02*
X018347Y008846D01*
X018506Y009004D02*
X026170Y009004D01*
X026147Y008981D02*
X026253Y009088D01*
X026392Y009145D01*
X026542Y009145D01*
X026681Y009088D01*
X026788Y008981D01*
X026845Y008842D01*
X026845Y008708D01*
X026862Y008715D01*
X027012Y008715D01*
X027151Y008658D01*
X027258Y008551D01*
X027259Y008547D01*
X029660Y008547D01*
X029834Y008547D01*
X030584Y007797D01*
X032120Y007797D01*
X032327Y008004D01*
X032327Y008536D01*
X032297Y008566D01*
X032248Y008684D01*
X032248Y008811D01*
X032297Y008928D01*
X032386Y009018D01*
X032504Y009066D01*
X032631Y009066D01*
X032748Y009018D01*
X032838Y008928D01*
X032886Y008811D01*
X032886Y008684D01*
X032838Y008566D01*
X032748Y008477D01*
X032747Y008476D01*
X032747Y007830D01*
X032624Y007707D01*
X032314Y007397D01*
X032600Y007397D01*
X032977Y007774D01*
X032977Y013126D01*
X032917Y013186D01*
X032868Y013304D01*
X032868Y013431D01*
X032917Y013548D01*
X033006Y013638D01*
X033124Y013686D01*
X033251Y013686D01*
X033368Y013638D01*
X033458Y013548D01*
X033506Y013431D01*
X033506Y013304D01*
X033458Y013186D01*
X033397Y013126D01*
X033397Y007600D01*
X033274Y007477D01*
X033274Y007477D01*
X032897Y007100D01*
X032897Y007100D01*
X032774Y006977D01*
X030100Y006977D01*
X029977Y007100D01*
X029390Y007687D01*
X026610Y007687D01*
X026487Y007810D01*
X026257Y008040D01*
X026257Y008214D01*
X026257Y008445D01*
X026253Y008447D01*
X026147Y008553D01*
X026089Y008692D01*
X026089Y008842D01*
X026147Y008981D01*
X026091Y008846D02*
X020403Y008846D01*
X021084Y008687D02*
X026091Y008687D01*
X026171Y008529D02*
X021242Y008529D01*
X021401Y008370D02*
X026257Y008370D01*
X026257Y008212D02*
X021457Y008212D01*
X021457Y008053D02*
X026257Y008053D01*
X026403Y007895D02*
X021457Y007895D01*
X021457Y007736D02*
X026561Y007736D01*
X026411Y007578D02*
X021457Y007578D01*
X021457Y007419D02*
X026252Y007419D01*
X026094Y007260D02*
X021457Y007260D01*
X021457Y007102D02*
X025977Y007102D01*
X025977Y006943D02*
X025635Y006943D01*
X025755Y006785D02*
X025977Y006785D01*
X025977Y006626D02*
X025785Y006626D01*
X025746Y006468D02*
X025977Y006468D01*
X025977Y006309D02*
X025604Y006309D01*
X025628Y006151D02*
X025977Y006151D01*
X025977Y005992D02*
X025746Y005992D01*
X025775Y005834D02*
X025977Y005834D01*
X025878Y005675D02*
X025735Y005675D01*
X025720Y005516D02*
X025587Y005516D01*
X025207Y005516D02*
X022155Y005516D01*
X022065Y005675D02*
X022292Y005675D01*
X022578Y006151D02*
X025166Y006151D01*
X025211Y006309D02*
X022564Y006309D01*
X022028Y006468D02*
X021457Y006468D01*
X021457Y006626D02*
X021989Y006626D01*
X022019Y006785D02*
X021457Y006785D01*
X021457Y006943D02*
X022139Y006943D01*
X022595Y006943D02*
X025179Y006943D01*
X026397Y006943D02*
X026765Y006943D01*
X026707Y006886D02*
X026707Y006488D01*
X026988Y006207D01*
X027386Y006207D01*
X027667Y006488D01*
X027667Y006886D01*
X027386Y007167D01*
X026988Y007167D01*
X026707Y006886D01*
X026707Y006785D02*
X026397Y006785D01*
X026397Y006626D02*
X026707Y006626D01*
X026728Y006468D02*
X026397Y006468D01*
X026397Y006309D02*
X026886Y006309D01*
X026980Y006187D02*
X026687Y005894D01*
X026687Y005707D01*
X027167Y005707D01*
X027167Y005667D01*
X027207Y005667D01*
X027207Y005187D01*
X027394Y005187D01*
X027687Y005480D01*
X027687Y005667D01*
X027207Y005667D01*
X027207Y005707D01*
X027687Y005707D01*
X027687Y005894D01*
X027394Y006187D01*
X027207Y006187D01*
X027207Y005707D01*
X027167Y005707D01*
X027167Y006187D01*
X026980Y006187D01*
X026944Y006151D02*
X026397Y006151D01*
X026397Y005992D02*
X026785Y005992D01*
X026687Y005834D02*
X026397Y005834D01*
X026397Y005675D02*
X027167Y005675D01*
X027167Y005667D02*
X026687Y005667D01*
X026687Y005480D01*
X026980Y005187D01*
X027167Y005187D01*
X027167Y005667D01*
X027207Y005675D02*
X027707Y005675D01*
X027707Y005516D02*
X027687Y005516D01*
X027707Y005488D02*
X027988Y005207D01*
X028386Y005207D01*
X028667Y005488D01*
X028667Y005886D01*
X028386Y006167D01*
X027988Y006167D01*
X027707Y005886D01*
X027707Y005488D01*
X027837Y005358D02*
X027565Y005358D01*
X027406Y005199D02*
X033083Y005199D01*
X033102Y005245D02*
X032952Y004883D01*
X032952Y004491D01*
X033102Y004129D01*
X033379Y003852D01*
X033741Y003702D01*
X034133Y003702D01*
X034495Y003852D01*
X034772Y004129D01*
X034922Y004491D01*
X034922Y004883D01*
X034772Y005245D01*
X034495Y005522D01*
X034133Y005672D01*
X033741Y005672D01*
X033379Y005522D01*
X033102Y005245D01*
X033215Y005358D02*
X029537Y005358D01*
X029667Y005488D02*
X029386Y005207D01*
X028988Y005207D01*
X028707Y005488D01*
X028707Y005886D01*
X028988Y006167D01*
X029386Y006167D01*
X029667Y005886D01*
X029667Y005488D01*
X029667Y005516D02*
X033374Y005516D01*
X033017Y005041D02*
X025838Y005041D01*
X025996Y005199D02*
X026968Y005199D01*
X027167Y005199D02*
X027207Y005199D01*
X027207Y005358D02*
X027167Y005358D01*
X027167Y005516D02*
X027207Y005516D01*
X027207Y005834D02*
X027167Y005834D01*
X027167Y005992D02*
X027207Y005992D01*
X027207Y006151D02*
X027167Y006151D01*
X027431Y006151D02*
X027972Y006151D01*
X027988Y006207D02*
X028386Y006207D01*
X028667Y006488D01*
X028667Y006886D01*
X028386Y007167D01*
X027988Y007167D01*
X027707Y006886D01*
X027707Y006488D01*
X027988Y006207D01*
X027886Y006309D02*
X027488Y006309D01*
X027647Y006468D02*
X027728Y006468D01*
X027707Y006626D02*
X027667Y006626D01*
X027667Y006785D02*
X027707Y006785D01*
X027765Y006943D02*
X027610Y006943D01*
X027451Y007102D02*
X027923Y007102D01*
X028451Y007102D02*
X028934Y007102D01*
X028774Y006943D02*
X028610Y006943D01*
X028667Y006785D02*
X028708Y006785D01*
X028707Y006626D02*
X028667Y006626D01*
X028647Y006468D02*
X028758Y006468D01*
X028886Y006309D02*
X028488Y006309D01*
X028402Y006151D02*
X028972Y006151D01*
X028813Y005992D02*
X028561Y005992D01*
X028667Y005834D02*
X028707Y005834D01*
X028707Y005675D02*
X028667Y005675D01*
X028667Y005516D02*
X028707Y005516D01*
X028837Y005358D02*
X028537Y005358D01*
X027707Y005834D02*
X027687Y005834D01*
X027589Y005992D02*
X027813Y005992D01*
X026809Y005358D02*
X026155Y005358D01*
X026313Y005516D02*
X026687Y005516D01*
X026842Y004414D02*
X026667Y004341D01*
X026533Y004207D01*
X026460Y004032D01*
X026460Y003842D01*
X026533Y003667D01*
X026667Y003533D01*
X026842Y003460D01*
X027032Y003460D01*
X027207Y003533D01*
X027341Y003667D01*
X027414Y003842D01*
X027414Y004032D01*
X027341Y004207D01*
X027207Y004341D01*
X027032Y004414D01*
X026842Y004414D01*
X026825Y004407D02*
X026049Y004407D01*
X026032Y004414D02*
X025842Y004414D01*
X025667Y004341D01*
X025533Y004207D01*
X025460Y004032D01*
X025460Y003842D01*
X025533Y003667D01*
X025667Y003533D01*
X025842Y003460D01*
X026032Y003460D01*
X026207Y003533D01*
X026341Y003667D01*
X026414Y003842D01*
X026414Y004032D01*
X026341Y004207D01*
X026207Y004341D01*
X026032Y004414D01*
X025825Y004407D02*
X025049Y004407D01*
X025032Y004414D02*
X025207Y004341D01*
X025341Y004207D01*
X025414Y004032D01*
X025414Y003842D01*
X025341Y003667D01*
X025207Y003533D01*
X025032Y003460D01*
X024842Y003460D01*
X024667Y003533D01*
X024533Y003667D01*
X024460Y003842D01*
X024460Y004032D01*
X024533Y004207D01*
X024667Y004341D01*
X024842Y004414D01*
X025032Y004414D01*
X024825Y004407D02*
X024049Y004407D01*
X024032Y004414D02*
X023842Y004414D01*
X023667Y004341D01*
X023533Y004207D01*
X023460Y004032D01*
X023460Y003842D01*
X023533Y003667D01*
X023667Y003533D01*
X023842Y003460D01*
X024032Y003460D01*
X024207Y003533D01*
X024341Y003667D01*
X024414Y003842D01*
X024414Y004032D01*
X024341Y004207D01*
X024207Y004341D01*
X024032Y004414D01*
X023825Y004407D02*
X023049Y004407D01*
X023032Y004414D02*
X022842Y004414D01*
X022667Y004341D01*
X022533Y004207D01*
X022460Y004032D01*
X022460Y003842D01*
X022533Y003667D01*
X022667Y003533D01*
X022842Y003460D01*
X023032Y003460D01*
X023207Y003533D01*
X023341Y003667D01*
X023414Y003842D01*
X023414Y004032D01*
X023341Y004207D01*
X023207Y004341D01*
X023032Y004414D01*
X022825Y004407D02*
X022054Y004407D01*
X021896Y004565D02*
X032952Y004565D01*
X032952Y004724D02*
X021737Y004724D01*
X021579Y004882D02*
X032952Y004882D01*
X032987Y004407D02*
X032099Y004407D01*
X032128Y004397D02*
X032053Y004422D01*
X031976Y004434D01*
X031956Y004434D01*
X031956Y003956D01*
X032434Y003956D01*
X032434Y003976D01*
X032422Y004053D01*
X032397Y004128D01*
X032362Y004197D01*
X032316Y004261D01*
X032261Y004316D01*
X032197Y004362D01*
X032128Y004397D01*
X031956Y004407D02*
X031919Y004407D01*
X031919Y004434D02*
X031898Y004434D01*
X031821Y004422D01*
X031746Y004397D01*
X031677Y004362D01*
X031613Y004316D01*
X031558Y004261D01*
X031512Y004197D01*
X031477Y004128D01*
X031452Y004053D01*
X031440Y003976D01*
X031440Y003956D01*
X031918Y003956D01*
X031918Y003919D01*
X031440Y003919D01*
X031440Y003898D01*
X031452Y003821D01*
X031477Y003746D01*
X031512Y003677D01*
X031558Y003613D01*
X031613Y003558D01*
X031677Y003512D01*
X031746Y003477D01*
X031821Y003452D01*
X031898Y003440D01*
X031919Y003440D01*
X031919Y003918D01*
X031956Y003918D01*
X031956Y003440D01*
X031976Y003440D01*
X032053Y003452D01*
X032128Y003477D01*
X032197Y003512D01*
X032261Y003558D01*
X032316Y003613D01*
X032362Y003677D01*
X032397Y003746D01*
X032422Y003821D01*
X032434Y003898D01*
X032434Y003919D01*
X031956Y003919D01*
X031956Y003956D01*
X031919Y003956D01*
X031919Y004434D01*
X031775Y004407D02*
X031099Y004407D01*
X031128Y004397D02*
X031053Y004422D01*
X030976Y004434D01*
X030956Y004434D01*
X030956Y003956D01*
X031434Y003956D01*
X031434Y003976D01*
X031422Y004053D01*
X031397Y004128D01*
X031362Y004197D01*
X031316Y004261D01*
X031261Y004316D01*
X031197Y004362D01*
X031128Y004397D01*
X030956Y004407D02*
X030919Y004407D01*
X030919Y004434D02*
X030898Y004434D01*
X030821Y004422D01*
X030746Y004397D01*
X030677Y004362D01*
X030613Y004316D01*
X030558Y004261D01*
X030512Y004197D01*
X030477Y004128D01*
X030452Y004053D01*
X030440Y003976D01*
X030440Y003956D01*
X030918Y003956D01*
X030918Y003919D01*
X030440Y003919D01*
X030440Y003898D01*
X030452Y003821D01*
X030477Y003746D01*
X030512Y003677D01*
X030558Y003613D01*
X030613Y003558D01*
X030677Y003512D01*
X030746Y003477D01*
X030821Y003452D01*
X030898Y003440D01*
X030919Y003440D01*
X030919Y003918D01*
X030956Y003918D01*
X030956Y003440D01*
X030976Y003440D01*
X031053Y003452D01*
X031128Y003477D01*
X031197Y003512D01*
X031261Y003558D01*
X031316Y003613D01*
X031362Y003677D01*
X031397Y003746D01*
X031422Y003821D01*
X031434Y003898D01*
X031434Y003919D01*
X030956Y003919D01*
X030956Y003956D01*
X030919Y003956D01*
X030919Y004434D01*
X030775Y004407D02*
X030049Y004407D01*
X030032Y004414D02*
X029842Y004414D01*
X029667Y004341D01*
X029533Y004207D01*
X029460Y004032D01*
X029460Y003842D01*
X029533Y003667D01*
X029667Y003533D01*
X029842Y003460D01*
X030032Y003460D01*
X030207Y003533D01*
X030341Y003667D01*
X030414Y003842D01*
X030414Y004032D01*
X030341Y004207D01*
X030207Y004341D01*
X030032Y004414D01*
X029825Y004407D02*
X029049Y004407D01*
X029032Y004414D02*
X028842Y004414D01*
X028667Y004341D01*
X028533Y004207D01*
X028460Y004032D01*
X028460Y003842D01*
X028533Y003667D01*
X028667Y003533D01*
X028842Y003460D01*
X029032Y003460D01*
X029207Y003533D01*
X029341Y003667D01*
X029414Y003842D01*
X029414Y004032D01*
X029341Y004207D01*
X029207Y004341D01*
X029032Y004414D01*
X028825Y004407D02*
X028049Y004407D01*
X028032Y004414D02*
X027842Y004414D01*
X027667Y004341D01*
X027533Y004207D01*
X027460Y004032D01*
X027460Y003842D01*
X027533Y003667D01*
X027667Y003533D01*
X027842Y003460D01*
X028032Y003460D01*
X028207Y003533D01*
X028341Y003667D01*
X028414Y003842D01*
X028414Y004032D01*
X028341Y004207D01*
X028207Y004341D01*
X028032Y004414D01*
X027825Y004407D02*
X027049Y004407D01*
X027300Y004248D02*
X027574Y004248D01*
X027484Y004090D02*
X027390Y004090D01*
X027414Y003931D02*
X027460Y003931D01*
X027489Y003773D02*
X027385Y003773D01*
X027288Y003614D02*
X027586Y003614D01*
X027667Y003341D02*
X027533Y003207D01*
X027460Y003032D01*
X027460Y002842D01*
X027533Y002667D01*
X027667Y002533D01*
X027842Y002460D01*
X028032Y002460D01*
X028207Y002533D01*
X028341Y002667D01*
X028414Y002842D01*
X028414Y003032D01*
X028341Y003207D01*
X028207Y003341D01*
X028032Y003414D01*
X027842Y003414D01*
X027667Y003341D01*
X027623Y003297D02*
X027252Y003297D01*
X027207Y003341D02*
X027032Y003414D01*
X026842Y003414D01*
X026667Y003341D01*
X026533Y003207D01*
X026460Y003032D01*
X026460Y002842D01*
X026533Y002667D01*
X026667Y002533D01*
X026842Y002460D01*
X027032Y002460D01*
X027207Y002533D01*
X027341Y002667D01*
X027414Y002842D01*
X027414Y003032D01*
X027341Y003207D01*
X027207Y003341D01*
X027370Y003138D02*
X027504Y003138D01*
X027460Y002980D02*
X027414Y002980D01*
X027405Y002821D02*
X027469Y002821D01*
X027537Y002663D02*
X027337Y002663D01*
X027138Y002504D02*
X027736Y002504D01*
X028138Y002504D02*
X028736Y002504D01*
X028667Y002533D02*
X028842Y002460D01*
X029032Y002460D01*
X029207Y002533D01*
X029341Y002667D01*
X029414Y002842D01*
X029414Y003032D01*
X029341Y003207D01*
X029207Y003341D01*
X029032Y003414D01*
X028842Y003414D01*
X028667Y003341D01*
X028533Y003207D01*
X028460Y003032D01*
X028460Y002842D01*
X028533Y002667D01*
X028667Y002533D01*
X028537Y002663D02*
X028337Y002663D01*
X028405Y002821D02*
X028469Y002821D01*
X028460Y002980D02*
X028414Y002980D01*
X028370Y003138D02*
X028504Y003138D01*
X028623Y003297D02*
X028252Y003297D01*
X028288Y003614D02*
X028586Y003614D01*
X028489Y003773D02*
X028385Y003773D01*
X028414Y003931D02*
X028460Y003931D01*
X028484Y004090D02*
X028390Y004090D01*
X028300Y004248D02*
X028574Y004248D01*
X029300Y004248D02*
X029574Y004248D01*
X029484Y004090D02*
X029390Y004090D01*
X029414Y003931D02*
X029460Y003931D01*
X029489Y003773D02*
X029385Y003773D01*
X029288Y003614D02*
X029586Y003614D01*
X029667Y003341D02*
X029533Y003207D01*
X029460Y003032D01*
X029460Y002842D01*
X029533Y002667D01*
X029667Y002533D01*
X029842Y002460D01*
X030032Y002460D01*
X030207Y002533D01*
X030341Y002667D01*
X030414Y002842D01*
X030414Y003032D01*
X030341Y003207D01*
X030207Y003341D01*
X030032Y003414D01*
X029842Y003414D01*
X029667Y003341D01*
X029623Y003297D02*
X029252Y003297D01*
X029370Y003138D02*
X029504Y003138D01*
X029460Y002980D02*
X029414Y002980D01*
X029405Y002821D02*
X029469Y002821D01*
X029537Y002663D02*
X029337Y002663D01*
X029138Y002504D02*
X029736Y002504D01*
X030138Y002504D02*
X030692Y002504D01*
X030677Y002512D02*
X030746Y002477D01*
X030821Y002452D01*
X030898Y002440D01*
X030919Y002440D01*
X030919Y002918D01*
X030956Y002918D01*
X030956Y002440D01*
X030976Y002440D01*
X031053Y002452D01*
X031128Y002477D01*
X031197Y002512D01*
X031261Y002558D01*
X031316Y002613D01*
X031362Y002677D01*
X031397Y002746D01*
X031422Y002821D01*
X031452Y002821D01*
X031477Y002746D01*
X031512Y002677D01*
X031558Y002613D01*
X031613Y002558D01*
X031677Y002512D01*
X031746Y002477D01*
X031821Y002452D01*
X031898Y002440D01*
X031919Y002440D01*
X031919Y002918D01*
X031956Y002918D01*
X031956Y002445D01*
X031798Y002416D01*
X031433Y002392D01*
X004772Y002392D01*
X004687Y002392D01*
X004430Y002406D01*
X003929Y002521D01*
X003466Y002744D01*
X003369Y002821D02*
X007160Y002821D01*
X007102Y002879D02*
X007379Y002602D01*
X007741Y002452D01*
X008133Y002452D01*
X008495Y002602D01*
X008772Y002879D01*
X008922Y003241D01*
X008922Y003633D01*
X008772Y003995D01*
X008495Y004272D01*
X008133Y004422D01*
X007741Y004422D01*
X007379Y004272D01*
X007102Y003995D01*
X006952Y003633D01*
X006952Y003241D01*
X007102Y002879D01*
X007060Y002980D02*
X003170Y002980D01*
X003005Y003138D02*
X006995Y003138D01*
X006952Y003297D02*
X002879Y003297D01*
X002752Y003455D02*
X006952Y003455D01*
X006952Y003614D02*
X002673Y003614D01*
X002596Y003773D02*
X007010Y003773D01*
X007076Y003931D02*
X002520Y003931D01*
X002484Y004090D02*
X007197Y004090D01*
X007355Y004248D02*
X002448Y004248D01*
X002412Y004407D02*
X007704Y004407D01*
X008170Y004407D02*
X009775Y004407D01*
X009746Y004397D02*
X009677Y004362D01*
X009613Y004316D01*
X009558Y004261D01*
X009512Y004197D01*
X009477Y004128D01*
X009452Y004053D01*
X009440Y003976D01*
X009440Y003956D01*
X009918Y003956D01*
X009918Y003919D01*
X009440Y003919D01*
X009440Y003898D01*
X009452Y003821D01*
X009477Y003746D01*
X009512Y003677D01*
X009558Y003613D01*
X009613Y003558D01*
X009677Y003512D01*
X009746Y003477D01*
X009821Y003452D01*
X009898Y003440D01*
X009919Y003440D01*
X009919Y003918D01*
X009956Y003918D01*
X009956Y003440D01*
X009976Y003440D01*
X010053Y003452D01*
X010128Y003477D01*
X010197Y003512D01*
X010261Y003558D01*
X010316Y003613D01*
X010362Y003677D01*
X010397Y003746D01*
X010422Y003821D01*
X010434Y003898D01*
X010434Y003919D01*
X009956Y003919D01*
X009956Y003956D01*
X010434Y003956D01*
X010434Y003976D01*
X010422Y004053D01*
X010397Y004128D01*
X010362Y004197D01*
X010316Y004261D01*
X010261Y004316D01*
X010197Y004362D01*
X010128Y004397D01*
X010053Y004422D01*
X009976Y004434D01*
X009956Y004434D01*
X009956Y003956D01*
X009919Y003956D01*
X009919Y004434D01*
X009898Y004434D01*
X009821Y004422D01*
X009746Y004397D01*
X009919Y004407D02*
X009956Y004407D01*
X010099Y004407D02*
X010697Y004407D01*
X010697Y004389D02*
X010697Y004354D01*
X010667Y004341D01*
X010533Y004207D01*
X010460Y004032D01*
X010460Y003842D01*
X010533Y003667D01*
X010667Y003533D01*
X010697Y003520D01*
X010697Y003354D01*
X010667Y003341D01*
X010533Y003207D01*
X010460Y003032D01*
X010460Y002842D01*
X010533Y002667D01*
X010667Y002533D01*
X010842Y002460D01*
X011032Y002460D01*
X011207Y002533D01*
X011341Y002667D01*
X011414Y002842D01*
X011414Y003032D01*
X011341Y003207D01*
X011207Y003341D01*
X011177Y003354D01*
X011177Y003520D01*
X011207Y003533D01*
X011341Y003667D01*
X011414Y003842D01*
X011414Y004032D01*
X011341Y004207D01*
X011207Y004341D01*
X011188Y004349D01*
X011286Y004447D01*
X019639Y004447D01*
X019735Y004447D01*
X019823Y004484D01*
X020148Y004809D01*
X020262Y004809D01*
X020401Y004867D01*
X020508Y004973D01*
X020565Y005112D01*
X020565Y005262D01*
X020508Y005401D01*
X020401Y005508D01*
X020262Y005565D01*
X020112Y005565D01*
X019973Y005508D01*
X019867Y005401D01*
X019809Y005262D01*
X019809Y005148D01*
X019588Y004927D01*
X011139Y004927D01*
X011051Y004891D01*
X010984Y004823D01*
X010734Y004573D01*
X010697Y004485D01*
X010697Y004389D01*
X010730Y004565D02*
X002399Y004565D01*
X002392Y004724D02*
X010884Y004724D01*
X011043Y004882D02*
X002392Y004882D01*
X002392Y005041D02*
X019701Y005041D01*
X019809Y005199D02*
X002392Y005199D01*
X002392Y005358D02*
X019849Y005358D01*
X019994Y005516D02*
X002392Y005516D01*
X002392Y005675D02*
X020737Y005675D01*
X020737Y005516D02*
X020380Y005516D01*
X020526Y005358D02*
X020737Y005358D01*
X020737Y005199D02*
X020565Y005199D01*
X020536Y005041D02*
X020737Y005041D01*
X020737Y004882D02*
X020417Y004882D01*
X020737Y004724D02*
X020063Y004724D01*
X019905Y004565D02*
X020737Y004565D01*
X020737Y004407D02*
X020049Y004407D01*
X020032Y004414D02*
X019842Y004414D01*
X019667Y004341D01*
X019533Y004207D01*
X019460Y004032D01*
X019460Y003842D01*
X019533Y003667D01*
X019667Y003533D01*
X019842Y003460D01*
X020032Y003460D01*
X020207Y003533D01*
X020341Y003667D01*
X020414Y003842D01*
X020414Y004032D01*
X020341Y004207D01*
X020207Y004341D01*
X020032Y004414D01*
X019825Y004407D02*
X019049Y004407D01*
X019032Y004414D02*
X018842Y004414D01*
X018667Y004341D01*
X018533Y004207D01*
X018460Y004032D01*
X018460Y003842D01*
X018533Y003667D01*
X018667Y003533D01*
X018842Y003460D01*
X019032Y003460D01*
X019207Y003533D01*
X019341Y003667D01*
X019414Y003842D01*
X019414Y004032D01*
X019341Y004207D01*
X019207Y004341D01*
X019032Y004414D01*
X018825Y004407D02*
X018049Y004407D01*
X018032Y004414D02*
X017842Y004414D01*
X017667Y004341D01*
X017533Y004207D01*
X017460Y004032D01*
X017460Y003842D01*
X017533Y003667D01*
X017667Y003533D01*
X017842Y003460D01*
X018032Y003460D01*
X018207Y003533D01*
X018341Y003667D01*
X018414Y003842D01*
X018414Y004032D01*
X018341Y004207D01*
X018207Y004341D01*
X018032Y004414D01*
X017825Y004407D02*
X017049Y004407D01*
X017032Y004414D02*
X016842Y004414D01*
X016667Y004341D01*
X016533Y004207D01*
X016460Y004032D01*
X016460Y003842D01*
X016533Y003667D01*
X016667Y003533D01*
X016842Y003460D01*
X017032Y003460D01*
X017207Y003533D01*
X017341Y003667D01*
X017414Y003842D01*
X017414Y004032D01*
X017341Y004207D01*
X017207Y004341D01*
X017032Y004414D01*
X016825Y004407D02*
X016049Y004407D01*
X016032Y004414D02*
X015842Y004414D01*
X015667Y004341D01*
X015533Y004207D01*
X015460Y004032D01*
X015460Y003842D01*
X015533Y003667D01*
X015667Y003533D01*
X015842Y003460D01*
X016032Y003460D01*
X016207Y003533D01*
X016341Y003667D01*
X016414Y003842D01*
X016414Y004032D01*
X016341Y004207D01*
X016207Y004341D01*
X016032Y004414D01*
X015825Y004407D02*
X015049Y004407D01*
X015032Y004414D02*
X014842Y004414D01*
X014667Y004341D01*
X014533Y004207D01*
X014460Y004032D01*
X014460Y003842D01*
X014533Y003667D01*
X014667Y003533D01*
X014842Y003460D01*
X015032Y003460D01*
X015207Y003533D01*
X015341Y003667D01*
X015414Y003842D01*
X015414Y004032D01*
X015341Y004207D01*
X015207Y004341D01*
X015032Y004414D01*
X014825Y004407D02*
X014049Y004407D01*
X014032Y004414D02*
X013842Y004414D01*
X013667Y004341D01*
X013533Y004207D01*
X013460Y004032D01*
X013460Y003842D01*
X013533Y003667D01*
X013667Y003533D01*
X013842Y003460D01*
X014032Y003460D01*
X014207Y003533D01*
X014341Y003667D01*
X014414Y003842D01*
X014414Y004032D01*
X014341Y004207D01*
X014207Y004341D01*
X014032Y004414D01*
X013825Y004407D02*
X013049Y004407D01*
X013032Y004414D02*
X012842Y004414D01*
X012667Y004341D01*
X012533Y004207D01*
X012460Y004032D01*
X012460Y003842D01*
X012533Y003667D01*
X012667Y003533D01*
X012842Y003460D01*
X013032Y003460D01*
X013207Y003533D01*
X013341Y003667D01*
X013414Y003842D01*
X013414Y004032D01*
X013341Y004207D01*
X013207Y004341D01*
X013032Y004414D01*
X012825Y004407D02*
X012049Y004407D01*
X012032Y004414D02*
X011842Y004414D01*
X011667Y004341D01*
X011533Y004207D01*
X011460Y004032D01*
X011460Y003842D01*
X011533Y003667D01*
X011667Y003533D01*
X011842Y003460D01*
X012032Y003460D01*
X012207Y003533D01*
X012341Y003667D01*
X012414Y003842D01*
X012414Y004032D01*
X012341Y004207D01*
X012207Y004341D01*
X012032Y004414D01*
X011825Y004407D02*
X011246Y004407D01*
X011300Y004248D02*
X011574Y004248D01*
X011484Y004090D02*
X011390Y004090D01*
X011414Y003931D02*
X011460Y003931D01*
X011489Y003773D02*
X011385Y003773D01*
X011288Y003614D02*
X011586Y003614D01*
X011667Y003341D02*
X011533Y003207D01*
X011460Y003032D01*
X011460Y002842D01*
X011533Y002667D01*
X011667Y002533D01*
X011842Y002460D01*
X012032Y002460D01*
X012207Y002533D01*
X012341Y002667D01*
X012414Y002842D01*
X012414Y003032D01*
X012341Y003207D01*
X012207Y003341D01*
X012032Y003414D01*
X011842Y003414D01*
X011667Y003341D01*
X011623Y003297D02*
X011252Y003297D01*
X011177Y003455D02*
X030812Y003455D01*
X030821Y003422D02*
X030746Y003397D01*
X030677Y003362D01*
X030613Y003316D01*
X030558Y003261D01*
X030512Y003197D01*
X030477Y003128D01*
X030452Y003053D01*
X030440Y002976D01*
X030440Y002956D01*
X030918Y002956D01*
X030918Y002919D01*
X030440Y002919D01*
X030440Y002898D01*
X030452Y002821D01*
X030405Y002821D01*
X030452Y002821D02*
X030477Y002746D01*
X030512Y002677D01*
X030558Y002613D01*
X030613Y002558D01*
X030677Y002512D01*
X030522Y002663D02*
X030337Y002663D01*
X030414Y002980D02*
X030441Y002980D01*
X030482Y003138D02*
X030370Y003138D01*
X030252Y003297D02*
X030594Y003297D01*
X030821Y003422D02*
X030898Y003434D01*
X030919Y003434D01*
X030919Y002956D01*
X030956Y002956D01*
X031434Y002956D01*
X031434Y002976D01*
X031422Y003053D01*
X031397Y003128D01*
X031362Y003197D01*
X031316Y003261D01*
X031261Y003316D01*
X031197Y003362D01*
X031128Y003397D01*
X031053Y003422D01*
X030976Y003434D01*
X030956Y003434D01*
X030956Y002956D01*
X030956Y002919D01*
X031434Y002919D01*
X031434Y002898D01*
X031422Y002821D01*
X031452Y002821D02*
X031440Y002898D01*
X031440Y002919D01*
X031918Y002919D01*
X031918Y002956D01*
X031440Y002956D01*
X031440Y002976D01*
X031452Y003053D01*
X031477Y003128D01*
X031512Y003197D01*
X031558Y003261D01*
X031613Y003316D01*
X031677Y003362D01*
X031746Y003397D01*
X031821Y003422D01*
X031898Y003434D01*
X031919Y003434D01*
X031919Y002956D01*
X031956Y002956D01*
X031956Y003434D01*
X031976Y003434D01*
X032053Y003422D01*
X032128Y003397D01*
X032197Y003362D01*
X032261Y003316D01*
X032316Y003261D01*
X032362Y003197D01*
X032397Y003128D01*
X032422Y003053D01*
X032434Y002976D01*
X032434Y002956D01*
X031956Y002956D01*
X031956Y002919D01*
X032434Y002919D01*
X032434Y002898D01*
X032422Y002821D01*
X033261Y002821D01*
X033210Y002793D02*
X033854Y003143D01*
X034436Y003589D01*
X034941Y004120D01*
X035357Y004724D01*
X035672Y005386D01*
X035881Y006088D01*
X035977Y006815D01*
X035982Y007176D01*
X035982Y007185D01*
X035980Y007267D01*
X035982Y007269D01*
X035982Y018602D01*
X035982Y018687D01*
X035967Y019063D01*
X035850Y019806D01*
X035617Y020522D01*
X035275Y021192D01*
X034833Y021801D01*
X034833Y021801D01*
X034301Y022333D01*
X033692Y022775D01*
X033022Y023117D01*
X032306Y023350D01*
X032113Y023380D01*
X032207Y023341D01*
X032341Y023207D01*
X032414Y023032D01*
X032414Y022842D01*
X032341Y022667D01*
X032207Y022533D01*
X032032Y022460D01*
X031842Y022460D01*
X031667Y022533D01*
X031533Y022667D01*
X031460Y022842D01*
X031460Y023032D01*
X031533Y023207D01*
X031667Y023341D01*
X031842Y023414D01*
X031901Y023414D01*
X031563Y023467D01*
X031187Y023482D01*
X006014Y023482D01*
X006033Y023468D01*
X006088Y023413D01*
X006135Y023349D01*
X006170Y023279D01*
X006195Y023204D01*
X006207Y023126D01*
X006207Y023107D01*
X005407Y023107D01*
X005407Y023067D01*
X005407Y022587D01*
X005746Y022587D01*
X005824Y022599D01*
X005899Y022624D01*
X005969Y022659D01*
X006033Y022706D01*
X006088Y022761D01*
X006135Y022825D01*
X006170Y022895D01*
X006195Y022970D01*
X006207Y023048D01*
X006207Y023067D01*
X005407Y023067D01*
X005367Y023067D01*
X005367Y022587D01*
X005028Y022587D01*
X005367Y022587D01*
X005367Y022107D01*
X005407Y022107D01*
X005407Y022587D01*
X005746Y022587D01*
X005824Y022575D01*
X005899Y022550D01*
X005969Y022515D01*
X006033Y022468D01*
X006088Y022413D01*
X006135Y022349D01*
X006170Y022279D01*
X006195Y022204D01*
X006207Y022126D01*
X006207Y022107D01*
X005407Y022107D01*
X005407Y022067D01*
X005407Y021587D01*
X005746Y021587D01*
X005824Y021599D01*
X005899Y021624D01*
X005969Y021659D01*
X006033Y021706D01*
X006088Y021761D01*
X006135Y021825D01*
X006170Y021895D01*
X006195Y021970D01*
X006207Y022048D01*
X006207Y022067D01*
X005407Y022067D01*
X005367Y022067D01*
X005367Y021587D01*
X005028Y021587D01*
X004950Y021599D01*
X004875Y021624D01*
X004805Y021659D01*
X004741Y021706D01*
X004686Y021761D01*
X004642Y021821D01*
X004642Y021315D01*
X004660Y021359D01*
X004795Y021494D01*
X004972Y021567D01*
X005803Y021567D01*
X005979Y021494D01*
X006114Y021359D01*
X006187Y021183D01*
X006187Y020992D01*
X006114Y020815D01*
X005979Y020680D01*
X005803Y020607D01*
X004972Y020607D01*
X004795Y020680D01*
X004660Y020815D01*
X004642Y020859D01*
X004642Y020315D01*
X004660Y020359D01*
X004795Y020494D01*
X004972Y020567D01*
X005803Y020567D01*
X005979Y020494D01*
X006114Y020359D01*
X006135Y020307D01*
X010196Y020307D01*
X010378Y020307D01*
X010948Y019737D01*
X012050Y019737D01*
X012224Y019737D01*
X013264Y018697D01*
X013387Y018574D01*
X013387Y012466D01*
X013417Y012538D01*
X013506Y012628D01*
X013624Y012676D01*
X013751Y012676D01*
X013868Y012628D01*
X013928Y012567D01*
X013995Y012567D01*
X014081Y012568D01*
X014082Y012567D01*
X014084Y012567D01*
X014145Y012506D01*
X014772Y011897D01*
X016446Y011897D01*
X016477Y011928D01*
X016477Y014774D01*
X016600Y014897D01*
X017100Y015397D01*
X017274Y015397D01*
X017442Y015397D01*
X017367Y015473D01*
X017309Y015612D01*
X017309Y015762D01*
X017367Y015901D01*
X017473Y016008D01*
X017612Y016065D01*
X017762Y016065D01*
X017901Y016008D01*
X018002Y015907D01*
X027778Y015907D01*
X027907Y015778D01*
X027907Y015778D01*
X028328Y015357D01*
X028328Y015357D01*
X028457Y015228D01*
X028457Y013492D01*
X028558Y013391D01*
X028615Y013252D01*
X028615Y013102D01*
X028558Y012963D01*
X028451Y012857D01*
X028312Y012799D01*
X028162Y012799D01*
X028023Y012857D01*
X027917Y012963D01*
X027859Y013102D01*
X027859Y013252D01*
X027917Y013391D01*
X028017Y013492D01*
X028017Y015046D01*
X027596Y015467D01*
X026452Y015467D01*
X026518Y015401D01*
X026575Y015262D01*
X026575Y015112D01*
X026518Y014973D01*
X026411Y014867D01*
X026287Y014815D01*
X026392Y014815D01*
X026531Y014758D01*
X026638Y014651D01*
X026695Y014512D01*
X026695Y014362D01*
X026638Y014223D01*
X026531Y014117D01*
X026436Y014077D01*
X027132Y014077D01*
X027153Y014098D01*
X027292Y014155D01*
X027442Y014155D01*
X027581Y014098D01*
X027688Y013991D01*
X027745Y013852D01*
X027745Y013702D01*
X027688Y013563D01*
X027581Y013457D01*
X027442Y013399D01*
X027292Y013399D01*
X027235Y013422D01*
X027235Y013322D01*
X027178Y013183D01*
X027071Y013077D01*
X026932Y013019D01*
X026932Y013019D01*
X028887Y011064D01*
X028887Y010898D01*
X028917Y010928D01*
X028917Y011230D01*
X028917Y011404D01*
X029877Y012364D01*
X030000Y012487D01*
X030125Y012487D01*
X030127Y012491D01*
X030233Y012598D01*
X030372Y012655D01*
X030472Y012655D01*
X030360Y012767D01*
X030089Y012767D01*
X030088Y012763D01*
X029981Y012657D01*
X029842Y012599D01*
X029692Y012599D01*
X029553Y012657D01*
X029447Y012763D01*
X029389Y012902D01*
X029389Y013052D01*
X029447Y013191D01*
X029553Y013298D01*
X029692Y013355D01*
X029842Y013355D01*
X029981Y013298D01*
X030088Y013191D01*
X030089Y013187D01*
X030360Y013187D01*
X030534Y013187D01*
X030964Y012757D01*
X031087Y012634D01*
X031087Y011964D01*
X031087Y011790D01*
X030897Y011600D01*
X030897Y008551D01*
X031001Y008508D01*
X031108Y008401D01*
X031165Y008262D01*
X031165Y008112D01*
X031108Y007973D01*
X031001Y007867D01*
X030862Y007809D01*
X030712Y007809D01*
X030573Y007867D01*
X030467Y007973D01*
X030409Y008112D01*
X030409Y008262D01*
X030467Y008401D01*
X030477Y008412D01*
X030477Y011774D01*
X030600Y011897D01*
X030658Y011955D01*
X030522Y011899D01*
X030372Y011899D01*
X030233Y011957D01*
X030148Y012041D01*
X029337Y011230D01*
X029337Y010928D01*
X029398Y010868D01*
X029446Y010751D01*
X029446Y010624D01*
X029398Y010506D01*
X029308Y010417D01*
X029221Y010381D01*
X029257Y010344D01*
X029257Y010170D01*
X029257Y009918D01*
X029318Y009858D01*
X029366Y009741D01*
X029366Y009614D01*
X029318Y009496D01*
X029228Y009407D01*
X029111Y009358D01*
X028984Y009358D01*
X028866Y009407D01*
X028777Y009496D01*
X028728Y009614D01*
X028728Y009741D01*
X028761Y009820D01*
X028748Y009807D01*
X028631Y009758D01*
X028504Y009758D01*
X028503Y009758D01*
X028506Y009751D01*
X028506Y009624D01*
X028458Y009506D01*
X028368Y009417D01*
X028251Y009368D01*
X028124Y009368D01*
X028006Y009417D01*
X027917Y009506D01*
X027868Y009624D01*
X027868Y009751D01*
X027917Y009868D01*
X027977Y009928D01*
X027977Y010000D01*
X026250Y011727D01*
X026192Y011727D01*
X026228Y011691D01*
X026285Y011552D01*
X026285Y011402D01*
X026228Y011263D01*
X026121Y011157D01*
X025982Y011099D01*
X025832Y011099D01*
X025709Y011150D01*
X025738Y011121D01*
X025795Y010982D01*
X025795Y010832D01*
X025738Y010693D01*
X025631Y010587D01*
X025492Y010529D01*
X025370Y010529D01*
X024517Y009592D01*
X024517Y009586D01*
X024456Y009525D01*
X024398Y009462D01*
X024392Y009461D01*
X024388Y009457D01*
X024302Y009457D01*
X024216Y009453D01*
X024212Y009457D01*
X018968Y009467D01*
X016920Y007419D01*
X017037Y007260D02*
X021037Y007260D01*
X021037Y007102D02*
X017065Y007102D01*
X017024Y006943D02*
X021037Y006943D01*
X021037Y006785D02*
X020454Y006785D01*
X020755Y006626D02*
X021037Y006626D01*
X021037Y006468D02*
X020913Y006468D01*
X020636Y006151D02*
X020291Y006151D01*
X020084Y006151D02*
X013197Y006151D01*
X013189Y006309D02*
X019864Y006309D01*
X019809Y006468D02*
X013123Y006468D01*
X012959Y006626D02*
X019823Y006626D01*
X019920Y006785D02*
X016873Y006785D01*
X016501Y006785D02*
X013034Y006785D01*
X013158Y006943D02*
X016350Y006943D01*
X016309Y007102D02*
X013210Y007102D01*
X013046Y007578D02*
X013823Y007578D01*
X013809Y007736D02*
X012931Y007736D01*
X013116Y007895D02*
X013864Y007895D01*
X014083Y008053D02*
X013184Y008053D01*
X013197Y008212D02*
X017091Y008212D01*
X017249Y008370D02*
X013163Y008370D01*
X013067Y008529D02*
X017408Y008529D01*
X017566Y008687D02*
X012813Y008687D01*
X012561Y008687D02*
X011984Y008687D01*
X011897Y008846D02*
X012307Y008846D01*
X012211Y009004D02*
X011897Y009004D01*
X011897Y009163D02*
X012177Y009163D01*
X012191Y009322D02*
X011897Y009322D01*
X011897Y009480D02*
X012259Y009480D01*
X012445Y009639D02*
X011897Y009639D01*
X011897Y009797D02*
X013280Y009797D01*
X013439Y009639D02*
X012930Y009639D01*
X013115Y009480D02*
X013583Y009480D01*
X013741Y009322D02*
X013183Y009322D01*
X013197Y009163D02*
X013900Y009163D01*
X014059Y009004D02*
X013163Y009004D01*
X013067Y008846D02*
X016394Y008846D01*
X016981Y008846D02*
X017725Y008846D01*
X017816Y009004D02*
X017883Y009004D01*
X017974Y009163D02*
X018042Y009163D01*
X018133Y009322D02*
X018200Y009322D01*
X018291Y009480D02*
X018359Y009480D01*
X018450Y009639D02*
X018518Y009639D01*
X018608Y009797D02*
X018676Y009797D01*
X018786Y009907D02*
X018786Y009907D01*
X018786Y009907D01*
X018767Y009956D02*
X024253Y009956D01*
X024398Y010114D02*
X024075Y010114D01*
X024234Y010273D02*
X024542Y010273D01*
X024686Y010431D02*
X024392Y010431D01*
X024551Y010590D02*
X024831Y010590D01*
X024710Y010748D02*
X024975Y010748D01*
X025036Y010907D02*
X025039Y010907D01*
X025281Y010431D02*
X027546Y010431D01*
X027704Y010273D02*
X025137Y010273D01*
X024993Y010114D02*
X027863Y010114D01*
X027977Y009956D02*
X024848Y009956D01*
X024704Y009797D02*
X027887Y009797D01*
X027868Y009639D02*
X024560Y009639D01*
X024415Y009480D02*
X027943Y009480D01*
X028431Y009480D02*
X028793Y009480D01*
X028728Y009639D02*
X028506Y009639D01*
X028725Y009797D02*
X028751Y009797D01*
X029257Y009956D02*
X030477Y009956D01*
X030477Y010114D02*
X029257Y010114D01*
X029257Y010273D02*
X030477Y010273D01*
X030477Y010431D02*
X029323Y010431D01*
X029432Y010590D02*
X030477Y010590D01*
X030477Y010748D02*
X029446Y010748D01*
X029358Y010907D02*
X030477Y010907D01*
X030477Y011066D02*
X029337Y011066D01*
X029337Y011224D02*
X030477Y011224D01*
X030477Y011383D02*
X029490Y011383D01*
X029648Y011541D02*
X030477Y011541D01*
X030477Y011700D02*
X029807Y011700D01*
X029965Y011858D02*
X030561Y011858D01*
X030173Y012017D02*
X030124Y012017D01*
X029847Y012334D02*
X027617Y012334D01*
X027459Y012492D02*
X030128Y012492D01*
X029968Y012651D02*
X030362Y012651D01*
X030912Y012809D02*
X031487Y012809D01*
X031487Y012651D02*
X031070Y012651D01*
X031087Y012492D02*
X031487Y012492D01*
X031487Y012334D02*
X031087Y012334D01*
X031087Y012175D02*
X031487Y012175D01*
X031487Y012169D02*
X031483Y012168D01*
X031377Y012061D01*
X031319Y011922D01*
X031319Y011772D01*
X031377Y011633D01*
X031483Y011527D01*
X031501Y011519D01*
X031473Y011508D01*
X031367Y011401D01*
X031309Y011262D01*
X031309Y011112D01*
X031367Y010973D01*
X031473Y010867D01*
X031477Y010865D01*
X031477Y009009D01*
X031473Y009008D01*
X031367Y008901D01*
X031309Y008762D01*
X031309Y008612D01*
X031367Y008473D01*
X031473Y008367D01*
X031612Y008309D01*
X031762Y008309D01*
X031901Y008367D01*
X032008Y008473D01*
X032065Y008612D01*
X032065Y008762D01*
X032008Y008901D01*
X031901Y009008D01*
X031897Y009009D01*
X031897Y010865D01*
X031901Y010867D01*
X032008Y010973D01*
X032065Y011112D01*
X032065Y011262D01*
X032008Y011401D01*
X031901Y011508D01*
X031883Y011515D01*
X031911Y011527D01*
X032018Y011633D01*
X032075Y011772D01*
X032075Y011922D01*
X032018Y012061D01*
X031911Y012168D01*
X031907Y012169D01*
X031907Y016136D01*
X032097Y016315D01*
X032112Y016309D01*
X032262Y016309D01*
X032401Y016367D01*
X032508Y016473D01*
X032565Y016612D01*
X032565Y016762D01*
X032508Y016901D01*
X032401Y017008D01*
X032262Y017065D01*
X032112Y017065D01*
X031973Y017008D01*
X031867Y016901D01*
X031809Y016762D01*
X031809Y016620D01*
X031614Y016437D01*
X031610Y016437D01*
X031551Y016378D01*
X031490Y016321D01*
X031490Y016317D01*
X031487Y016314D01*
X031487Y016231D01*
X031484Y016147D01*
X031487Y016144D01*
X031487Y012169D01*
X031358Y012017D02*
X031087Y012017D01*
X031087Y011858D02*
X031319Y011858D01*
X031349Y011700D02*
X030997Y011700D01*
X030897Y011541D02*
X031468Y011541D01*
X031359Y011383D02*
X030897Y011383D01*
X030897Y011224D02*
X031309Y011224D01*
X031328Y011066D02*
X030897Y011066D01*
X030897Y010907D02*
X031432Y010907D01*
X031477Y010748D02*
X030897Y010748D01*
X030897Y010590D02*
X031477Y010590D01*
X031477Y010431D02*
X030897Y010431D01*
X030897Y010273D02*
X031477Y010273D01*
X031477Y010114D02*
X030897Y010114D01*
X030897Y009956D02*
X031477Y009956D01*
X031477Y009797D02*
X030897Y009797D01*
X030897Y009639D02*
X031477Y009639D01*
X031477Y009480D02*
X030897Y009480D01*
X030897Y009322D02*
X031477Y009322D01*
X031477Y009163D02*
X030897Y009163D01*
X030897Y009004D02*
X031470Y009004D01*
X031344Y008846D02*
X030897Y008846D01*
X030897Y008687D02*
X031309Y008687D01*
X031343Y008529D02*
X030950Y008529D01*
X031120Y008370D02*
X031469Y008370D01*
X031165Y008212D02*
X032327Y008212D01*
X032327Y008370D02*
X031905Y008370D01*
X032031Y008529D02*
X032327Y008529D01*
X032248Y008687D02*
X032065Y008687D01*
X032031Y008846D02*
X032263Y008846D01*
X032373Y009004D02*
X031904Y009004D01*
X031897Y009163D02*
X032977Y009163D01*
X032977Y009322D02*
X031897Y009322D01*
X031897Y009480D02*
X032977Y009480D01*
X032977Y009639D02*
X031897Y009639D01*
X031897Y009797D02*
X032977Y009797D01*
X032977Y009956D02*
X031897Y009956D01*
X031897Y010114D02*
X032977Y010114D01*
X032977Y010273D02*
X031897Y010273D01*
X031897Y010431D02*
X032977Y010431D01*
X032977Y010590D02*
X031897Y010590D01*
X031897Y010748D02*
X032977Y010748D01*
X032977Y010907D02*
X031942Y010907D01*
X032046Y011066D02*
X032977Y011066D01*
X032977Y011224D02*
X032065Y011224D01*
X032015Y011383D02*
X032977Y011383D01*
X032977Y011541D02*
X031926Y011541D01*
X032045Y011700D02*
X032977Y011700D01*
X032977Y011858D02*
X032075Y011858D01*
X032036Y012017D02*
X032977Y012017D01*
X032977Y012175D02*
X031907Y012175D01*
X031907Y012334D02*
X032977Y012334D01*
X032977Y012492D02*
X031907Y012492D01*
X031907Y012651D02*
X032977Y012651D01*
X032977Y012809D02*
X031907Y012809D01*
X031907Y012968D02*
X032977Y012968D01*
X032976Y013127D02*
X031907Y013127D01*
X031907Y013285D02*
X032876Y013285D01*
X032873Y013444D02*
X031907Y013444D01*
X031907Y013602D02*
X032971Y013602D01*
X033403Y013602D02*
X034720Y013602D01*
X034719Y013603D02*
X034819Y013502D01*
X034951Y013448D01*
X035093Y013448D01*
X035215Y013499D01*
X035215Y012792D01*
X035134Y012711D01*
X035077Y012572D01*
X035077Y012430D01*
X034951Y012430D01*
X034819Y012376D01*
X034719Y012275D01*
X034665Y012144D01*
X034665Y012002D01*
X034719Y011871D01*
X034819Y011770D01*
X034951Y011716D01*
X035093Y011716D01*
X035215Y011766D01*
X035215Y009608D01*
X035093Y009658D01*
X034951Y009658D01*
X034819Y009604D01*
X034719Y009504D01*
X034665Y009372D01*
X034665Y009230D01*
X034719Y009099D01*
X034819Y008998D01*
X034951Y008944D01*
X035093Y008944D01*
X035215Y008995D01*
X035215Y008482D01*
X035134Y008401D01*
X035077Y008262D01*
X035077Y008112D01*
X035134Y007973D01*
X035241Y007867D01*
X035380Y007809D01*
X035530Y007809D01*
X035669Y007867D01*
X035775Y007973D01*
X035833Y008112D01*
X035833Y008262D01*
X035775Y008401D01*
X035695Y008482D01*
X035695Y012202D01*
X035775Y012283D01*
X035833Y012422D01*
X035833Y012572D01*
X035775Y012711D01*
X035695Y012792D01*
X035695Y016782D01*
X035775Y016863D01*
X035833Y017002D01*
X035833Y017152D01*
X035775Y017291D01*
X035669Y017398D01*
X035530Y017455D01*
X035478Y017455D01*
X035001Y017948D01*
X035093Y017948D01*
X035224Y018002D01*
X035324Y018103D01*
X035379Y018234D01*
X035379Y018376D01*
X035324Y018507D01*
X035224Y018608D01*
X035093Y018662D01*
X034951Y018662D01*
X034819Y018608D01*
X034719Y018507D01*
X034665Y018376D01*
X034665Y018234D01*
X034717Y018107D01*
X034677Y018108D01*
X034675Y018107D01*
X033207Y018107D01*
X032987Y018266D01*
X032987Y018355D01*
X032987Y018426D01*
X033048Y018486D01*
X033096Y018604D01*
X033096Y018731D01*
X033048Y018848D01*
X032958Y018938D01*
X032841Y018986D01*
X032714Y018986D01*
X032596Y018938D01*
X032507Y018848D01*
X032458Y018731D01*
X032458Y018604D01*
X032507Y018486D01*
X032526Y018467D01*
X030210Y018467D01*
X030177Y018472D01*
X030155Y018467D01*
X030131Y018467D01*
X030101Y018454D01*
X030069Y018447D01*
X030050Y018433D01*
X030028Y018424D01*
X030005Y018401D01*
X029597Y018107D01*
X026261Y018107D01*
X026158Y018064D01*
X026080Y017986D01*
X026080Y017986D01*
X025990Y017896D01*
X025947Y017793D01*
X025947Y017712D01*
X025907Y017671D01*
X025849Y017532D01*
X025849Y017382D01*
X025907Y017243D01*
X026013Y017137D01*
X026152Y017079D01*
X026302Y017079D01*
X026441Y017137D01*
X026548Y017243D01*
X026605Y017382D01*
X026605Y017532D01*
X026599Y017547D01*
X029664Y017547D01*
X029697Y017542D01*
X029720Y017547D01*
X029743Y017547D01*
X029773Y017560D01*
X029805Y017567D01*
X029824Y017581D01*
X029846Y017590D01*
X029869Y017613D01*
X030277Y017907D01*
X032527Y017907D01*
X032545Y017894D01*
X032935Y017613D01*
X032958Y017590D01*
X032980Y017581D01*
X032999Y017567D01*
X033031Y017560D01*
X033061Y017547D01*
X033085Y017547D01*
X033107Y017542D01*
X033140Y017547D01*
X034610Y017547D01*
X035077Y017065D01*
X035077Y017002D01*
X035109Y016923D01*
X035093Y016930D01*
X034951Y016930D01*
X034819Y016876D01*
X034719Y016775D01*
X034665Y016644D01*
X034665Y016502D01*
X034719Y016371D01*
X034819Y016270D01*
X034951Y016216D01*
X035093Y016216D01*
X035215Y016266D01*
X035215Y014112D01*
X035093Y014162D01*
X034951Y014162D01*
X034819Y014108D01*
X034719Y014007D01*
X034665Y013876D01*
X034665Y013734D01*
X034719Y013603D01*
X034665Y013761D02*
X031907Y013761D01*
X031907Y013919D02*
X034682Y013919D01*
X034789Y014078D02*
X031907Y014078D01*
X031907Y014236D02*
X035215Y014236D01*
X035215Y014395D02*
X031907Y014395D01*
X031907Y014553D02*
X035215Y014553D01*
X035215Y014712D02*
X031907Y014712D01*
X031907Y014871D02*
X035215Y014871D01*
X035215Y015029D02*
X031907Y015029D01*
X031907Y015188D02*
X035215Y015188D01*
X035215Y015346D02*
X031907Y015346D01*
X031907Y015505D02*
X035215Y015505D01*
X035215Y015663D02*
X031907Y015663D01*
X031907Y015822D02*
X035215Y015822D01*
X035215Y015980D02*
X031907Y015980D01*
X031910Y016139D02*
X035215Y016139D01*
X034792Y016297D02*
X032079Y016297D01*
X031803Y016615D02*
X028071Y016615D01*
X027912Y016773D02*
X031813Y016773D01*
X031897Y016932D02*
X024383Y016932D01*
X024368Y016917D02*
X024458Y017006D01*
X024506Y017124D01*
X024506Y017251D01*
X024458Y017368D01*
X024397Y017428D01*
X024397Y017554D01*
X024417Y017506D01*
X024506Y017417D01*
X024624Y017368D01*
X024751Y017368D01*
X024868Y017417D01*
X024958Y017506D01*
X025006Y017624D01*
X025006Y017751D01*
X024958Y017868D01*
X024868Y017958D01*
X024751Y018006D01*
X024737Y018006D01*
X024737Y018228D01*
X024767Y018156D01*
X024856Y018067D01*
X024974Y018018D01*
X025101Y018018D01*
X025218Y018067D01*
X025278Y018127D01*
X027750Y018127D01*
X027924Y018127D01*
X028108Y018311D01*
X028112Y018309D01*
X028262Y018309D01*
X028401Y018367D01*
X028508Y018473D01*
X028565Y018612D01*
X028565Y018762D01*
X028508Y018901D01*
X028401Y019008D01*
X028262Y019065D01*
X028112Y019065D01*
X027973Y019008D01*
X027867Y018901D01*
X027809Y018762D01*
X027809Y018612D01*
X027811Y018608D01*
X027750Y018547D01*
X025278Y018547D01*
X025218Y018608D01*
X025101Y018656D01*
X024974Y018656D01*
X024904Y018627D01*
X024994Y018717D01*
X027340Y018717D01*
X027514Y018717D01*
X028108Y019311D01*
X028112Y019309D01*
X028262Y019309D01*
X028401Y019367D01*
X028508Y019473D01*
X028565Y019612D01*
X028565Y019762D01*
X028508Y019901D01*
X028401Y020008D01*
X028262Y020065D01*
X028112Y020065D01*
X027973Y020008D01*
X027867Y019901D01*
X027809Y019762D01*
X027809Y019612D01*
X027811Y019608D01*
X027340Y019137D01*
X026934Y019137D01*
X028108Y020311D01*
X028112Y020309D01*
X028262Y020309D01*
X028401Y020367D01*
X028508Y020473D01*
X028565Y020612D01*
X028565Y020762D01*
X028508Y020901D01*
X028401Y021008D01*
X028262Y021065D01*
X028112Y021065D01*
X027973Y021008D01*
X027867Y020901D01*
X027809Y020762D01*
X027809Y020612D01*
X027811Y020608D01*
X026600Y019397D01*
X025320Y019397D01*
X025368Y019417D01*
X025458Y019506D01*
X025506Y019624D01*
X025506Y019751D01*
X025458Y019868D01*
X025368Y019958D01*
X025251Y020006D01*
X025124Y020006D01*
X025006Y019958D01*
X024956Y019907D01*
X022778Y019907D01*
X022444Y020241D01*
X022476Y020255D01*
X022619Y020398D01*
X022687Y020562D01*
X022755Y020398D01*
X022898Y020255D01*
X023086Y020177D01*
X023289Y020177D01*
X023476Y020255D01*
X023619Y020398D01*
X023697Y020586D01*
X023697Y020789D01*
X023619Y020976D01*
X023476Y021119D01*
X023289Y021197D01*
X023086Y021197D01*
X022898Y021119D01*
X022755Y020976D01*
X022687Y020813D01*
X022619Y020976D01*
X022476Y021119D01*
X022289Y021197D01*
X022086Y021197D01*
X021898Y021119D01*
X021755Y020976D01*
X021696Y020835D01*
X021678Y020891D01*
X021640Y020965D01*
X021591Y021032D01*
X021532Y021091D01*
X021465Y021140D01*
X021391Y021178D01*
X021311Y021204D01*
X021229Y021217D01*
X021207Y021217D01*
X021207Y020707D01*
X021167Y020707D01*
X021167Y020667D01*
X021207Y020667D01*
X021207Y020157D01*
X021229Y020157D01*
X021311Y020170D01*
X021391Y020196D01*
X021465Y020234D01*
X021532Y020283D01*
X021591Y020342D01*
X021640Y020409D01*
X021678Y020484D01*
X021696Y020539D01*
X021755Y020398D01*
X021898Y020255D01*
X021967Y020226D01*
X021967Y020096D01*
X022096Y019967D01*
X022596Y019467D01*
X022778Y019467D01*
X024956Y019467D01*
X025006Y019417D01*
X025054Y019397D01*
X024774Y019397D01*
X024600Y019397D01*
X024100Y018897D01*
X023977Y018774D01*
X023977Y017428D01*
X023917Y017368D01*
X023868Y017251D01*
X023868Y017124D01*
X023917Y017006D01*
X024006Y016917D01*
X024029Y016907D01*
X016002Y016907D01*
X015901Y017008D01*
X015762Y017065D01*
X015612Y017065D01*
X015473Y017008D01*
X015367Y016901D01*
X015309Y016762D01*
X015309Y016612D01*
X015367Y016473D01*
X015473Y016367D01*
X015612Y016309D01*
X015762Y016309D01*
X015901Y016367D01*
X016002Y016467D01*
X027596Y016467D01*
X028467Y015596D01*
X028467Y013996D01*
X028460Y013915D01*
X028467Y013907D01*
X028467Y013896D01*
X028475Y013888D01*
X028469Y013872D01*
X028469Y013722D01*
X028527Y013583D01*
X028633Y013477D01*
X028772Y013419D01*
X028922Y013419D01*
X029061Y013477D01*
X029168Y013583D01*
X029225Y013722D01*
X029225Y013872D01*
X029168Y014011D01*
X029061Y014118D01*
X028922Y014175D01*
X028907Y014175D01*
X028907Y015778D01*
X028778Y015907D01*
X027778Y016907D01*
X027596Y016907D01*
X024345Y016907D01*
X024368Y016917D01*
X024492Y017090D02*
X026125Y017090D01*
X026329Y017090D02*
X030499Y017090D01*
X030467Y017123D02*
X030573Y017017D01*
X030712Y016959D01*
X030862Y016959D01*
X031001Y017017D01*
X031108Y017123D01*
X031109Y017127D01*
X031362Y017127D01*
X031423Y017067D01*
X031562Y017009D01*
X031712Y017009D01*
X031851Y017067D01*
X031958Y017173D01*
X032015Y017312D01*
X032015Y017462D01*
X031958Y017601D01*
X031851Y017708D01*
X031712Y017765D01*
X031562Y017765D01*
X031423Y017708D01*
X031317Y017601D01*
X031294Y017547D01*
X031109Y017547D01*
X031108Y017551D01*
X031001Y017658D01*
X030862Y017715D01*
X030712Y017715D01*
X030573Y017658D01*
X030467Y017551D01*
X030409Y017412D01*
X030409Y017262D01*
X030467Y017123D01*
X030414Y017249D02*
X026550Y017249D01*
X026605Y017407D02*
X030409Y017407D01*
X030481Y017566D02*
X029799Y017566D01*
X030024Y017724D02*
X031463Y017724D01*
X031302Y017566D02*
X031093Y017566D01*
X031075Y017090D02*
X031399Y017090D01*
X031875Y017090D02*
X035052Y017090D01*
X035106Y016932D02*
X032477Y016932D01*
X032561Y016773D02*
X034718Y016773D01*
X034665Y016615D02*
X032565Y016615D01*
X032491Y016456D02*
X034684Y016456D01*
X034899Y017249D02*
X031989Y017249D01*
X032015Y017407D02*
X034745Y017407D01*
X035217Y017724D02*
X035982Y017724D01*
X035982Y017566D02*
X035371Y017566D01*
X035646Y017407D02*
X035982Y017407D01*
X035982Y017249D02*
X035793Y017249D01*
X035833Y017090D02*
X035982Y017090D01*
X035982Y016932D02*
X035804Y016932D01*
X035695Y016773D02*
X035982Y016773D01*
X035982Y016615D02*
X035695Y016615D01*
X035695Y016456D02*
X035982Y016456D01*
X035982Y016297D02*
X035695Y016297D01*
X035695Y016139D02*
X035982Y016139D01*
X035982Y015980D02*
X035695Y015980D01*
X035695Y015822D02*
X035982Y015822D01*
X035982Y015663D02*
X035695Y015663D01*
X035695Y015505D02*
X035982Y015505D01*
X035982Y015346D02*
X035695Y015346D01*
X035695Y015188D02*
X035982Y015188D01*
X035982Y015029D02*
X035695Y015029D01*
X035695Y014871D02*
X035982Y014871D01*
X035982Y014712D02*
X035695Y014712D01*
X035695Y014553D02*
X035982Y014553D01*
X035982Y014395D02*
X035695Y014395D01*
X035695Y014236D02*
X035982Y014236D01*
X035982Y014078D02*
X035695Y014078D01*
X035695Y013919D02*
X035982Y013919D01*
X035982Y013761D02*
X035695Y013761D01*
X035695Y013602D02*
X035982Y013602D01*
X035982Y013444D02*
X035695Y013444D01*
X035695Y013285D02*
X035982Y013285D01*
X035982Y013127D02*
X035695Y013127D01*
X035695Y012968D02*
X035982Y012968D01*
X035982Y012809D02*
X035695Y012809D01*
X035800Y012651D02*
X035982Y012651D01*
X035982Y012492D02*
X035833Y012492D01*
X035796Y012334D02*
X035982Y012334D01*
X035982Y012175D02*
X035695Y012175D01*
X035695Y012017D02*
X035982Y012017D01*
X035982Y011858D02*
X035695Y011858D01*
X035695Y011700D02*
X035982Y011700D01*
X035982Y011541D02*
X035695Y011541D01*
X035695Y011383D02*
X035982Y011383D01*
X035982Y011224D02*
X035695Y011224D01*
X035695Y011066D02*
X035982Y011066D01*
X035982Y010907D02*
X035695Y010907D01*
X035695Y010748D02*
X035982Y010748D01*
X035982Y010590D02*
X035695Y010590D01*
X035695Y010431D02*
X035982Y010431D01*
X035982Y010273D02*
X035695Y010273D01*
X035695Y010114D02*
X035982Y010114D01*
X035982Y009956D02*
X035695Y009956D01*
X035695Y009797D02*
X035982Y009797D01*
X035982Y009639D02*
X035695Y009639D01*
X035695Y009480D02*
X035982Y009480D01*
X035982Y009322D02*
X035695Y009322D01*
X035695Y009163D02*
X035982Y009163D01*
X035982Y009004D02*
X035695Y009004D01*
X035695Y008846D02*
X035982Y008846D01*
X035982Y008687D02*
X035695Y008687D01*
X035695Y008529D02*
X035982Y008529D01*
X035982Y008370D02*
X035788Y008370D01*
X035833Y008212D02*
X035982Y008212D01*
X035982Y008053D02*
X035809Y008053D01*
X035697Y007895D02*
X035982Y007895D01*
X035982Y007736D02*
X035339Y007736D01*
X035324Y007771D02*
X035224Y007872D01*
X035093Y007926D01*
X034951Y007926D01*
X034819Y007872D01*
X034719Y007771D01*
X034665Y007640D01*
X034665Y007498D01*
X034719Y007367D01*
X034819Y007266D01*
X034951Y007212D01*
X035093Y007212D01*
X035224Y007266D01*
X035324Y007367D01*
X035379Y007498D01*
X035379Y007640D01*
X035324Y007771D01*
X035212Y007895D02*
X035169Y007895D01*
X035101Y008053D02*
X033397Y008053D01*
X033397Y007895D02*
X034875Y007895D01*
X034704Y007736D02*
X033397Y007736D01*
X033375Y007578D02*
X034665Y007578D01*
X034697Y007419D02*
X033216Y007419D01*
X033057Y007260D02*
X034833Y007260D01*
X035210Y007260D02*
X035980Y007260D01*
X035981Y007102D02*
X032899Y007102D01*
X032622Y007419D02*
X032336Y007419D01*
X032494Y007578D02*
X032781Y007578D01*
X032653Y007736D02*
X032939Y007736D01*
X032977Y007895D02*
X032747Y007895D01*
X032747Y008053D02*
X032977Y008053D01*
X032977Y008212D02*
X032747Y008212D01*
X032747Y008370D02*
X032977Y008370D01*
X032977Y008529D02*
X032800Y008529D01*
X032886Y008687D02*
X032977Y008687D01*
X032977Y008846D02*
X032871Y008846D01*
X032977Y009004D02*
X032761Y009004D01*
X033397Y009004D02*
X034813Y009004D01*
X034692Y009163D02*
X033397Y009163D01*
X033397Y009322D02*
X034665Y009322D01*
X034709Y009480D02*
X033397Y009480D01*
X033397Y009639D02*
X034903Y009639D01*
X035140Y009639D02*
X035215Y009639D01*
X035215Y009797D02*
X033397Y009797D01*
X033397Y009956D02*
X035215Y009956D01*
X035215Y010114D02*
X033397Y010114D01*
X033397Y010273D02*
X035215Y010273D01*
X035215Y010431D02*
X033397Y010431D01*
X033397Y010590D02*
X035215Y010590D01*
X035215Y010748D02*
X033397Y010748D01*
X033397Y010907D02*
X035215Y010907D01*
X035215Y011066D02*
X033397Y011066D01*
X033397Y011224D02*
X035215Y011224D01*
X035215Y011383D02*
X033397Y011383D01*
X033397Y011541D02*
X035215Y011541D01*
X035215Y011700D02*
X033397Y011700D01*
X033397Y011858D02*
X034731Y011858D01*
X034665Y012017D02*
X033397Y012017D01*
X033397Y012175D02*
X034678Y012175D01*
X034778Y012334D02*
X033397Y012334D01*
X033397Y012492D02*
X035077Y012492D01*
X035109Y012651D02*
X033397Y012651D01*
X033397Y012809D02*
X035215Y012809D01*
X035215Y012968D02*
X033397Y012968D01*
X033398Y013127D02*
X035215Y013127D01*
X035215Y013285D02*
X033498Y013285D01*
X033501Y013444D02*
X035215Y013444D01*
X035455Y012497D02*
X035455Y008187D01*
X035077Y008212D02*
X033397Y008212D01*
X033397Y008370D02*
X035121Y008370D01*
X035215Y008529D02*
X033397Y008529D01*
X033397Y008687D02*
X035215Y008687D01*
X035215Y008846D02*
X033397Y008846D01*
X032327Y008053D02*
X031141Y008053D01*
X031029Y007895D02*
X032218Y007895D01*
X030545Y007895D02*
X030486Y007895D01*
X030433Y008053D02*
X030328Y008053D01*
X030409Y008212D02*
X030169Y008212D01*
X030011Y008370D02*
X030454Y008370D01*
X030477Y008529D02*
X029852Y008529D01*
X030477Y008687D02*
X027079Y008687D01*
X026844Y008846D02*
X030477Y008846D01*
X030477Y009004D02*
X026764Y009004D01*
X028274Y010297D02*
X028305Y010266D01*
X028328Y010289D01*
X026410Y012207D01*
X021870Y012207D01*
X021747Y012330D01*
X021600Y012477D01*
X021477Y012600D01*
X021477Y013605D01*
X021473Y013607D01*
X021367Y013713D01*
X021309Y013852D01*
X021309Y014002D01*
X021367Y014141D01*
X021473Y014248D01*
X021612Y014305D01*
X021762Y014305D01*
X021901Y014248D01*
X022008Y014141D01*
X022065Y014002D01*
X022065Y013852D01*
X022008Y013713D01*
X021901Y013607D01*
X021897Y013605D01*
X021897Y013192D01*
X021973Y013268D01*
X022112Y013325D01*
X022262Y013325D01*
X022401Y013268D01*
X022508Y013161D01*
X022509Y013157D01*
X024362Y013157D01*
X024327Y013193D01*
X024269Y013332D01*
X024269Y013482D01*
X024327Y013621D01*
X024433Y013728D01*
X024572Y013785D01*
X024722Y013785D01*
X024861Y013728D01*
X024962Y013627D01*
X025112Y013627D01*
X025097Y013643D01*
X025039Y013782D01*
X025039Y013932D01*
X025097Y014071D01*
X025203Y014178D01*
X025342Y014235D01*
X025492Y014235D01*
X025631Y014178D01*
X025732Y014077D01*
X026198Y014077D01*
X026103Y014117D01*
X025997Y014223D01*
X025991Y014237D01*
X023939Y014237D01*
X023938Y014233D01*
X023831Y014127D01*
X023692Y014069D01*
X023542Y014069D01*
X023403Y014127D01*
X023297Y014233D01*
X023239Y014372D01*
X023239Y014522D01*
X023297Y014661D01*
X023403Y014768D01*
X023542Y014825D01*
X023692Y014825D01*
X023831Y014768D01*
X023938Y014661D01*
X023939Y014657D01*
X026002Y014657D01*
X026103Y014758D01*
X026227Y014809D01*
X026122Y014809D01*
X025983Y014867D01*
X025877Y014973D01*
X025875Y014977D01*
X017274Y014977D01*
X016897Y014600D01*
X016897Y011928D01*
X016958Y011868D01*
X017006Y011751D01*
X017006Y011624D01*
X016958Y011506D01*
X016868Y011417D01*
X016751Y011368D01*
X016624Y011368D01*
X016506Y011417D01*
X016446Y011477D01*
X014690Y011477D01*
X014603Y011476D01*
X014602Y011477D01*
X014600Y011477D01*
X014540Y011537D01*
X013920Y012139D01*
X013868Y012087D01*
X013751Y012038D01*
X013624Y012038D01*
X013506Y012087D01*
X013417Y012176D01*
X013387Y012248D01*
X013387Y011796D01*
X013417Y011868D01*
X013506Y011958D01*
X013624Y012006D01*
X013751Y012006D01*
X013868Y011958D01*
X013958Y011868D01*
X014006Y011751D01*
X014006Y011665D01*
X014774Y010897D01*
X023600Y010897D01*
X024430Y011727D01*
X021779Y011727D01*
X021778Y011723D01*
X021671Y011617D01*
X021532Y011559D01*
X021382Y011559D01*
X021243Y011617D01*
X021137Y011723D01*
X021079Y011862D01*
X021079Y012012D01*
X021137Y012151D01*
X021243Y012258D01*
X021382Y012315D01*
X021532Y012315D01*
X021671Y012258D01*
X021778Y012151D01*
X021779Y012147D01*
X026250Y012147D01*
X026424Y012147D01*
X028274Y010297D01*
X028298Y010273D02*
X028312Y010273D01*
X028186Y010431D02*
X028140Y010431D01*
X028027Y010590D02*
X027981Y010590D01*
X027869Y010748D02*
X027823Y010748D01*
X027710Y010907D02*
X027664Y010907D01*
X027552Y011066D02*
X027506Y011066D01*
X027393Y011224D02*
X027347Y011224D01*
X027235Y011383D02*
X027189Y011383D01*
X027076Y011541D02*
X027030Y011541D01*
X026917Y011700D02*
X026871Y011700D01*
X026759Y011858D02*
X026713Y011858D01*
X026600Y012017D02*
X026554Y012017D01*
X026442Y012175D02*
X021754Y012175D01*
X021743Y012334D02*
X016897Y012334D01*
X016897Y012492D02*
X021585Y012492D01*
X021477Y012651D02*
X016897Y012651D01*
X016897Y012809D02*
X021477Y012809D01*
X021477Y012968D02*
X016897Y012968D01*
X016897Y013127D02*
X021477Y013127D01*
X021477Y013285D02*
X016897Y013285D01*
X016897Y013444D02*
X021477Y013444D01*
X021477Y013602D02*
X016897Y013602D01*
X016897Y013761D02*
X021347Y013761D01*
X021309Y013919D02*
X016897Y013919D01*
X016897Y014078D02*
X021340Y014078D01*
X021462Y014236D02*
X016897Y014236D01*
X016897Y014395D02*
X023239Y014395D01*
X023252Y014553D02*
X016897Y014553D01*
X017009Y014712D02*
X023347Y014712D01*
X023295Y014236D02*
X021912Y014236D01*
X022034Y014078D02*
X023520Y014078D01*
X023714Y014078D02*
X025103Y014078D01*
X025039Y013919D02*
X022065Y013919D01*
X022027Y013761D02*
X024513Y013761D01*
X024319Y013602D02*
X021897Y013602D01*
X021897Y013444D02*
X024269Y013444D01*
X024288Y013285D02*
X022359Y013285D01*
X022015Y013285D02*
X021897Y013285D01*
X021161Y012175D02*
X016897Y012175D01*
X016897Y012017D02*
X021081Y012017D01*
X021080Y011858D02*
X016961Y011858D01*
X017006Y011700D02*
X021160Y011700D01*
X021754Y011700D02*
X024403Y011700D01*
X024244Y011541D02*
X016972Y011541D01*
X016786Y011383D02*
X024086Y011383D01*
X023927Y011224D02*
X014447Y011224D01*
X014289Y011383D02*
X016588Y011383D01*
X016477Y012017D02*
X015191Y012017D01*
X015171Y011997D02*
X015278Y012103D01*
X015335Y012242D01*
X015335Y012392D01*
X015278Y012531D01*
X015171Y012638D01*
X015167Y012639D01*
X015167Y013330D01*
X015167Y013468D01*
X015207Y013373D01*
X015313Y013267D01*
X015317Y013265D01*
X015317Y012874D01*
X015317Y012700D01*
X015558Y012459D01*
X015558Y012374D01*
X015607Y012256D01*
X015696Y012167D01*
X015814Y012118D01*
X015941Y012118D01*
X016058Y012167D01*
X016148Y012256D01*
X016196Y012374D01*
X016196Y012501D01*
X016148Y012618D01*
X016058Y012708D01*
X015941Y012756D01*
X015855Y012756D01*
X015737Y012874D01*
X015737Y013265D01*
X015741Y013267D01*
X015848Y013373D01*
X015905Y013512D01*
X015905Y013662D01*
X015848Y013801D01*
X015741Y013908D01*
X015602Y013965D01*
X015452Y013965D01*
X015313Y013908D01*
X015207Y013801D01*
X015149Y013662D01*
X015149Y013522D01*
X014397Y014274D01*
X014397Y015248D01*
X014441Y015267D01*
X014548Y015373D01*
X014605Y015512D01*
X014605Y015662D01*
X014548Y015801D01*
X014441Y015908D01*
X014302Y015965D01*
X014152Y015965D01*
X014013Y015908D01*
X013907Y015801D01*
X013849Y015662D01*
X013849Y015512D01*
X013907Y015373D01*
X013977Y015302D01*
X013977Y014100D01*
X014100Y013977D01*
X014747Y013330D01*
X014747Y012639D01*
X014743Y012638D01*
X014637Y012531D01*
X014579Y012392D01*
X014579Y012242D01*
X014637Y012103D01*
X014743Y011997D01*
X014882Y011939D01*
X015032Y011939D01*
X015171Y011997D01*
X015308Y012175D02*
X015688Y012175D01*
X015574Y012334D02*
X015335Y012334D01*
X015294Y012492D02*
X015525Y012492D01*
X015366Y012651D02*
X015167Y012651D01*
X015167Y012809D02*
X015317Y012809D01*
X015317Y012968D02*
X015167Y012968D01*
X015167Y013127D02*
X015317Y013127D01*
X015294Y013285D02*
X015167Y013285D01*
X015167Y013444D02*
X015177Y013444D01*
X015149Y013602D02*
X015069Y013602D01*
X015190Y013761D02*
X014910Y013761D01*
X014752Y013919D02*
X015341Y013919D01*
X015713Y013919D02*
X016477Y013919D01*
X016477Y013761D02*
X015864Y013761D01*
X015905Y013602D02*
X016477Y013602D01*
X016477Y013444D02*
X015877Y013444D01*
X015760Y013285D02*
X016477Y013285D01*
X016477Y013127D02*
X015737Y013127D01*
X015737Y012968D02*
X016477Y012968D01*
X016477Y012809D02*
X015802Y012809D01*
X016114Y012651D02*
X016477Y012651D01*
X016477Y012492D02*
X016196Y012492D01*
X016180Y012334D02*
X016477Y012334D01*
X016477Y012175D02*
X016066Y012175D01*
X014723Y012017D02*
X014649Y012017D01*
X014606Y012175D02*
X014486Y012175D01*
X014579Y012334D02*
X014322Y012334D01*
X014159Y012492D02*
X014620Y012492D01*
X014747Y012651D02*
X013811Y012651D01*
X013563Y012651D02*
X013387Y012651D01*
X013387Y012809D02*
X014747Y012809D01*
X014747Y012968D02*
X013387Y012968D01*
X013387Y013127D02*
X014747Y013127D01*
X014747Y013285D02*
X013387Y013285D01*
X013387Y013444D02*
X014634Y013444D01*
X014475Y013602D02*
X013387Y013602D01*
X013387Y013761D02*
X014316Y013761D01*
X014158Y013919D02*
X013387Y013919D01*
X013387Y014078D02*
X013999Y014078D01*
X013977Y014236D02*
X013387Y014236D01*
X013387Y014395D02*
X013977Y014395D01*
X013977Y014553D02*
X013387Y014553D01*
X013387Y014712D02*
X013977Y014712D01*
X013977Y014871D02*
X013387Y014871D01*
X013387Y015029D02*
X013977Y015029D01*
X013977Y015188D02*
X013387Y015188D01*
X013387Y015346D02*
X013933Y015346D01*
X013852Y015505D02*
X013387Y015505D01*
X013387Y015663D02*
X013849Y015663D01*
X013927Y015822D02*
X013387Y015822D01*
X013387Y015980D02*
X017446Y015980D01*
X017334Y015822D02*
X014527Y015822D01*
X014605Y015663D02*
X017309Y015663D01*
X017353Y015505D02*
X014602Y015505D01*
X014521Y015346D02*
X017049Y015346D01*
X016891Y015188D02*
X014397Y015188D01*
X014397Y015029D02*
X016732Y015029D01*
X016574Y014871D02*
X014397Y014871D01*
X014397Y014712D02*
X016477Y014712D01*
X016477Y014553D02*
X014397Y014553D01*
X014397Y014395D02*
X016477Y014395D01*
X016477Y014236D02*
X014435Y014236D01*
X014593Y014078D02*
X016477Y014078D01*
X017168Y014871D02*
X025979Y014871D01*
X026057Y014712D02*
X023887Y014712D01*
X023939Y014236D02*
X025991Y014236D01*
X026196Y014078D02*
X025731Y014078D01*
X025048Y013761D02*
X024781Y013761D01*
X026438Y014078D02*
X027133Y014078D01*
X027601Y014078D02*
X028017Y014078D01*
X028017Y014236D02*
X026643Y014236D01*
X026695Y014395D02*
X028017Y014395D01*
X028017Y014553D02*
X026678Y014553D01*
X026577Y014712D02*
X028017Y014712D01*
X028017Y014871D02*
X026415Y014871D01*
X026541Y015029D02*
X028017Y015029D01*
X027875Y015188D02*
X026575Y015188D01*
X026540Y015346D02*
X027717Y015346D01*
X028022Y015663D02*
X028400Y015663D01*
X028467Y015505D02*
X028180Y015505D01*
X028339Y015346D02*
X028467Y015346D01*
X028457Y015188D02*
X028467Y015188D01*
X028457Y015029D02*
X028467Y015029D01*
X028457Y014871D02*
X028467Y014871D01*
X028457Y014712D02*
X028467Y014712D01*
X028457Y014553D02*
X028467Y014553D01*
X028457Y014395D02*
X028467Y014395D01*
X028457Y014236D02*
X028467Y014236D01*
X028457Y014078D02*
X028467Y014078D01*
X028457Y013919D02*
X028461Y013919D01*
X028457Y013761D02*
X028469Y013761D01*
X028457Y013602D02*
X028519Y013602D01*
X028505Y013444D02*
X028712Y013444D01*
X028602Y013285D02*
X029540Y013285D01*
X029420Y013127D02*
X028615Y013127D01*
X028560Y012968D02*
X029389Y012968D01*
X029427Y012809D02*
X028338Y012809D01*
X028136Y012809D02*
X027142Y012809D01*
X027300Y012651D02*
X029566Y012651D01*
X029688Y012175D02*
X027776Y012175D01*
X027934Y012017D02*
X029530Y012017D01*
X029371Y011858D02*
X028093Y011858D01*
X028251Y011700D02*
X029213Y011700D01*
X029054Y011541D02*
X028410Y011541D01*
X028569Y011383D02*
X028917Y011383D01*
X028917Y011224D02*
X028727Y011224D01*
X028886Y011066D02*
X028917Y011066D01*
X028896Y010907D02*
X028887Y010907D01*
X029343Y009797D02*
X030477Y009797D01*
X030477Y009639D02*
X029366Y009639D01*
X029301Y009480D02*
X030477Y009480D01*
X030477Y009322D02*
X018823Y009322D01*
X018664Y009163D02*
X030477Y009163D01*
X029500Y007578D02*
X029196Y007578D01*
X029354Y007419D02*
X029658Y007419D01*
X029499Y007260D02*
X029817Y007260D01*
X029975Y007102D02*
X029499Y007102D01*
X029600Y006943D02*
X035979Y006943D01*
X035973Y006785D02*
X029666Y006785D01*
X029667Y006626D02*
X035952Y006626D01*
X035931Y006468D02*
X029616Y006468D01*
X029488Y006309D02*
X035910Y006309D01*
X035889Y006151D02*
X029402Y006151D01*
X029561Y005992D02*
X035853Y005992D01*
X035806Y005834D02*
X029667Y005834D01*
X029667Y005675D02*
X035758Y005675D01*
X035711Y005516D02*
X034501Y005516D01*
X034659Y005358D02*
X035659Y005358D01*
X035584Y005199D02*
X034791Y005199D01*
X034857Y005041D02*
X035508Y005041D01*
X035432Y004882D02*
X034922Y004882D01*
X034922Y004724D02*
X035356Y004724D01*
X035247Y004565D02*
X034922Y004565D01*
X034887Y004407D02*
X035138Y004407D01*
X035029Y004248D02*
X034821Y004248D01*
X034733Y004090D02*
X034912Y004090D01*
X034761Y003931D02*
X034574Y003931D01*
X034611Y003773D02*
X034303Y003773D01*
X034460Y003614D02*
X032316Y003614D01*
X032406Y003773D02*
X033571Y003773D01*
X033300Y003931D02*
X031956Y003931D01*
X031918Y003931D02*
X030956Y003931D01*
X030918Y003931D02*
X030414Y003931D01*
X030390Y004090D02*
X030464Y004090D01*
X030549Y004248D02*
X030300Y004248D01*
X030919Y004248D02*
X030956Y004248D01*
X030956Y004090D02*
X030919Y004090D01*
X031325Y004248D02*
X031549Y004248D01*
X031464Y004090D02*
X031410Y004090D01*
X031919Y004090D02*
X031956Y004090D01*
X031956Y004248D02*
X031919Y004248D01*
X032325Y004248D02*
X033053Y004248D01*
X033142Y004090D02*
X032410Y004090D01*
X031956Y003773D02*
X031919Y003773D01*
X031919Y003614D02*
X031956Y003614D01*
X031956Y003455D02*
X031919Y003455D01*
X031812Y003455D02*
X031062Y003455D01*
X030956Y003455D02*
X030919Y003455D01*
X030919Y003297D02*
X030956Y003297D01*
X030956Y003138D02*
X030919Y003138D01*
X030919Y002980D02*
X030956Y002980D01*
X030956Y002821D02*
X030919Y002821D01*
X030919Y002663D02*
X030956Y002663D01*
X030956Y002504D02*
X030919Y002504D01*
X031182Y002504D02*
X031692Y002504D01*
X031919Y002504D02*
X031956Y002504D01*
X031956Y002663D02*
X031919Y002663D01*
X031919Y002821D02*
X031956Y002821D01*
X031956Y002980D02*
X031919Y002980D01*
X031919Y003138D02*
X031956Y003138D01*
X031956Y003297D02*
X031919Y003297D01*
X032062Y003455D02*
X034262Y003455D01*
X034055Y003297D02*
X032280Y003297D01*
X032392Y003138D02*
X033846Y003138D01*
X033554Y002980D02*
X032433Y002980D01*
X032422Y002821D02*
X032397Y002746D01*
X032362Y002677D01*
X032316Y002613D01*
X032261Y002558D01*
X032197Y002512D01*
X032128Y002477D01*
X032519Y002549D01*
X033210Y002793D01*
X032841Y002663D02*
X032352Y002663D01*
X032276Y002504D02*
X032182Y002504D01*
X031522Y002663D02*
X031352Y002663D01*
X031433Y002980D02*
X031441Y002980D01*
X031482Y003138D02*
X031392Y003138D01*
X031280Y003297D02*
X031594Y003297D01*
X031558Y003614D02*
X031316Y003614D01*
X031406Y003773D02*
X031468Y003773D01*
X030956Y003773D02*
X030919Y003773D01*
X030919Y003614D02*
X030956Y003614D01*
X030558Y003614D02*
X030288Y003614D01*
X030385Y003773D02*
X030468Y003773D01*
X026623Y003297D02*
X026252Y003297D01*
X026207Y003341D02*
X026341Y003207D01*
X026414Y003032D01*
X026414Y002842D01*
X026341Y002667D01*
X026207Y002533D01*
X026032Y002460D01*
X025842Y002460D01*
X025667Y002533D01*
X025533Y002667D01*
X025460Y002842D01*
X025460Y003032D01*
X025533Y003207D01*
X025667Y003341D01*
X025842Y003414D01*
X026032Y003414D01*
X026207Y003341D01*
X026370Y003138D02*
X026504Y003138D01*
X026460Y002980D02*
X026414Y002980D01*
X026405Y002821D02*
X026469Y002821D01*
X026537Y002663D02*
X026337Y002663D01*
X026138Y002504D02*
X026736Y002504D01*
X025736Y002504D02*
X025138Y002504D01*
X025207Y002533D02*
X025341Y002667D01*
X025414Y002842D01*
X025414Y003032D01*
X025341Y003207D01*
X025207Y003341D01*
X025032Y003414D01*
X024842Y003414D01*
X024667Y003341D01*
X024533Y003207D01*
X024460Y003032D01*
X024460Y002842D01*
X024533Y002667D01*
X024667Y002533D01*
X024842Y002460D01*
X025032Y002460D01*
X025207Y002533D01*
X025337Y002663D02*
X025537Y002663D01*
X025469Y002821D02*
X025405Y002821D01*
X025414Y002980D02*
X025460Y002980D01*
X025504Y003138D02*
X025370Y003138D01*
X025252Y003297D02*
X025623Y003297D01*
X025586Y003614D02*
X025288Y003614D01*
X025385Y003773D02*
X025489Y003773D01*
X025460Y003931D02*
X025414Y003931D01*
X025390Y004090D02*
X025484Y004090D01*
X025574Y004248D02*
X025300Y004248D01*
X024574Y004248D02*
X024300Y004248D01*
X024390Y004090D02*
X024484Y004090D01*
X024460Y003931D02*
X024414Y003931D01*
X024385Y003773D02*
X024489Y003773D01*
X024586Y003614D02*
X024288Y003614D01*
X024207Y003341D02*
X024032Y003414D01*
X023842Y003414D01*
X023667Y003341D01*
X023533Y003207D01*
X023460Y003032D01*
X023460Y002842D01*
X023533Y002667D01*
X023667Y002533D01*
X023842Y002460D01*
X024032Y002460D01*
X024207Y002533D01*
X024341Y002667D01*
X024414Y002842D01*
X024414Y003032D01*
X024341Y003207D01*
X024207Y003341D01*
X024252Y003297D02*
X024623Y003297D01*
X024504Y003138D02*
X024370Y003138D01*
X024414Y002980D02*
X024460Y002980D01*
X024469Y002821D02*
X024405Y002821D01*
X024337Y002663D02*
X024537Y002663D01*
X024736Y002504D02*
X024138Y002504D01*
X023736Y002504D02*
X023138Y002504D01*
X023207Y002533D02*
X023032Y002460D01*
X022842Y002460D01*
X022667Y002533D01*
X022533Y002667D01*
X022460Y002842D01*
X022460Y003032D01*
X022533Y003207D01*
X022667Y003341D01*
X022842Y003414D01*
X023032Y003414D01*
X023207Y003341D01*
X023341Y003207D01*
X023414Y003032D01*
X023414Y002842D01*
X023341Y002667D01*
X023207Y002533D01*
X023337Y002663D02*
X023537Y002663D01*
X023469Y002821D02*
X023405Y002821D01*
X023414Y002980D02*
X023460Y002980D01*
X023504Y003138D02*
X023370Y003138D01*
X023252Y003297D02*
X023623Y003297D01*
X023586Y003614D02*
X023288Y003614D01*
X023385Y003773D02*
X023489Y003773D01*
X023460Y003931D02*
X023414Y003931D01*
X023390Y004090D02*
X023484Y004090D01*
X023574Y004248D02*
X023300Y004248D01*
X022574Y004248D02*
X022300Y004248D01*
X022390Y004090D02*
X022484Y004090D01*
X022460Y003931D02*
X022414Y003931D01*
X022385Y003773D02*
X022489Y003773D01*
X022586Y003614D02*
X022288Y003614D01*
X022207Y003341D02*
X022032Y003414D01*
X021842Y003414D01*
X021667Y003341D01*
X021533Y003207D01*
X021460Y003032D01*
X021460Y002842D01*
X021533Y002667D01*
X021667Y002533D01*
X021842Y002460D01*
X022032Y002460D01*
X022207Y002533D01*
X022341Y002667D01*
X022414Y002842D01*
X022414Y003032D01*
X022341Y003207D01*
X022207Y003341D01*
X022252Y003297D02*
X022623Y003297D01*
X022504Y003138D02*
X022370Y003138D01*
X022414Y002980D02*
X022460Y002980D01*
X022469Y002821D02*
X022405Y002821D01*
X022337Y002663D02*
X022537Y002663D01*
X022736Y002504D02*
X022138Y002504D01*
X021736Y002504D02*
X021138Y002504D01*
X021207Y002533D02*
X021341Y002667D01*
X021414Y002842D01*
X021414Y003032D01*
X021341Y003207D01*
X021207Y003341D01*
X021032Y003414D01*
X020842Y003414D01*
X020667Y003341D01*
X020533Y003207D01*
X020460Y003032D01*
X020460Y002842D01*
X020533Y002667D01*
X020667Y002533D01*
X020842Y002460D01*
X021032Y002460D01*
X021207Y002533D01*
X021337Y002663D02*
X021537Y002663D01*
X021469Y002821D02*
X021405Y002821D01*
X021414Y002980D02*
X021460Y002980D01*
X021504Y003138D02*
X021370Y003138D01*
X021252Y003297D02*
X021623Y003297D01*
X021586Y003614D02*
X021288Y003614D01*
X021385Y003773D02*
X021489Y003773D01*
X021460Y003931D02*
X021414Y003931D01*
X021390Y004090D02*
X021484Y004090D01*
X021574Y004248D02*
X021300Y004248D01*
X021157Y004407D02*
X021460Y004407D01*
X021302Y004565D02*
X021157Y004565D01*
X020574Y004248D02*
X020300Y004248D01*
X020390Y004090D02*
X020484Y004090D01*
X020460Y003931D02*
X020414Y003931D01*
X020385Y003773D02*
X020489Y003773D01*
X020586Y003614D02*
X020288Y003614D01*
X020207Y003341D02*
X020032Y003414D01*
X019842Y003414D01*
X019667Y003341D01*
X019533Y003207D01*
X019460Y003032D01*
X019460Y002842D01*
X019533Y002667D01*
X019667Y002533D01*
X019842Y002460D01*
X020032Y002460D01*
X020207Y002533D01*
X020341Y002667D01*
X020414Y002842D01*
X020414Y003032D01*
X020341Y003207D01*
X020207Y003341D01*
X020252Y003297D02*
X020623Y003297D01*
X020504Y003138D02*
X020370Y003138D01*
X020414Y002980D02*
X020460Y002980D01*
X020469Y002821D02*
X020405Y002821D01*
X020337Y002663D02*
X020537Y002663D01*
X020736Y002504D02*
X020138Y002504D01*
X019736Y002504D02*
X019138Y002504D01*
X019207Y002533D02*
X019341Y002667D01*
X019414Y002842D01*
X019414Y003032D01*
X019341Y003207D01*
X019207Y003341D01*
X019032Y003414D01*
X018842Y003414D01*
X018667Y003341D01*
X018533Y003207D01*
X018460Y003032D01*
X018460Y002842D01*
X018533Y002667D01*
X018667Y002533D01*
X018842Y002460D01*
X019032Y002460D01*
X019207Y002533D01*
X019337Y002663D02*
X019537Y002663D01*
X019469Y002821D02*
X019405Y002821D01*
X019414Y002980D02*
X019460Y002980D01*
X019504Y003138D02*
X019370Y003138D01*
X019252Y003297D02*
X019623Y003297D01*
X019586Y003614D02*
X019288Y003614D01*
X019385Y003773D02*
X019489Y003773D01*
X019460Y003931D02*
X019414Y003931D01*
X019390Y004090D02*
X019484Y004090D01*
X019574Y004248D02*
X019300Y004248D01*
X019687Y004687D02*
X020187Y005187D01*
X019687Y004687D02*
X011187Y004687D01*
X010937Y004437D01*
X010937Y003937D01*
X010937Y002937D01*
X010504Y003138D02*
X010434Y003138D01*
X010434Y003278D02*
X010422Y003323D01*
X010398Y003364D01*
X010364Y003398D01*
X010323Y003422D01*
X010278Y003434D01*
X009956Y003434D01*
X009956Y002956D01*
X010434Y002956D01*
X010434Y003278D01*
X010429Y003297D02*
X010623Y003297D01*
X010697Y003455D02*
X010062Y003455D01*
X009956Y003455D02*
X009919Y003455D01*
X009919Y003434D02*
X009596Y003434D01*
X009551Y003422D01*
X009510Y003398D01*
X009476Y003364D01*
X009453Y003323D01*
X009440Y003278D01*
X009440Y002956D01*
X009918Y002956D01*
X009918Y002919D01*
X009440Y002919D01*
X009440Y002596D01*
X009453Y002551D01*
X009476Y002510D01*
X009510Y002476D01*
X009551Y002453D01*
X009596Y002440D01*
X009919Y002440D01*
X009919Y002918D01*
X009956Y002918D01*
X009956Y002440D01*
X010278Y002440D01*
X010323Y002453D01*
X010364Y002476D01*
X010398Y002510D01*
X010422Y002551D01*
X010434Y002596D01*
X010434Y002919D01*
X009956Y002919D01*
X009956Y002956D01*
X009919Y002956D01*
X009919Y003434D01*
X009812Y003455D02*
X008922Y003455D01*
X008922Y003297D02*
X009445Y003297D01*
X009440Y003138D02*
X008879Y003138D01*
X008814Y002980D02*
X009440Y002980D01*
X009440Y002821D02*
X008714Y002821D01*
X008556Y002663D02*
X009440Y002663D01*
X009482Y002504D02*
X008259Y002504D01*
X007615Y002504D02*
X004002Y002504D01*
X003634Y002663D02*
X007318Y002663D01*
X008922Y003614D02*
X009558Y003614D01*
X009468Y003773D02*
X008864Y003773D01*
X008799Y003931D02*
X009918Y003931D01*
X009937Y003937D02*
X009937Y002937D01*
X009919Y002980D02*
X009956Y002980D01*
X009956Y003138D02*
X009919Y003138D01*
X009919Y003297D02*
X009956Y003297D01*
X009956Y002821D02*
X009919Y002821D01*
X009919Y002663D02*
X009956Y002663D01*
X009956Y002504D02*
X009919Y002504D01*
X010392Y002504D02*
X010736Y002504D01*
X010537Y002663D02*
X010434Y002663D01*
X010434Y002821D02*
X010469Y002821D01*
X010460Y002980D02*
X010434Y002980D01*
X011138Y002504D02*
X011736Y002504D01*
X011537Y002663D02*
X011337Y002663D01*
X011405Y002821D02*
X011469Y002821D01*
X011460Y002980D02*
X011414Y002980D01*
X011370Y003138D02*
X011504Y003138D01*
X012252Y003297D02*
X012623Y003297D01*
X012667Y003341D02*
X012533Y003207D01*
X012460Y003032D01*
X012460Y002842D01*
X012533Y002667D01*
X012667Y002533D01*
X012842Y002460D01*
X013032Y002460D01*
X013207Y002533D01*
X013341Y002667D01*
X013414Y002842D01*
X013414Y003032D01*
X013341Y003207D01*
X013207Y003341D01*
X013032Y003414D01*
X012842Y003414D01*
X012667Y003341D01*
X012504Y003138D02*
X012370Y003138D01*
X012414Y002980D02*
X012460Y002980D01*
X012469Y002821D02*
X012405Y002821D01*
X012337Y002663D02*
X012537Y002663D01*
X012736Y002504D02*
X012138Y002504D01*
X013138Y002504D02*
X013736Y002504D01*
X013667Y002533D02*
X013842Y002460D01*
X014032Y002460D01*
X014207Y002533D01*
X014341Y002667D01*
X014414Y002842D01*
X014414Y003032D01*
X014341Y003207D01*
X014207Y003341D01*
X014032Y003414D01*
X013842Y003414D01*
X013667Y003341D01*
X013533Y003207D01*
X013460Y003032D01*
X013460Y002842D01*
X013533Y002667D01*
X013667Y002533D01*
X013537Y002663D02*
X013337Y002663D01*
X013405Y002821D02*
X013469Y002821D01*
X013460Y002980D02*
X013414Y002980D01*
X013370Y003138D02*
X013504Y003138D01*
X013623Y003297D02*
X013252Y003297D01*
X013288Y003614D02*
X013586Y003614D01*
X013489Y003773D02*
X013385Y003773D01*
X013414Y003931D02*
X013460Y003931D01*
X013484Y004090D02*
X013390Y004090D01*
X013300Y004248D02*
X013574Y004248D01*
X014300Y004248D02*
X014574Y004248D01*
X014484Y004090D02*
X014390Y004090D01*
X014414Y003931D02*
X014460Y003931D01*
X014489Y003773D02*
X014385Y003773D01*
X014288Y003614D02*
X014586Y003614D01*
X014667Y003341D02*
X014533Y003207D01*
X014460Y003032D01*
X014460Y002842D01*
X014533Y002667D01*
X014667Y002533D01*
X014842Y002460D01*
X015032Y002460D01*
X015207Y002533D01*
X015341Y002667D01*
X015414Y002842D01*
X015414Y003032D01*
X015341Y003207D01*
X015207Y003341D01*
X015032Y003414D01*
X014842Y003414D01*
X014667Y003341D01*
X014623Y003297D02*
X014252Y003297D01*
X014370Y003138D02*
X014504Y003138D01*
X014460Y002980D02*
X014414Y002980D01*
X014405Y002821D02*
X014469Y002821D01*
X014537Y002663D02*
X014337Y002663D01*
X014138Y002504D02*
X014736Y002504D01*
X015138Y002504D02*
X015736Y002504D01*
X015667Y002533D02*
X015842Y002460D01*
X016032Y002460D01*
X016207Y002533D01*
X016341Y002667D01*
X016414Y002842D01*
X016414Y003032D01*
X016341Y003207D01*
X016207Y003341D01*
X016032Y003414D01*
X015842Y003414D01*
X015667Y003341D01*
X015533Y003207D01*
X015460Y003032D01*
X015460Y002842D01*
X015533Y002667D01*
X015667Y002533D01*
X015537Y002663D02*
X015337Y002663D01*
X015405Y002821D02*
X015469Y002821D01*
X015460Y002980D02*
X015414Y002980D01*
X015370Y003138D02*
X015504Y003138D01*
X015623Y003297D02*
X015252Y003297D01*
X015288Y003614D02*
X015586Y003614D01*
X015489Y003773D02*
X015385Y003773D01*
X015414Y003931D02*
X015460Y003931D01*
X015484Y004090D02*
X015390Y004090D01*
X015300Y004248D02*
X015574Y004248D01*
X016300Y004248D02*
X016574Y004248D01*
X016484Y004090D02*
X016390Y004090D01*
X016414Y003931D02*
X016460Y003931D01*
X016489Y003773D02*
X016385Y003773D01*
X016288Y003614D02*
X016586Y003614D01*
X016667Y003341D02*
X016533Y003207D01*
X016460Y003032D01*
X016460Y002842D01*
X016533Y002667D01*
X016667Y002533D01*
X016842Y002460D01*
X017032Y002460D01*
X017207Y002533D01*
X017341Y002667D01*
X017414Y002842D01*
X017414Y003032D01*
X017341Y003207D01*
X017207Y003341D01*
X017032Y003414D01*
X016842Y003414D01*
X016667Y003341D01*
X016623Y003297D02*
X016252Y003297D01*
X016370Y003138D02*
X016504Y003138D01*
X016460Y002980D02*
X016414Y002980D01*
X016405Y002821D02*
X016469Y002821D01*
X016537Y002663D02*
X016337Y002663D01*
X016138Y002504D02*
X016736Y002504D01*
X017138Y002504D02*
X017736Y002504D01*
X017667Y002533D02*
X017842Y002460D01*
X018032Y002460D01*
X018207Y002533D01*
X018341Y002667D01*
X018414Y002842D01*
X018414Y003032D01*
X018341Y003207D01*
X018207Y003341D01*
X018032Y003414D01*
X017842Y003414D01*
X017667Y003341D01*
X017533Y003207D01*
X017460Y003032D01*
X017460Y002842D01*
X017533Y002667D01*
X017667Y002533D01*
X017537Y002663D02*
X017337Y002663D01*
X017405Y002821D02*
X017469Y002821D01*
X017460Y002980D02*
X017414Y002980D01*
X017370Y003138D02*
X017504Y003138D01*
X017623Y003297D02*
X017252Y003297D01*
X017288Y003614D02*
X017586Y003614D01*
X017489Y003773D02*
X017385Y003773D01*
X017414Y003931D02*
X017460Y003931D01*
X017484Y004090D02*
X017390Y004090D01*
X017300Y004248D02*
X017574Y004248D01*
X018300Y004248D02*
X018574Y004248D01*
X018484Y004090D02*
X018390Y004090D01*
X018414Y003931D02*
X018460Y003931D01*
X018489Y003773D02*
X018385Y003773D01*
X018288Y003614D02*
X018586Y003614D01*
X018623Y003297D02*
X018252Y003297D01*
X018370Y003138D02*
X018504Y003138D01*
X018460Y002980D02*
X018414Y002980D01*
X018405Y002821D02*
X018469Y002821D01*
X018537Y002663D02*
X018337Y002663D01*
X018138Y002504D02*
X018736Y002504D01*
X021457Y005041D02*
X022036Y005041D01*
X021878Y005199D02*
X021457Y005199D01*
X021457Y005358D02*
X021494Y005358D01*
X020737Y005834D02*
X013055Y005834D01*
X013158Y005992D02*
X020737Y005992D01*
X021457Y006151D02*
X021837Y006151D01*
X021924Y006309D02*
X021457Y006309D01*
X016932Y008053D02*
X014291Y008053D01*
X012443Y007736D02*
X011407Y007736D01*
X011407Y007778D02*
X011407Y014872D01*
X011508Y014973D01*
X011565Y015112D01*
X011565Y015262D01*
X011508Y015401D01*
X011401Y015508D01*
X011262Y015565D01*
X011112Y015565D01*
X010973Y015508D01*
X010907Y015442D01*
X010907Y015596D01*
X011620Y016309D01*
X011762Y016309D01*
X011901Y016367D01*
X012008Y016473D01*
X012065Y016612D01*
X012065Y016762D01*
X012008Y016901D01*
X011901Y017008D01*
X011762Y017065D01*
X011612Y017065D01*
X011473Y017008D01*
X011367Y016901D01*
X011309Y016762D01*
X011309Y016620D01*
X010467Y015778D01*
X010467Y015596D01*
X010467Y008278D01*
X010096Y007907D01*
X006918Y007907D01*
X006868Y007958D01*
X006751Y008006D01*
X006624Y008006D01*
X006506Y007958D01*
X006417Y007868D01*
X006368Y007751D01*
X006368Y007624D01*
X006417Y007506D01*
X006506Y007417D01*
X006530Y007407D01*
X006418Y007407D01*
X006368Y007458D01*
X006251Y007506D01*
X006124Y007506D01*
X006006Y007458D01*
X005917Y007368D01*
X005868Y007251D01*
X005868Y007124D01*
X005917Y007006D01*
X006006Y006917D01*
X006124Y006868D01*
X006251Y006868D01*
X006368Y006917D01*
X006418Y006967D01*
X010596Y006967D01*
X010778Y006967D01*
X011407Y007596D01*
X011407Y007778D01*
X011407Y007895D02*
X012258Y007895D01*
X012024Y008053D02*
X011407Y008053D01*
X011407Y008212D02*
X011865Y008212D01*
X011707Y008370D02*
X011407Y008370D01*
X011407Y008529D02*
X011548Y008529D01*
X011477Y008687D02*
X011407Y008687D01*
X011407Y008846D02*
X011477Y008846D01*
X011477Y009004D02*
X011407Y009004D01*
X011407Y009163D02*
X011477Y009163D01*
X011477Y009322D02*
X011407Y009322D01*
X011407Y009480D02*
X011477Y009480D01*
X011477Y009639D02*
X011407Y009639D01*
X011407Y009797D02*
X011477Y009797D01*
X011477Y009956D02*
X011407Y009956D01*
X011407Y010114D02*
X011477Y010114D01*
X011477Y010273D02*
X011407Y010273D01*
X011407Y010431D02*
X011477Y010431D01*
X011477Y010590D02*
X011407Y010590D01*
X011407Y010748D02*
X011477Y010748D01*
X011477Y010907D02*
X011407Y010907D01*
X011407Y011066D02*
X011477Y011066D01*
X011477Y011224D02*
X011407Y011224D01*
X011407Y011383D02*
X011586Y011383D01*
X011744Y011541D02*
X011407Y011541D01*
X011407Y011700D02*
X011809Y011700D01*
X011849Y011858D02*
X011407Y011858D01*
X011407Y012017D02*
X011995Y012017D01*
X012379Y012017D02*
X012477Y012017D01*
X012477Y012175D02*
X011407Y012175D01*
X011407Y012334D02*
X012477Y012334D01*
X012477Y012492D02*
X011407Y012492D01*
X011407Y012651D02*
X012477Y012651D01*
X012477Y012809D02*
X011407Y012809D01*
X011407Y012968D02*
X012477Y012968D01*
X012477Y013127D02*
X011407Y013127D01*
X011407Y013285D02*
X012477Y013285D01*
X012477Y013444D02*
X011407Y013444D01*
X011407Y013602D02*
X012477Y013602D01*
X012477Y013761D02*
X011407Y013761D01*
X011407Y013919D02*
X012477Y013919D01*
X012477Y014078D02*
X011407Y014078D01*
X011407Y014236D02*
X012477Y014236D01*
X012477Y014395D02*
X011407Y014395D01*
X011407Y014553D02*
X012477Y014553D01*
X012477Y014712D02*
X011407Y014712D01*
X011407Y014871D02*
X012477Y014871D01*
X012477Y015029D02*
X011531Y015029D01*
X011565Y015188D02*
X012477Y015188D01*
X012477Y015346D02*
X011530Y015346D01*
X011404Y015505D02*
X012477Y015505D01*
X012477Y015663D02*
X010974Y015663D01*
X010970Y015505D02*
X010907Y015505D01*
X011133Y015822D02*
X012477Y015822D01*
X012477Y015980D02*
X011291Y015980D01*
X011450Y016139D02*
X012477Y016139D01*
X012477Y016297D02*
X011609Y016297D01*
X011991Y016456D02*
X012477Y016456D01*
X012477Y016615D02*
X012065Y016615D01*
X012061Y016773D02*
X012477Y016773D01*
X012477Y016932D02*
X011977Y016932D01*
X012477Y017090D02*
X011056Y017090D01*
X011065Y017249D02*
X012477Y017249D01*
X012477Y017407D02*
X011002Y017407D01*
X010897Y017566D02*
X012477Y017566D01*
X012477Y017724D02*
X010897Y017724D01*
X010788Y017883D02*
X012477Y017883D01*
X012477Y018041D02*
X010630Y018041D01*
X010471Y018200D02*
X012477Y018200D01*
X012439Y018359D02*
X006114Y018359D01*
X005923Y018517D02*
X012280Y018517D01*
X012122Y018676D02*
X005968Y018676D01*
X006122Y018834D02*
X011963Y018834D01*
X012493Y019468D02*
X022595Y019468D01*
X022436Y019627D02*
X012334Y019627D01*
X012651Y019310D02*
X019265Y019310D01*
X019283Y019328D02*
X019177Y019221D01*
X019119Y019082D01*
X019119Y018932D01*
X019177Y018793D01*
X019283Y018687D01*
X019287Y018685D01*
X019287Y017642D01*
X019187Y017541D01*
X019129Y017402D01*
X019129Y017252D01*
X019187Y017113D01*
X019293Y017007D01*
X019432Y016949D01*
X019582Y016949D01*
X019721Y017007D01*
X019828Y017113D01*
X019885Y017252D01*
X019885Y017402D01*
X019828Y017541D01*
X019721Y017648D01*
X019707Y017653D01*
X019707Y018685D01*
X019711Y018687D01*
X019818Y018793D01*
X019875Y018932D01*
X019875Y019082D01*
X019818Y019221D01*
X019711Y019328D01*
X019572Y019385D01*
X019422Y019385D01*
X019283Y019328D01*
X019148Y019151D02*
X012810Y019151D01*
X012968Y018993D02*
X019119Y018993D01*
X019159Y018834D02*
X013127Y018834D01*
X013286Y018676D02*
X019287Y018676D01*
X019287Y018517D02*
X013387Y018517D01*
X013387Y018359D02*
X019287Y018359D01*
X019287Y018200D02*
X013387Y018200D01*
X013387Y018041D02*
X019287Y018041D01*
X019287Y017883D02*
X013387Y017883D01*
X013387Y017724D02*
X019287Y017724D01*
X019211Y017566D02*
X013387Y017566D01*
X013387Y017407D02*
X019131Y017407D01*
X019130Y017249D02*
X013387Y017249D01*
X013387Y017090D02*
X019209Y017090D01*
X019805Y017090D02*
X023882Y017090D01*
X023868Y017249D02*
X019884Y017249D01*
X019883Y017407D02*
X023956Y017407D01*
X023977Y017566D02*
X019803Y017566D01*
X019707Y017724D02*
X023977Y017724D01*
X023977Y017883D02*
X019707Y017883D01*
X019707Y018041D02*
X023977Y018041D01*
X023977Y018200D02*
X019707Y018200D01*
X019707Y018359D02*
X023977Y018359D01*
X023977Y018517D02*
X019707Y018517D01*
X019707Y018676D02*
X023977Y018676D01*
X024037Y018834D02*
X019835Y018834D01*
X019875Y018993D02*
X024196Y018993D01*
X024354Y019151D02*
X019847Y019151D01*
X019729Y019310D02*
X024513Y019310D01*
X024993Y019944D02*
X022741Y019944D01*
X022583Y020102D02*
X027306Y020102D01*
X027147Y019944D02*
X025381Y019944D01*
X025492Y019785D02*
X026988Y019785D01*
X026830Y019627D02*
X025506Y019627D01*
X025419Y019468D02*
X026671Y019468D01*
X026948Y019151D02*
X027354Y019151D01*
X027513Y019310D02*
X027107Y019310D01*
X027265Y019468D02*
X027671Y019468D01*
X027809Y019627D02*
X027424Y019627D01*
X027582Y019785D02*
X027819Y019785D01*
X027741Y019944D02*
X027909Y019944D01*
X027899Y020102D02*
X035753Y020102D01*
X035805Y019944D02*
X028465Y019944D01*
X028556Y019785D02*
X035853Y019785D01*
X035878Y019627D02*
X028565Y019627D01*
X028503Y019468D02*
X035903Y019468D01*
X035928Y019310D02*
X028264Y019310D01*
X028110Y019310D02*
X028107Y019310D01*
X027948Y019151D02*
X035953Y019151D01*
X035970Y018993D02*
X028416Y018993D01*
X028535Y018834D02*
X032501Y018834D01*
X032458Y018676D02*
X028565Y018676D01*
X028526Y018517D02*
X032494Y018517D01*
X032987Y018359D02*
X034665Y018359D01*
X034679Y018200D02*
X033078Y018200D01*
X033060Y018517D02*
X034729Y018517D01*
X035315Y018517D02*
X035982Y018517D01*
X035982Y018359D02*
X035379Y018359D01*
X035365Y018200D02*
X035982Y018200D01*
X035982Y018041D02*
X035263Y018041D01*
X035064Y017883D02*
X035982Y017883D01*
X035982Y018676D02*
X033096Y018676D01*
X033053Y018834D02*
X035976Y018834D01*
X035702Y020261D02*
X034275Y020261D01*
X034133Y020202D02*
X034495Y020352D01*
X034772Y020629D01*
X034922Y020991D01*
X034922Y021383D01*
X034772Y021745D01*
X034495Y022022D01*
X034133Y022172D01*
X033741Y022172D01*
X033379Y022022D01*
X033102Y021745D01*
X032952Y021383D01*
X032952Y020991D01*
X033102Y020629D01*
X033379Y020352D01*
X033741Y020202D01*
X034133Y020202D01*
X034563Y020420D02*
X035650Y020420D01*
X035589Y020578D02*
X034721Y020578D01*
X034817Y020737D02*
X035508Y020737D01*
X035427Y020895D02*
X034882Y020895D01*
X034922Y021054D02*
X035346Y021054D01*
X035261Y021212D02*
X034922Y021212D01*
X034922Y021371D02*
X035146Y021371D01*
X035031Y021529D02*
X034861Y021529D01*
X034916Y021688D02*
X034796Y021688D01*
X034788Y021846D02*
X034671Y021846D01*
X034629Y022005D02*
X034512Y022005D01*
X034471Y022164D02*
X034154Y022164D01*
X034312Y022322D02*
X032226Y022322D01*
X032207Y022341D02*
X032341Y022207D01*
X032414Y022032D01*
X032414Y021842D01*
X032341Y021667D01*
X032207Y021533D01*
X032032Y021460D01*
X031842Y021460D01*
X031667Y021533D01*
X031533Y021667D01*
X031460Y021842D01*
X031460Y022032D01*
X031533Y022207D01*
X031667Y022341D01*
X031842Y022414D01*
X032032Y022414D01*
X032207Y022341D01*
X032081Y022481D02*
X034098Y022481D01*
X033880Y022639D02*
X032314Y022639D01*
X032395Y022798D02*
X033649Y022798D01*
X033338Y022956D02*
X032414Y022956D01*
X032380Y023115D02*
X033027Y023115D01*
X032541Y023273D02*
X032275Y023273D01*
X031787Y023432D02*
X009989Y023432D01*
X009976Y023434D02*
X009956Y023434D01*
X009956Y022956D01*
X009919Y022956D01*
X009919Y023434D01*
X009898Y023434D01*
X009821Y023422D01*
X009746Y023397D01*
X009677Y023362D01*
X009613Y023316D01*
X009558Y023261D01*
X009512Y023197D01*
X009477Y023128D01*
X009452Y023053D01*
X009440Y022976D01*
X009440Y022956D01*
X006190Y022956D01*
X006207Y023115D02*
X009472Y023115D01*
X009440Y022956D02*
X009918Y022956D01*
X009918Y022919D01*
X009440Y022919D01*
X009440Y022898D01*
X009452Y022821D01*
X009477Y022746D01*
X009512Y022677D01*
X009558Y022613D01*
X009613Y022558D01*
X009677Y022512D01*
X009746Y022477D01*
X009821Y022452D01*
X009898Y022440D01*
X009919Y022440D01*
X009919Y022918D01*
X009956Y022918D01*
X009956Y022440D01*
X009976Y022440D01*
X010053Y022452D01*
X010128Y022477D01*
X010197Y022512D01*
X010261Y022558D01*
X010316Y022613D01*
X010362Y022677D01*
X010397Y022746D01*
X010422Y022821D01*
X010434Y022898D01*
X010434Y022919D01*
X009956Y022919D01*
X009956Y022956D01*
X010434Y022956D01*
X010460Y022956D01*
X010434Y022956D02*
X010434Y022976D01*
X010422Y023053D01*
X010397Y023128D01*
X010362Y023197D01*
X010316Y023261D01*
X010261Y023316D01*
X010197Y023362D01*
X010128Y023397D01*
X010053Y023422D01*
X009976Y023434D01*
X009956Y023432D02*
X009919Y023432D01*
X009885Y023432D02*
X006069Y023432D01*
X006137Y023337D02*
X009537Y023337D01*
X009937Y022937D01*
X009937Y021937D01*
X009919Y021918D02*
X009956Y021918D01*
X009956Y021440D01*
X010278Y021440D01*
X010323Y021453D01*
X010364Y021476D01*
X010398Y021510D01*
X010422Y021551D01*
X010434Y021596D01*
X010434Y021919D01*
X009956Y021919D01*
X009956Y021956D01*
X010434Y021956D01*
X010434Y022278D01*
X010422Y022323D01*
X010398Y022364D01*
X010364Y022398D01*
X010323Y022422D01*
X010278Y022434D01*
X009956Y022434D01*
X009956Y021956D01*
X009919Y021956D01*
X009919Y022434D01*
X009596Y022434D01*
X009551Y022422D01*
X009510Y022398D01*
X009476Y022364D01*
X009453Y022323D01*
X009440Y022278D01*
X009440Y021956D01*
X009918Y021956D01*
X009918Y021919D01*
X009440Y021919D01*
X009440Y021596D01*
X009453Y021551D01*
X009476Y021510D01*
X009510Y021476D01*
X009551Y021453D01*
X009596Y021440D01*
X009919Y021440D01*
X009919Y021918D01*
X009919Y021846D02*
X009956Y021846D01*
X009956Y021688D02*
X009919Y021688D01*
X009919Y021529D02*
X009956Y021529D01*
X010409Y021529D02*
X010675Y021529D01*
X010667Y021533D02*
X010842Y021460D01*
X011032Y021460D01*
X011207Y021533D01*
X011341Y021667D01*
X011414Y021842D01*
X011414Y022032D01*
X011341Y022207D01*
X011207Y022341D01*
X011032Y022414D01*
X010842Y022414D01*
X010667Y022341D01*
X010533Y022207D01*
X010460Y022032D01*
X010460Y021842D01*
X010533Y021667D01*
X010667Y021533D01*
X010524Y021688D02*
X010434Y021688D01*
X010434Y021846D02*
X010460Y021846D01*
X010460Y022005D02*
X010434Y022005D01*
X010434Y022164D02*
X010515Y022164D01*
X010422Y022322D02*
X010648Y022322D01*
X010667Y022533D02*
X010842Y022460D01*
X011032Y022460D01*
X011207Y022533D01*
X011341Y022667D01*
X011414Y022842D01*
X011414Y023032D01*
X011341Y023207D01*
X011207Y023341D01*
X011032Y023414D01*
X010842Y023414D01*
X010667Y023341D01*
X010533Y023207D01*
X010460Y023032D01*
X010460Y022842D01*
X010533Y022667D01*
X010667Y022533D01*
X010793Y022481D02*
X010136Y022481D01*
X009956Y022481D02*
X009919Y022481D01*
X009919Y022639D02*
X009956Y022639D01*
X009956Y022798D02*
X009919Y022798D01*
X009919Y022956D02*
X009956Y022956D01*
X009956Y023115D02*
X009919Y023115D01*
X009919Y023273D02*
X009956Y023273D01*
X010303Y023273D02*
X010599Y023273D01*
X010495Y023115D02*
X010402Y023115D01*
X010414Y022798D02*
X010479Y022798D01*
X010561Y022639D02*
X010335Y022639D01*
X009739Y022481D02*
X006016Y022481D01*
X005929Y022639D02*
X009539Y022639D01*
X009460Y022798D02*
X006115Y022798D01*
X005887Y023087D02*
X005387Y023087D01*
X005387Y022087D01*
X005367Y022164D02*
X005407Y022164D01*
X005407Y022322D02*
X005367Y022322D01*
X005367Y022481D02*
X005407Y022481D01*
X005407Y022639D02*
X005367Y022639D01*
X005367Y022798D02*
X005407Y022798D01*
X005407Y022956D02*
X005367Y022956D01*
X005028Y022587D02*
X004950Y022599D01*
X004875Y022624D01*
X004805Y022659D01*
X004741Y022706D01*
X004686Y022761D01*
X004642Y022821D01*
X004642Y022353D01*
X004686Y022413D01*
X004741Y022468D01*
X004805Y022515D01*
X004875Y022550D01*
X004950Y022575D01*
X005028Y022587D01*
X004845Y022639D02*
X004642Y022639D01*
X004642Y022481D02*
X004758Y022481D01*
X004659Y022798D02*
X004642Y022798D01*
X005367Y022005D02*
X005407Y022005D01*
X005407Y021846D02*
X005367Y021846D01*
X005367Y021688D02*
X005407Y021688D01*
X005894Y021529D02*
X009465Y021529D01*
X009440Y021688D02*
X006008Y021688D01*
X006146Y021846D02*
X009440Y021846D01*
X009440Y022005D02*
X006200Y022005D01*
X006201Y022164D02*
X009440Y022164D01*
X009452Y022322D02*
X006149Y022322D01*
X006102Y021371D02*
X032952Y021371D01*
X032952Y021212D02*
X021259Y021212D01*
X021207Y021212D02*
X021167Y021212D01*
X021167Y021217D02*
X021145Y021217D01*
X021063Y021204D01*
X020984Y021178D01*
X020909Y021140D01*
X020842Y021091D01*
X020783Y021032D01*
X020734Y020965D01*
X020696Y020891D01*
X020670Y020811D01*
X020657Y020729D01*
X020657Y020707D01*
X021167Y020707D01*
X021167Y021217D01*
X021115Y021212D02*
X012794Y021212D01*
X012764Y021217D02*
X012743Y021217D01*
X012743Y020707D01*
X013252Y020707D01*
X013252Y020729D01*
X013239Y020811D01*
X013214Y020891D01*
X013176Y020965D01*
X013127Y021032D01*
X013068Y021091D01*
X013000Y021140D01*
X012926Y021178D01*
X012847Y021204D01*
X012764Y021217D01*
X012743Y021212D02*
X012702Y021212D01*
X012702Y021217D02*
X012681Y021217D01*
X012598Y021204D01*
X012519Y021178D01*
X012445Y021140D01*
X012377Y021091D01*
X012318Y021032D01*
X012269Y020965D01*
X012231Y020891D01*
X012213Y020835D01*
X012155Y020976D01*
X012011Y021119D01*
X011824Y021197D01*
X011621Y021197D01*
X011434Y021119D01*
X011290Y020976D01*
X011213Y020789D01*
X011213Y020586D01*
X011290Y020398D01*
X011434Y020255D01*
X011621Y020177D01*
X011824Y020177D01*
X012011Y020255D01*
X012155Y020398D01*
X012213Y020539D01*
X012231Y020484D01*
X012269Y020409D01*
X012318Y020342D01*
X012377Y020283D01*
X012445Y020234D01*
X012519Y020196D01*
X012598Y020170D01*
X012681Y020157D01*
X012702Y020157D01*
X012702Y020667D01*
X012743Y020667D01*
X012743Y020707D01*
X012702Y020707D01*
X012702Y021217D01*
X012651Y021212D02*
X006175Y021212D01*
X006187Y021054D02*
X011368Y021054D01*
X011257Y020895D02*
X006147Y020895D01*
X006035Y020737D02*
X011213Y020737D01*
X011216Y020578D02*
X004642Y020578D01*
X004642Y020420D02*
X004721Y020420D01*
X004739Y020737D02*
X004642Y020737D01*
X004642Y021371D02*
X004672Y021371D01*
X004642Y021529D02*
X004881Y021529D01*
X004766Y021688D02*
X004642Y021688D01*
X006053Y020420D02*
X011281Y020420D01*
X011427Y020261D02*
X010424Y020261D01*
X010583Y020102D02*
X021967Y020102D01*
X021892Y020261D02*
X021502Y020261D01*
X021646Y020420D02*
X021746Y020420D01*
X021721Y020895D02*
X021676Y020895D01*
X021570Y021054D02*
X021833Y021054D01*
X021842Y021460D02*
X021667Y021533D01*
X021533Y021667D01*
X021460Y021842D01*
X021460Y022032D01*
X021533Y022207D01*
X021667Y022341D01*
X021842Y022414D01*
X022032Y022414D01*
X022207Y022341D01*
X022341Y022207D01*
X022414Y022032D01*
X022414Y021842D01*
X022341Y021667D01*
X022207Y021533D01*
X022032Y021460D01*
X021842Y021460D01*
X021675Y021529D02*
X021199Y021529D01*
X021207Y021533D02*
X021341Y021667D01*
X021414Y021842D01*
X021414Y022032D01*
X021341Y022207D01*
X021207Y022341D01*
X021032Y022414D01*
X020842Y022414D01*
X020667Y022341D01*
X020533Y022207D01*
X020460Y022032D01*
X020460Y021842D01*
X020533Y021667D01*
X020667Y021533D01*
X020842Y021460D01*
X021032Y021460D01*
X021207Y021533D01*
X021350Y021688D02*
X021524Y021688D01*
X021460Y021846D02*
X021414Y021846D01*
X021414Y022005D02*
X021460Y022005D01*
X021515Y022164D02*
X021359Y022164D01*
X021226Y022322D02*
X021648Y022322D01*
X021667Y022533D02*
X021842Y022460D01*
X022032Y022460D01*
X022207Y022533D01*
X022341Y022667D01*
X022414Y022842D01*
X022414Y023032D01*
X022341Y023207D01*
X022207Y023341D01*
X022032Y023414D01*
X021842Y023414D01*
X021667Y023341D01*
X021533Y023207D01*
X021460Y023032D01*
X021460Y022842D01*
X021533Y022667D01*
X021667Y022533D01*
X021793Y022481D02*
X021081Y022481D01*
X021032Y022460D02*
X021207Y022533D01*
X021341Y022667D01*
X021414Y022842D01*
X021414Y023032D01*
X021341Y023207D01*
X021207Y023341D01*
X021032Y023414D01*
X020842Y023414D01*
X020667Y023341D01*
X020533Y023207D01*
X020460Y023032D01*
X020460Y022842D01*
X020533Y022667D01*
X020667Y022533D01*
X020842Y022460D01*
X021032Y022460D01*
X020793Y022481D02*
X020081Y022481D01*
X020032Y022460D02*
X020207Y022533D01*
X020341Y022667D01*
X020414Y022842D01*
X020414Y023032D01*
X020341Y023207D01*
X020207Y023341D01*
X020032Y023414D01*
X019842Y023414D01*
X019667Y023341D01*
X019533Y023207D01*
X019460Y023032D01*
X019460Y022842D01*
X019533Y022667D01*
X019667Y022533D01*
X019842Y022460D01*
X020032Y022460D01*
X020032Y022414D02*
X019842Y022414D01*
X019667Y022341D01*
X019533Y022207D01*
X019460Y022032D01*
X019460Y021842D01*
X019533Y021667D01*
X019667Y021533D01*
X019842Y021460D01*
X020032Y021460D01*
X020207Y021533D01*
X020341Y021667D01*
X020414Y021842D01*
X020414Y022032D01*
X020341Y022207D01*
X020207Y022341D01*
X020032Y022414D01*
X020226Y022322D02*
X020648Y022322D01*
X020515Y022164D02*
X020359Y022164D01*
X020414Y022005D02*
X020460Y022005D01*
X020460Y021846D02*
X020414Y021846D01*
X020350Y021688D02*
X020524Y021688D01*
X020675Y021529D02*
X020199Y021529D01*
X019675Y021529D02*
X019199Y021529D01*
X019207Y021533D02*
X019341Y021667D01*
X019414Y021842D01*
X019414Y022032D01*
X019341Y022207D01*
X019207Y022341D01*
X019032Y022414D01*
X018842Y022414D01*
X018667Y022341D01*
X018533Y022207D01*
X018460Y022032D01*
X018460Y021842D01*
X018533Y021667D01*
X018667Y021533D01*
X018842Y021460D01*
X019032Y021460D01*
X019207Y021533D01*
X019350Y021688D02*
X019524Y021688D01*
X019460Y021846D02*
X019414Y021846D01*
X019414Y022005D02*
X019460Y022005D01*
X019515Y022164D02*
X019359Y022164D01*
X019226Y022322D02*
X019648Y022322D01*
X019793Y022481D02*
X019081Y022481D01*
X019032Y022460D02*
X019207Y022533D01*
X019341Y022667D01*
X019414Y022842D01*
X019414Y023032D01*
X019341Y023207D01*
X019207Y023341D01*
X019032Y023414D01*
X018842Y023414D01*
X018667Y023341D01*
X018533Y023207D01*
X018460Y023032D01*
X018460Y022842D01*
X018533Y022667D01*
X018667Y022533D01*
X018842Y022460D01*
X019032Y022460D01*
X018793Y022481D02*
X018081Y022481D01*
X018032Y022460D02*
X018207Y022533D01*
X018341Y022667D01*
X018414Y022842D01*
X018414Y023032D01*
X018341Y023207D01*
X018207Y023341D01*
X018032Y023414D01*
X017842Y023414D01*
X017667Y023341D01*
X017533Y023207D01*
X017460Y023032D01*
X017460Y022842D01*
X017533Y022667D01*
X017667Y022533D01*
X017842Y022460D01*
X018032Y022460D01*
X018032Y022414D02*
X017842Y022414D01*
X017667Y022341D01*
X017533Y022207D01*
X017460Y022032D01*
X017460Y021842D01*
X017533Y021667D01*
X017667Y021533D01*
X017842Y021460D01*
X018032Y021460D01*
X018207Y021533D01*
X018341Y021667D01*
X018414Y021842D01*
X018414Y022032D01*
X018341Y022207D01*
X018207Y022341D01*
X018032Y022414D01*
X018226Y022322D02*
X018648Y022322D01*
X018515Y022164D02*
X018359Y022164D01*
X018414Y022005D02*
X018460Y022005D01*
X018460Y021846D02*
X018414Y021846D01*
X018350Y021688D02*
X018524Y021688D01*
X018675Y021529D02*
X018199Y021529D01*
X017675Y021529D02*
X017199Y021529D01*
X017207Y021533D02*
X017341Y021667D01*
X017414Y021842D01*
X017414Y022032D01*
X017341Y022207D01*
X017207Y022341D01*
X017032Y022414D01*
X016842Y022414D01*
X016667Y022341D01*
X016533Y022207D01*
X016460Y022032D01*
X016460Y021842D01*
X016533Y021667D01*
X016667Y021533D01*
X016842Y021460D01*
X017032Y021460D01*
X017207Y021533D01*
X017350Y021688D02*
X017524Y021688D01*
X017460Y021846D02*
X017414Y021846D01*
X017414Y022005D02*
X017460Y022005D01*
X017515Y022164D02*
X017359Y022164D01*
X017226Y022322D02*
X017648Y022322D01*
X017793Y022481D02*
X017081Y022481D01*
X017032Y022460D02*
X017207Y022533D01*
X017341Y022667D01*
X017414Y022842D01*
X017414Y023032D01*
X017341Y023207D01*
X017207Y023341D01*
X017032Y023414D01*
X016842Y023414D01*
X016667Y023341D01*
X016533Y023207D01*
X016460Y023032D01*
X016460Y022842D01*
X016533Y022667D01*
X016667Y022533D01*
X016842Y022460D01*
X017032Y022460D01*
X016793Y022481D02*
X016081Y022481D01*
X016032Y022460D02*
X016207Y022533D01*
X016341Y022667D01*
X016414Y022842D01*
X016414Y023032D01*
X016341Y023207D01*
X016207Y023341D01*
X016032Y023414D01*
X015842Y023414D01*
X015667Y023341D01*
X015533Y023207D01*
X015460Y023032D01*
X015460Y022842D01*
X015533Y022667D01*
X015667Y022533D01*
X015842Y022460D01*
X016032Y022460D01*
X016032Y022414D02*
X015842Y022414D01*
X015667Y022341D01*
X015533Y022207D01*
X015460Y022032D01*
X015460Y021842D01*
X015533Y021667D01*
X015667Y021533D01*
X015842Y021460D01*
X016032Y021460D01*
X016207Y021533D01*
X016341Y021667D01*
X016414Y021842D01*
X016414Y022032D01*
X016341Y022207D01*
X016207Y022341D01*
X016032Y022414D01*
X016226Y022322D02*
X016648Y022322D01*
X016515Y022164D02*
X016359Y022164D01*
X016414Y022005D02*
X016460Y022005D01*
X016460Y021846D02*
X016414Y021846D01*
X016350Y021688D02*
X016524Y021688D01*
X016675Y021529D02*
X016199Y021529D01*
X015675Y021529D02*
X015199Y021529D01*
X015207Y021533D02*
X015341Y021667D01*
X015414Y021842D01*
X015414Y022032D01*
X015341Y022207D01*
X015207Y022341D01*
X015032Y022414D01*
X014842Y022414D01*
X014667Y022341D01*
X014533Y022207D01*
X014460Y022032D01*
X014460Y021842D01*
X014533Y021667D01*
X014667Y021533D01*
X014842Y021460D01*
X015032Y021460D01*
X015207Y021533D01*
X015350Y021688D02*
X015524Y021688D01*
X015460Y021846D02*
X015414Y021846D01*
X015414Y022005D02*
X015460Y022005D01*
X015515Y022164D02*
X015359Y022164D01*
X015226Y022322D02*
X015648Y022322D01*
X015793Y022481D02*
X015081Y022481D01*
X015032Y022460D02*
X015207Y022533D01*
X015341Y022667D01*
X015414Y022842D01*
X015414Y023032D01*
X015341Y023207D01*
X015207Y023341D01*
X015032Y023414D01*
X014842Y023414D01*
X014667Y023341D01*
X014533Y023207D01*
X014460Y023032D01*
X014460Y022842D01*
X014533Y022667D01*
X014667Y022533D01*
X014842Y022460D01*
X015032Y022460D01*
X014793Y022481D02*
X014081Y022481D01*
X014032Y022460D02*
X014207Y022533D01*
X014341Y022667D01*
X014414Y022842D01*
X014414Y023032D01*
X014341Y023207D01*
X014207Y023341D01*
X014032Y023414D01*
X013842Y023414D01*
X013667Y023341D01*
X013533Y023207D01*
X013460Y023032D01*
X013460Y022842D01*
X013533Y022667D01*
X013667Y022533D01*
X013842Y022460D01*
X014032Y022460D01*
X014032Y022414D02*
X013842Y022414D01*
X013667Y022341D01*
X013533Y022207D01*
X013460Y022032D01*
X013460Y021842D01*
X013533Y021667D01*
X013667Y021533D01*
X013842Y021460D01*
X014032Y021460D01*
X014207Y021533D01*
X014341Y021667D01*
X014414Y021842D01*
X014414Y022032D01*
X014341Y022207D01*
X014207Y022341D01*
X014032Y022414D01*
X014226Y022322D02*
X014648Y022322D01*
X014515Y022164D02*
X014359Y022164D01*
X014414Y022005D02*
X014460Y022005D01*
X014460Y021846D02*
X014414Y021846D01*
X014350Y021688D02*
X014524Y021688D01*
X014675Y021529D02*
X014199Y021529D01*
X013675Y021529D02*
X013199Y021529D01*
X013207Y021533D02*
X013341Y021667D01*
X013414Y021842D01*
X013414Y022032D01*
X013341Y022207D01*
X013207Y022341D01*
X013032Y022414D01*
X012842Y022414D01*
X012667Y022341D01*
X012533Y022207D01*
X012460Y022032D01*
X012460Y021842D01*
X012533Y021667D01*
X012667Y021533D01*
X012842Y021460D01*
X013032Y021460D01*
X013207Y021533D01*
X013350Y021688D02*
X013524Y021688D01*
X013460Y021846D02*
X013414Y021846D01*
X013414Y022005D02*
X013460Y022005D01*
X013515Y022164D02*
X013359Y022164D01*
X013226Y022322D02*
X013648Y022322D01*
X013793Y022481D02*
X013081Y022481D01*
X013032Y022460D02*
X013207Y022533D01*
X013341Y022667D01*
X013414Y022842D01*
X013414Y023032D01*
X013341Y023207D01*
X013207Y023341D01*
X013032Y023414D01*
X012842Y023414D01*
X012667Y023341D01*
X012533Y023207D01*
X012460Y023032D01*
X012460Y022842D01*
X012533Y022667D01*
X012667Y022533D01*
X012842Y022460D01*
X013032Y022460D01*
X012793Y022481D02*
X012081Y022481D01*
X012032Y022460D02*
X012207Y022533D01*
X012341Y022667D01*
X012414Y022842D01*
X012414Y023032D01*
X012341Y023207D01*
X012207Y023341D01*
X012032Y023414D01*
X011842Y023414D01*
X011667Y023341D01*
X011533Y023207D01*
X011460Y023032D01*
X011460Y022842D01*
X011533Y022667D01*
X011667Y022533D01*
X011842Y022460D01*
X012032Y022460D01*
X012032Y022414D02*
X011842Y022414D01*
X011667Y022341D01*
X011533Y022207D01*
X011460Y022032D01*
X011460Y021842D01*
X011533Y021667D01*
X011667Y021533D01*
X011842Y021460D01*
X012032Y021460D01*
X012207Y021533D01*
X012341Y021667D01*
X012414Y021842D01*
X012414Y022032D01*
X012341Y022207D01*
X012207Y022341D01*
X012032Y022414D01*
X012226Y022322D02*
X012648Y022322D01*
X012515Y022164D02*
X012359Y022164D01*
X012414Y022005D02*
X012460Y022005D01*
X012460Y021846D02*
X012414Y021846D01*
X012350Y021688D02*
X012524Y021688D01*
X012675Y021529D02*
X012199Y021529D01*
X011675Y021529D02*
X011199Y021529D01*
X011350Y021688D02*
X011524Y021688D01*
X011460Y021846D02*
X011414Y021846D01*
X011414Y022005D02*
X011460Y022005D01*
X011515Y022164D02*
X011359Y022164D01*
X011226Y022322D02*
X011648Y022322D01*
X011793Y022481D02*
X011081Y022481D01*
X011314Y022639D02*
X011561Y022639D01*
X011479Y022798D02*
X011395Y022798D01*
X011414Y022956D02*
X011460Y022956D01*
X011495Y023115D02*
X011380Y023115D01*
X011275Y023273D02*
X011599Y023273D01*
X012275Y023273D02*
X012599Y023273D01*
X012495Y023115D02*
X012380Y023115D01*
X012414Y022956D02*
X012460Y022956D01*
X012479Y022798D02*
X012395Y022798D01*
X012314Y022639D02*
X012561Y022639D01*
X013314Y022639D02*
X013561Y022639D01*
X013479Y022798D02*
X013395Y022798D01*
X013414Y022956D02*
X013460Y022956D01*
X013495Y023115D02*
X013380Y023115D01*
X013275Y023273D02*
X013599Y023273D01*
X014275Y023273D02*
X014599Y023273D01*
X014495Y023115D02*
X014380Y023115D01*
X014414Y022956D02*
X014460Y022956D01*
X014479Y022798D02*
X014395Y022798D01*
X014314Y022639D02*
X014561Y022639D01*
X015314Y022639D02*
X015561Y022639D01*
X015479Y022798D02*
X015395Y022798D01*
X015414Y022956D02*
X015460Y022956D01*
X015495Y023115D02*
X015380Y023115D01*
X015275Y023273D02*
X015599Y023273D01*
X016275Y023273D02*
X016599Y023273D01*
X016495Y023115D02*
X016380Y023115D01*
X016414Y022956D02*
X016460Y022956D01*
X016479Y022798D02*
X016395Y022798D01*
X016314Y022639D02*
X016561Y022639D01*
X017314Y022639D02*
X017561Y022639D01*
X017479Y022798D02*
X017395Y022798D01*
X017414Y022956D02*
X017460Y022956D01*
X017495Y023115D02*
X017380Y023115D01*
X017275Y023273D02*
X017599Y023273D01*
X018275Y023273D02*
X018599Y023273D01*
X018495Y023115D02*
X018380Y023115D01*
X018414Y022956D02*
X018460Y022956D01*
X018479Y022798D02*
X018395Y022798D01*
X018314Y022639D02*
X018561Y022639D01*
X019314Y022639D02*
X019561Y022639D01*
X019479Y022798D02*
X019395Y022798D01*
X019414Y022956D02*
X019460Y022956D01*
X019495Y023115D02*
X019380Y023115D01*
X019275Y023273D02*
X019599Y023273D01*
X020275Y023273D02*
X020599Y023273D01*
X020495Y023115D02*
X020380Y023115D01*
X020414Y022956D02*
X020460Y022956D01*
X020479Y022798D02*
X020395Y022798D01*
X020314Y022639D02*
X020561Y022639D01*
X021314Y022639D02*
X021561Y022639D01*
X021479Y022798D02*
X021395Y022798D01*
X021414Y022956D02*
X021460Y022956D01*
X021495Y023115D02*
X021380Y023115D01*
X021275Y023273D02*
X021599Y023273D01*
X022275Y023273D02*
X022599Y023273D01*
X022533Y023207D02*
X022460Y023032D01*
X022460Y022842D01*
X022533Y022667D01*
X022667Y022533D01*
X022842Y022460D01*
X023032Y022460D01*
X023207Y022533D01*
X023341Y022667D01*
X023414Y022842D01*
X023414Y023032D01*
X023341Y023207D01*
X023207Y023341D01*
X023032Y023414D01*
X022842Y023414D01*
X022667Y023341D01*
X022533Y023207D01*
X022495Y023115D02*
X022380Y023115D01*
X022414Y022956D02*
X022460Y022956D01*
X022479Y022798D02*
X022395Y022798D01*
X022314Y022639D02*
X022561Y022639D01*
X022793Y022481D02*
X022081Y022481D01*
X022226Y022322D02*
X022648Y022322D01*
X022667Y022341D02*
X022533Y022207D01*
X022460Y022032D01*
X022460Y021842D01*
X022533Y021667D01*
X022667Y021533D01*
X022842Y021460D01*
X023032Y021460D01*
X023207Y021533D01*
X023341Y021667D01*
X023414Y021842D01*
X023414Y022032D01*
X023341Y022207D01*
X023207Y022341D01*
X023032Y022414D01*
X022842Y022414D01*
X022667Y022341D01*
X022515Y022164D02*
X022359Y022164D01*
X022414Y022005D02*
X022460Y022005D01*
X022460Y021846D02*
X022414Y021846D01*
X022350Y021688D02*
X022524Y021688D01*
X022675Y021529D02*
X022199Y021529D01*
X022542Y021054D02*
X022833Y021054D01*
X022721Y020895D02*
X022653Y020895D01*
X022628Y020420D02*
X022746Y020420D01*
X022892Y020261D02*
X022482Y020261D01*
X022119Y019944D02*
X010741Y019944D01*
X010900Y019785D02*
X022278Y019785D01*
X021167Y020157D02*
X021167Y020667D01*
X020657Y020667D01*
X020657Y020645D01*
X020670Y020563D01*
X020696Y020484D01*
X020734Y020409D01*
X020783Y020342D01*
X020842Y020283D01*
X020909Y020234D01*
X020984Y020196D01*
X021063Y020170D01*
X021145Y020157D01*
X021167Y020157D01*
X021167Y020261D02*
X021207Y020261D01*
X021207Y020420D02*
X021167Y020420D01*
X021167Y020578D02*
X021207Y020578D01*
X021207Y020737D02*
X021167Y020737D01*
X021167Y020895D02*
X021207Y020895D01*
X021207Y021054D02*
X021167Y021054D01*
X020804Y021054D02*
X013105Y021054D01*
X013211Y020895D02*
X020698Y020895D01*
X020658Y020737D02*
X013251Y020737D01*
X013252Y020667D02*
X012743Y020667D01*
X012743Y020157D01*
X012764Y020157D01*
X012847Y020170D01*
X012926Y020196D01*
X013000Y020234D01*
X013068Y020283D01*
X013127Y020342D01*
X013176Y020409D01*
X013214Y020484D01*
X013239Y020563D01*
X013252Y020645D01*
X013252Y020667D01*
X013242Y020578D02*
X020668Y020578D01*
X020729Y020420D02*
X013181Y020420D01*
X013038Y020261D02*
X020872Y020261D01*
X023482Y020261D02*
X027464Y020261D01*
X027623Y020420D02*
X023628Y020420D01*
X023694Y020578D02*
X027781Y020578D01*
X027809Y020737D02*
X023697Y020737D01*
X023653Y020895D02*
X027864Y020895D01*
X028084Y021054D02*
X023542Y021054D01*
X023675Y021529D02*
X023199Y021529D01*
X023350Y021688D02*
X023524Y021688D01*
X023533Y021667D02*
X023667Y021533D01*
X023842Y021460D01*
X024032Y021460D01*
X024207Y021533D01*
X024341Y021667D01*
X024414Y021842D01*
X024414Y022032D01*
X024341Y022207D01*
X024207Y022341D01*
X024032Y022414D01*
X023842Y022414D01*
X023667Y022341D01*
X023533Y022207D01*
X023460Y022032D01*
X023460Y021842D01*
X023533Y021667D01*
X023460Y021846D02*
X023414Y021846D01*
X023414Y022005D02*
X023460Y022005D01*
X023515Y022164D02*
X023359Y022164D01*
X023226Y022322D02*
X023648Y022322D01*
X023667Y022533D02*
X023842Y022460D01*
X024032Y022460D01*
X024207Y022533D01*
X024341Y022667D01*
X024414Y022842D01*
X024414Y023032D01*
X024341Y023207D01*
X024207Y023341D01*
X024032Y023414D01*
X023842Y023414D01*
X023667Y023341D01*
X023533Y023207D01*
X023460Y023032D01*
X023460Y022842D01*
X023533Y022667D01*
X023667Y022533D01*
X023793Y022481D02*
X023081Y022481D01*
X023314Y022639D02*
X023561Y022639D01*
X023479Y022798D02*
X023395Y022798D01*
X023414Y022956D02*
X023460Y022956D01*
X023495Y023115D02*
X023380Y023115D01*
X023275Y023273D02*
X023599Y023273D01*
X024275Y023273D02*
X024599Y023273D01*
X024533Y023207D02*
X024460Y023032D01*
X024460Y022842D01*
X024533Y022667D01*
X024667Y022533D01*
X024842Y022460D01*
X025032Y022460D01*
X025207Y022533D01*
X025341Y022667D01*
X025414Y022842D01*
X025414Y023032D01*
X025341Y023207D01*
X025207Y023341D01*
X025032Y023414D01*
X024842Y023414D01*
X024667Y023341D01*
X024533Y023207D01*
X024495Y023115D02*
X024380Y023115D01*
X024414Y022956D02*
X024460Y022956D01*
X024479Y022798D02*
X024395Y022798D01*
X024314Y022639D02*
X024561Y022639D01*
X024793Y022481D02*
X024081Y022481D01*
X024226Y022322D02*
X024648Y022322D01*
X024667Y022341D02*
X024533Y022207D01*
X024460Y022032D01*
X024460Y021842D01*
X024533Y021667D01*
X024667Y021533D01*
X024842Y021460D01*
X025032Y021460D01*
X025207Y021533D01*
X025341Y021667D01*
X025414Y021842D01*
X025414Y022032D01*
X025341Y022207D01*
X025207Y022341D01*
X025032Y022414D01*
X024842Y022414D01*
X024667Y022341D01*
X024515Y022164D02*
X024359Y022164D01*
X024414Y022005D02*
X024460Y022005D01*
X024460Y021846D02*
X024414Y021846D01*
X024350Y021688D02*
X024524Y021688D01*
X024675Y021529D02*
X024199Y021529D01*
X025199Y021529D02*
X025675Y021529D01*
X025667Y021533D02*
X025842Y021460D01*
X026032Y021460D01*
X026207Y021533D01*
X026341Y021667D01*
X026414Y021842D01*
X026414Y022032D01*
X026341Y022207D01*
X026207Y022341D01*
X026032Y022414D01*
X025842Y022414D01*
X025667Y022341D01*
X025533Y022207D01*
X025460Y022032D01*
X025460Y021842D01*
X025533Y021667D01*
X025667Y021533D01*
X025524Y021688D02*
X025350Y021688D01*
X025414Y021846D02*
X025460Y021846D01*
X025460Y022005D02*
X025414Y022005D01*
X025359Y022164D02*
X025515Y022164D01*
X025648Y022322D02*
X025226Y022322D01*
X025081Y022481D02*
X025793Y022481D01*
X025842Y022460D02*
X026032Y022460D01*
X026207Y022533D01*
X026341Y022667D01*
X026414Y022842D01*
X026414Y023032D01*
X026341Y023207D01*
X026207Y023341D01*
X026032Y023414D01*
X025842Y023414D01*
X025667Y023341D01*
X025533Y023207D01*
X025460Y023032D01*
X025460Y022842D01*
X025533Y022667D01*
X025667Y022533D01*
X025842Y022460D01*
X026081Y022481D02*
X026793Y022481D01*
X026842Y022460D02*
X027032Y022460D01*
X027207Y022533D01*
X027341Y022667D01*
X027414Y022842D01*
X027414Y023032D01*
X027341Y023207D01*
X027207Y023341D01*
X027032Y023414D01*
X026842Y023414D01*
X026667Y023341D01*
X026533Y023207D01*
X026460Y023032D01*
X026460Y022842D01*
X026533Y022667D01*
X026667Y022533D01*
X026842Y022460D01*
X026842Y022414D02*
X026667Y022341D01*
X026533Y022207D01*
X026460Y022032D01*
X026460Y021842D01*
X026533Y021667D01*
X026667Y021533D01*
X026842Y021460D01*
X027032Y021460D01*
X027207Y021533D01*
X027341Y021667D01*
X027414Y021842D01*
X027414Y022032D01*
X027341Y022207D01*
X027207Y022341D01*
X027032Y022414D01*
X026842Y022414D01*
X026648Y022322D02*
X026226Y022322D01*
X026359Y022164D02*
X026515Y022164D01*
X026460Y022005D02*
X026414Y022005D01*
X026414Y021846D02*
X026460Y021846D01*
X026524Y021688D02*
X026350Y021688D01*
X026199Y021529D02*
X026675Y021529D01*
X027199Y021529D02*
X027675Y021529D01*
X027667Y021533D02*
X027842Y021460D01*
X028032Y021460D01*
X028207Y021533D01*
X028341Y021667D01*
X028414Y021842D01*
X028414Y022032D01*
X028341Y022207D01*
X028207Y022341D01*
X028032Y022414D01*
X027842Y022414D01*
X027667Y022341D01*
X027533Y022207D01*
X027460Y022032D01*
X027460Y021842D01*
X027533Y021667D01*
X027667Y021533D01*
X027524Y021688D02*
X027350Y021688D01*
X027414Y021846D02*
X027460Y021846D01*
X027460Y022005D02*
X027414Y022005D01*
X027359Y022164D02*
X027515Y022164D01*
X027648Y022322D02*
X027226Y022322D01*
X027081Y022481D02*
X027793Y022481D01*
X027842Y022460D02*
X028032Y022460D01*
X028207Y022533D01*
X028341Y022667D01*
X028414Y022842D01*
X028414Y023032D01*
X028341Y023207D01*
X028207Y023341D01*
X028032Y023414D01*
X027842Y023414D01*
X027667Y023341D01*
X027533Y023207D01*
X027460Y023032D01*
X027460Y022842D01*
X027533Y022667D01*
X027667Y022533D01*
X027842Y022460D01*
X028081Y022481D02*
X028793Y022481D01*
X028842Y022460D02*
X029032Y022460D01*
X029207Y022533D01*
X029341Y022667D01*
X029414Y022842D01*
X029414Y023032D01*
X029341Y023207D01*
X029207Y023341D01*
X029032Y023414D01*
X028842Y023414D01*
X028667Y023341D01*
X028533Y023207D01*
X028460Y023032D01*
X028460Y022842D01*
X028533Y022667D01*
X028667Y022533D01*
X028842Y022460D01*
X028842Y022414D02*
X028667Y022341D01*
X028533Y022207D01*
X028460Y022032D01*
X028460Y021842D01*
X028533Y021667D01*
X028667Y021533D01*
X028842Y021460D01*
X029032Y021460D01*
X029207Y021533D01*
X029341Y021667D01*
X029414Y021842D01*
X029414Y022032D01*
X029341Y022207D01*
X029207Y022341D01*
X029032Y022414D01*
X028842Y022414D01*
X028648Y022322D02*
X028226Y022322D01*
X028359Y022164D02*
X028515Y022164D01*
X028460Y022005D02*
X028414Y022005D01*
X028414Y021846D02*
X028460Y021846D01*
X028524Y021688D02*
X028350Y021688D01*
X028199Y021529D02*
X028675Y021529D01*
X029199Y021529D02*
X029675Y021529D01*
X029667Y021533D02*
X029842Y021460D01*
X030032Y021460D01*
X030207Y021533D01*
X030341Y021667D01*
X030414Y021842D01*
X030414Y022032D01*
X030341Y022207D01*
X030207Y022341D01*
X030032Y022414D01*
X029842Y022414D01*
X029667Y022341D01*
X029533Y022207D01*
X029460Y022032D01*
X029460Y021842D01*
X029533Y021667D01*
X029667Y021533D01*
X029524Y021688D02*
X029350Y021688D01*
X029414Y021846D02*
X029460Y021846D01*
X029460Y022005D02*
X029414Y022005D01*
X029359Y022164D02*
X029515Y022164D01*
X029648Y022322D02*
X029226Y022322D01*
X029081Y022481D02*
X029793Y022481D01*
X029842Y022460D02*
X030032Y022460D01*
X030207Y022533D01*
X030341Y022667D01*
X030414Y022842D01*
X030414Y023032D01*
X030341Y023207D01*
X030207Y023341D01*
X030032Y023414D01*
X029842Y023414D01*
X029667Y023341D01*
X029533Y023207D01*
X029460Y023032D01*
X029460Y022842D01*
X029533Y022667D01*
X029667Y022533D01*
X029842Y022460D01*
X030081Y022481D02*
X030793Y022481D01*
X030842Y022460D02*
X031032Y022460D01*
X031207Y022533D01*
X031341Y022667D01*
X031414Y022842D01*
X031414Y023032D01*
X031341Y023207D01*
X031207Y023341D01*
X031032Y023414D01*
X030842Y023414D01*
X030667Y023341D01*
X030533Y023207D01*
X030460Y023032D01*
X030460Y022842D01*
X030533Y022667D01*
X030667Y022533D01*
X030842Y022460D01*
X030842Y022414D02*
X030667Y022341D01*
X030533Y022207D01*
X030460Y022032D01*
X030460Y021842D01*
X030533Y021667D01*
X030667Y021533D01*
X030842Y021460D01*
X031032Y021460D01*
X031207Y021533D01*
X031341Y021667D01*
X031414Y021842D01*
X031414Y022032D01*
X031341Y022207D01*
X031207Y022341D01*
X031032Y022414D01*
X030842Y022414D01*
X030648Y022322D02*
X030226Y022322D01*
X030359Y022164D02*
X030515Y022164D01*
X030460Y022005D02*
X030414Y022005D01*
X030414Y021846D02*
X030460Y021846D01*
X030524Y021688D02*
X030350Y021688D01*
X030199Y021529D02*
X030675Y021529D01*
X031199Y021529D02*
X031675Y021529D01*
X031524Y021688D02*
X031350Y021688D01*
X031414Y021846D02*
X031460Y021846D01*
X031460Y022005D02*
X031414Y022005D01*
X031359Y022164D02*
X031515Y022164D01*
X031648Y022322D02*
X031226Y022322D01*
X031081Y022481D02*
X031793Y022481D01*
X031561Y022639D02*
X031314Y022639D01*
X031395Y022798D02*
X031479Y022798D01*
X031460Y022956D02*
X031414Y022956D01*
X031380Y023115D02*
X031495Y023115D01*
X031599Y023273D02*
X031275Y023273D01*
X030599Y023273D02*
X030275Y023273D01*
X030380Y023115D02*
X030495Y023115D01*
X030460Y022956D02*
X030414Y022956D01*
X030395Y022798D02*
X030479Y022798D01*
X030561Y022639D02*
X030314Y022639D01*
X029561Y022639D02*
X029314Y022639D01*
X029395Y022798D02*
X029479Y022798D01*
X029460Y022956D02*
X029414Y022956D01*
X029380Y023115D02*
X029495Y023115D01*
X029599Y023273D02*
X029275Y023273D01*
X028599Y023273D02*
X028275Y023273D01*
X028380Y023115D02*
X028495Y023115D01*
X028460Y022956D02*
X028414Y022956D01*
X028395Y022798D02*
X028479Y022798D01*
X028561Y022639D02*
X028314Y022639D01*
X027561Y022639D02*
X027314Y022639D01*
X027395Y022798D02*
X027479Y022798D01*
X027460Y022956D02*
X027414Y022956D01*
X027380Y023115D02*
X027495Y023115D01*
X027599Y023273D02*
X027275Y023273D01*
X026599Y023273D02*
X026275Y023273D01*
X026380Y023115D02*
X026495Y023115D01*
X026460Y022956D02*
X026414Y022956D01*
X026395Y022798D02*
X026479Y022798D01*
X026561Y022639D02*
X026314Y022639D01*
X025561Y022639D02*
X025314Y022639D01*
X025395Y022798D02*
X025479Y022798D01*
X025460Y022956D02*
X025414Y022956D01*
X025380Y023115D02*
X025495Y023115D01*
X025599Y023273D02*
X025275Y023273D01*
X028290Y021054D02*
X032952Y021054D01*
X032992Y020895D02*
X028510Y020895D01*
X028565Y020737D02*
X033057Y020737D01*
X033153Y020578D02*
X028551Y020578D01*
X028454Y020420D02*
X033312Y020420D01*
X033599Y020261D02*
X028058Y020261D01*
X027958Y018993D02*
X027790Y018993D01*
X027839Y018834D02*
X027631Y018834D01*
X027809Y018676D02*
X024953Y018676D01*
X024749Y018200D02*
X024737Y018200D01*
X024737Y018041D02*
X024917Y018041D01*
X024942Y017883D02*
X025984Y017883D01*
X025947Y017724D02*
X025006Y017724D01*
X024982Y017566D02*
X025863Y017566D01*
X025849Y017407D02*
X024845Y017407D01*
X024529Y017407D02*
X024418Y017407D01*
X024506Y017249D02*
X025904Y017249D01*
X026135Y018041D02*
X025157Y018041D01*
X023991Y016932D02*
X015977Y016932D01*
X015397Y016932D02*
X013387Y016932D01*
X013387Y016773D02*
X015313Y016773D01*
X015309Y016615D02*
X013387Y016615D01*
X013387Y016456D02*
X015383Y016456D01*
X015991Y016456D02*
X027607Y016456D01*
X027766Y016297D02*
X013387Y016297D01*
X013387Y016139D02*
X027924Y016139D01*
X028083Y015980D02*
X017929Y015980D01*
X013398Y012492D02*
X013387Y012492D01*
X013387Y012175D02*
X013418Y012175D01*
X013387Y012017D02*
X014046Y012017D01*
X013961Y011858D02*
X014209Y011858D01*
X014373Y011700D02*
X014006Y011700D01*
X014130Y011541D02*
X014536Y011541D01*
X014606Y011066D02*
X023769Y011066D01*
X023610Y010907D02*
X014764Y010907D01*
X013413Y011858D02*
X013387Y011858D01*
X012477Y011383D02*
X012417Y011383D01*
X012477Y011224D02*
X012021Y011224D01*
X011897Y011066D02*
X012477Y011066D01*
X012477Y010907D02*
X011897Y010907D01*
X011897Y010748D02*
X012477Y010748D01*
X012487Y010590D02*
X011897Y010590D01*
X011897Y010431D02*
X012646Y010431D01*
X012804Y010273D02*
X011897Y010273D01*
X011897Y010114D02*
X012963Y010114D01*
X013121Y009956D02*
X011897Y009956D01*
X010467Y009956D02*
X002392Y009956D01*
X002392Y010114D02*
X010467Y010114D01*
X010467Y010273D02*
X010313Y010273D01*
X010392Y010431D02*
X010467Y010431D01*
X010467Y010590D02*
X010392Y010590D01*
X010392Y010748D02*
X010467Y010748D01*
X010467Y010907D02*
X010392Y010907D01*
X010392Y011066D02*
X010467Y011066D01*
X010467Y011224D02*
X010392Y011224D01*
X010392Y011383D02*
X010467Y011383D01*
X010467Y011541D02*
X010392Y011541D01*
X010392Y011700D02*
X010467Y011700D01*
X010467Y011858D02*
X010392Y011858D01*
X010392Y012017D02*
X010467Y012017D01*
X010467Y012175D02*
X010392Y012175D01*
X010392Y012334D02*
X010467Y012334D01*
X010467Y012492D02*
X010392Y012492D01*
X010392Y012651D02*
X010467Y012651D01*
X010467Y012809D02*
X010392Y012809D01*
X010392Y012968D02*
X010467Y012968D01*
X010467Y013127D02*
X010392Y013127D01*
X010392Y013285D02*
X010467Y013285D01*
X010467Y013444D02*
X010392Y013444D01*
X010392Y013602D02*
X010467Y013602D01*
X010467Y013761D02*
X010392Y013761D01*
X010392Y013919D02*
X010467Y013919D01*
X010467Y014078D02*
X010392Y014078D01*
X010392Y014236D02*
X010467Y014236D01*
X010467Y014395D02*
X010392Y014395D01*
X010392Y014553D02*
X010467Y014553D01*
X010467Y014712D02*
X010392Y014712D01*
X010392Y014871D02*
X010467Y014871D01*
X010467Y015029D02*
X010392Y015029D01*
X010392Y015188D02*
X010467Y015188D01*
X010467Y015346D02*
X010392Y015346D01*
X010392Y015505D02*
X010467Y015505D01*
X010467Y015663D02*
X010392Y015663D01*
X010392Y015822D02*
X010511Y015822D01*
X010392Y015980D02*
X010669Y015980D01*
X010828Y016139D02*
X010392Y016139D01*
X010392Y016297D02*
X010986Y016297D01*
X011145Y016456D02*
X010392Y016456D01*
X010392Y016615D02*
X011303Y016615D01*
X011313Y016773D02*
X010392Y016773D01*
X010392Y016932D02*
X010408Y016932D01*
X010966Y016932D02*
X011397Y016932D01*
X012018Y020261D02*
X012407Y020261D01*
X012264Y020420D02*
X012164Y020420D01*
X012702Y020420D02*
X012743Y020420D01*
X012743Y020578D02*
X012702Y020578D01*
X012702Y020737D02*
X012743Y020737D01*
X012743Y020895D02*
X012702Y020895D01*
X012702Y021054D02*
X012743Y021054D01*
X012340Y021054D02*
X012077Y021054D01*
X012188Y020895D02*
X012234Y020895D01*
X012702Y020261D02*
X012743Y020261D01*
X009956Y022005D02*
X009919Y022005D01*
X009919Y022164D02*
X009956Y022164D01*
X009956Y022322D02*
X009919Y022322D01*
X009571Y023273D02*
X006172Y023273D01*
X006137Y023337D02*
X005887Y023087D01*
X004652Y018834D02*
X004642Y018834D01*
X004642Y018676D02*
X004806Y018676D01*
X004851Y018517D02*
X004642Y018517D01*
X004642Y018359D02*
X004660Y018359D01*
X002392Y009797D02*
X010467Y009797D01*
X010467Y009639D02*
X002392Y009639D01*
X002392Y009480D02*
X010467Y009480D01*
X010467Y009322D02*
X002392Y009322D01*
X002392Y009163D02*
X010467Y009163D01*
X010467Y009004D02*
X002392Y009004D01*
X002392Y008846D02*
X003126Y008846D01*
X003146Y008866D02*
X003046Y008765D01*
X002991Y008634D01*
X002991Y008492D01*
X003046Y008361D01*
X003146Y008260D01*
X003277Y008206D01*
X003420Y008206D01*
X003551Y008260D01*
X003651Y008361D01*
X003706Y008492D01*
X003706Y008634D01*
X003651Y008765D01*
X003551Y008866D01*
X003420Y008920D01*
X003277Y008920D01*
X003146Y008866D01*
X003013Y008687D02*
X002392Y008687D01*
X002392Y008529D02*
X002991Y008529D01*
X003042Y008370D02*
X002392Y008370D01*
X002392Y008212D02*
X003263Y008212D01*
X003434Y008212D02*
X010401Y008212D01*
X010467Y008370D02*
X003655Y008370D01*
X003706Y008529D02*
X010467Y008529D01*
X010467Y008687D02*
X003684Y008687D01*
X003571Y008846D02*
X010467Y008846D01*
X010242Y008053D02*
X002392Y008053D01*
X002392Y007895D02*
X006443Y007895D01*
X006368Y007736D02*
X002392Y007736D01*
X002392Y007578D02*
X006387Y007578D01*
X006406Y007419D02*
X006504Y007419D01*
X006395Y006943D02*
X012216Y006943D01*
X012164Y007102D02*
X010913Y007102D01*
X011072Y007260D02*
X012162Y007260D01*
X012210Y007419D02*
X011230Y007419D01*
X011389Y007578D02*
X012328Y007578D01*
X012340Y006785D02*
X003706Y006785D01*
X003706Y006760D02*
X003651Y006628D01*
X003551Y006528D01*
X003420Y006474D01*
X003277Y006474D01*
X003146Y006528D01*
X003046Y006628D01*
X002991Y006760D01*
X002991Y006902D01*
X003046Y007033D01*
X003146Y007134D01*
X003277Y007188D01*
X003420Y007188D01*
X003551Y007134D01*
X003651Y007033D01*
X003706Y006902D01*
X003706Y006760D01*
X003649Y006626D02*
X012415Y006626D01*
X012251Y006468D02*
X002392Y006468D01*
X002392Y006626D02*
X003048Y006626D01*
X002991Y006785D02*
X002392Y006785D01*
X002392Y006943D02*
X003009Y006943D01*
X003115Y007102D02*
X002392Y007102D01*
X002392Y007260D02*
X005872Y007260D01*
X005877Y007102D02*
X003582Y007102D01*
X003688Y006943D02*
X005980Y006943D01*
X005968Y007419D02*
X002392Y007419D01*
X002392Y006309D02*
X012186Y006309D01*
X012177Y006151D02*
X002392Y006151D01*
X002392Y005992D02*
X012216Y005992D01*
X012319Y005834D02*
X002392Y005834D01*
X008519Y004248D02*
X009549Y004248D01*
X009464Y004090D02*
X008678Y004090D01*
X009919Y004090D02*
X009956Y004090D01*
X009956Y004248D02*
X009919Y004248D01*
X009956Y003931D02*
X010460Y003931D01*
X010484Y004090D02*
X010410Y004090D01*
X010325Y004248D02*
X010574Y004248D01*
X010489Y003773D02*
X010406Y003773D01*
X010316Y003614D02*
X010586Y003614D01*
X009956Y003614D02*
X009919Y003614D01*
X009919Y003773D02*
X009956Y003773D01*
X012288Y003614D02*
X012586Y003614D01*
X012489Y003773D02*
X012385Y003773D01*
X012414Y003931D02*
X012460Y003931D01*
X012484Y004090D02*
X012390Y004090D01*
X012300Y004248D02*
X012574Y004248D01*
X016309Y007192D02*
X016367Y007331D01*
X016454Y007419D01*
X016601Y007895D02*
X016774Y007895D01*
X018968Y009907D02*
X018968Y009907D01*
X025635Y010590D02*
X027387Y010590D01*
X027229Y010748D02*
X025761Y010748D01*
X025795Y010907D02*
X027070Y010907D01*
X026912Y011066D02*
X025761Y011066D01*
X026189Y011224D02*
X026753Y011224D01*
X026595Y011383D02*
X026277Y011383D01*
X026285Y011541D02*
X026436Y011541D01*
X026277Y011700D02*
X026219Y011700D01*
X026983Y012968D02*
X027914Y012968D01*
X027859Y013127D02*
X027121Y013127D01*
X027220Y013285D02*
X027873Y013285D01*
X027969Y013444D02*
X027550Y013444D01*
X027704Y013602D02*
X028017Y013602D01*
X028017Y013761D02*
X027745Y013761D01*
X027717Y013919D02*
X028017Y013919D01*
X028907Y014236D02*
X031487Y014236D01*
X031487Y014078D02*
X029101Y014078D01*
X029206Y013919D02*
X031487Y013919D01*
X031487Y013761D02*
X029225Y013761D01*
X029176Y013602D02*
X031487Y013602D01*
X031487Y013444D02*
X028982Y013444D01*
X029994Y013285D02*
X031487Y013285D01*
X031487Y013127D02*
X030595Y013127D01*
X030753Y012968D02*
X031487Y012968D01*
X031487Y014395D02*
X028907Y014395D01*
X028907Y014553D02*
X031487Y014553D01*
X031487Y014712D02*
X028907Y014712D01*
X028907Y014871D02*
X031487Y014871D01*
X031487Y015029D02*
X028907Y015029D01*
X028907Y015188D02*
X031487Y015188D01*
X031487Y015346D02*
X028907Y015346D01*
X028907Y015505D02*
X031487Y015505D01*
X031487Y015663D02*
X028907Y015663D01*
X028863Y015822D02*
X031487Y015822D01*
X031487Y015980D02*
X028705Y015980D01*
X028546Y016139D02*
X031487Y016139D01*
X031487Y016297D02*
X028388Y016297D01*
X028229Y016456D02*
X031634Y016456D01*
X031972Y017566D02*
X033005Y017566D01*
X032781Y017724D02*
X031811Y017724D01*
X032545Y017894D02*
X032545Y017894D01*
X032560Y017883D02*
X030244Y017883D01*
X029726Y018200D02*
X027997Y018200D01*
X028382Y018359D02*
X029946Y018359D01*
X028241Y015822D02*
X027863Y015822D01*
X035455Y017077D02*
X035455Y012497D01*
X035379Y007578D02*
X035982Y007578D01*
X035982Y007419D02*
X035346Y007419D01*
X026923Y007102D02*
X026529Y007102D01*
X026574Y004248D02*
X026300Y004248D01*
X026390Y004090D02*
X026484Y004090D01*
X026460Y003931D02*
X026414Y003931D01*
X026385Y003773D02*
X026489Y003773D01*
X026586Y003614D02*
X026288Y003614D01*
X012308Y008529D02*
X012142Y008529D01*
X032199Y021529D02*
X033013Y021529D01*
X033078Y021688D02*
X032350Y021688D01*
X032414Y021846D02*
X033203Y021846D01*
X033362Y022005D02*
X032414Y022005D01*
X032359Y022164D02*
X033721Y022164D01*
D21*
X032777Y018667D03*
X026187Y016187D03*
X024687Y017687D03*
X024187Y017187D03*
X025037Y018337D03*
X025187Y019687D03*
X018687Y014687D03*
X015877Y012437D03*
X016687Y011687D03*
X019187Y011687D03*
X013687Y011687D03*
X013687Y012357D03*
X012187Y013687D03*
X012187Y014687D03*
X006687Y007687D03*
X006187Y007187D03*
X022687Y007187D03*
X028187Y009687D03*
X028567Y010077D03*
X029047Y009677D03*
X029127Y010687D03*
X031177Y008597D03*
X032567Y008747D03*
X031187Y006687D03*
X031187Y013047D03*
X033187Y013367D03*
D22*
X028847Y013797D02*
X028687Y013987D01*
X028687Y015687D01*
X027687Y016687D01*
X015687Y016687D01*
X017687Y015687D02*
X027687Y015687D01*
X028237Y015137D01*
X028237Y013177D01*
X027367Y013777D02*
X027287Y013857D01*
X025417Y013857D01*
X024647Y013407D02*
X026877Y013407D01*
X024917Y011267D02*
X023837Y010187D01*
X018687Y010187D01*
X017587Y009087D01*
X016687Y009087D01*
X014287Y009087D01*
X013687Y009687D01*
X014187Y007687D02*
X016497Y007687D01*
X016687Y007497D01*
X018877Y009687D01*
X024297Y009677D01*
X025417Y010907D01*
X016687Y007497D02*
X016687Y007117D01*
X011187Y007687D02*
X010687Y007187D01*
X006187Y007187D01*
X006687Y007687D02*
X010187Y007687D01*
X010687Y008187D01*
X010687Y015687D01*
X011687Y016687D01*
X011187Y015187D02*
X011187Y007687D01*
X010847Y019527D02*
X010287Y020087D01*
X005387Y020087D01*
X022187Y020187D02*
X022187Y020687D01*
X022187Y020187D02*
X022687Y019687D01*
X025187Y019687D01*
M02*
