%
M48
M72
T01C0.0118
T02C0.0236
T03C0.0354
T04C0.0394
T05C0.0400
T06C0.1250
%
T01
X6187Y7187
X6687Y7687
X13687Y11687
X13687Y12357
X12187Y13687
X12187Y14687
X15877Y12437
X16687Y11687
X19187Y11687
X18687Y14687
X24187Y17187
X24687Y17687
X25037Y18337
X25187Y19687
X26187Y16187
X31187Y13047
X33187Y13367
X29127Y10687
X28567Y10077
X28187Y9687
X29047Y9677
X31177Y8597
X32567Y8747
X31187Y6687
X22687Y7187
X32777Y18667
T02
X31637Y17387
X30787Y17337
X32187Y16687
X35455Y17077
X29767Y12977
X30447Y12277
X31697Y11847
X31687Y11187
X28237Y13177
X28847Y13797
X27367Y13777
X26857Y13397
X25417Y13857
X26317Y14437
X26197Y15187
X24647Y13407
X23617Y14447
X21687Y13927
X22187Y12947
X21457Y11937
X24917Y11267
X25417Y10907
X25907Y11477
X26467Y8767
X26937Y8337
X25407Y6637
X25397Y5847
X22367Y6637
X22207Y6057
X21687Y5687
X20187Y5187
X20187Y6517
X20187Y8527
X16687Y9087
X16687Y7117
X14187Y7687
X14187Y10187
X12187Y11687
X14957Y12317
X15527Y13587
X14227Y15587
X15687Y16687
X17687Y15687
X19507Y17327
X19497Y19007
X26227Y17457
X28187Y18687
X28187Y19687
X28187Y20687
X35455Y12497
X31687Y8687
X30787Y8187
X35455Y8187
X11687Y16687
X10687Y17187
X11187Y15187
T03
X3349Y8563
X3349Y6831
X35022Y7569
X35022Y9301
X35022Y12073
X35022Y13805
X35022Y16573
X35022Y18305
T04
X31937Y21937
X30937Y21937
X29937Y21937
X28937Y21937
X27937Y21937
X26937Y21937
X25937Y21937
X24937Y21937
X23937Y21937
X22937Y21937
X21937Y21937
X20937Y21937
X19937Y21937
X18937Y21937
X17937Y21937
X16937Y21937
X15937Y21937
X14937Y21937
X13937Y21937
X12937Y21937
X11937Y21937
X10937Y21937
X9937Y21937
X9937Y22937
X10937Y22937
X11937Y22937
X12937Y22937
X13937Y22937
X14937Y22937
X15937Y22937
X16937Y22937
X17937Y22937
X18937Y22937
X19937Y22937
X20937Y22937
X21937Y22937
X22937Y22937
X23937Y22937
X24937Y22937
X25937Y22937
X26937Y22937
X27937Y22937
X28937Y22937
X29937Y22937
X30937Y22937
X31937Y22937
X31937Y3937
X30937Y3937
X29937Y3937
X28937Y3937
X27937Y3937
X26937Y3937
X25937Y3937
X24937Y3937
X23937Y3937
X22937Y3937
X21937Y3937
X20937Y3937
X19937Y3937
X18937Y3937
X17937Y3937
X16937Y3937
X15937Y3937
X14937Y3937
X13937Y3937
X12937Y3937
X11937Y3937
X10937Y3937
X9937Y3937
X9937Y2937
X10937Y2937
X11937Y2937
X12937Y2937
X13937Y2937
X14937Y2937
X15937Y2937
X16937Y2937
X17937Y2937
X18937Y2937
X19937Y2937
X20937Y2937
X21937Y2937
X22937Y2937
X23937Y2937
X24937Y2937
X25937Y2937
X26937Y2937
X27937Y2937
X28937Y2937
X29937Y2937
X30937Y2937
X31937Y2937
T05
X29187Y5687
X28187Y5687
X27187Y5687
X27187Y6687
X28187Y6687
X29187Y6687
X12687Y6187
X12687Y7187
X12687Y8187
X12687Y9187
X5387Y18087
X5387Y19087
X5387Y20087
X5387Y21087
X5387Y22087
X5387Y23087
X11723Y20687
X12723Y20687
X21187Y20687
X22187Y20687
X23187Y20687
T06
X7937Y3437
X33937Y4687
X33937Y21187
M30
