G75*
G70*
%OFA0B0*%
%FSLAX24Y24*%
%IPPOS*%
%LPD*%
%AMOC8*
5,1,8,0,0,1.08239X$1,22.5*
%
%ADD10R,0.0580X0.0300*%
%ADD11R,0.0300X0.0580*%
%ADD12R,0.0513X0.0789*%
%ADD13R,0.0513X0.0474*%
%ADD14R,0.0474X0.0513*%
%ADD15R,0.0907X0.2285*%
%ADD16R,0.1655X0.0907*%
%ADD17C,0.0720*%
%ADD18OC8,0.0720*%
%ADD19R,0.1261X0.0887*%
%ADD20R,0.1458X0.0887*%
%ADD21C,0.0434*%
%ADD22R,0.0966X0.0277*%
%ADD23C,0.0720*%
%ADD24R,0.0474X0.0631*%
%ADD25R,0.0828X0.1419*%
%ADD26R,0.0867X0.0513*%
%ADD27R,0.0395X0.0395*%
%ADD28R,0.0714X0.0714*%
%ADD29C,0.0714*%
%ADD30C,0.1730*%
%ADD31R,0.0474X0.0671*%
%ADD32C,0.0780*%
D10*
X026497Y009585D03*
X026497Y009900D03*
X026497Y010215D03*
X026497Y010530D03*
X026497Y010845D03*
X026497Y011160D03*
X026497Y011474D03*
X026497Y011789D03*
X029877Y011789D03*
X029877Y011474D03*
X029877Y011160D03*
X029877Y010845D03*
X029877Y010530D03*
X029877Y010215D03*
X029877Y009900D03*
X029877Y009585D03*
D11*
X029289Y008997D03*
X028974Y008997D03*
X028660Y008997D03*
X028345Y008997D03*
X028030Y008997D03*
X027715Y008997D03*
X027400Y008997D03*
X027085Y008997D03*
X027085Y012377D03*
X027400Y012377D03*
X027715Y012377D03*
X028030Y012377D03*
X028345Y012377D03*
X028660Y012377D03*
X028974Y012377D03*
X029289Y012377D03*
D12*
X029344Y014596D03*
X027887Y014596D03*
X027887Y017037D03*
X029344Y017037D03*
D13*
X027027Y017122D03*
X027027Y016452D03*
X032187Y015522D03*
X032187Y014852D03*
X032187Y014022D03*
X032187Y013352D03*
X032187Y010522D03*
X032187Y009852D03*
X019487Y009852D03*
X019487Y010522D03*
X019487Y008522D03*
X019487Y007852D03*
X019487Y006522D03*
X019487Y005852D03*
X016687Y005852D03*
X016687Y006522D03*
X016687Y007852D03*
X016687Y008522D03*
X016687Y009852D03*
X016687Y010522D03*
D14*
X020232Y011937D03*
X020902Y011937D03*
X020902Y012937D03*
X020232Y012937D03*
X020232Y013937D03*
X020902Y013937D03*
X025467Y010182D03*
X025467Y009512D03*
X025467Y008222D03*
X025467Y007552D03*
X031187Y009852D03*
X031187Y010522D03*
X027027Y014452D03*
X027027Y015122D03*
X029852Y018687D03*
X030522Y018687D03*
X030522Y019687D03*
X029852Y019687D03*
X029852Y020687D03*
X030522Y020687D03*
D15*
X023961Y010309D03*
X023961Y006569D03*
D16*
X023587Y008439D03*
D17*
X029187Y006687D03*
D18*
X028187Y006687D03*
X027187Y006687D03*
X027187Y005687D03*
X028187Y005687D03*
X029187Y005687D03*
D19*
X035573Y006693D03*
X035573Y010177D03*
X035573Y011197D03*
X035573Y014681D03*
X035573Y015697D03*
X035573Y019181D03*
X002797Y009439D03*
X002797Y005955D03*
D20*
X004274Y005955D03*
X004274Y009439D03*
X034097Y010177D03*
X034097Y011197D03*
X034097Y014681D03*
X034097Y015697D03*
X034097Y019181D03*
X034097Y006693D03*
D21*
X035022Y007569D03*
X035022Y009301D03*
X035022Y012073D03*
X035022Y013805D03*
X035022Y016573D03*
X035022Y018305D03*
X003349Y008563D03*
X003349Y006831D03*
D22*
X004264Y007067D03*
X004264Y007382D03*
X004264Y007697D03*
X004264Y008012D03*
X004264Y008327D03*
X034106Y008435D03*
X034106Y008120D03*
X034106Y007805D03*
X034106Y008750D03*
X034106Y009065D03*
X034106Y012309D03*
X034106Y012624D03*
X034106Y012939D03*
X034106Y013254D03*
X034106Y013569D03*
X034106Y016809D03*
X034106Y017124D03*
X034106Y017439D03*
X034106Y017754D03*
X034106Y018069D03*
D23*
X005707Y018087D02*
X005067Y018087D01*
X005067Y019087D02*
X005707Y019087D01*
X005707Y020087D02*
X005067Y020087D01*
X005067Y021087D02*
X005707Y021087D01*
X005707Y022087D02*
X005067Y022087D01*
X005067Y023087D02*
X005707Y023087D01*
D24*
X018087Y010620D03*
X017713Y009754D03*
X018461Y009754D03*
X018087Y008620D03*
X017713Y007754D03*
X018461Y007754D03*
X018087Y006620D03*
X017713Y005754D03*
X018461Y005754D03*
D25*
X009245Y019757D03*
X007709Y019757D03*
D26*
X008017Y018077D03*
D27*
X007269Y018077D03*
D28*
X009937Y021937D03*
X009937Y002937D03*
D29*
X010937Y002937D03*
X011937Y002937D03*
X012937Y002937D03*
X013937Y002937D03*
X014937Y002937D03*
X015937Y002937D03*
X016937Y002937D03*
X017937Y002937D03*
X018937Y002937D03*
X019937Y002937D03*
X020937Y002937D03*
X021937Y002937D03*
X022937Y002937D03*
X023937Y002937D03*
X024937Y002937D03*
X025937Y002937D03*
X026937Y002937D03*
X027937Y002937D03*
X028937Y002937D03*
X029937Y002937D03*
X030937Y002937D03*
X031937Y002937D03*
X031937Y003937D03*
X030937Y003937D03*
X029937Y003937D03*
X028937Y003937D03*
X027937Y003937D03*
X026937Y003937D03*
X025937Y003937D03*
X024937Y003937D03*
X023937Y003937D03*
X022937Y003937D03*
X021937Y003937D03*
X020937Y003937D03*
X019937Y003937D03*
X018937Y003937D03*
X017937Y003937D03*
X016937Y003937D03*
X015937Y003937D03*
X014937Y003937D03*
X013937Y003937D03*
X012937Y003937D03*
X011937Y003937D03*
X010937Y003937D03*
X009937Y003937D03*
X010937Y021937D03*
X011937Y021937D03*
X012937Y021937D03*
X013937Y021937D03*
X014937Y021937D03*
X015937Y021937D03*
X016937Y021937D03*
X017937Y021937D03*
X018937Y021937D03*
X019937Y021937D03*
X020937Y021937D03*
X021937Y021937D03*
X022937Y021937D03*
X023937Y021937D03*
X024937Y021937D03*
X025937Y021937D03*
X026937Y021937D03*
X027937Y021937D03*
X028937Y021937D03*
X029937Y021937D03*
X030937Y021937D03*
X031937Y021937D03*
X031937Y022937D03*
X030937Y022937D03*
X029937Y022937D03*
X028937Y022937D03*
X027937Y022937D03*
X026937Y022937D03*
X025937Y022937D03*
X024937Y022937D03*
X023937Y022937D03*
X022937Y022937D03*
X021937Y022937D03*
X020937Y022937D03*
X019937Y022937D03*
X018937Y022937D03*
X017937Y022937D03*
X016937Y022937D03*
X015937Y022937D03*
X014937Y022937D03*
X013937Y022937D03*
X012937Y022937D03*
X011937Y022937D03*
X010937Y022937D03*
X009937Y022937D03*
D30*
X007937Y003437D03*
X033937Y004687D03*
X033937Y021187D03*
D31*
X032384Y020713D03*
X031833Y020713D03*
X031833Y019335D03*
X032384Y019335D03*
X015526Y015595D03*
X014974Y015595D03*
X014974Y014217D03*
X015526Y014217D03*
X015526Y011658D03*
X014974Y011658D03*
X014974Y010280D03*
X015526Y010280D03*
D32*
X012687Y009187D03*
X012687Y008187D03*
X012687Y007187D03*
X012687Y006187D03*
X012723Y020687D03*
X011723Y020687D03*
X021187Y020687D03*
X022187Y020687D03*
X023187Y020687D03*
M02*
