G75*
G70*
%OFA0B0*%
%FSLAX24Y24*%
%IPPOS*%
%LPD*%
%AMOC8*
5,1,8,0,0,1.08239X$1,22.5*
%
%ADD10R,0.0500X0.0220*%
%ADD11R,0.0220X0.0500*%
%ADD12R,0.0433X0.0709*%
%ADD13R,0.0433X0.0394*%
%ADD14R,0.0394X0.0433*%
%ADD15R,0.0827X0.2205*%
%ADD16R,0.1575X0.0827*%
%ADD17C,0.0640*%
%ADD18OC8,0.0640*%
%ADD19R,0.1181X0.0807*%
%ADD20R,0.1378X0.0807*%
%ADD21R,0.0886X0.0197*%
%ADD22C,0.0000*%
%ADD23C,0.0640*%
%ADD24R,0.0394X0.0551*%
%ADD25R,0.0748X0.1339*%
%ADD26R,0.0787X0.0433*%
%ADD27R,0.0315X0.0315*%
%ADD28C,0.0050*%
%ADD29R,0.0634X0.0634*%
%ADD30C,0.0634*%
%ADD31C,0.1650*%
%ADD32R,0.0394X0.0591*%
%ADD33C,0.0700*%
%ADD34C,0.0100*%
%ADD35C,0.0436*%
%ADD36C,0.0240*%
%ADD37C,0.0160*%
%ADD38C,0.0120*%
%ADD39C,0.0318*%
D10*
X026490Y009578D03*
X026490Y009893D03*
X026490Y010208D03*
X026490Y010523D03*
X026490Y010837D03*
X026490Y011152D03*
X026490Y011467D03*
X026490Y011782D03*
X029870Y011782D03*
X029870Y011467D03*
X029870Y011152D03*
X029870Y010837D03*
X029870Y010523D03*
X029870Y010208D03*
X029870Y009893D03*
X029870Y009578D03*
D11*
X029282Y008990D03*
X028967Y008990D03*
X028652Y008990D03*
X028337Y008990D03*
X028023Y008990D03*
X027708Y008990D03*
X027393Y008990D03*
X027078Y008990D03*
X027078Y012370D03*
X027393Y012370D03*
X027708Y012370D03*
X028023Y012370D03*
X028337Y012370D03*
X028652Y012370D03*
X028967Y012370D03*
X029282Y012370D03*
D12*
X029337Y014589D03*
X027880Y014589D03*
X027880Y017030D03*
X029337Y017030D03*
D13*
X027020Y017115D03*
X027020Y016445D03*
X032180Y015515D03*
X032180Y014845D03*
X032180Y014015D03*
X032180Y013345D03*
X032180Y010515D03*
X032180Y009845D03*
X019480Y009845D03*
X019480Y010515D03*
X019480Y008515D03*
X019480Y007845D03*
X019480Y006515D03*
X019480Y005845D03*
X016680Y005845D03*
X016680Y006515D03*
X016680Y007845D03*
X016680Y008515D03*
X016680Y009845D03*
X016680Y010515D03*
D14*
X020225Y011930D03*
X020895Y011930D03*
X020895Y012930D03*
X020225Y012930D03*
X020225Y013930D03*
X020895Y013930D03*
X025460Y010175D03*
X025460Y009505D03*
X025460Y008215D03*
X025460Y007545D03*
X031180Y009845D03*
X031180Y010515D03*
X027020Y014445D03*
X027020Y015115D03*
X029845Y018680D03*
X030515Y018680D03*
X030515Y019680D03*
X029845Y019680D03*
X029845Y020680D03*
X030515Y020680D03*
D15*
X023954Y010302D03*
X023954Y006562D03*
D16*
X023580Y008432D03*
D17*
X029180Y006680D03*
D18*
X028180Y006680D03*
X027180Y006680D03*
X027180Y005680D03*
X028180Y005680D03*
X029180Y005680D03*
D19*
X035566Y006686D03*
X035566Y010170D03*
X035566Y011190D03*
X035566Y014674D03*
X035566Y015690D03*
X035566Y019174D03*
X002790Y009432D03*
X002790Y005948D03*
D20*
X004267Y005948D03*
X004267Y009432D03*
X034089Y010170D03*
X034089Y011190D03*
X034089Y014674D03*
X034089Y015690D03*
X034089Y019174D03*
X034089Y006686D03*
D21*
X034099Y007798D03*
X034099Y008113D03*
X034099Y008428D03*
X034099Y008743D03*
X034099Y009058D03*
X034099Y012302D03*
X034099Y012617D03*
X034099Y012932D03*
X034099Y013247D03*
X034099Y013562D03*
X034099Y016802D03*
X034099Y017117D03*
X034099Y017432D03*
X034099Y017747D03*
X034099Y018062D03*
X004257Y008320D03*
X004257Y008005D03*
X004257Y007690D03*
X004257Y007375D03*
X004257Y007060D03*
D22*
X003164Y006824D02*
X003166Y006850D01*
X003172Y006876D01*
X003182Y006901D01*
X003195Y006924D01*
X003211Y006944D01*
X003231Y006962D01*
X003253Y006977D01*
X003276Y006989D01*
X003302Y006997D01*
X003328Y007001D01*
X003354Y007001D01*
X003380Y006997D01*
X003406Y006989D01*
X003430Y006977D01*
X003451Y006962D01*
X003471Y006944D01*
X003487Y006924D01*
X003500Y006901D01*
X003510Y006876D01*
X003516Y006850D01*
X003518Y006824D01*
X003516Y006798D01*
X003510Y006772D01*
X003500Y006747D01*
X003487Y006724D01*
X003471Y006704D01*
X003451Y006686D01*
X003429Y006671D01*
X003406Y006659D01*
X003380Y006651D01*
X003354Y006647D01*
X003328Y006647D01*
X003302Y006651D01*
X003276Y006659D01*
X003252Y006671D01*
X003231Y006686D01*
X003211Y006704D01*
X003195Y006724D01*
X003182Y006747D01*
X003172Y006772D01*
X003166Y006798D01*
X003164Y006824D01*
X003164Y008556D02*
X003166Y008582D01*
X003172Y008608D01*
X003182Y008633D01*
X003195Y008656D01*
X003211Y008676D01*
X003231Y008694D01*
X003253Y008709D01*
X003276Y008721D01*
X003302Y008729D01*
X003328Y008733D01*
X003354Y008733D01*
X003380Y008729D01*
X003406Y008721D01*
X003430Y008709D01*
X003451Y008694D01*
X003471Y008676D01*
X003487Y008656D01*
X003500Y008633D01*
X003510Y008608D01*
X003516Y008582D01*
X003518Y008556D01*
X003516Y008530D01*
X003510Y008504D01*
X003500Y008479D01*
X003487Y008456D01*
X003471Y008436D01*
X003451Y008418D01*
X003429Y008403D01*
X003406Y008391D01*
X003380Y008383D01*
X003354Y008379D01*
X003328Y008379D01*
X003302Y008383D01*
X003276Y008391D01*
X003252Y008403D01*
X003231Y008418D01*
X003211Y008436D01*
X003195Y008456D01*
X003182Y008479D01*
X003172Y008504D01*
X003166Y008530D01*
X003164Y008556D01*
X034838Y009294D02*
X034840Y009320D01*
X034846Y009346D01*
X034856Y009371D01*
X034869Y009394D01*
X034885Y009414D01*
X034905Y009432D01*
X034927Y009447D01*
X034950Y009459D01*
X034976Y009467D01*
X035002Y009471D01*
X035028Y009471D01*
X035054Y009467D01*
X035080Y009459D01*
X035104Y009447D01*
X035125Y009432D01*
X035145Y009414D01*
X035161Y009394D01*
X035174Y009371D01*
X035184Y009346D01*
X035190Y009320D01*
X035192Y009294D01*
X035190Y009268D01*
X035184Y009242D01*
X035174Y009217D01*
X035161Y009194D01*
X035145Y009174D01*
X035125Y009156D01*
X035103Y009141D01*
X035080Y009129D01*
X035054Y009121D01*
X035028Y009117D01*
X035002Y009117D01*
X034976Y009121D01*
X034950Y009129D01*
X034926Y009141D01*
X034905Y009156D01*
X034885Y009174D01*
X034869Y009194D01*
X034856Y009217D01*
X034846Y009242D01*
X034840Y009268D01*
X034838Y009294D01*
X034838Y007562D02*
X034840Y007588D01*
X034846Y007614D01*
X034856Y007639D01*
X034869Y007662D01*
X034885Y007682D01*
X034905Y007700D01*
X034927Y007715D01*
X034950Y007727D01*
X034976Y007735D01*
X035002Y007739D01*
X035028Y007739D01*
X035054Y007735D01*
X035080Y007727D01*
X035104Y007715D01*
X035125Y007700D01*
X035145Y007682D01*
X035161Y007662D01*
X035174Y007639D01*
X035184Y007614D01*
X035190Y007588D01*
X035192Y007562D01*
X035190Y007536D01*
X035184Y007510D01*
X035174Y007485D01*
X035161Y007462D01*
X035145Y007442D01*
X035125Y007424D01*
X035103Y007409D01*
X035080Y007397D01*
X035054Y007389D01*
X035028Y007385D01*
X035002Y007385D01*
X034976Y007389D01*
X034950Y007397D01*
X034926Y007409D01*
X034905Y007424D01*
X034885Y007442D01*
X034869Y007462D01*
X034856Y007485D01*
X034846Y007510D01*
X034840Y007536D01*
X034838Y007562D01*
X034838Y012066D02*
X034840Y012092D01*
X034846Y012118D01*
X034856Y012143D01*
X034869Y012166D01*
X034885Y012186D01*
X034905Y012204D01*
X034927Y012219D01*
X034950Y012231D01*
X034976Y012239D01*
X035002Y012243D01*
X035028Y012243D01*
X035054Y012239D01*
X035080Y012231D01*
X035104Y012219D01*
X035125Y012204D01*
X035145Y012186D01*
X035161Y012166D01*
X035174Y012143D01*
X035184Y012118D01*
X035190Y012092D01*
X035192Y012066D01*
X035190Y012040D01*
X035184Y012014D01*
X035174Y011989D01*
X035161Y011966D01*
X035145Y011946D01*
X035125Y011928D01*
X035103Y011913D01*
X035080Y011901D01*
X035054Y011893D01*
X035028Y011889D01*
X035002Y011889D01*
X034976Y011893D01*
X034950Y011901D01*
X034926Y011913D01*
X034905Y011928D01*
X034885Y011946D01*
X034869Y011966D01*
X034856Y011989D01*
X034846Y012014D01*
X034840Y012040D01*
X034838Y012066D01*
X034838Y013798D02*
X034840Y013824D01*
X034846Y013850D01*
X034856Y013875D01*
X034869Y013898D01*
X034885Y013918D01*
X034905Y013936D01*
X034927Y013951D01*
X034950Y013963D01*
X034976Y013971D01*
X035002Y013975D01*
X035028Y013975D01*
X035054Y013971D01*
X035080Y013963D01*
X035104Y013951D01*
X035125Y013936D01*
X035145Y013918D01*
X035161Y013898D01*
X035174Y013875D01*
X035184Y013850D01*
X035190Y013824D01*
X035192Y013798D01*
X035190Y013772D01*
X035184Y013746D01*
X035174Y013721D01*
X035161Y013698D01*
X035145Y013678D01*
X035125Y013660D01*
X035103Y013645D01*
X035080Y013633D01*
X035054Y013625D01*
X035028Y013621D01*
X035002Y013621D01*
X034976Y013625D01*
X034950Y013633D01*
X034926Y013645D01*
X034905Y013660D01*
X034885Y013678D01*
X034869Y013698D01*
X034856Y013721D01*
X034846Y013746D01*
X034840Y013772D01*
X034838Y013798D01*
X034838Y016566D02*
X034840Y016592D01*
X034846Y016618D01*
X034856Y016643D01*
X034869Y016666D01*
X034885Y016686D01*
X034905Y016704D01*
X034927Y016719D01*
X034950Y016731D01*
X034976Y016739D01*
X035002Y016743D01*
X035028Y016743D01*
X035054Y016739D01*
X035080Y016731D01*
X035104Y016719D01*
X035125Y016704D01*
X035145Y016686D01*
X035161Y016666D01*
X035174Y016643D01*
X035184Y016618D01*
X035190Y016592D01*
X035192Y016566D01*
X035190Y016540D01*
X035184Y016514D01*
X035174Y016489D01*
X035161Y016466D01*
X035145Y016446D01*
X035125Y016428D01*
X035103Y016413D01*
X035080Y016401D01*
X035054Y016393D01*
X035028Y016389D01*
X035002Y016389D01*
X034976Y016393D01*
X034950Y016401D01*
X034926Y016413D01*
X034905Y016428D01*
X034885Y016446D01*
X034869Y016466D01*
X034856Y016489D01*
X034846Y016514D01*
X034840Y016540D01*
X034838Y016566D01*
X034838Y018298D02*
X034840Y018324D01*
X034846Y018350D01*
X034856Y018375D01*
X034869Y018398D01*
X034885Y018418D01*
X034905Y018436D01*
X034927Y018451D01*
X034950Y018463D01*
X034976Y018471D01*
X035002Y018475D01*
X035028Y018475D01*
X035054Y018471D01*
X035080Y018463D01*
X035104Y018451D01*
X035125Y018436D01*
X035145Y018418D01*
X035161Y018398D01*
X035174Y018375D01*
X035184Y018350D01*
X035190Y018324D01*
X035192Y018298D01*
X035190Y018272D01*
X035184Y018246D01*
X035174Y018221D01*
X035161Y018198D01*
X035145Y018178D01*
X035125Y018160D01*
X035103Y018145D01*
X035080Y018133D01*
X035054Y018125D01*
X035028Y018121D01*
X035002Y018121D01*
X034976Y018125D01*
X034950Y018133D01*
X034926Y018145D01*
X034905Y018160D01*
X034885Y018178D01*
X034869Y018198D01*
X034856Y018221D01*
X034846Y018246D01*
X034840Y018272D01*
X034838Y018298D01*
D23*
X005700Y018080D02*
X005060Y018080D01*
X005060Y019080D02*
X005700Y019080D01*
X005700Y020080D02*
X005060Y020080D01*
X005060Y021080D02*
X005700Y021080D01*
X005700Y022080D02*
X005060Y022080D01*
X005060Y023080D02*
X005700Y023080D01*
D24*
X018080Y010613D03*
X017706Y009747D03*
X018454Y009747D03*
X018080Y008613D03*
X017706Y007747D03*
X018454Y007747D03*
X018080Y006613D03*
X017706Y005747D03*
X018454Y005747D03*
D25*
X009238Y019750D03*
X007702Y019750D03*
D26*
X008010Y018070D03*
D27*
X007262Y018070D03*
D28*
X004430Y017430D02*
X004430Y023680D01*
X031180Y023680D01*
X031418Y023674D01*
X031655Y023657D01*
X031892Y023629D01*
X032126Y023590D01*
X032359Y023539D01*
X032589Y023477D01*
X032815Y023405D01*
X033038Y023322D01*
X033257Y023228D01*
X033471Y023124D01*
X033680Y023010D01*
X033883Y022886D01*
X034080Y022753D01*
X034271Y022610D01*
X034454Y022459D01*
X034630Y022299D01*
X034799Y022130D01*
X034959Y021954D01*
X035110Y021771D01*
X035253Y021580D01*
X035386Y021383D01*
X035510Y021180D01*
X035624Y020971D01*
X035728Y020757D01*
X035822Y020538D01*
X035905Y020315D01*
X035977Y020089D01*
X036039Y019859D01*
X036090Y019626D01*
X036129Y019392D01*
X036157Y019155D01*
X036174Y018918D01*
X036180Y018680D01*
X036180Y007180D01*
X036181Y006948D01*
X036170Y006716D01*
X036149Y006485D01*
X036116Y006255D01*
X036072Y006027D01*
X036018Y005801D01*
X035953Y005579D01*
X035878Y005359D01*
X035792Y005143D01*
X035696Y004932D01*
X035590Y004726D01*
X035474Y004524D01*
X035349Y004329D01*
X035215Y004139D01*
X035071Y003957D01*
X034920Y003781D01*
X034760Y003613D01*
X034592Y003452D01*
X034417Y003300D01*
X034235Y003156D01*
X034046Y003021D01*
X033851Y002895D01*
X033650Y002779D01*
X033444Y002672D01*
X033233Y002575D01*
X033018Y002489D01*
X032799Y002412D01*
X032576Y002347D01*
X032350Y002291D01*
X032123Y002247D01*
X031893Y002214D01*
X031662Y002191D01*
X031430Y002180D01*
X004680Y002180D01*
X004561Y002183D01*
X004442Y002191D01*
X004324Y002205D01*
X004207Y002225D01*
X004091Y002250D01*
X003976Y002281D01*
X003862Y002317D01*
X003751Y002359D01*
X003641Y002406D01*
X003534Y002458D01*
X003430Y002515D01*
X003328Y002577D01*
X003230Y002644D01*
X003135Y002715D01*
X003043Y002791D01*
X002955Y002871D01*
X002871Y002955D01*
X002791Y003043D01*
X002715Y003135D01*
X002644Y003230D01*
X002577Y003328D01*
X002515Y003430D01*
X002458Y003534D01*
X002406Y003641D01*
X002359Y003751D01*
X002317Y003862D01*
X002281Y003976D01*
X002250Y004091D01*
X002225Y004207D01*
X002205Y004324D01*
X002191Y004442D01*
X002183Y004561D01*
X002180Y004680D01*
X002180Y010430D01*
X010180Y010430D01*
X010180Y017430D01*
X004430Y017430D01*
D29*
X009930Y021930D03*
X009930Y002930D03*
D30*
X010930Y002930D03*
X011930Y002930D03*
X012930Y002930D03*
X013930Y002930D03*
X014930Y002930D03*
X015930Y002930D03*
X016930Y002930D03*
X017930Y002930D03*
X018930Y002930D03*
X019930Y002930D03*
X020930Y002930D03*
X021930Y002930D03*
X022930Y002930D03*
X023930Y002930D03*
X024930Y002930D03*
X025930Y002930D03*
X026930Y002930D03*
X027930Y002930D03*
X028930Y002930D03*
X029930Y002930D03*
X030930Y002930D03*
X031930Y002930D03*
X031930Y003930D03*
X030930Y003930D03*
X029930Y003930D03*
X028930Y003930D03*
X027930Y003930D03*
X026930Y003930D03*
X025930Y003930D03*
X024930Y003930D03*
X023930Y003930D03*
X022930Y003930D03*
X021930Y003930D03*
X020930Y003930D03*
X019930Y003930D03*
X018930Y003930D03*
X017930Y003930D03*
X016930Y003930D03*
X015930Y003930D03*
X014930Y003930D03*
X013930Y003930D03*
X012930Y003930D03*
X011930Y003930D03*
X010930Y003930D03*
X009930Y003930D03*
X010930Y021930D03*
X011930Y021930D03*
X012930Y021930D03*
X013930Y021930D03*
X014930Y021930D03*
X015930Y021930D03*
X016930Y021930D03*
X017930Y021930D03*
X018930Y021930D03*
X019930Y021930D03*
X020930Y021930D03*
X021930Y021930D03*
X022930Y021930D03*
X023930Y021930D03*
X024930Y021930D03*
X025930Y021930D03*
X026930Y021930D03*
X027930Y021930D03*
X028930Y021930D03*
X029930Y021930D03*
X030930Y021930D03*
X031930Y021930D03*
X031930Y022930D03*
X030930Y022930D03*
X029930Y022930D03*
X028930Y022930D03*
X027930Y022930D03*
X026930Y022930D03*
X025930Y022930D03*
X024930Y022930D03*
X023930Y022930D03*
X022930Y022930D03*
X021930Y022930D03*
X020930Y022930D03*
X019930Y022930D03*
X018930Y022930D03*
X017930Y022930D03*
X016930Y022930D03*
X015930Y022930D03*
X014930Y022930D03*
X013930Y022930D03*
X012930Y022930D03*
X011930Y022930D03*
X010930Y022930D03*
X009930Y022930D03*
D31*
X033930Y021180D03*
X033930Y004680D03*
X007930Y003430D03*
D32*
X014967Y010273D03*
X015519Y010273D03*
X015519Y011650D03*
X014967Y011650D03*
X014967Y014210D03*
X015519Y014210D03*
X015519Y015587D03*
X014967Y015587D03*
X031826Y019328D03*
X032377Y019328D03*
X032377Y020706D03*
X031826Y020706D03*
D33*
X023180Y020680D03*
X022180Y020680D03*
X021180Y020680D03*
X012715Y020680D03*
X011715Y020680D03*
X012680Y009180D03*
X012680Y008180D03*
X012680Y007180D03*
X012680Y006180D03*
D34*
X015680Y007680D02*
X015680Y009340D01*
X016185Y009845D01*
X016680Y009845D01*
X016245Y009845D01*
X016110Y009980D01*
X016110Y011430D01*
X015890Y011650D01*
X015519Y011650D01*
X015519Y011650D01*
X014967Y011650D02*
X014967Y012293D01*
X014950Y012310D01*
X015160Y012780D02*
X015510Y012430D01*
X015870Y012430D01*
X019715Y012430D01*
X020225Y011930D01*
X020895Y011930D02*
X021450Y011930D01*
X021660Y011370D02*
X022690Y012400D01*
X022690Y016670D01*
X022040Y017320D01*
X019500Y017320D01*
X018680Y018070D02*
X018680Y015680D01*
X018180Y015180D01*
X017180Y015180D01*
X016773Y015587D01*
X015519Y015587D01*
X014967Y015587D02*
X014960Y015580D01*
X014220Y015580D01*
X014967Y015587D02*
X014967Y015083D01*
X015140Y014910D01*
X016370Y014910D01*
X017350Y013930D01*
X020225Y013930D01*
X020895Y013930D02*
X021105Y013920D01*
X021680Y013920D01*
X022180Y012940D02*
X021105Y012940D01*
X020895Y012930D01*
X020225Y012930D02*
X015430Y012930D01*
X014967Y013393D01*
X014967Y014210D01*
X014938Y014180D01*
X014680Y014180D01*
X014180Y013680D01*
X014180Y011060D01*
X014967Y010273D01*
X015519Y010273D02*
X015519Y010781D01*
X015350Y010950D01*
X014780Y010950D01*
X014490Y011240D01*
X014490Y012510D01*
X014760Y012780D01*
X015160Y012780D01*
X015520Y013580D02*
X015519Y013581D01*
X015519Y014210D01*
X013680Y012350D02*
X010940Y012350D01*
X010680Y012610D01*
X010680Y017180D01*
X015430Y020250D02*
X016680Y019000D01*
X019490Y019000D01*
X015430Y020250D02*
X015430Y022480D01*
X014980Y022930D01*
X014930Y022930D01*
X024180Y017180D02*
X024680Y016680D01*
X024680Y014820D01*
X023670Y013810D01*
X023670Y012600D01*
X021670Y010600D01*
X021670Y005690D01*
X021680Y005680D01*
X022200Y006050D02*
X021930Y006320D01*
X021930Y010530D01*
X023950Y012550D01*
X023950Y013740D01*
X025080Y014870D01*
X025080Y017280D01*
X024680Y017680D01*
X025030Y018330D02*
X025340Y018020D01*
X025340Y014750D01*
X024190Y013600D01*
X024190Y012380D01*
X022360Y010550D01*
X022360Y006630D01*
X020680Y006180D02*
X020680Y007480D01*
X020310Y007850D01*
X020340Y007850D01*
X020680Y008190D01*
X020680Y009580D01*
X020410Y009850D01*
X019485Y009850D01*
X019480Y009845D01*
X019480Y009430D01*
X019230Y009180D01*
X017980Y009180D01*
X017680Y009480D01*
X017680Y009680D01*
X017706Y009706D01*
X017706Y009747D01*
X018454Y009747D02*
X018454Y010074D01*
X018890Y010510D01*
X019475Y010510D01*
X019480Y010515D01*
X019490Y010525D01*
X019490Y011090D01*
X019770Y011370D01*
X021660Y011370D01*
X020990Y010340D02*
X023300Y012650D01*
X023300Y014130D01*
X023610Y014440D01*
X026190Y015180D02*
X026255Y015115D01*
X027020Y015115D01*
X027880Y014589D02*
X027880Y014060D01*
X027800Y013980D01*
X027800Y012970D01*
X028023Y012747D01*
X028023Y012370D01*
X027710Y012372D02*
X027708Y012370D01*
X027393Y012370D02*
X027390Y012373D01*
X026490Y011782D02*
X029278Y011782D01*
X029280Y011780D01*
X031210Y013700D01*
X031210Y017790D01*
X031420Y018000D01*
X031950Y018000D01*
X032210Y017740D01*
X034092Y017740D01*
X034099Y017747D01*
X034099Y017432D02*
X031682Y017432D01*
X031630Y017380D01*
X031680Y017330D01*
X031680Y016180D01*
X032180Y015680D01*
X032180Y015515D01*
X032735Y014845D02*
X032920Y015030D01*
X032920Y016560D01*
X033180Y016820D01*
X034081Y016820D01*
X034099Y016802D01*
X034097Y016800D01*
X034099Y016802D02*
X034103Y016806D01*
X034092Y017110D02*
X032610Y017110D01*
X032180Y016680D01*
X030780Y017330D02*
X030780Y013730D01*
X030480Y013430D01*
X029150Y013430D01*
X028967Y013247D01*
X028967Y012370D01*
X028660Y012378D02*
X028652Y012370D01*
X029280Y012372D02*
X029280Y012780D01*
X029470Y012970D01*
X029760Y012970D01*
X029280Y012372D02*
X029282Y012370D01*
X029870Y011782D02*
X031022Y011782D01*
X031850Y012610D01*
X034092Y012610D01*
X034099Y012617D01*
X034099Y012302D02*
X034097Y012300D01*
X032650Y012300D01*
X032180Y011830D01*
X032180Y010515D01*
X031652Y011152D02*
X031680Y011180D01*
X031652Y011152D02*
X029870Y011152D01*
X029870Y010837D02*
X030857Y010837D01*
X031180Y010515D01*
X030710Y010130D02*
X030710Y009950D01*
X030800Y009860D01*
X031165Y009860D01*
X031180Y009845D01*
X030710Y010130D02*
X030317Y010523D01*
X029870Y010523D01*
X029863Y010830D02*
X029480Y010830D01*
X029180Y011130D01*
X027130Y011130D01*
X027080Y011080D01*
X027080Y010630D01*
X026980Y010530D01*
X026497Y010530D01*
X026490Y010523D01*
X026468Y010230D02*
X026130Y010230D01*
X026030Y010330D01*
X026030Y010730D01*
X026137Y010837D01*
X026490Y010837D01*
X026490Y011152D02*
X026652Y011152D01*
X026680Y011180D01*
X026980Y011180D01*
X027080Y011080D01*
X026490Y011467D02*
X025903Y011467D01*
X025900Y011470D01*
X026468Y010230D02*
X026490Y010208D01*
X027408Y010208D01*
X027880Y010680D01*
X028580Y010680D01*
X029380Y009880D01*
X029857Y009880D01*
X029870Y009893D01*
X029873Y009890D01*
X029870Y009578D02*
X029860Y009568D01*
X029860Y006360D01*
X029680Y006180D01*
X028680Y006180D01*
X028180Y006680D01*
X027680Y007180D02*
X027680Y006180D01*
X028180Y005680D01*
X027180Y006680D02*
X026680Y006680D01*
X026180Y006180D01*
X026180Y005680D01*
X025680Y005180D01*
X021260Y005180D01*
X020990Y005450D01*
X020990Y010340D01*
X020180Y008520D02*
X020175Y008515D01*
X019480Y008515D01*
X019465Y008500D01*
X019020Y008500D01*
X018480Y007960D01*
X018480Y007773D01*
X018454Y007747D01*
X017980Y007180D02*
X019330Y007180D01*
X019480Y007330D01*
X019480Y007650D01*
X019680Y007850D01*
X019485Y007850D01*
X019480Y007845D01*
X019680Y007850D02*
X020310Y007850D01*
X020175Y006515D02*
X019480Y006515D01*
X019475Y006510D01*
X018910Y006510D01*
X018454Y006054D01*
X018454Y005747D01*
X018180Y005180D02*
X019200Y005180D01*
X019470Y005450D01*
X019470Y005835D01*
X019480Y005845D01*
X020345Y005845D01*
X020680Y006180D01*
X020180Y006510D02*
X020175Y006515D01*
X018080Y006613D02*
X016778Y006613D01*
X016680Y006515D01*
X017706Y005747D02*
X017706Y005654D01*
X018180Y005180D01*
X017980Y007180D02*
X017706Y007454D01*
X017706Y007747D01*
X018080Y008613D02*
X016778Y008613D01*
X016680Y008515D01*
X016680Y010515D02*
X016680Y011680D01*
X016778Y010613D02*
X016680Y010515D01*
X016778Y010613D02*
X018080Y010613D01*
X013680Y011680D02*
X012180Y011680D01*
X024081Y010175D02*
X025460Y010175D01*
X026490Y009578D02*
X026490Y009440D01*
X026050Y009000D01*
X026050Y007770D01*
X025820Y007540D01*
X025465Y007540D01*
X025460Y007545D01*
X024937Y007545D01*
X023954Y006562D01*
X025400Y006630D02*
X026660Y007890D01*
X027160Y007890D01*
X027708Y008438D01*
X027708Y008990D01*
X028023Y008990D02*
X028023Y008113D01*
X027440Y007530D01*
X027080Y007530D01*
X025390Y005840D01*
X027680Y007180D02*
X028180Y007680D01*
X028680Y007680D01*
X028970Y007970D01*
X028970Y008987D01*
X028967Y008990D01*
X028967Y009597D01*
X029040Y009670D01*
X028652Y009638D02*
X028560Y009730D01*
X028560Y010070D01*
X028652Y009638D02*
X028652Y008990D01*
X028337Y008990D02*
X028337Y009523D01*
X028180Y009680D01*
X027393Y008990D02*
X027393Y008543D01*
X027180Y008330D01*
X026930Y008330D01*
X026460Y008760D02*
X026690Y008990D01*
X027078Y008990D01*
X029282Y008990D02*
X029282Y006782D01*
X029180Y006680D01*
X030780Y008180D02*
X030847Y008113D01*
X034099Y008113D01*
X034099Y008428D02*
X032978Y008428D01*
X032900Y008350D01*
X032360Y008350D01*
X032030Y008680D01*
X031680Y008680D01*
X031680Y009180D01*
X032180Y009680D01*
X032180Y009845D01*
X032560Y008740D02*
X034096Y008740D01*
X034099Y008743D01*
X031317Y011467D02*
X031690Y011840D01*
X031317Y011467D02*
X029870Y011467D01*
X029870Y010837D02*
X029863Y010830D01*
X029350Y010450D02*
X029120Y010680D01*
X029350Y010450D02*
X029350Y010330D01*
X029500Y010180D01*
X029680Y010180D01*
X029708Y010208D01*
X029870Y010208D01*
X030440Y012270D02*
X031105Y012270D01*
X032180Y013345D01*
X032185Y013350D01*
X032500Y013350D01*
X032918Y012932D01*
X034099Y012932D01*
X034099Y013247D02*
X034096Y013250D01*
X033290Y013250D01*
X033180Y013360D01*
X032190Y013335D02*
X032180Y013345D01*
X032175Y013350D01*
X032180Y013345D02*
X032170Y013335D01*
X032180Y014015D02*
X032180Y014845D01*
X032735Y014845D01*
X034092Y017110D02*
X034099Y017117D01*
X032770Y018660D02*
X032930Y018820D01*
X032930Y020490D01*
X032714Y020706D01*
X032377Y020706D01*
X031826Y020706D02*
X031800Y020680D01*
X030515Y020680D01*
X029845Y020680D02*
X028180Y020680D01*
X028180Y019680D02*
X029845Y019680D01*
X030515Y019680D02*
X030950Y019680D01*
X031300Y019330D01*
X031823Y019330D01*
X031826Y019328D01*
X032377Y019328D02*
X032380Y019324D01*
X032380Y018880D01*
X032180Y018680D01*
X030515Y018680D01*
X029845Y018680D02*
X028180Y018680D01*
X026220Y017450D02*
X026180Y017490D01*
X027025Y016450D02*
X027020Y016445D01*
X027025Y016450D02*
X027390Y016450D01*
X027880Y016940D01*
X027880Y017030D01*
X028030Y017040D01*
X027880Y017030D02*
X027880Y014589D01*
X027876Y014445D01*
X027020Y014445D01*
X027005Y014430D01*
X026310Y014430D01*
X026850Y013390D02*
X026890Y013380D01*
X027876Y014445D02*
X028023Y014299D01*
X029337Y014589D02*
X029337Y017030D01*
X034089Y019174D02*
X035566Y019174D01*
D35*
X035448Y017070D03*
X032180Y016680D03*
X031630Y017380D03*
X030780Y017330D03*
X028180Y018680D03*
X028180Y019680D03*
X028180Y020680D03*
X026220Y017450D03*
X026190Y015180D03*
X026310Y014430D03*
X025410Y013850D03*
X024640Y013400D03*
X023610Y014440D03*
X021680Y013920D03*
X022180Y012940D03*
X021450Y011930D03*
X024910Y011260D03*
X025410Y010900D03*
X025900Y011470D03*
X028230Y013170D03*
X028840Y013790D03*
X029760Y012970D03*
X030440Y012270D03*
X031690Y011840D03*
X031680Y011180D03*
X031680Y008680D03*
X030780Y008180D03*
X026930Y008330D03*
X026460Y008760D03*
X025400Y006630D03*
X025390Y005840D03*
X022360Y006630D03*
X022200Y006050D03*
X021680Y005680D03*
X020180Y005180D03*
X020180Y006510D03*
X020180Y008520D03*
X016680Y009080D03*
X016680Y007110D03*
X014180Y007680D03*
X014180Y010180D03*
X012180Y011680D03*
X014950Y012310D03*
X015520Y013580D03*
X014220Y015580D03*
X015680Y016680D03*
X017680Y015680D03*
X019500Y017320D03*
X019490Y019000D03*
X011680Y016680D03*
X010680Y017180D03*
X011180Y015180D03*
X026850Y013390D03*
X027360Y013770D03*
X035448Y012490D03*
X035448Y008180D03*
D36*
X031580Y006180D02*
X030710Y006180D01*
X030210Y005680D01*
X029180Y005680D01*
X029180Y005180D01*
X028680Y004680D01*
X017180Y004680D01*
X016680Y005180D01*
X016680Y005845D01*
X016515Y005680D02*
X015680Y005680D01*
X013680Y005680D01*
X012930Y004930D01*
X012930Y003930D01*
X012930Y002930D01*
X026555Y017115D02*
X026220Y017450D01*
X026180Y017490D02*
X026180Y020180D01*
X025680Y020680D01*
X023180Y020680D01*
X023180Y018680D01*
X022570Y018070D01*
X018680Y018070D01*
X008010Y018070D01*
X026555Y017115D02*
X027020Y017115D01*
D37*
X003459Y002737D02*
X003057Y003057D01*
X002737Y003459D01*
X002514Y003922D01*
X002399Y004423D01*
X002385Y004680D01*
X002385Y005364D01*
X002710Y005364D01*
X002710Y005868D01*
X002870Y005868D01*
X002870Y006028D01*
X002710Y006028D01*
X002710Y006531D01*
X002385Y006531D01*
X002385Y008848D01*
X002710Y008848D01*
X002710Y009352D01*
X002870Y009352D01*
X002870Y008848D01*
X003129Y008848D01*
X003039Y008758D01*
X002984Y008627D01*
X002984Y008485D01*
X003039Y008354D01*
X003139Y008253D01*
X003270Y008199D01*
X003412Y008199D01*
X003544Y008253D01*
X003644Y008354D01*
X003654Y008377D01*
X003654Y007241D01*
X003646Y007228D01*
X003634Y007182D01*
X003634Y007060D01*
X004257Y007060D01*
X004880Y007060D01*
X004880Y007182D01*
X004867Y007228D01*
X004860Y007241D01*
X004860Y007470D01*
X005579Y007470D01*
X005861Y007188D01*
X005861Y007117D01*
X005910Y006999D01*
X005999Y006910D01*
X006117Y006861D01*
X006243Y006861D01*
X006361Y006910D01*
X006450Y006999D01*
X006499Y007117D01*
X006499Y007243D01*
X006450Y007361D01*
X006361Y007450D01*
X006243Y007499D01*
X006172Y007499D01*
X005886Y007785D01*
X006264Y007785D01*
X006361Y007688D01*
X006361Y007617D01*
X006410Y007499D01*
X006499Y007410D01*
X006617Y007361D01*
X006743Y007361D01*
X006861Y007410D01*
X006950Y007499D01*
X006999Y007617D01*
X006999Y007743D01*
X006950Y007861D01*
X006861Y007950D01*
X006743Y007999D01*
X006672Y007999D01*
X006571Y008100D01*
X010911Y008100D01*
X011771Y008960D01*
X012219Y008960D01*
X012248Y008891D01*
X012391Y008748D01*
X012554Y008680D01*
X012391Y008612D01*
X012248Y008469D01*
X012170Y008281D01*
X012170Y008079D01*
X012248Y007891D01*
X012391Y007748D01*
X012532Y007689D01*
X012477Y007671D01*
X012402Y007633D01*
X012335Y007584D01*
X012276Y007525D01*
X012227Y007458D01*
X012189Y007383D01*
X012163Y007304D01*
X012150Y007222D01*
X012150Y007200D01*
X012660Y007200D01*
X012660Y007160D01*
X012150Y007160D01*
X012150Y007138D01*
X012163Y007056D01*
X012189Y006977D01*
X012227Y006902D01*
X012276Y006835D01*
X012335Y006776D01*
X012402Y006727D01*
X012477Y006689D01*
X012532Y006671D01*
X012391Y006612D01*
X012248Y006469D01*
X012170Y006281D01*
X012170Y006079D01*
X012248Y005891D01*
X012391Y005748D01*
X012579Y005670D01*
X012781Y005670D01*
X012969Y005748D01*
X013112Y005891D01*
X013190Y006079D01*
X013190Y006281D01*
X013112Y006469D01*
X012969Y006612D01*
X012828Y006671D01*
X012883Y006689D01*
X012958Y006727D01*
X013025Y006776D01*
X013084Y006835D01*
X013133Y006902D01*
X013171Y006977D01*
X013197Y007056D01*
X013210Y007138D01*
X013210Y007160D01*
X012700Y007160D01*
X012700Y007200D01*
X013210Y007200D01*
X013210Y007222D01*
X013197Y007304D01*
X013171Y007383D01*
X013133Y007458D01*
X013084Y007525D01*
X013025Y007584D01*
X012958Y007633D01*
X012883Y007671D01*
X012828Y007689D01*
X012969Y007748D01*
X013112Y007891D01*
X013190Y008079D01*
X013190Y008281D01*
X013112Y008469D01*
X012969Y008612D01*
X012806Y008680D01*
X012969Y008748D01*
X013112Y008891D01*
X013133Y008940D01*
X013211Y008940D01*
X013460Y008691D01*
X013460Y005856D01*
X013443Y005839D01*
X012693Y005089D01*
X012650Y004986D01*
X012650Y004324D01*
X012526Y004200D01*
X012453Y004025D01*
X012453Y003835D01*
X012526Y003660D01*
X012650Y003536D01*
X012650Y003324D01*
X012526Y003200D01*
X012453Y003025D01*
X012453Y002835D01*
X012526Y002660D01*
X012660Y002526D01*
X012835Y002453D01*
X013025Y002453D01*
X013200Y002526D01*
X013334Y002660D01*
X013407Y002835D01*
X013407Y003025D01*
X013334Y003200D01*
X013210Y003324D01*
X013210Y003536D01*
X013334Y003660D01*
X013407Y003835D01*
X013407Y004025D01*
X013334Y004200D01*
X013210Y004324D01*
X013210Y004814D01*
X013796Y005400D01*
X016400Y005400D01*
X016400Y005124D01*
X016443Y005021D01*
X016943Y004521D01*
X017021Y004443D01*
X017124Y004400D01*
X017819Y004400D01*
X017660Y004334D01*
X017526Y004200D01*
X017453Y004025D01*
X017453Y003835D01*
X017526Y003660D01*
X017660Y003526D01*
X017835Y003453D01*
X018025Y003453D01*
X018200Y003526D01*
X018334Y003660D01*
X018407Y003835D01*
X018407Y004025D01*
X018334Y004200D01*
X018200Y004334D01*
X018041Y004400D01*
X018819Y004400D01*
X018660Y004334D01*
X018526Y004200D01*
X018453Y004025D01*
X018453Y003835D01*
X018526Y003660D01*
X018660Y003526D01*
X018835Y003453D01*
X019025Y003453D01*
X019200Y003526D01*
X019334Y003660D01*
X019407Y003835D01*
X019407Y004025D01*
X019334Y004200D01*
X019200Y004334D01*
X019041Y004400D01*
X019819Y004400D01*
X019660Y004334D01*
X019526Y004200D01*
X019453Y004025D01*
X019453Y003835D01*
X019526Y003660D01*
X019660Y003526D01*
X019835Y003453D01*
X020025Y003453D01*
X020200Y003526D01*
X020334Y003660D01*
X020407Y003835D01*
X020407Y004025D01*
X020334Y004200D01*
X020200Y004334D01*
X020041Y004400D01*
X020819Y004400D01*
X020660Y004334D01*
X020526Y004200D01*
X020453Y004025D01*
X020453Y003835D01*
X020526Y003660D01*
X020660Y003526D01*
X020835Y003453D01*
X021025Y003453D01*
X021200Y003526D01*
X021334Y003660D01*
X021407Y003835D01*
X021407Y004025D01*
X021334Y004200D01*
X021200Y004334D01*
X021041Y004400D01*
X021819Y004400D01*
X021660Y004334D01*
X021526Y004200D01*
X021453Y004025D01*
X021453Y003835D01*
X021526Y003660D01*
X021660Y003526D01*
X021835Y003453D01*
X022025Y003453D01*
X022200Y003526D01*
X022334Y003660D01*
X022407Y003835D01*
X022407Y004025D01*
X022334Y004200D01*
X022200Y004334D01*
X022041Y004400D01*
X022819Y004400D01*
X022660Y004334D01*
X022526Y004200D01*
X022453Y004025D01*
X022453Y003835D01*
X022526Y003660D01*
X022660Y003526D01*
X022835Y003453D01*
X023025Y003453D01*
X023200Y003526D01*
X023334Y003660D01*
X023407Y003835D01*
X023407Y004025D01*
X023334Y004200D01*
X023200Y004334D01*
X023041Y004400D01*
X023819Y004400D01*
X023660Y004334D01*
X023526Y004200D01*
X023453Y004025D01*
X023453Y003835D01*
X023526Y003660D01*
X023660Y003526D01*
X023835Y003453D01*
X024025Y003453D01*
X024200Y003526D01*
X024334Y003660D01*
X024407Y003835D01*
X024407Y004025D01*
X024334Y004200D01*
X024200Y004334D01*
X024041Y004400D01*
X024819Y004400D01*
X024660Y004334D01*
X024526Y004200D01*
X024453Y004025D01*
X024453Y003835D01*
X024526Y003660D01*
X024660Y003526D01*
X024835Y003453D01*
X025025Y003453D01*
X025200Y003526D01*
X025334Y003660D01*
X025407Y003835D01*
X025407Y004025D01*
X025334Y004200D01*
X025200Y004334D01*
X025041Y004400D01*
X025819Y004400D01*
X025660Y004334D01*
X025526Y004200D01*
X025453Y004025D01*
X025453Y003835D01*
X025526Y003660D01*
X025660Y003526D01*
X025835Y003453D01*
X026025Y003453D01*
X026200Y003526D01*
X026334Y003660D01*
X026407Y003835D01*
X026407Y004025D01*
X026334Y004200D01*
X026200Y004334D01*
X026041Y004400D01*
X026819Y004400D01*
X026660Y004334D01*
X026526Y004200D01*
X026453Y004025D01*
X026453Y003835D01*
X026526Y003660D01*
X026660Y003526D01*
X026835Y003453D01*
X027025Y003453D01*
X027200Y003526D01*
X027334Y003660D01*
X027407Y003835D01*
X027407Y004025D01*
X027334Y004200D01*
X027200Y004334D01*
X027041Y004400D01*
X027819Y004400D01*
X027660Y004334D01*
X027526Y004200D01*
X027453Y004025D01*
X027453Y003835D01*
X027526Y003660D01*
X027660Y003526D01*
X027835Y003453D01*
X028025Y003453D01*
X028200Y003526D01*
X028334Y003660D01*
X028407Y003835D01*
X028407Y004025D01*
X028334Y004200D01*
X028200Y004334D01*
X028041Y004400D01*
X028736Y004400D01*
X028839Y004443D01*
X028917Y004521D01*
X028917Y004521D01*
X029339Y004943D01*
X029417Y005021D01*
X029460Y005124D01*
X029460Y005281D01*
X029579Y005400D01*
X030266Y005400D01*
X030369Y005443D01*
X030826Y005900D01*
X031636Y005900D01*
X031739Y005943D01*
X031817Y006021D01*
X031857Y006118D01*
X033289Y007550D01*
X033580Y007550D01*
X033590Y007540D01*
X034608Y007540D01*
X034627Y007558D01*
X034657Y007558D01*
X034657Y007491D01*
X034712Y007360D01*
X034802Y007269D01*
X034169Y007269D01*
X034169Y006766D01*
X034009Y006766D01*
X034009Y006606D01*
X033220Y006606D01*
X033220Y006259D01*
X033233Y006213D01*
X033256Y006172D01*
X033290Y006138D01*
X033331Y006115D01*
X033377Y006102D01*
X034009Y006102D01*
X034009Y006606D01*
X034169Y006606D01*
X034169Y006102D01*
X034802Y006102D01*
X034848Y006115D01*
X034877Y006131D01*
X034906Y006115D01*
X034952Y006102D01*
X035486Y006102D01*
X035486Y006606D01*
X035646Y006606D01*
X035646Y006102D01*
X035877Y006102D01*
X035874Y006081D01*
X035665Y005378D01*
X035349Y004717D01*
X034934Y004113D01*
X034429Y003582D01*
X033847Y003136D01*
X033203Y002786D01*
X032512Y002542D01*
X032121Y002470D01*
X032190Y002505D01*
X032254Y002551D01*
X032309Y002606D01*
X032355Y002670D01*
X032390Y002739D01*
X032415Y002814D01*
X033254Y002814D01*
X033546Y002973D02*
X032426Y002973D01*
X032427Y002969D02*
X032415Y003046D01*
X032390Y003121D01*
X032355Y003190D01*
X032309Y003254D01*
X032254Y003309D01*
X032190Y003355D01*
X032121Y003390D01*
X032046Y003415D01*
X031969Y003427D01*
X031948Y003427D01*
X031948Y002948D01*
X031912Y002948D01*
X031912Y002912D01*
X031948Y002912D01*
X031948Y002438D01*
X031791Y002409D01*
X031426Y002385D01*
X004680Y002385D01*
X004423Y002399D01*
X003922Y002514D01*
X003459Y002737D01*
X003362Y002814D02*
X007153Y002814D01*
X007095Y002872D02*
X006945Y003234D01*
X006945Y003626D01*
X007095Y003988D01*
X007372Y004265D01*
X007734Y004415D01*
X008126Y004415D01*
X008488Y004265D01*
X008765Y003988D01*
X008915Y003626D01*
X008915Y003234D01*
X008765Y002872D01*
X008488Y002595D01*
X008126Y002445D01*
X007734Y002445D01*
X007372Y002595D01*
X007095Y002872D01*
X007053Y002973D02*
X003163Y002973D01*
X002998Y003131D02*
X006988Y003131D01*
X006945Y003290D02*
X002872Y003290D01*
X002746Y003448D02*
X006945Y003448D01*
X006945Y003607D02*
X002666Y003607D01*
X002589Y003765D02*
X007003Y003765D01*
X007068Y003924D02*
X002513Y003924D01*
X002477Y004082D02*
X007189Y004082D01*
X007348Y004241D02*
X002441Y004241D01*
X002405Y004399D02*
X007695Y004399D01*
X008165Y004399D02*
X009766Y004399D01*
X009739Y004390D02*
X009670Y004355D01*
X009606Y004309D01*
X009551Y004254D01*
X009505Y004190D01*
X009470Y004121D01*
X009445Y004046D01*
X009433Y003969D01*
X009433Y003948D01*
X009912Y003948D01*
X009912Y003912D01*
X009948Y003912D01*
X009948Y003948D01*
X010427Y003948D01*
X010427Y003969D01*
X010415Y004046D01*
X010390Y004121D01*
X010355Y004190D01*
X010309Y004254D01*
X010254Y004309D01*
X010190Y004355D01*
X010121Y004390D01*
X010046Y004415D01*
X009969Y004427D01*
X009948Y004427D01*
X009948Y003948D01*
X009912Y003948D01*
X009912Y004427D01*
X009891Y004427D01*
X009814Y004415D01*
X009739Y004390D01*
X009912Y004399D02*
X009948Y004399D01*
X010094Y004399D02*
X010816Y004399D01*
X010835Y004407D02*
X010660Y004334D01*
X010526Y004200D01*
X010453Y004025D01*
X010453Y003835D01*
X010526Y003660D01*
X010660Y003526D01*
X010835Y003453D01*
X011025Y003453D01*
X011200Y003526D01*
X011334Y003660D01*
X011407Y003835D01*
X011407Y004025D01*
X011334Y004200D01*
X011200Y004334D01*
X011025Y004407D01*
X010835Y004407D01*
X011044Y004399D02*
X011816Y004399D01*
X011835Y004407D02*
X011660Y004334D01*
X011526Y004200D01*
X011453Y004025D01*
X011453Y003835D01*
X011526Y003660D01*
X011660Y003526D01*
X011835Y003453D01*
X012025Y003453D01*
X012200Y003526D01*
X012334Y003660D01*
X012407Y003835D01*
X012407Y004025D01*
X012334Y004200D01*
X012200Y004334D01*
X012025Y004407D01*
X011835Y004407D01*
X012044Y004399D02*
X012650Y004399D01*
X012650Y004558D02*
X002392Y004558D01*
X002385Y004716D02*
X012650Y004716D01*
X012650Y004875D02*
X002385Y004875D01*
X002385Y005033D02*
X012670Y005033D01*
X012796Y005192D02*
X002385Y005192D01*
X002385Y005350D02*
X012954Y005350D01*
X013113Y005509D02*
X005132Y005509D01*
X005136Y005520D02*
X005136Y005868D01*
X004347Y005868D01*
X004347Y006028D01*
X005136Y006028D01*
X005136Y006375D01*
X005123Y006421D01*
X005100Y006462D01*
X005066Y006495D01*
X005025Y006519D01*
X004979Y006531D01*
X004347Y006531D01*
X004347Y006028D01*
X004187Y006028D01*
X004187Y006531D01*
X003554Y006531D01*
X003644Y006621D01*
X003699Y006753D01*
X003699Y006822D01*
X003703Y006817D01*
X003744Y006794D01*
X003790Y006781D01*
X004257Y006781D01*
X004723Y006781D01*
X004769Y006794D01*
X004810Y006817D01*
X004844Y006851D01*
X004867Y006892D01*
X004880Y006938D01*
X004880Y007060D01*
X004257Y007060D01*
X004257Y007060D01*
X004257Y006781D01*
X004257Y007060D01*
X004257Y007060D01*
X004257Y005948D01*
X004267Y005948D01*
X002790Y005948D01*
X002870Y005984D02*
X004187Y005984D01*
X004187Y006028D02*
X004187Y005868D01*
X004347Y005868D01*
X004347Y005364D01*
X004979Y005364D01*
X005025Y005376D01*
X005066Y005400D01*
X005100Y005434D01*
X005123Y005475D01*
X005136Y005520D01*
X005136Y005667D02*
X013271Y005667D01*
X013430Y005826D02*
X013047Y005826D01*
X013151Y005984D02*
X013460Y005984D01*
X013460Y006143D02*
X013190Y006143D01*
X013182Y006301D02*
X013460Y006301D01*
X013460Y006460D02*
X013116Y006460D01*
X012955Y006618D02*
X013460Y006618D01*
X013460Y006777D02*
X013026Y006777D01*
X013150Y006935D02*
X013460Y006935D01*
X013460Y007094D02*
X013203Y007094D01*
X013205Y007252D02*
X013460Y007252D01*
X013460Y007411D02*
X013157Y007411D01*
X013041Y007569D02*
X013460Y007569D01*
X013460Y007728D02*
X012920Y007728D01*
X013107Y007886D02*
X013460Y007886D01*
X013460Y008045D02*
X013176Y008045D01*
X013190Y008203D02*
X013460Y008203D01*
X013460Y008362D02*
X013157Y008362D01*
X013061Y008520D02*
X013460Y008520D01*
X013460Y008679D02*
X012809Y008679D01*
X012551Y008679D02*
X011490Y008679D01*
X011648Y008837D02*
X012302Y008837D01*
X012299Y008520D02*
X011331Y008520D01*
X011173Y008362D02*
X012203Y008362D01*
X012170Y008203D02*
X011014Y008203D01*
X010729Y008540D02*
X004804Y008540D01*
X004766Y008578D01*
X003748Y008578D01*
X003699Y008529D01*
X003699Y008627D01*
X003644Y008758D01*
X003554Y008848D01*
X004187Y008848D01*
X004187Y009352D01*
X004347Y009352D01*
X004347Y009512D01*
X005136Y009512D01*
X005136Y009859D01*
X005123Y009905D01*
X005100Y009946D01*
X005066Y009980D01*
X005025Y010003D01*
X004979Y010016D01*
X004347Y010016D01*
X004347Y009512D01*
X004187Y009512D01*
X004187Y010016D01*
X003554Y010016D01*
X003508Y010003D01*
X003479Y009987D01*
X003450Y010003D01*
X003404Y010016D01*
X002870Y010016D01*
X002870Y009512D01*
X002710Y009512D01*
X002710Y010016D01*
X002385Y010016D01*
X002385Y010225D01*
X010265Y010225D01*
X010385Y010345D01*
X010385Y016940D01*
X010466Y016859D01*
X010470Y016858D01*
X010470Y012523D01*
X010730Y012263D01*
X010853Y012140D01*
X013439Y012140D01*
X013499Y012080D01*
X013617Y012031D01*
X013743Y012031D01*
X013861Y012080D01*
X013950Y012169D01*
X013970Y012216D01*
X013970Y011814D01*
X013950Y011861D01*
X013861Y011950D01*
X013743Y011999D01*
X013617Y011999D01*
X013499Y011950D01*
X013439Y011890D01*
X012502Y011890D01*
X012501Y011894D01*
X012394Y012001D01*
X012255Y012058D01*
X012105Y012058D01*
X011966Y012001D01*
X011859Y011894D01*
X011802Y011755D01*
X011802Y011605D01*
X011859Y011466D01*
X011966Y011359D01*
X012105Y011302D01*
X012255Y011302D01*
X012394Y011359D01*
X012501Y011466D01*
X012502Y011470D01*
X013439Y011470D01*
X013499Y011410D01*
X013617Y011361D01*
X013743Y011361D01*
X013861Y011410D01*
X013950Y011499D01*
X013970Y011546D01*
X013970Y010973D01*
X014611Y010332D01*
X014611Y009911D01*
X014704Y009817D01*
X015231Y009817D01*
X015243Y009830D01*
X015255Y009817D01*
X015782Y009817D01*
X015875Y009911D01*
X015875Y010634D01*
X015782Y010728D01*
X015729Y010728D01*
X015729Y010868D01*
X015560Y011037D01*
X015437Y011160D01*
X014867Y011160D01*
X014832Y011195D01*
X015231Y011195D01*
X015243Y011208D01*
X015255Y011195D01*
X015782Y011195D01*
X015875Y011289D01*
X015875Y011368D01*
X015900Y011343D01*
X015900Y009893D01*
X015918Y009875D01*
X015593Y009550D01*
X015470Y009427D01*
X015470Y007781D01*
X015460Y007771D01*
X015460Y005960D01*
X013940Y005960D01*
X013940Y007385D01*
X013966Y007359D01*
X014105Y007302D01*
X014255Y007302D01*
X014394Y007359D01*
X014501Y007466D01*
X014558Y007605D01*
X014558Y007755D01*
X014501Y007894D01*
X014400Y007995D01*
X014400Y009865D01*
X014501Y009966D01*
X014558Y010105D01*
X014611Y010105D01*
X014558Y010105D02*
X014558Y010255D01*
X014501Y010394D01*
X014394Y010501D01*
X014255Y010558D01*
X014105Y010558D01*
X013966Y010501D01*
X013859Y010394D01*
X013802Y010255D01*
X013802Y010105D01*
X002385Y010105D01*
X002710Y009947D02*
X002870Y009947D01*
X002870Y009788D02*
X002710Y009788D01*
X002710Y009630D02*
X002870Y009630D01*
X002870Y009512D02*
X004187Y009512D01*
X004187Y009352D01*
X003398Y009352D01*
X002870Y009352D01*
X002870Y009512D01*
X002870Y009471D02*
X004187Y009471D01*
X004267Y009432D02*
X002790Y009432D01*
X002710Y009313D02*
X002870Y009313D01*
X002870Y009154D02*
X002710Y009154D01*
X002710Y008996D02*
X002870Y008996D01*
X003117Y008837D02*
X002385Y008837D01*
X002385Y008679D02*
X003006Y008679D01*
X002984Y008520D02*
X002385Y008520D01*
X002385Y008362D02*
X003035Y008362D01*
X003260Y008203D02*
X002385Y008203D01*
X002385Y008045D02*
X003654Y008045D01*
X003654Y008203D02*
X003423Y008203D01*
X003647Y008362D02*
X003654Y008362D01*
X003654Y007886D02*
X002385Y007886D01*
X002385Y007728D02*
X003654Y007728D01*
X003654Y007569D02*
X002385Y007569D01*
X002385Y007411D02*
X003654Y007411D01*
X003654Y007252D02*
X002385Y007252D01*
X002385Y007094D02*
X003106Y007094D01*
X003139Y007126D02*
X003039Y007026D01*
X002984Y006895D01*
X002984Y006753D01*
X003039Y006621D01*
X003129Y006531D01*
X002870Y006531D01*
X002870Y006028D01*
X004187Y006028D01*
X004187Y006143D02*
X004347Y006143D01*
X004347Y006301D02*
X004187Y006301D01*
X004187Y006460D02*
X004347Y006460D01*
X004347Y005984D02*
X012209Y005984D01*
X012170Y006143D02*
X005136Y006143D01*
X005136Y006301D02*
X012178Y006301D01*
X012244Y006460D02*
X005101Y006460D01*
X004879Y006935D02*
X005974Y006935D01*
X005870Y007094D02*
X004880Y007094D01*
X004860Y007252D02*
X005797Y007252D01*
X005638Y007411D02*
X004860Y007411D01*
X004257Y007060D02*
X004247Y007052D01*
X004257Y007060D02*
X003634Y007060D01*
X003634Y007036D01*
X003544Y007126D01*
X003412Y007181D01*
X003270Y007181D01*
X003139Y007126D01*
X003001Y006935D02*
X002385Y006935D01*
X002385Y006777D02*
X002984Y006777D01*
X003042Y006618D02*
X002385Y006618D01*
X002710Y006460D02*
X002870Y006460D01*
X002870Y006301D02*
X002710Y006301D01*
X002710Y006143D02*
X002870Y006143D01*
X002870Y005868D02*
X003398Y005868D01*
X004187Y005868D01*
X004187Y005364D01*
X003554Y005364D01*
X003508Y005376D01*
X003479Y005393D01*
X003450Y005376D01*
X003404Y005364D01*
X002870Y005364D01*
X002870Y005868D01*
X002870Y005826D02*
X002710Y005826D01*
X002710Y005667D02*
X002870Y005667D01*
X002870Y005509D02*
X002710Y005509D01*
X004187Y005509D02*
X004347Y005509D01*
X004347Y005667D02*
X004187Y005667D01*
X004187Y005826D02*
X004347Y005826D01*
X005136Y005826D02*
X012313Y005826D01*
X013270Y004875D02*
X016590Y004875D01*
X016438Y005033D02*
X013429Y005033D01*
X013587Y005192D02*
X016400Y005192D01*
X016400Y005350D02*
X013746Y005350D01*
X013680Y005680D02*
X013700Y005700D01*
X013700Y008790D01*
X013310Y009180D01*
X012680Y009180D01*
X012219Y009400D02*
X011589Y009400D01*
X011460Y009271D01*
X010729Y008540D01*
X010867Y008679D02*
X003677Y008679D01*
X003565Y008837D02*
X011026Y008837D01*
X011184Y008996D02*
X005133Y008996D01*
X005136Y009005D02*
X005136Y009352D01*
X004347Y009352D01*
X004347Y008848D01*
X004979Y008848D01*
X005025Y008861D01*
X005066Y008884D01*
X005100Y008918D01*
X005123Y008959D01*
X005136Y009005D01*
X005136Y009154D02*
X011343Y009154D01*
X011501Y009313D02*
X005136Y009313D01*
X005136Y009630D02*
X012433Y009630D01*
X012391Y009612D02*
X012248Y009469D01*
X012219Y009400D01*
X012250Y009471D02*
X004347Y009471D01*
X004347Y009313D02*
X004187Y009313D01*
X004187Y009154D02*
X004347Y009154D01*
X004347Y008996D02*
X004187Y008996D01*
X004187Y009630D02*
X004347Y009630D01*
X004347Y009788D02*
X004187Y009788D01*
X004187Y009947D02*
X004347Y009947D01*
X005099Y009947D02*
X013879Y009947D01*
X013859Y009966D02*
X013960Y009865D01*
X013960Y007995D01*
X013940Y007975D01*
X013940Y008838D01*
X013903Y008926D01*
X013836Y008993D01*
X013446Y009383D01*
X013358Y009420D01*
X013133Y009420D01*
X013112Y009469D01*
X012969Y009612D01*
X012781Y009690D01*
X012579Y009690D01*
X012391Y009612D01*
X012927Y009630D02*
X013960Y009630D01*
X013960Y009788D02*
X005136Y009788D01*
X006627Y008045D02*
X012184Y008045D01*
X012253Y007886D02*
X006925Y007886D01*
X006999Y007728D02*
X012440Y007728D01*
X012319Y007569D02*
X006979Y007569D01*
X006862Y007411D02*
X012203Y007411D01*
X012155Y007252D02*
X006496Y007252D01*
X006498Y007411D02*
X006401Y007411D01*
X006381Y007569D02*
X006102Y007569D01*
X005944Y007728D02*
X006321Y007728D01*
X006490Y007094D02*
X012157Y007094D01*
X012210Y006935D02*
X006386Y006935D01*
X004257Y006935D02*
X004257Y006935D01*
X004257Y007060D02*
X004257Y007060D01*
X003634Y007094D02*
X003577Y007094D01*
X003699Y006777D02*
X012334Y006777D01*
X012405Y006618D02*
X003641Y006618D01*
X008512Y004241D02*
X009541Y004241D01*
X009457Y004082D02*
X008671Y004082D01*
X008792Y003924D02*
X009912Y003924D01*
X009912Y003912D02*
X009433Y003912D01*
X009433Y003891D01*
X009445Y003814D01*
X009470Y003739D01*
X009505Y003670D01*
X009551Y003606D01*
X009606Y003551D01*
X009670Y003505D01*
X009739Y003470D01*
X009814Y003445D01*
X009891Y003433D01*
X009912Y003433D01*
X009912Y003912D01*
X009948Y003912D02*
X009948Y003433D01*
X009969Y003433D01*
X010046Y003445D01*
X010121Y003470D01*
X010190Y003505D01*
X010254Y003551D01*
X010309Y003606D01*
X010355Y003670D01*
X010390Y003739D01*
X010415Y003814D01*
X010427Y003891D01*
X010427Y003912D01*
X009948Y003912D01*
X009948Y003924D02*
X010453Y003924D01*
X010477Y004082D02*
X010403Y004082D01*
X010319Y004241D02*
X010566Y004241D01*
X010482Y003765D02*
X010399Y003765D01*
X010309Y003607D02*
X010579Y003607D01*
X010660Y003334D02*
X010526Y003200D01*
X010453Y003025D01*
X010453Y002835D01*
X010526Y002660D01*
X010660Y002526D01*
X010835Y002453D01*
X011025Y002453D01*
X011200Y002526D01*
X011334Y002660D01*
X011407Y002835D01*
X011407Y003025D01*
X011334Y003200D01*
X011200Y003334D01*
X011025Y003407D01*
X010835Y003407D01*
X010660Y003334D01*
X010615Y003290D02*
X010422Y003290D01*
X010427Y003271D02*
X010415Y003316D01*
X010391Y003357D01*
X010357Y003391D01*
X010316Y003415D01*
X010271Y003427D01*
X009948Y003427D01*
X009948Y002948D01*
X010427Y002948D01*
X010427Y003271D01*
X010427Y003131D02*
X010497Y003131D01*
X010453Y002973D02*
X010427Y002973D01*
X010427Y002912D02*
X009948Y002912D01*
X009948Y002948D01*
X009912Y002948D01*
X009912Y002912D01*
X009948Y002912D01*
X009948Y002433D01*
X010271Y002433D01*
X010316Y002445D01*
X010357Y002469D01*
X010391Y002503D01*
X010415Y002544D01*
X010427Y002589D01*
X010427Y002912D01*
X010427Y002814D02*
X010462Y002814D01*
X010427Y002656D02*
X010530Y002656D01*
X010385Y002497D02*
X010729Y002497D01*
X011131Y002497D02*
X011729Y002497D01*
X011660Y002526D02*
X011835Y002453D01*
X012025Y002453D01*
X012200Y002526D01*
X012334Y002660D01*
X012407Y002835D01*
X012407Y003025D01*
X012334Y003200D01*
X012200Y003334D01*
X012025Y003407D01*
X011835Y003407D01*
X011660Y003334D01*
X011526Y003200D01*
X011453Y003025D01*
X011453Y002835D01*
X011526Y002660D01*
X011660Y002526D01*
X011530Y002656D02*
X011330Y002656D01*
X011398Y002814D02*
X011462Y002814D01*
X011453Y002973D02*
X011407Y002973D01*
X011363Y003131D02*
X011497Y003131D01*
X011615Y003290D02*
X011245Y003290D01*
X011281Y003607D02*
X011579Y003607D01*
X011482Y003765D02*
X011378Y003765D01*
X011407Y003924D02*
X011453Y003924D01*
X011477Y004082D02*
X011383Y004082D01*
X011294Y004241D02*
X011566Y004241D01*
X012294Y004241D02*
X012566Y004241D01*
X012477Y004082D02*
X012383Y004082D01*
X012407Y003924D02*
X012453Y003924D01*
X012482Y003765D02*
X012378Y003765D01*
X012281Y003607D02*
X012579Y003607D01*
X012650Y003448D02*
X010054Y003448D01*
X009948Y003448D02*
X009912Y003448D01*
X009912Y003427D02*
X009589Y003427D01*
X009544Y003415D01*
X009503Y003391D01*
X009469Y003357D01*
X009445Y003316D01*
X009433Y003271D01*
X009433Y002948D01*
X009912Y002948D01*
X009912Y003427D01*
X009806Y003448D02*
X008915Y003448D01*
X008915Y003290D02*
X009438Y003290D01*
X009433Y003131D02*
X008872Y003131D01*
X008807Y002973D02*
X009433Y002973D01*
X009433Y002912D02*
X009433Y002589D01*
X009445Y002544D01*
X009469Y002503D01*
X009503Y002469D01*
X009544Y002445D01*
X009589Y002433D01*
X009912Y002433D01*
X009912Y002912D01*
X009433Y002912D01*
X009433Y002814D02*
X008707Y002814D01*
X008549Y002656D02*
X009433Y002656D01*
X009475Y002497D02*
X008251Y002497D01*
X007609Y002497D02*
X003996Y002497D01*
X003628Y002656D02*
X007311Y002656D01*
X008915Y003607D02*
X009551Y003607D01*
X009461Y003765D02*
X008857Y003765D01*
X009912Y003765D02*
X009948Y003765D01*
X009948Y003607D02*
X009912Y003607D01*
X009912Y003290D02*
X009948Y003290D01*
X009948Y003131D02*
X009912Y003131D01*
X009912Y002973D02*
X009948Y002973D01*
X009948Y002814D02*
X009912Y002814D01*
X009912Y002656D02*
X009948Y002656D01*
X009948Y002497D02*
X009912Y002497D01*
X012131Y002497D02*
X012729Y002497D01*
X012530Y002656D02*
X012330Y002656D01*
X012398Y002814D02*
X012462Y002814D01*
X012453Y002973D02*
X012407Y002973D01*
X012363Y003131D02*
X012497Y003131D01*
X012615Y003290D02*
X012245Y003290D01*
X013210Y003448D02*
X014806Y003448D01*
X014814Y003445D02*
X014891Y003433D01*
X014912Y003433D01*
X014912Y003912D01*
X014948Y003912D01*
X014948Y003948D01*
X015427Y003948D01*
X015427Y003969D01*
X015415Y004046D01*
X015390Y004121D01*
X015355Y004190D01*
X015309Y004254D01*
X015254Y004309D01*
X015190Y004355D01*
X015121Y004390D01*
X015046Y004415D01*
X014969Y004427D01*
X014948Y004427D01*
X014948Y003948D01*
X014912Y003948D01*
X014912Y003912D01*
X014433Y003912D01*
X014433Y003891D01*
X014445Y003814D01*
X014470Y003739D01*
X014505Y003670D01*
X014551Y003606D01*
X014606Y003551D01*
X014670Y003505D01*
X014739Y003470D01*
X014814Y003445D01*
X014835Y003407D02*
X014660Y003334D01*
X014526Y003200D01*
X014453Y003025D01*
X014453Y002835D01*
X014526Y002660D01*
X014660Y002526D01*
X014835Y002453D01*
X015025Y002453D01*
X015200Y002526D01*
X015334Y002660D01*
X015407Y002835D01*
X015407Y003025D01*
X015334Y003200D01*
X015200Y003334D01*
X015025Y003407D01*
X014835Y003407D01*
X014912Y003448D02*
X014948Y003448D01*
X014948Y003433D02*
X014969Y003433D01*
X015046Y003445D01*
X015121Y003470D01*
X015190Y003505D01*
X015254Y003551D01*
X015309Y003606D01*
X015355Y003670D01*
X015390Y003739D01*
X015415Y003814D01*
X015427Y003891D01*
X015427Y003912D01*
X014948Y003912D01*
X014948Y003433D01*
X015054Y003448D02*
X030806Y003448D01*
X030814Y003445D02*
X030891Y003433D01*
X030912Y003433D01*
X030912Y003912D01*
X030948Y003912D01*
X030948Y003948D01*
X031427Y003948D01*
X031427Y003969D01*
X031415Y004046D01*
X031390Y004121D01*
X031355Y004190D01*
X031309Y004254D01*
X031254Y004309D01*
X031190Y004355D01*
X031121Y004390D01*
X031046Y004415D01*
X030969Y004427D01*
X030948Y004427D01*
X030948Y003948D01*
X030912Y003948D01*
X030912Y003912D01*
X030433Y003912D01*
X030433Y003891D01*
X030445Y003814D01*
X030470Y003739D01*
X030505Y003670D01*
X030551Y003606D01*
X030606Y003551D01*
X030670Y003505D01*
X030739Y003470D01*
X030814Y003445D01*
X030814Y003415D02*
X030739Y003390D01*
X030670Y003355D01*
X030606Y003309D01*
X030551Y003254D01*
X030505Y003190D01*
X030470Y003121D01*
X030445Y003046D01*
X030433Y002969D01*
X030433Y002948D01*
X030912Y002948D01*
X030912Y002912D01*
X030948Y002912D01*
X030948Y002948D01*
X031427Y002948D01*
X031427Y002969D01*
X031415Y003046D01*
X031390Y003121D01*
X031355Y003190D01*
X031309Y003254D01*
X031254Y003309D01*
X031190Y003355D01*
X031121Y003390D01*
X031046Y003415D01*
X030969Y003427D01*
X030948Y003427D01*
X030948Y002948D01*
X030912Y002948D01*
X030912Y003427D01*
X030891Y003427D01*
X030814Y003415D01*
X030912Y003448D02*
X030948Y003448D01*
X030948Y003433D02*
X030969Y003433D01*
X031046Y003445D01*
X031121Y003470D01*
X031190Y003505D01*
X031254Y003551D01*
X031309Y003606D01*
X031355Y003670D01*
X031390Y003739D01*
X031415Y003814D01*
X031427Y003891D01*
X031427Y003912D01*
X030948Y003912D01*
X030948Y003433D01*
X031054Y003448D02*
X031806Y003448D01*
X031814Y003445D02*
X031891Y003433D01*
X031912Y003433D01*
X031912Y003912D01*
X031948Y003912D01*
X031948Y003948D01*
X032427Y003948D01*
X032427Y003969D01*
X032415Y004046D01*
X032390Y004121D01*
X032355Y004190D01*
X032309Y004254D01*
X032254Y004309D01*
X032190Y004355D01*
X032121Y004390D01*
X032046Y004415D01*
X031969Y004427D01*
X031948Y004427D01*
X031948Y003948D01*
X031912Y003948D01*
X031912Y003912D01*
X031433Y003912D01*
X031433Y003891D01*
X031445Y003814D01*
X031470Y003739D01*
X031505Y003670D01*
X031551Y003606D01*
X031606Y003551D01*
X031670Y003505D01*
X031739Y003470D01*
X031814Y003445D01*
X031814Y003415D02*
X031739Y003390D01*
X031670Y003355D01*
X031606Y003309D01*
X031551Y003254D01*
X031505Y003190D01*
X031470Y003121D01*
X031445Y003046D01*
X031433Y002969D01*
X031433Y002948D01*
X031912Y002948D01*
X031912Y003427D01*
X031891Y003427D01*
X031814Y003415D01*
X031912Y003448D02*
X031948Y003448D01*
X031948Y003433D02*
X031969Y003433D01*
X032046Y003445D01*
X032121Y003470D01*
X032190Y003505D01*
X032254Y003551D01*
X032309Y003606D01*
X032355Y003670D01*
X032390Y003739D01*
X032415Y003814D01*
X032427Y003891D01*
X032427Y003912D01*
X031948Y003912D01*
X031948Y003433D01*
X032054Y003448D02*
X034255Y003448D01*
X034453Y003607D02*
X032309Y003607D01*
X032399Y003765D02*
X033565Y003765D01*
X033734Y003695D02*
X033372Y003845D01*
X033095Y004122D01*
X032945Y004484D01*
X032945Y004876D01*
X033095Y005238D01*
X033372Y005515D01*
X033734Y005665D01*
X034126Y005665D01*
X034488Y005515D01*
X034765Y005238D01*
X034915Y004876D01*
X034915Y004484D01*
X034765Y004122D01*
X034488Y003845D01*
X034126Y003695D01*
X033734Y003695D01*
X033293Y003924D02*
X031948Y003924D01*
X031930Y003930D02*
X032680Y004680D01*
X032680Y005276D01*
X034089Y006686D01*
X034009Y006618D02*
X032357Y006618D01*
X032199Y006460D02*
X033220Y006460D01*
X033220Y006301D02*
X032040Y006301D01*
X031882Y006143D02*
X033286Y006143D01*
X033220Y006766D02*
X034009Y006766D01*
X034009Y007269D01*
X033377Y007269D01*
X033331Y007257D01*
X033290Y007233D01*
X033256Y007200D01*
X033233Y007159D01*
X033220Y007113D01*
X033220Y006766D01*
X033220Y006777D02*
X032516Y006777D01*
X032674Y006935D02*
X033220Y006935D01*
X033220Y007094D02*
X032833Y007094D01*
X032991Y007252D02*
X033322Y007252D01*
X033150Y007411D02*
X034691Y007411D01*
X034692Y007798D02*
X034099Y007798D01*
X034091Y007790D01*
X033190Y007790D01*
X031580Y006180D01*
X031780Y005984D02*
X035845Y005984D01*
X035798Y005826D02*
X030751Y005826D01*
X030593Y005667D02*
X035751Y005667D01*
X035704Y005509D02*
X034494Y005509D01*
X034653Y005350D02*
X035652Y005350D01*
X035576Y005192D02*
X034784Y005192D01*
X034850Y005033D02*
X035500Y005033D01*
X035425Y004875D02*
X034915Y004875D01*
X034915Y004716D02*
X035349Y004716D01*
X035240Y004558D02*
X034915Y004558D01*
X034880Y004399D02*
X035131Y004399D01*
X035022Y004241D02*
X034814Y004241D01*
X034725Y004082D02*
X034904Y004082D01*
X034754Y003924D02*
X034567Y003924D01*
X034603Y003765D02*
X034295Y003765D01*
X034048Y003290D02*
X032273Y003290D01*
X032385Y003131D02*
X033839Y003131D01*
X032833Y002656D02*
X032345Y002656D01*
X032415Y002814D02*
X032427Y002891D01*
X032427Y002912D01*
X031948Y002912D01*
X031948Y002948D01*
X032427Y002948D01*
X032427Y002969D01*
X031948Y002973D02*
X031912Y002973D01*
X031930Y002930D02*
X031930Y003930D01*
X030930Y003930D01*
X030930Y002930D01*
X030948Y002912D02*
X031427Y002912D01*
X031427Y002891D01*
X031415Y002814D01*
X031445Y002814D01*
X031470Y002739D01*
X031505Y002670D01*
X031551Y002606D01*
X031606Y002551D01*
X031670Y002505D01*
X031739Y002470D01*
X031814Y002445D01*
X031891Y002433D01*
X031912Y002433D01*
X031912Y002912D01*
X031433Y002912D01*
X031433Y002891D01*
X031445Y002814D01*
X031415Y002814D02*
X031390Y002739D01*
X031355Y002670D01*
X031309Y002606D01*
X031254Y002551D01*
X031190Y002505D01*
X031121Y002470D01*
X031046Y002445D01*
X030969Y002433D01*
X030948Y002433D01*
X030948Y002912D01*
X030912Y002912D02*
X030912Y002433D01*
X030891Y002433D01*
X030814Y002445D01*
X030739Y002470D01*
X030670Y002505D01*
X030606Y002551D01*
X030551Y002606D01*
X030505Y002670D01*
X030470Y002739D01*
X030445Y002814D01*
X030398Y002814D01*
X030407Y002835D02*
X030334Y002660D01*
X030200Y002526D01*
X030025Y002453D01*
X029835Y002453D01*
X029660Y002526D01*
X029526Y002660D01*
X029453Y002835D01*
X029453Y003025D01*
X029526Y003200D01*
X029660Y003334D01*
X029835Y003407D01*
X030025Y003407D01*
X030200Y003334D01*
X030334Y003200D01*
X030407Y003025D01*
X030407Y002835D01*
X030445Y002814D02*
X030433Y002891D01*
X030433Y002912D01*
X030912Y002912D01*
X030912Y002973D02*
X030948Y002973D01*
X030948Y003131D02*
X030912Y003131D01*
X030912Y003290D02*
X030948Y003290D01*
X031273Y003290D02*
X031587Y003290D01*
X031475Y003131D02*
X031385Y003131D01*
X031426Y002973D02*
X031434Y002973D01*
X031515Y002656D02*
X031345Y002656D01*
X031175Y002497D02*
X031685Y002497D01*
X031912Y002497D02*
X031948Y002497D01*
X031948Y002656D02*
X031912Y002656D01*
X031912Y002814D02*
X031948Y002814D01*
X031948Y003131D02*
X031912Y003131D01*
X031912Y003290D02*
X031948Y003290D01*
X031948Y003607D02*
X031912Y003607D01*
X031912Y003765D02*
X031948Y003765D01*
X031912Y003924D02*
X030948Y003924D01*
X030912Y003924D02*
X030407Y003924D01*
X030433Y003948D02*
X030912Y003948D01*
X030912Y004427D01*
X030891Y004427D01*
X030814Y004415D01*
X030739Y004390D01*
X030670Y004355D01*
X030606Y004309D01*
X030551Y004254D01*
X030505Y004190D01*
X030470Y004121D01*
X030445Y004046D01*
X030433Y003969D01*
X030433Y003948D01*
X030407Y004025D02*
X030334Y004200D01*
X030200Y004334D01*
X030025Y004407D01*
X029835Y004407D01*
X029660Y004334D01*
X029526Y004200D01*
X029453Y004025D01*
X029453Y003835D01*
X029526Y003660D01*
X029660Y003526D01*
X029835Y003453D01*
X030025Y003453D01*
X030200Y003526D01*
X030334Y003660D01*
X030407Y003835D01*
X030407Y004025D01*
X030383Y004082D02*
X030457Y004082D01*
X030541Y004241D02*
X030294Y004241D01*
X030044Y004399D02*
X030766Y004399D01*
X030912Y004399D02*
X030948Y004399D01*
X031094Y004399D02*
X031766Y004399D01*
X031739Y004390D02*
X031814Y004415D01*
X031891Y004427D01*
X031912Y004427D01*
X031912Y003948D01*
X031433Y003948D01*
X031433Y003969D01*
X031445Y004046D01*
X031470Y004121D01*
X031505Y004190D01*
X031551Y004254D01*
X031606Y004309D01*
X031670Y004355D01*
X031739Y004390D01*
X031912Y004399D02*
X031948Y004399D01*
X032094Y004399D02*
X032980Y004399D01*
X032945Y004558D02*
X028953Y004558D01*
X029025Y004407D02*
X028835Y004407D01*
X028660Y004334D01*
X028526Y004200D01*
X028453Y004025D01*
X028453Y003835D01*
X028526Y003660D01*
X028660Y003526D01*
X028835Y003453D01*
X029025Y003453D01*
X029200Y003526D01*
X029334Y003660D01*
X029407Y003835D01*
X029407Y004025D01*
X029334Y004200D01*
X029200Y004334D01*
X029025Y004407D01*
X029044Y004399D02*
X029816Y004399D01*
X029566Y004241D02*
X029294Y004241D01*
X029383Y004082D02*
X029477Y004082D01*
X029453Y003924D02*
X029407Y003924D01*
X029378Y003765D02*
X029482Y003765D01*
X029579Y003607D02*
X029281Y003607D01*
X029200Y003334D02*
X029025Y003407D01*
X028835Y003407D01*
X028660Y003334D01*
X028526Y003200D01*
X028453Y003025D01*
X028453Y002835D01*
X028526Y002660D01*
X028660Y002526D01*
X028835Y002453D01*
X029025Y002453D01*
X029200Y002526D01*
X029334Y002660D01*
X029407Y002835D01*
X029407Y003025D01*
X029334Y003200D01*
X029200Y003334D01*
X029245Y003290D02*
X029615Y003290D01*
X029497Y003131D02*
X029363Y003131D01*
X029407Y002973D02*
X029453Y002973D01*
X029462Y002814D02*
X029398Y002814D01*
X029330Y002656D02*
X029530Y002656D01*
X029729Y002497D02*
X029131Y002497D01*
X028729Y002497D02*
X028131Y002497D01*
X028200Y002526D02*
X028334Y002660D01*
X028407Y002835D01*
X028407Y003025D01*
X028334Y003200D01*
X028200Y003334D01*
X028025Y003407D01*
X027835Y003407D01*
X027660Y003334D01*
X027526Y003200D01*
X027453Y003025D01*
X027453Y002835D01*
X027526Y002660D01*
X027660Y002526D01*
X027835Y002453D01*
X028025Y002453D01*
X028200Y002526D01*
X028330Y002656D02*
X028530Y002656D01*
X028462Y002814D02*
X028398Y002814D01*
X028407Y002973D02*
X028453Y002973D01*
X028497Y003131D02*
X028363Y003131D01*
X028245Y003290D02*
X028615Y003290D01*
X028579Y003607D02*
X028281Y003607D01*
X028378Y003765D02*
X028482Y003765D01*
X028453Y003924D02*
X028407Y003924D01*
X028383Y004082D02*
X028477Y004082D01*
X028566Y004241D02*
X028294Y004241D01*
X028044Y004399D02*
X028816Y004399D01*
X029112Y004716D02*
X032945Y004716D01*
X032945Y004875D02*
X029270Y004875D01*
X029339Y004943D02*
X029339Y004943D01*
X029422Y005033D02*
X033010Y005033D01*
X033076Y005192D02*
X029460Y005192D01*
X029529Y005350D02*
X033207Y005350D01*
X033366Y005509D02*
X030434Y005509D01*
X030741Y006460D02*
X030590Y006611D01*
X030590Y007849D01*
X030705Y007802D01*
X030855Y007802D01*
X030994Y007859D01*
X031038Y007903D01*
X032964Y007903D01*
X031521Y006460D01*
X030741Y006460D01*
X030590Y006618D02*
X031679Y006618D01*
X031837Y006777D02*
X030590Y006777D01*
X030590Y006935D02*
X031996Y006935D01*
X032154Y007094D02*
X030590Y007094D01*
X030590Y007252D02*
X032313Y007252D01*
X032471Y007411D02*
X030590Y007411D01*
X030590Y007569D02*
X032630Y007569D01*
X032788Y007728D02*
X030590Y007728D01*
X031021Y007886D02*
X032947Y007886D01*
X032241Y008766D02*
X032117Y008890D01*
X032002Y008890D01*
X032001Y008894D01*
X031894Y009001D01*
X031890Y009002D01*
X031890Y009093D01*
X032285Y009489D01*
X032463Y009489D01*
X032557Y009582D01*
X032557Y010108D01*
X032485Y010180D01*
X032557Y010252D01*
X032557Y010778D01*
X032463Y010871D01*
X032390Y010871D01*
X032390Y011743D01*
X032737Y012090D01*
X033544Y012090D01*
X033590Y012044D01*
X034608Y012044D01*
X034627Y012062D01*
X034657Y012062D01*
X034657Y011995D01*
X034712Y011864D01*
X034802Y011773D01*
X034169Y011773D01*
X034169Y011270D01*
X034009Y011270D01*
X034009Y011110D01*
X033220Y011110D01*
X033220Y010763D01*
X033233Y010717D01*
X033254Y010680D01*
X033233Y010643D01*
X033220Y010597D01*
X033220Y010250D01*
X034009Y010250D01*
X034009Y010090D01*
X033220Y010090D01*
X033220Y009743D01*
X033233Y009697D01*
X033256Y009656D01*
X033290Y009623D01*
X033331Y009599D01*
X033377Y009587D01*
X034009Y009587D01*
X034009Y010090D01*
X034169Y010090D01*
X034169Y009587D01*
X034802Y009587D01*
X034712Y009496D01*
X034657Y009365D01*
X034657Y009296D01*
X034653Y009300D01*
X034612Y009324D01*
X034566Y009336D01*
X034099Y009336D01*
X033633Y009336D01*
X033587Y009324D01*
X033546Y009300D01*
X033512Y009267D01*
X033489Y009226D01*
X033476Y009180D01*
X033476Y009058D01*
X034099Y009058D01*
X034099Y009058D01*
X033476Y009058D01*
X033476Y008950D01*
X032801Y008950D01*
X032741Y009010D01*
X032623Y009059D01*
X032497Y009059D01*
X032379Y009010D01*
X032290Y008921D01*
X032241Y008803D01*
X032241Y008766D01*
X032255Y008837D02*
X032170Y008837D01*
X032364Y008996D02*
X031899Y008996D01*
X031951Y009154D02*
X033476Y009154D01*
X033476Y008996D02*
X032756Y008996D01*
X032557Y009630D02*
X033283Y009630D01*
X033220Y009788D02*
X032557Y009788D01*
X032557Y009947D02*
X033220Y009947D01*
X033220Y010264D02*
X032557Y010264D01*
X032557Y010422D02*
X033220Y010422D01*
X033220Y010581D02*
X032557Y010581D01*
X032557Y010739D02*
X033227Y010739D01*
X033220Y010898D02*
X032390Y010898D01*
X032390Y011056D02*
X033220Y011056D01*
X033220Y011270D02*
X034009Y011270D01*
X034009Y011773D01*
X033377Y011773D01*
X033331Y011761D01*
X033290Y011737D01*
X033256Y011704D01*
X033233Y011663D01*
X033220Y011617D01*
X033220Y011270D01*
X033220Y011373D02*
X032390Y011373D01*
X032390Y011215D02*
X034009Y011215D01*
X034009Y011110D02*
X034169Y011110D01*
X034169Y010250D01*
X034009Y010250D01*
X034009Y010606D01*
X034009Y011110D01*
X034009Y011056D02*
X034169Y011056D01*
X034169Y011110D02*
X034169Y011270D01*
X034958Y011270D01*
X035486Y011270D01*
X035486Y011773D01*
X035227Y011773D01*
X035317Y011864D01*
X035372Y011995D01*
X035372Y012112D01*
X035373Y012112D01*
X035523Y012112D01*
X035662Y012169D01*
X035768Y012276D01*
X035826Y012415D01*
X035826Y012565D01*
X035768Y012704D01*
X035662Y012811D01*
X035523Y012868D01*
X035373Y012868D01*
X035234Y012811D01*
X035154Y012731D01*
X035122Y012731D01*
X035122Y012731D01*
X034825Y012731D01*
X034737Y012694D01*
X034702Y012660D01*
X034702Y013381D01*
X034710Y013394D01*
X034722Y013440D01*
X034722Y013562D01*
X034722Y013585D01*
X034812Y013495D01*
X034944Y013441D01*
X035086Y013441D01*
X035217Y013495D01*
X035317Y013596D01*
X035372Y013727D01*
X035372Y013869D01*
X035317Y014000D01*
X035227Y014091D01*
X035486Y014091D01*
X035486Y014594D01*
X035646Y014594D01*
X035646Y014091D01*
X035975Y014091D01*
X035975Y011773D01*
X035646Y011773D01*
X035646Y011270D01*
X035486Y011270D01*
X035486Y011110D01*
X034169Y011110D01*
X034169Y011215D02*
X035486Y011215D01*
X035486Y011110D02*
X035646Y011110D01*
X035646Y010250D01*
X035486Y010250D01*
X035486Y010606D01*
X035486Y011110D01*
X035486Y011056D02*
X035646Y011056D01*
X035646Y010898D02*
X035486Y010898D01*
X035486Y010739D02*
X035646Y010739D01*
X035646Y010581D02*
X035486Y010581D01*
X035486Y010422D02*
X035646Y010422D01*
X035646Y010264D02*
X035486Y010264D01*
X035486Y010250D02*
X035486Y010090D01*
X035646Y010090D01*
X035646Y009587D01*
X035975Y009587D01*
X035975Y007269D01*
X035646Y007269D01*
X035646Y006766D01*
X035486Y006766D01*
X035486Y007269D01*
X035227Y007269D01*
X035317Y007360D01*
X035372Y007491D01*
X035372Y007633D01*
X035317Y007764D01*
X035217Y007865D01*
X035133Y007900D01*
X035163Y007930D01*
X035234Y007859D01*
X035373Y007802D01*
X035523Y007802D01*
X035662Y007859D01*
X035768Y007966D01*
X035826Y008105D01*
X035826Y008255D01*
X035768Y008394D01*
X035662Y008501D01*
X035523Y008558D01*
X035373Y008558D01*
X035234Y008501D01*
X035153Y008420D01*
X035026Y008420D01*
X034938Y008383D01*
X034870Y008316D01*
X034702Y008148D01*
X034702Y008877D01*
X034710Y008890D01*
X034722Y008936D01*
X034722Y009058D01*
X034722Y009082D01*
X034812Y008991D01*
X034944Y008937D01*
X035086Y008937D01*
X035217Y008991D01*
X035317Y009092D01*
X035372Y009223D01*
X035372Y009365D01*
X035317Y009496D01*
X035227Y009587D01*
X035486Y009587D01*
X035486Y010090D01*
X034169Y010090D01*
X034169Y010250D01*
X034958Y010250D01*
X035486Y010250D01*
X035486Y010105D02*
X034169Y010105D01*
X034169Y009947D02*
X034009Y009947D01*
X034009Y010105D02*
X032557Y010105D01*
X031875Y010180D02*
X031803Y010108D01*
X031803Y009600D01*
X031593Y009390D01*
X031470Y009267D01*
X031470Y009002D01*
X031466Y009001D01*
X031359Y008894D01*
X031302Y008755D01*
X031302Y008605D01*
X031359Y008466D01*
X031466Y008359D01*
X031554Y008323D01*
X031130Y008323D01*
X031101Y008394D01*
X030994Y008501D01*
X030855Y008558D01*
X030705Y008558D01*
X030590Y008511D01*
X030590Y009773D01*
X030713Y009650D01*
X030823Y009650D01*
X030823Y009563D01*
X030917Y009469D01*
X031443Y009469D01*
X031537Y009563D01*
X031537Y010128D01*
X031499Y010166D01*
X031521Y010188D01*
X031545Y010229D01*
X031557Y010274D01*
X031557Y010496D01*
X031198Y010496D01*
X031198Y010533D01*
X031162Y010533D01*
X031162Y010911D01*
X030959Y010911D01*
X030914Y010899D01*
X030873Y010875D01*
X030839Y010842D01*
X030815Y010801D01*
X030803Y010755D01*
X030803Y010533D01*
X031162Y010533D01*
X031162Y010496D01*
X030803Y010496D01*
X030803Y010334D01*
X030797Y010340D01*
X030404Y010733D01*
X030300Y010733D01*
X030300Y010837D01*
X029870Y010837D01*
X029440Y010837D01*
X029440Y010704D01*
X029452Y010658D01*
X029460Y010645D01*
X029460Y010637D01*
X029439Y010658D01*
X029439Y010743D01*
X029390Y010861D01*
X029301Y010950D01*
X029183Y010999D01*
X029057Y010999D01*
X028939Y010950D01*
X028850Y010861D01*
X028805Y010752D01*
X028667Y010890D01*
X027793Y010890D01*
X027670Y010767D01*
X027321Y010418D01*
X026920Y010418D01*
X026920Y010523D01*
X026920Y010656D01*
X026908Y010702D01*
X026900Y010715D01*
X026900Y010960D01*
X026908Y010973D01*
X026920Y011019D01*
X026920Y011152D01*
X026490Y011152D01*
X026490Y011152D01*
X026920Y011152D01*
X026920Y011286D01*
X026908Y011332D01*
X026900Y011345D01*
X026900Y011572D01*
X029190Y011572D01*
X029192Y011570D01*
X029193Y011570D01*
X029280Y011570D01*
X029366Y011570D01*
X029367Y011570D01*
X029428Y011631D01*
X029460Y011663D01*
X029460Y011606D01*
X029460Y011030D01*
X029452Y011017D01*
X029440Y010971D01*
X029440Y010837D01*
X029870Y010837D01*
X029870Y010837D01*
X029870Y010837D01*
X030300Y010837D01*
X030300Y010942D01*
X031383Y010942D01*
X031419Y010906D01*
X031401Y010911D01*
X031198Y010911D01*
X031198Y010533D01*
X031557Y010533D01*
X031557Y010755D01*
X031545Y010801D01*
X031525Y010835D01*
X031605Y010802D01*
X031755Y010802D01*
X031879Y010853D01*
X031803Y010778D01*
X031803Y010252D01*
X031875Y010180D01*
X031803Y010105D02*
X031537Y010105D01*
X031537Y009947D02*
X031803Y009947D01*
X031803Y009788D02*
X031537Y009788D01*
X031537Y009630D02*
X031803Y009630D01*
X031674Y009471D02*
X031445Y009471D01*
X031516Y009313D02*
X030590Y009313D01*
X030590Y009471D02*
X030915Y009471D01*
X030823Y009630D02*
X030590Y009630D01*
X030590Y009773D02*
X030590Y009773D01*
X030590Y009154D02*
X031470Y009154D01*
X031461Y008996D02*
X030590Y008996D01*
X030590Y008837D02*
X031336Y008837D01*
X031302Y008679D02*
X030590Y008679D01*
X030590Y008520D02*
X030613Y008520D01*
X030947Y008520D02*
X031337Y008520D01*
X031464Y008362D02*
X031114Y008362D01*
X032109Y009313D02*
X033567Y009313D01*
X034099Y009313D02*
X034099Y009313D01*
X034099Y009336D02*
X034099Y009058D01*
X034099Y009058D01*
X034099Y009336D01*
X034099Y009154D02*
X034099Y009154D01*
X034099Y009058D02*
X034722Y009058D01*
X034099Y009058D01*
X034099Y009058D01*
X034632Y009313D02*
X034657Y009313D01*
X034701Y009471D02*
X032268Y009471D01*
X031803Y010264D02*
X031554Y010264D01*
X031557Y010422D02*
X031803Y010422D01*
X031803Y010581D02*
X031557Y010581D01*
X031557Y010739D02*
X031803Y010739D01*
X031198Y010739D02*
X031162Y010739D01*
X031162Y010581D02*
X031198Y010581D01*
X031198Y010898D02*
X031162Y010898D01*
X030911Y010898D02*
X030300Y010898D01*
X030300Y010739D02*
X030803Y010739D01*
X030803Y010581D02*
X030556Y010581D01*
X030715Y010422D02*
X030803Y010422D01*
X029440Y010739D02*
X029439Y010739D01*
X029440Y010898D02*
X029354Y010898D01*
X029460Y011056D02*
X026920Y011056D01*
X026920Y011215D02*
X029460Y011215D01*
X029460Y011373D02*
X026900Y011373D01*
X026900Y011532D02*
X029460Y011532D01*
X029367Y011570D02*
X029367Y011570D01*
X029193Y011570D02*
X029193Y011570D01*
X028886Y010898D02*
X026900Y010898D01*
X026900Y010739D02*
X027642Y010739D01*
X027484Y010581D02*
X026920Y010581D01*
X026920Y010523D02*
X026490Y010523D01*
X026490Y010523D01*
X026920Y010523D01*
X026920Y010422D02*
X027325Y010422D01*
X026080Y009673D02*
X026080Y009401D01*
X026117Y009364D01*
X025963Y009210D01*
X025840Y009087D01*
X025840Y007857D01*
X025814Y007831D01*
X025779Y007866D01*
X025801Y007888D01*
X025825Y007929D01*
X025837Y007974D01*
X025837Y008196D01*
X025478Y008196D01*
X025478Y008233D01*
X025442Y008233D01*
X025442Y008611D01*
X025239Y008611D01*
X025194Y008599D01*
X025153Y008575D01*
X025119Y008542D01*
X025095Y008501D01*
X025083Y008455D01*
X025083Y008233D01*
X025442Y008233D01*
X025442Y008196D01*
X025083Y008196D01*
X025083Y007974D01*
X025095Y007929D01*
X025119Y007888D01*
X025141Y007866D01*
X025103Y007828D01*
X025103Y007755D01*
X024850Y007755D01*
X024527Y007432D01*
X024527Y007731D01*
X024434Y007824D01*
X023474Y007824D01*
X023381Y007731D01*
X023381Y005393D01*
X023384Y005390D01*
X021925Y005390D01*
X022001Y005466D01*
X022058Y005605D01*
X022058Y005700D01*
X022125Y005672D01*
X022275Y005672D01*
X022414Y005729D01*
X022521Y005836D01*
X022578Y005975D01*
X022578Y006125D01*
X022521Y006264D01*
X022504Y006280D01*
X022574Y006309D01*
X022681Y006416D01*
X022738Y006555D01*
X022738Y006705D01*
X022681Y006844D01*
X022574Y006951D01*
X022570Y006952D01*
X022570Y010463D01*
X023381Y011274D01*
X023381Y009133D01*
X023474Y009040D01*
X024434Y009040D01*
X024527Y009133D01*
X024527Y009965D01*
X025103Y009965D01*
X025103Y009892D01*
X025141Y009854D01*
X025119Y009832D01*
X025095Y009791D01*
X025083Y009746D01*
X025083Y009524D01*
X025442Y009524D01*
X025442Y009487D01*
X025478Y009487D01*
X025478Y009109D01*
X025681Y009109D01*
X025726Y009121D01*
X025767Y009145D01*
X025801Y009178D01*
X025825Y009219D01*
X025837Y009265D01*
X025837Y009487D01*
X025478Y009487D01*
X025478Y009524D01*
X025837Y009524D01*
X025837Y009702D01*
X025866Y009673D01*
X026080Y009673D01*
X026080Y009630D02*
X025837Y009630D01*
X025837Y009471D02*
X026080Y009471D01*
X026066Y009313D02*
X025837Y009313D01*
X025777Y009154D02*
X025907Y009154D01*
X025840Y008996D02*
X024467Y008996D01*
X024478Y008989D02*
X024437Y009013D01*
X024391Y009025D01*
X023660Y009025D01*
X023660Y008512D01*
X023500Y008512D01*
X023500Y009025D01*
X022769Y009025D01*
X022723Y009013D01*
X022682Y008989D01*
X022649Y008956D01*
X022625Y008915D01*
X022613Y008869D01*
X022613Y008512D01*
X023500Y008512D01*
X023500Y008352D01*
X022613Y008352D01*
X022613Y007995D01*
X022625Y007949D01*
X022649Y007908D01*
X022682Y007875D01*
X022723Y007851D01*
X022769Y007839D01*
X023500Y007839D01*
X023500Y008352D01*
X023660Y008352D01*
X023660Y008512D01*
X024547Y008512D01*
X024547Y008869D01*
X024535Y008915D01*
X024511Y008956D01*
X024478Y008989D01*
X024547Y008837D02*
X025840Y008837D01*
X025840Y008679D02*
X024547Y008679D01*
X024547Y008520D02*
X025107Y008520D01*
X025083Y008362D02*
X023660Y008362D01*
X023660Y008352D02*
X024547Y008352D01*
X024547Y007995D01*
X024535Y007949D01*
X024511Y007908D01*
X024478Y007875D01*
X024437Y007851D01*
X024391Y007839D01*
X023660Y007839D01*
X023660Y008352D01*
X023660Y008203D02*
X023500Y008203D01*
X023500Y008045D02*
X023660Y008045D01*
X023660Y007886D02*
X023500Y007886D01*
X023381Y007728D02*
X022570Y007728D01*
X022570Y007886D02*
X022671Y007886D01*
X022613Y008045D02*
X022570Y008045D01*
X022570Y008203D02*
X022613Y008203D01*
X022570Y008362D02*
X023500Y008362D01*
X023500Y008520D02*
X023660Y008520D01*
X023660Y008679D02*
X023500Y008679D01*
X023500Y008837D02*
X023660Y008837D01*
X023660Y008996D02*
X023500Y008996D01*
X023381Y009154D02*
X022570Y009154D01*
X022570Y008996D02*
X022693Y008996D01*
X022613Y008837D02*
X022570Y008837D01*
X022570Y008679D02*
X022613Y008679D01*
X022613Y008520D02*
X022570Y008520D01*
X022570Y009313D02*
X023381Y009313D01*
X023381Y009471D02*
X022570Y009471D01*
X022570Y009630D02*
X023381Y009630D01*
X023381Y009788D02*
X022570Y009788D01*
X022570Y009947D02*
X023381Y009947D01*
X023381Y010105D02*
X022570Y010105D01*
X022570Y010264D02*
X023381Y010264D01*
X023381Y010422D02*
X022570Y010422D01*
X022687Y010581D02*
X023381Y010581D01*
X023381Y010739D02*
X022846Y010739D01*
X023004Y010898D02*
X023381Y010898D01*
X023381Y011056D02*
X023163Y011056D01*
X023321Y011215D02*
X023381Y011215D01*
X023741Y010515D02*
X023954Y010302D01*
X023980Y010276D01*
X023980Y009880D01*
X023993Y009893D01*
X024527Y009947D02*
X025103Y009947D01*
X025095Y009788D02*
X024527Y009788D01*
X024527Y009630D02*
X025083Y009630D01*
X025083Y009487D02*
X025083Y009265D01*
X025095Y009219D01*
X025119Y009178D01*
X025153Y009145D01*
X025194Y009121D01*
X025239Y009109D01*
X025442Y009109D01*
X025442Y009487D01*
X025083Y009487D01*
X025083Y009471D02*
X024527Y009471D01*
X024527Y009313D02*
X025083Y009313D01*
X025143Y009154D02*
X024527Y009154D01*
X025442Y009154D02*
X025478Y009154D01*
X025478Y009313D02*
X025442Y009313D01*
X025442Y009471D02*
X025478Y009471D01*
X025478Y008611D02*
X025478Y008233D01*
X025837Y008233D01*
X025837Y008455D01*
X025825Y008501D01*
X025801Y008542D01*
X025767Y008575D01*
X025726Y008599D01*
X025681Y008611D01*
X025478Y008611D01*
X025478Y008520D02*
X025442Y008520D01*
X025442Y008362D02*
X025478Y008362D01*
X025478Y008203D02*
X025840Y008203D01*
X025837Y008045D02*
X025840Y008045D01*
X025840Y007886D02*
X025799Y007886D01*
X025837Y008362D02*
X025840Y008362D01*
X025840Y008520D02*
X025813Y008520D01*
X025442Y008203D02*
X024547Y008203D01*
X024547Y008045D02*
X025083Y008045D01*
X025121Y007886D02*
X024489Y007886D01*
X024527Y007728D02*
X024823Y007728D01*
X024664Y007569D02*
X024527Y007569D01*
X024072Y006680D02*
X023954Y006562D01*
X023737Y006345D01*
X023381Y006301D02*
X022554Y006301D01*
X022571Y006143D02*
X023381Y006143D01*
X023381Y005984D02*
X022578Y005984D01*
X022510Y005826D02*
X023381Y005826D01*
X023381Y005667D02*
X022058Y005667D01*
X022018Y005509D02*
X023381Y005509D01*
X023381Y006460D02*
X022699Y006460D01*
X022738Y006618D02*
X023381Y006618D01*
X023381Y006777D02*
X022709Y006777D01*
X022590Y006935D02*
X023381Y006935D01*
X023381Y007094D02*
X022570Y007094D01*
X022570Y007252D02*
X023381Y007252D01*
X023381Y007411D02*
X022570Y007411D01*
X022570Y007569D02*
X023381Y007569D01*
X020780Y005983D02*
X020780Y005537D01*
X020780Y005363D01*
X021173Y004970D01*
X025767Y004970D01*
X025890Y005093D01*
X026267Y005470D01*
X026390Y005593D01*
X026390Y006093D01*
X026739Y006442D01*
X026981Y006200D01*
X027379Y006200D01*
X027470Y006291D01*
X027470Y006097D01*
X027387Y006180D01*
X027200Y006180D01*
X027200Y005700D01*
X027680Y005700D01*
X027680Y005883D01*
X027700Y005863D01*
X027700Y005481D01*
X027981Y005200D01*
X028379Y005200D01*
X028660Y005481D01*
X028660Y005879D01*
X028379Y006160D01*
X027997Y006160D01*
X027890Y006267D01*
X027890Y006291D01*
X027981Y006200D01*
X028363Y006200D01*
X028593Y005970D01*
X028791Y005970D01*
X028700Y005879D01*
X028700Y005481D01*
X028893Y005289D01*
X028564Y004960D01*
X020495Y004960D01*
X020501Y004966D01*
X020558Y005105D01*
X020558Y005255D01*
X020501Y005394D01*
X020394Y005501D01*
X020255Y005558D01*
X020107Y005558D01*
X020029Y005635D01*
X020432Y005635D01*
X020767Y005970D01*
X020780Y005983D01*
X020780Y005826D02*
X020622Y005826D01*
X020464Y005667D02*
X020780Y005667D01*
X020780Y005509D02*
X020375Y005509D01*
X020519Y005350D02*
X020793Y005350D01*
X020952Y005192D02*
X020558Y005192D01*
X020528Y005033D02*
X021110Y005033D01*
X021044Y004399D02*
X021816Y004399D01*
X022044Y004399D02*
X022816Y004399D01*
X023044Y004399D02*
X023816Y004399D01*
X024044Y004399D02*
X024816Y004399D01*
X025044Y004399D02*
X025816Y004399D01*
X026044Y004399D02*
X026816Y004399D01*
X027044Y004399D02*
X027816Y004399D01*
X027566Y004241D02*
X027294Y004241D01*
X027383Y004082D02*
X027477Y004082D01*
X027453Y003924D02*
X027407Y003924D01*
X027378Y003765D02*
X027482Y003765D01*
X027579Y003607D02*
X027281Y003607D01*
X027200Y003334D02*
X027025Y003407D01*
X026835Y003407D01*
X026660Y003334D01*
X026526Y003200D01*
X026453Y003025D01*
X026453Y002835D01*
X026526Y002660D01*
X026660Y002526D01*
X026835Y002453D01*
X027025Y002453D01*
X027200Y002526D01*
X027334Y002660D01*
X027407Y002835D01*
X027407Y003025D01*
X027334Y003200D01*
X027200Y003334D01*
X027245Y003290D02*
X027615Y003290D01*
X027497Y003131D02*
X027363Y003131D01*
X027407Y002973D02*
X027453Y002973D01*
X027462Y002814D02*
X027398Y002814D01*
X027330Y002656D02*
X027530Y002656D01*
X027729Y002497D02*
X027131Y002497D01*
X026729Y002497D02*
X026131Y002497D01*
X026200Y002526D02*
X026025Y002453D01*
X025835Y002453D01*
X025660Y002526D01*
X025526Y002660D01*
X025453Y002835D01*
X025453Y003025D01*
X025526Y003200D01*
X025660Y003334D01*
X025835Y003407D01*
X026025Y003407D01*
X026200Y003334D01*
X026334Y003200D01*
X026407Y003025D01*
X026407Y002835D01*
X026334Y002660D01*
X026200Y002526D01*
X026330Y002656D02*
X026530Y002656D01*
X026462Y002814D02*
X026398Y002814D01*
X026407Y002973D02*
X026453Y002973D01*
X026497Y003131D02*
X026363Y003131D01*
X026245Y003290D02*
X026615Y003290D01*
X026579Y003607D02*
X026281Y003607D01*
X026378Y003765D02*
X026482Y003765D01*
X026453Y003924D02*
X026407Y003924D01*
X026383Y004082D02*
X026477Y004082D01*
X026566Y004241D02*
X026294Y004241D01*
X025566Y004241D02*
X025294Y004241D01*
X025383Y004082D02*
X025477Y004082D01*
X025453Y003924D02*
X025407Y003924D01*
X025378Y003765D02*
X025482Y003765D01*
X025579Y003607D02*
X025281Y003607D01*
X025200Y003334D02*
X025025Y003407D01*
X024835Y003407D01*
X024660Y003334D01*
X024526Y003200D01*
X024453Y003025D01*
X024453Y002835D01*
X024526Y002660D01*
X024660Y002526D01*
X024835Y002453D01*
X025025Y002453D01*
X025200Y002526D01*
X025334Y002660D01*
X025407Y002835D01*
X025407Y003025D01*
X025334Y003200D01*
X025200Y003334D01*
X025245Y003290D02*
X025615Y003290D01*
X025497Y003131D02*
X025363Y003131D01*
X025407Y002973D02*
X025453Y002973D01*
X025462Y002814D02*
X025398Y002814D01*
X025330Y002656D02*
X025530Y002656D01*
X025729Y002497D02*
X025131Y002497D01*
X024729Y002497D02*
X024131Y002497D01*
X024200Y002526D02*
X024334Y002660D01*
X024407Y002835D01*
X024407Y003025D01*
X024334Y003200D01*
X024200Y003334D01*
X024025Y003407D01*
X023835Y003407D01*
X023660Y003334D01*
X023526Y003200D01*
X023453Y003025D01*
X023453Y002835D01*
X023526Y002660D01*
X023660Y002526D01*
X023835Y002453D01*
X024025Y002453D01*
X024200Y002526D01*
X024330Y002656D02*
X024530Y002656D01*
X024462Y002814D02*
X024398Y002814D01*
X024407Y002973D02*
X024453Y002973D01*
X024497Y003131D02*
X024363Y003131D01*
X024245Y003290D02*
X024615Y003290D01*
X024579Y003607D02*
X024281Y003607D01*
X024378Y003765D02*
X024482Y003765D01*
X024453Y003924D02*
X024407Y003924D01*
X024383Y004082D02*
X024477Y004082D01*
X024566Y004241D02*
X024294Y004241D01*
X023566Y004241D02*
X023294Y004241D01*
X023383Y004082D02*
X023477Y004082D01*
X023453Y003924D02*
X023407Y003924D01*
X023378Y003765D02*
X023482Y003765D01*
X023579Y003607D02*
X023281Y003607D01*
X023200Y003334D02*
X023025Y003407D01*
X022835Y003407D01*
X022660Y003334D01*
X022526Y003200D01*
X022453Y003025D01*
X022453Y002835D01*
X022526Y002660D01*
X022660Y002526D01*
X022835Y002453D01*
X023025Y002453D01*
X023200Y002526D01*
X023334Y002660D01*
X023407Y002835D01*
X023407Y003025D01*
X023334Y003200D01*
X023200Y003334D01*
X023245Y003290D02*
X023615Y003290D01*
X023497Y003131D02*
X023363Y003131D01*
X023407Y002973D02*
X023453Y002973D01*
X023462Y002814D02*
X023398Y002814D01*
X023330Y002656D02*
X023530Y002656D01*
X023729Y002497D02*
X023131Y002497D01*
X022729Y002497D02*
X022131Y002497D01*
X022200Y002526D02*
X022334Y002660D01*
X022407Y002835D01*
X022407Y003025D01*
X022334Y003200D01*
X022200Y003334D01*
X022025Y003407D01*
X021835Y003407D01*
X021660Y003334D01*
X021526Y003200D01*
X021453Y003025D01*
X021453Y002835D01*
X021526Y002660D01*
X021660Y002526D01*
X021835Y002453D01*
X022025Y002453D01*
X022200Y002526D01*
X022330Y002656D02*
X022530Y002656D01*
X022462Y002814D02*
X022398Y002814D01*
X022407Y002973D02*
X022453Y002973D01*
X022497Y003131D02*
X022363Y003131D01*
X022245Y003290D02*
X022615Y003290D01*
X022579Y003607D02*
X022281Y003607D01*
X022378Y003765D02*
X022482Y003765D01*
X022453Y003924D02*
X022407Y003924D01*
X022383Y004082D02*
X022477Y004082D01*
X022566Y004241D02*
X022294Y004241D01*
X021566Y004241D02*
X021294Y004241D01*
X021383Y004082D02*
X021477Y004082D01*
X021453Y003924D02*
X021407Y003924D01*
X021378Y003765D02*
X021482Y003765D01*
X021579Y003607D02*
X021281Y003607D01*
X021200Y003334D02*
X021025Y003407D01*
X020835Y003407D01*
X020660Y003334D01*
X020526Y003200D01*
X020453Y003025D01*
X020453Y002835D01*
X020526Y002660D01*
X020660Y002526D01*
X020835Y002453D01*
X021025Y002453D01*
X021200Y002526D01*
X021334Y002660D01*
X021407Y002835D01*
X021407Y003025D01*
X021334Y003200D01*
X021200Y003334D01*
X021245Y003290D02*
X021615Y003290D01*
X021497Y003131D02*
X021363Y003131D01*
X021407Y002973D02*
X021453Y002973D01*
X021462Y002814D02*
X021398Y002814D01*
X021330Y002656D02*
X021530Y002656D01*
X021729Y002497D02*
X021131Y002497D01*
X020729Y002497D02*
X020131Y002497D01*
X020200Y002526D02*
X020025Y002453D01*
X019835Y002453D01*
X019660Y002526D01*
X019526Y002660D01*
X019453Y002835D01*
X019453Y003025D01*
X019526Y003200D01*
X019660Y003334D01*
X019835Y003407D01*
X020025Y003407D01*
X020200Y003334D01*
X020334Y003200D01*
X020407Y003025D01*
X020407Y002835D01*
X020334Y002660D01*
X020200Y002526D01*
X020330Y002656D02*
X020530Y002656D01*
X020462Y002814D02*
X020398Y002814D01*
X020407Y002973D02*
X020453Y002973D01*
X020497Y003131D02*
X020363Y003131D01*
X020245Y003290D02*
X020615Y003290D01*
X020579Y003607D02*
X020281Y003607D01*
X020378Y003765D02*
X020482Y003765D01*
X020453Y003924D02*
X020407Y003924D01*
X020383Y004082D02*
X020477Y004082D01*
X020566Y004241D02*
X020294Y004241D01*
X020044Y004399D02*
X020816Y004399D01*
X019816Y004399D02*
X019044Y004399D01*
X018816Y004399D02*
X018044Y004399D01*
X017816Y004399D02*
X017044Y004399D01*
X017025Y004407D02*
X016835Y004407D01*
X016660Y004334D01*
X016526Y004200D01*
X016453Y004025D01*
X016453Y003835D01*
X016526Y003660D01*
X016660Y003526D01*
X016835Y003453D01*
X017025Y003453D01*
X017200Y003526D01*
X017334Y003660D01*
X017407Y003835D01*
X017407Y004025D01*
X017334Y004200D01*
X017200Y004334D01*
X017025Y004407D01*
X016907Y004558D02*
X013210Y004558D01*
X013210Y004716D02*
X016748Y004716D01*
X016816Y004399D02*
X016044Y004399D01*
X016025Y004407D02*
X015835Y004407D01*
X015660Y004334D01*
X015526Y004200D01*
X015453Y004025D01*
X015453Y003835D01*
X015526Y003660D01*
X015660Y003526D01*
X015835Y003453D01*
X016025Y003453D01*
X016200Y003526D01*
X016334Y003660D01*
X016407Y003835D01*
X016407Y004025D01*
X016334Y004200D01*
X016200Y004334D01*
X016025Y004407D01*
X015816Y004399D02*
X015094Y004399D01*
X014948Y004399D02*
X014912Y004399D01*
X014912Y004427D02*
X014891Y004427D01*
X014814Y004415D01*
X014739Y004390D01*
X014670Y004355D01*
X014606Y004309D01*
X014551Y004254D01*
X014505Y004190D01*
X014470Y004121D01*
X014445Y004046D01*
X014433Y003969D01*
X014433Y003948D01*
X014912Y003948D01*
X014912Y004427D01*
X014766Y004399D02*
X014044Y004399D01*
X014025Y004407D02*
X013835Y004407D01*
X013660Y004334D01*
X013526Y004200D01*
X013453Y004025D01*
X013453Y003835D01*
X013526Y003660D01*
X013660Y003526D01*
X013835Y003453D01*
X014025Y003453D01*
X014200Y003526D01*
X014334Y003660D01*
X014407Y003835D01*
X014407Y004025D01*
X014334Y004200D01*
X014200Y004334D01*
X014025Y004407D01*
X013816Y004399D02*
X013210Y004399D01*
X013294Y004241D02*
X013566Y004241D01*
X013477Y004082D02*
X013383Y004082D01*
X013407Y003924D02*
X013453Y003924D01*
X013482Y003765D02*
X013378Y003765D01*
X013281Y003607D02*
X013579Y003607D01*
X013660Y003334D02*
X013526Y003200D01*
X013453Y003025D01*
X013453Y002835D01*
X013526Y002660D01*
X013660Y002526D01*
X013835Y002453D01*
X014025Y002453D01*
X014200Y002526D01*
X014334Y002660D01*
X014407Y002835D01*
X014407Y003025D01*
X014334Y003200D01*
X014200Y003334D01*
X014025Y003407D01*
X013835Y003407D01*
X013660Y003334D01*
X013615Y003290D02*
X013245Y003290D01*
X013363Y003131D02*
X013497Y003131D01*
X013453Y002973D02*
X013407Y002973D01*
X013398Y002814D02*
X013462Y002814D01*
X013530Y002656D02*
X013330Y002656D01*
X013131Y002497D02*
X013729Y002497D01*
X014131Y002497D02*
X014729Y002497D01*
X014530Y002656D02*
X014330Y002656D01*
X014398Y002814D02*
X014462Y002814D01*
X014453Y002973D02*
X014407Y002973D01*
X014363Y003131D02*
X014497Y003131D01*
X014615Y003290D02*
X014245Y003290D01*
X014281Y003607D02*
X014551Y003607D01*
X014461Y003765D02*
X014378Y003765D01*
X014407Y003924D02*
X014912Y003924D01*
X014948Y003924D02*
X015453Y003924D01*
X015477Y004082D02*
X015403Y004082D01*
X015319Y004241D02*
X015566Y004241D01*
X014948Y004241D02*
X014912Y004241D01*
X014912Y004082D02*
X014948Y004082D01*
X014948Y003765D02*
X014912Y003765D01*
X014912Y003607D02*
X014948Y003607D01*
X015309Y003607D02*
X015579Y003607D01*
X015482Y003765D02*
X015399Y003765D01*
X015660Y003334D02*
X015526Y003200D01*
X015453Y003025D01*
X015453Y002835D01*
X015526Y002660D01*
X015660Y002526D01*
X015835Y002453D01*
X016025Y002453D01*
X016200Y002526D01*
X016334Y002660D01*
X016407Y002835D01*
X016407Y003025D01*
X016334Y003200D01*
X016200Y003334D01*
X016025Y003407D01*
X015835Y003407D01*
X015660Y003334D01*
X015615Y003290D02*
X015245Y003290D01*
X015363Y003131D02*
X015497Y003131D01*
X015453Y002973D02*
X015407Y002973D01*
X015398Y002814D02*
X015462Y002814D01*
X015530Y002656D02*
X015330Y002656D01*
X015131Y002497D02*
X015729Y002497D01*
X016131Y002497D02*
X016729Y002497D01*
X016660Y002526D02*
X016835Y002453D01*
X017025Y002453D01*
X017200Y002526D01*
X017334Y002660D01*
X017407Y002835D01*
X017407Y003025D01*
X017334Y003200D01*
X017200Y003334D01*
X017025Y003407D01*
X016835Y003407D01*
X016660Y003334D01*
X016526Y003200D01*
X016453Y003025D01*
X016453Y002835D01*
X016526Y002660D01*
X016660Y002526D01*
X016530Y002656D02*
X016330Y002656D01*
X016398Y002814D02*
X016462Y002814D01*
X016453Y002973D02*
X016407Y002973D01*
X016363Y003131D02*
X016497Y003131D01*
X016615Y003290D02*
X016245Y003290D01*
X016281Y003607D02*
X016579Y003607D01*
X016482Y003765D02*
X016378Y003765D01*
X016407Y003924D02*
X016453Y003924D01*
X016477Y004082D02*
X016383Y004082D01*
X016294Y004241D02*
X016566Y004241D01*
X017294Y004241D02*
X017566Y004241D01*
X017477Y004082D02*
X017383Y004082D01*
X017407Y003924D02*
X017453Y003924D01*
X017482Y003765D02*
X017378Y003765D01*
X017281Y003607D02*
X017579Y003607D01*
X017660Y003334D02*
X017526Y003200D01*
X017453Y003025D01*
X017453Y002835D01*
X017526Y002660D01*
X017660Y002526D01*
X017835Y002453D01*
X018025Y002453D01*
X018200Y002526D01*
X018334Y002660D01*
X018407Y002835D01*
X018407Y003025D01*
X018334Y003200D01*
X018200Y003334D01*
X018025Y003407D01*
X017835Y003407D01*
X017660Y003334D01*
X017615Y003290D02*
X017245Y003290D01*
X017363Y003131D02*
X017497Y003131D01*
X017453Y002973D02*
X017407Y002973D01*
X017398Y002814D02*
X017462Y002814D01*
X017530Y002656D02*
X017330Y002656D01*
X017131Y002497D02*
X017729Y002497D01*
X018131Y002497D02*
X018729Y002497D01*
X018660Y002526D02*
X018835Y002453D01*
X019025Y002453D01*
X019200Y002526D01*
X019334Y002660D01*
X019407Y002835D01*
X019407Y003025D01*
X019334Y003200D01*
X019200Y003334D01*
X019025Y003407D01*
X018835Y003407D01*
X018660Y003334D01*
X018526Y003200D01*
X018453Y003025D01*
X018453Y002835D01*
X018526Y002660D01*
X018660Y002526D01*
X018530Y002656D02*
X018330Y002656D01*
X018398Y002814D02*
X018462Y002814D01*
X018453Y002973D02*
X018407Y002973D01*
X018363Y003131D02*
X018497Y003131D01*
X018615Y003290D02*
X018245Y003290D01*
X018281Y003607D02*
X018579Y003607D01*
X018482Y003765D02*
X018378Y003765D01*
X018407Y003924D02*
X018453Y003924D01*
X018477Y004082D02*
X018383Y004082D01*
X018294Y004241D02*
X018566Y004241D01*
X019294Y004241D02*
X019566Y004241D01*
X019477Y004082D02*
X019383Y004082D01*
X019407Y003924D02*
X019453Y003924D01*
X019482Y003765D02*
X019378Y003765D01*
X019281Y003607D02*
X019579Y003607D01*
X019615Y003290D02*
X019245Y003290D01*
X019363Y003131D02*
X019497Y003131D01*
X019453Y002973D02*
X019407Y002973D01*
X019398Y002814D02*
X019462Y002814D01*
X019530Y002656D02*
X019330Y002656D01*
X019131Y002497D02*
X019729Y002497D01*
X020145Y005180D02*
X019480Y005845D01*
X020145Y005180D02*
X020180Y005180D01*
X016680Y005845D02*
X016515Y005680D01*
X015460Y005984D02*
X013940Y005984D01*
X013940Y006143D02*
X015460Y006143D01*
X015460Y006301D02*
X013940Y006301D01*
X013940Y006460D02*
X015460Y006460D01*
X015460Y006618D02*
X013940Y006618D01*
X013940Y006777D02*
X015460Y006777D01*
X015460Y006935D02*
X013940Y006935D01*
X013940Y007094D02*
X015460Y007094D01*
X015460Y007252D02*
X013940Y007252D01*
X014445Y007411D02*
X015460Y007411D01*
X015460Y007569D02*
X014543Y007569D01*
X014558Y007728D02*
X015460Y007728D01*
X015470Y007886D02*
X014504Y007886D01*
X014400Y008045D02*
X015470Y008045D01*
X015470Y008203D02*
X014400Y008203D01*
X014400Y008362D02*
X015470Y008362D01*
X015470Y008520D02*
X014400Y008520D01*
X014400Y008679D02*
X015470Y008679D01*
X015470Y008837D02*
X014400Y008837D01*
X014400Y008996D02*
X015470Y008996D01*
X015470Y009154D02*
X014400Y009154D01*
X014400Y009313D02*
X015470Y009313D01*
X015514Y009471D02*
X014400Y009471D01*
X014400Y009630D02*
X015673Y009630D01*
X015831Y009788D02*
X014400Y009788D01*
X014481Y009947D02*
X014611Y009947D01*
X014611Y010264D02*
X014555Y010264D01*
X014521Y010422D02*
X014473Y010422D01*
X014362Y010581D02*
X010385Y010581D01*
X010385Y010739D02*
X014204Y010739D01*
X014045Y010898D02*
X010385Y010898D01*
X010385Y011056D02*
X013970Y011056D01*
X013970Y011215D02*
X010385Y011215D01*
X010385Y011373D02*
X011952Y011373D01*
X011832Y011532D02*
X010385Y011532D01*
X010385Y011690D02*
X011802Y011690D01*
X011841Y011849D02*
X010385Y011849D01*
X010385Y012007D02*
X011981Y012007D01*
X012379Y012007D02*
X013970Y012007D01*
X013956Y011849D02*
X013970Y011849D01*
X013947Y012166D02*
X013970Y012166D01*
X013970Y012484D02*
X013950Y012531D01*
X013861Y012620D01*
X013743Y012669D01*
X013617Y012669D01*
X013499Y012620D01*
X013439Y012560D01*
X011027Y012560D01*
X010890Y012697D01*
X010890Y014935D01*
X010966Y014859D01*
X011105Y014802D01*
X011255Y014802D01*
X011394Y014859D01*
X011501Y014966D01*
X011558Y015105D01*
X011558Y015247D01*
X012271Y015960D01*
X014622Y015960D01*
X014611Y015949D01*
X014611Y015790D01*
X014542Y015790D01*
X014541Y015794D01*
X014434Y015901D01*
X014295Y015958D01*
X014145Y015958D01*
X014006Y015901D01*
X013899Y015794D01*
X013842Y015655D01*
X013842Y015505D01*
X013899Y015366D01*
X014006Y015259D01*
X014145Y015202D01*
X014295Y015202D01*
X014434Y015259D01*
X014541Y015366D01*
X014542Y015370D01*
X014611Y015370D01*
X014611Y015226D01*
X014704Y015132D01*
X014757Y015132D01*
X014757Y014996D01*
X014930Y014823D01*
X015053Y014700D01*
X016283Y014700D01*
X017140Y013843D01*
X017263Y013720D01*
X019869Y013720D01*
X019869Y013647D01*
X019962Y013553D01*
X020488Y013553D01*
X020560Y013625D01*
X020632Y013553D01*
X021158Y013553D01*
X021251Y013647D01*
X021251Y013710D01*
X021358Y013710D01*
X021359Y013706D01*
X021466Y013599D01*
X021605Y013542D01*
X021755Y013542D01*
X021894Y013599D01*
X022001Y013706D01*
X022058Y013845D01*
X022058Y013995D01*
X022001Y014134D01*
X021894Y014241D01*
X021755Y014298D01*
X021605Y014298D01*
X021466Y014241D01*
X021359Y014134D01*
X021358Y014130D01*
X021251Y014130D01*
X021251Y014213D01*
X021158Y014307D01*
X020632Y014307D01*
X020560Y014235D01*
X020488Y014307D01*
X019962Y014307D01*
X019869Y014213D01*
X019869Y014140D01*
X017437Y014140D01*
X016457Y015120D01*
X015227Y015120D01*
X015215Y015132D01*
X015231Y015132D01*
X015243Y015145D01*
X015255Y015132D01*
X015782Y015132D01*
X015875Y015226D01*
X015875Y015377D01*
X016686Y015377D01*
X016970Y015093D01*
X017093Y014970D01*
X018267Y014970D01*
X018767Y015470D01*
X018890Y015593D01*
X018890Y017790D01*
X022626Y017790D01*
X022729Y017833D01*
X023339Y018443D01*
X023417Y018521D01*
X023460Y018624D01*
X023460Y020244D01*
X023469Y020248D01*
X023612Y020391D01*
X023616Y020400D01*
X025564Y020400D01*
X025900Y020064D01*
X025900Y017665D01*
X025900Y017665D01*
X025900Y019271D01*
X025499Y019672D01*
X025499Y019743D01*
X025450Y019861D01*
X025361Y019950D01*
X025243Y019999D01*
X025117Y019999D01*
X024999Y019950D01*
X024910Y019861D01*
X024861Y019743D01*
X024861Y019617D01*
X024910Y019499D01*
X024999Y019410D01*
X025117Y019361D01*
X025188Y019361D01*
X025460Y019089D01*
X025460Y018197D01*
X025427Y018230D01*
X025427Y018230D01*
X025349Y018308D01*
X025349Y018393D01*
X025300Y018511D01*
X025211Y018600D01*
X025093Y018649D01*
X024967Y018649D01*
X024849Y018600D01*
X024760Y018511D01*
X024711Y018393D01*
X024711Y018267D01*
X024760Y018149D01*
X024849Y018060D01*
X024967Y018011D01*
X025052Y018011D01*
X025130Y017933D01*
X025130Y017527D01*
X024999Y017658D01*
X024999Y017743D01*
X024950Y017861D01*
X024861Y017950D01*
X024743Y017999D01*
X024617Y017999D01*
X024499Y017950D01*
X024410Y017861D01*
X024361Y017743D01*
X024361Y017617D01*
X024410Y017499D01*
X024499Y017410D01*
X024617Y017361D01*
X024702Y017361D01*
X024870Y017193D01*
X024870Y016787D01*
X024767Y016890D01*
X024499Y017158D01*
X024499Y017243D01*
X024450Y017361D01*
X024361Y017450D01*
X024243Y017499D01*
X024117Y017499D01*
X023999Y017450D01*
X023910Y017361D01*
X023861Y017243D01*
X023861Y017117D01*
X023910Y016999D01*
X023999Y016910D01*
X024117Y016861D01*
X024202Y016861D01*
X024470Y016593D01*
X024470Y014907D01*
X023988Y014425D01*
X023988Y014515D01*
X023931Y014654D01*
X023824Y014761D01*
X023685Y014818D01*
X023535Y014818D01*
X023396Y014761D01*
X023289Y014654D01*
X023232Y014515D01*
X023232Y014365D01*
X023234Y014361D01*
X023090Y014217D01*
X023090Y012737D01*
X022900Y012547D01*
X022900Y016757D01*
X022127Y017530D01*
X019822Y017530D01*
X019821Y017534D01*
X019714Y017641D01*
X019575Y017698D01*
X019425Y017698D01*
X019286Y017641D01*
X019179Y017534D01*
X019122Y017395D01*
X019122Y017245D01*
X019179Y017106D01*
X019286Y016999D01*
X019425Y016942D01*
X019575Y016942D01*
X019714Y016999D01*
X019821Y017106D01*
X019822Y017110D01*
X021953Y017110D01*
X022480Y016583D01*
X022480Y013175D01*
X022394Y013261D01*
X022255Y013318D01*
X022105Y013318D01*
X021966Y013261D01*
X021859Y013154D01*
X021858Y013150D01*
X021251Y013150D01*
X021251Y013213D01*
X021158Y013307D01*
X020632Y013307D01*
X020560Y013235D01*
X020488Y013307D01*
X019962Y013307D01*
X019869Y013213D01*
X019869Y013140D01*
X015517Y013140D01*
X015455Y013202D01*
X015595Y013202D01*
X015734Y013259D01*
X015841Y013366D01*
X015898Y013505D01*
X015898Y013655D01*
X015841Y013794D01*
X015831Y013804D01*
X015875Y013848D01*
X015875Y014571D01*
X015782Y014665D01*
X015255Y014665D01*
X015243Y014652D01*
X015231Y014665D01*
X014704Y014665D01*
X014611Y014571D01*
X014611Y014390D01*
X014593Y014390D01*
X014470Y014267D01*
X014093Y013890D01*
X013970Y013767D01*
X013970Y012484D01*
X013970Y012641D02*
X013811Y012641D01*
X013970Y012800D02*
X010890Y012800D01*
X010890Y012958D02*
X013970Y012958D01*
X013970Y013117D02*
X010890Y013117D01*
X010890Y013275D02*
X013970Y013275D01*
X013970Y013434D02*
X010890Y013434D01*
X010890Y013592D02*
X013970Y013592D01*
X013970Y013751D02*
X010890Y013751D01*
X010890Y013909D02*
X014112Y013909D01*
X014271Y014068D02*
X010890Y014068D01*
X010890Y014226D02*
X014429Y014226D01*
X014588Y014385D02*
X010890Y014385D01*
X010890Y014543D02*
X014611Y014543D01*
X014893Y014860D02*
X011395Y014860D01*
X011522Y015019D02*
X014757Y015019D01*
X014659Y015177D02*
X011558Y015177D01*
X011647Y015336D02*
X013930Y015336D01*
X013846Y015494D02*
X011805Y015494D01*
X011964Y015653D02*
X013842Y015653D01*
X013916Y015811D02*
X012122Y015811D01*
X011817Y016128D02*
X010890Y016128D01*
X010890Y015970D02*
X011658Y015970D01*
X011500Y015811D02*
X010890Y015811D01*
X010890Y015653D02*
X011341Y015653D01*
X011247Y015558D02*
X011105Y015558D01*
X010966Y015501D01*
X010890Y015425D01*
X010890Y016858D01*
X010894Y016859D01*
X011001Y016966D01*
X011058Y017105D01*
X011058Y017255D01*
X011001Y017394D01*
X010894Y017501D01*
X010755Y017558D01*
X010605Y017558D01*
X010466Y017501D01*
X010385Y017420D01*
X010385Y017515D01*
X010265Y017635D01*
X005880Y017635D01*
X005972Y017673D01*
X006107Y017808D01*
X006180Y017985D01*
X006180Y018175D01*
X006107Y018352D01*
X005972Y018487D01*
X005795Y018560D01*
X004965Y018560D01*
X004788Y018487D01*
X004653Y018352D01*
X004635Y018308D01*
X004635Y018852D01*
X004653Y018808D01*
X004788Y018673D01*
X004965Y018600D01*
X005795Y018600D01*
X005972Y018673D01*
X006107Y018808D01*
X006180Y018985D01*
X006180Y019175D01*
X006107Y019352D01*
X005972Y019487D01*
X005795Y019560D01*
X004965Y019560D01*
X004788Y019487D01*
X004653Y019352D01*
X004635Y019308D01*
X004635Y019852D01*
X004653Y019808D01*
X004788Y019673D01*
X004965Y019600D01*
X005795Y019600D01*
X005972Y019673D01*
X006107Y019808D01*
X006180Y019985D01*
X006180Y020175D01*
X006107Y020352D01*
X005972Y020487D01*
X005795Y020560D01*
X004965Y020560D01*
X004788Y020487D01*
X004653Y020352D01*
X004635Y020308D01*
X004635Y020852D01*
X004653Y020808D01*
X004788Y020673D01*
X004965Y020600D01*
X005795Y020600D01*
X005972Y020673D01*
X006107Y020808D01*
X006120Y020840D01*
X007241Y020840D01*
X007480Y020601D01*
X007480Y020579D01*
X007262Y020579D01*
X007168Y020486D01*
X007168Y019014D01*
X007262Y018921D01*
X008143Y018921D01*
X008236Y019014D01*
X008236Y020486D01*
X008143Y020579D01*
X007960Y020579D01*
X007960Y020748D01*
X007923Y020836D01*
X007856Y020903D01*
X007476Y021283D01*
X007388Y021320D01*
X006120Y021320D01*
X006107Y021352D01*
X005972Y021487D01*
X005795Y021560D01*
X004965Y021560D01*
X004788Y021487D01*
X004653Y021352D01*
X004635Y021308D01*
X004635Y021814D01*
X004679Y021754D01*
X004734Y021699D01*
X004798Y021652D01*
X004868Y021617D01*
X004943Y021592D01*
X005021Y021580D01*
X005360Y021580D01*
X005360Y022060D01*
X005400Y022060D01*
X005400Y022100D01*
X005360Y022100D01*
X005360Y022580D01*
X005360Y023060D01*
X005400Y023060D01*
X005400Y023100D01*
X006200Y023100D01*
X006200Y023119D01*
X006188Y023197D01*
X006163Y023272D01*
X006128Y023342D01*
X006081Y023406D01*
X006026Y023461D01*
X006007Y023475D01*
X031180Y023475D01*
X031556Y023460D01*
X031893Y023407D01*
X031835Y023407D01*
X031660Y023334D01*
X031526Y023200D01*
X031453Y023025D01*
X031453Y022835D01*
X031526Y022660D01*
X031660Y022526D01*
X031835Y022453D01*
X032025Y022453D01*
X032200Y022526D01*
X032334Y022660D01*
X032407Y022835D01*
X032407Y023025D01*
X032334Y023200D01*
X032200Y023334D01*
X032106Y023373D01*
X032299Y023343D01*
X033015Y023110D01*
X033685Y022768D01*
X034294Y022326D01*
X034826Y021794D01*
X035268Y021185D01*
X035610Y020515D01*
X035843Y019799D01*
X035849Y019758D01*
X035646Y019758D01*
X035646Y019254D01*
X035486Y019254D01*
X035486Y019758D01*
X034952Y019758D01*
X034906Y019745D01*
X034877Y019729D01*
X034848Y019745D01*
X034802Y019758D01*
X034169Y019758D01*
X034169Y019254D01*
X034009Y019254D01*
X034009Y019094D01*
X033220Y019094D01*
X033220Y018747D01*
X033233Y018701D01*
X033256Y018660D01*
X033290Y018627D01*
X033331Y018603D01*
X033377Y018591D01*
X034009Y018591D01*
X034009Y019094D01*
X034169Y019094D01*
X034169Y018591D01*
X034802Y018591D01*
X034712Y018500D01*
X034657Y018369D01*
X034657Y018300D01*
X034653Y018304D01*
X034612Y018328D01*
X034566Y018340D01*
X034099Y018340D01*
X033633Y018340D01*
X033587Y018328D01*
X033546Y018304D01*
X033512Y018271D01*
X033489Y018230D01*
X033476Y018184D01*
X033476Y018062D01*
X034099Y018062D01*
X034099Y018062D01*
X034099Y018340D01*
X034099Y018062D01*
X034099Y018062D01*
X033476Y018062D01*
X033476Y017950D01*
X032297Y017950D01*
X032037Y018210D01*
X031333Y018210D01*
X031210Y018087D01*
X031000Y017877D01*
X031000Y017645D01*
X030994Y017651D01*
X030855Y017708D01*
X030705Y017708D01*
X030566Y017651D01*
X030459Y017544D01*
X030402Y017405D01*
X030402Y017255D01*
X030459Y017116D01*
X030566Y017009D01*
X030570Y017008D01*
X030570Y013817D01*
X030393Y013640D01*
X029187Y013640D01*
X029218Y013715D01*
X029218Y013865D01*
X029161Y014004D01*
X029110Y014055D01*
X029308Y014055D01*
X029308Y014561D01*
X028940Y014561D01*
X028940Y014211D01*
X028952Y014165D01*
X028962Y014149D01*
X028915Y014168D01*
X028765Y014168D01*
X028626Y014111D01*
X028519Y014004D01*
X028462Y013865D01*
X028462Y013723D01*
X028440Y013701D01*
X028440Y013492D01*
X028305Y013548D01*
X028155Y013548D01*
X028016Y013491D01*
X028010Y013485D01*
X028010Y013893D01*
X028090Y013973D01*
X028090Y014075D01*
X028163Y014075D01*
X028257Y014168D01*
X028257Y015010D01*
X028163Y015103D01*
X028090Y015103D01*
X028090Y016516D01*
X028163Y016516D01*
X028257Y016609D01*
X028257Y017451D01*
X028163Y017544D01*
X027597Y017544D01*
X027503Y017451D01*
X027503Y016860D01*
X027374Y016731D01*
X027325Y016780D01*
X027397Y016852D01*
X027397Y017378D01*
X027303Y017471D01*
X026737Y017471D01*
X026666Y017400D01*
X026598Y017468D01*
X026598Y017525D01*
X026541Y017664D01*
X026460Y017745D01*
X026460Y020236D01*
X026417Y020339D01*
X025917Y020839D01*
X025839Y020917D01*
X025736Y020960D01*
X023616Y020960D01*
X023612Y020969D01*
X023469Y021112D01*
X023281Y021190D01*
X023079Y021190D01*
X022891Y021112D01*
X022748Y020969D01*
X022680Y020806D01*
X022612Y020969D01*
X022469Y021112D01*
X022281Y021190D01*
X022079Y021190D01*
X021891Y021112D01*
X021748Y020969D01*
X021689Y020828D01*
X021671Y020883D01*
X021712Y020883D01*
X021671Y020883D02*
X021633Y020958D01*
X021584Y021025D01*
X021525Y021084D01*
X021458Y021133D01*
X021383Y021171D01*
X021304Y021197D01*
X021222Y021210D01*
X021200Y021210D01*
X021200Y020700D01*
X021160Y020700D01*
X021160Y021210D01*
X021138Y021210D01*
X021056Y021197D01*
X020977Y021171D01*
X020902Y021133D01*
X020835Y021084D01*
X020776Y021025D01*
X020727Y020958D01*
X020689Y020883D01*
X015640Y020883D01*
X015640Y020725D02*
X020650Y020725D01*
X020650Y020722D02*
X020650Y020700D01*
X021160Y020700D01*
X021160Y020660D01*
X021200Y020660D01*
X021200Y020150D01*
X021222Y020150D01*
X021304Y020163D01*
X021383Y020189D01*
X021458Y020227D01*
X021525Y020276D01*
X021584Y020335D01*
X021633Y020402D01*
X021671Y020477D01*
X021689Y020532D01*
X021748Y020391D01*
X021891Y020248D01*
X022079Y020170D01*
X022281Y020170D01*
X022469Y020248D01*
X022612Y020391D01*
X022680Y020554D01*
X022748Y020391D01*
X022891Y020248D01*
X022900Y020244D01*
X022900Y018796D01*
X022454Y018350D01*
X008564Y018350D01*
X008564Y018353D01*
X008517Y018400D01*
X008888Y018400D01*
X008976Y018437D01*
X009386Y018847D01*
X009453Y018914D01*
X009456Y018921D01*
X009678Y018921D01*
X009772Y019014D01*
X009772Y020486D01*
X009678Y020579D01*
X008797Y020579D01*
X008704Y020486D01*
X008704Y019014D01*
X008789Y018929D01*
X008741Y018880D01*
X007512Y018880D01*
X007424Y018843D01*
X007357Y018776D01*
X007059Y018478D01*
X007022Y018390D01*
X007022Y018371D01*
X006944Y018294D01*
X006944Y017846D01*
X007038Y017753D01*
X007486Y017753D01*
X007488Y017755D01*
X007550Y017693D01*
X008470Y017693D01*
X008564Y017787D01*
X008564Y017790D01*
X018470Y017790D01*
X018470Y015767D01*
X018093Y015390D01*
X017925Y015390D01*
X018001Y015466D01*
X018058Y015605D01*
X018058Y015755D01*
X018001Y015894D01*
X017894Y016001D01*
X017755Y016058D01*
X017613Y016058D01*
X017271Y016400D01*
X015935Y016400D01*
X016001Y016466D01*
X016058Y016605D01*
X016058Y016755D01*
X016001Y016894D01*
X015894Y017001D01*
X015755Y017058D01*
X015605Y017058D01*
X015466Y017001D01*
X015365Y016900D01*
X011995Y016900D01*
X011894Y017001D01*
X011755Y017058D01*
X011605Y017058D01*
X011466Y017001D01*
X011359Y016894D01*
X011302Y016755D01*
X011302Y016605D01*
X011359Y016466D01*
X011466Y016359D01*
X011605Y016302D01*
X011755Y016302D01*
X011894Y016359D01*
X011995Y016460D01*
X015365Y016460D01*
X015425Y016400D01*
X012089Y016400D01*
X011960Y016271D01*
X011247Y015558D01*
X010959Y015494D02*
X010890Y015494D01*
X010470Y015494D02*
X010385Y015494D01*
X010385Y015336D02*
X010470Y015336D01*
X010470Y015177D02*
X010385Y015177D01*
X010385Y015019D02*
X010470Y015019D01*
X010470Y014860D02*
X010385Y014860D01*
X010385Y014702D02*
X010470Y014702D01*
X010470Y014543D02*
X010385Y014543D01*
X010385Y014385D02*
X010470Y014385D01*
X010470Y014226D02*
X010385Y014226D01*
X010385Y014068D02*
X010470Y014068D01*
X010470Y013909D02*
X010385Y013909D01*
X010385Y013751D02*
X010470Y013751D01*
X010470Y013592D02*
X010385Y013592D01*
X010385Y013434D02*
X010470Y013434D01*
X010470Y013275D02*
X010385Y013275D01*
X010385Y013117D02*
X010470Y013117D01*
X010470Y012958D02*
X010385Y012958D01*
X010385Y012800D02*
X010470Y012800D01*
X010470Y012641D02*
X010385Y012641D01*
X010385Y012483D02*
X010510Y012483D01*
X010385Y012324D02*
X010669Y012324D01*
X010827Y012166D02*
X010385Y012166D01*
X010946Y012641D02*
X013549Y012641D01*
X013964Y011532D02*
X013970Y011532D01*
X013970Y011373D02*
X013773Y011373D01*
X013587Y011373D02*
X012408Y011373D01*
X013887Y010422D02*
X010385Y010422D01*
X010303Y010264D02*
X013805Y010264D01*
X013802Y010105D02*
X013859Y009966D01*
X013960Y009471D02*
X013110Y009471D01*
X013517Y009313D02*
X013960Y009313D01*
X013960Y009154D02*
X013675Y009154D01*
X013834Y008996D02*
X013960Y008996D01*
X013960Y008837D02*
X013940Y008837D01*
X013940Y008679D02*
X013960Y008679D01*
X013960Y008520D02*
X013940Y008520D01*
X013940Y008362D02*
X013960Y008362D01*
X013960Y008203D02*
X013940Y008203D01*
X013940Y008045D02*
X013960Y008045D01*
X013314Y008837D02*
X013058Y008837D01*
X015875Y009947D02*
X015900Y009947D01*
X015900Y010105D02*
X015875Y010105D01*
X015875Y010264D02*
X015900Y010264D01*
X015900Y010422D02*
X015875Y010422D01*
X015875Y010581D02*
X015900Y010581D01*
X015900Y010739D02*
X015729Y010739D01*
X015699Y010898D02*
X015900Y010898D01*
X015900Y011056D02*
X015541Y011056D01*
X015801Y011215D02*
X015900Y011215D01*
X016320Y011215D02*
X016470Y011215D01*
X016470Y011373D02*
X016320Y011373D01*
X016320Y011517D02*
X016100Y011737D01*
X015977Y011860D01*
X015875Y011860D01*
X015875Y012012D01*
X015782Y012106D01*
X015275Y012106D01*
X015328Y012235D01*
X015328Y012315D01*
X015423Y012220D01*
X015629Y012220D01*
X015689Y012160D01*
X015807Y012111D01*
X015933Y012111D01*
X016051Y012160D01*
X016111Y012220D01*
X019630Y012220D01*
X019869Y011986D01*
X019869Y011647D01*
X019936Y011580D01*
X019683Y011580D01*
X019560Y011457D01*
X019403Y011300D01*
X019280Y011177D01*
X019280Y010871D01*
X019197Y010871D01*
X019103Y010778D01*
X019103Y010720D01*
X018803Y010720D01*
X018680Y010597D01*
X018437Y010354D01*
X018437Y010955D01*
X018343Y011049D01*
X017817Y011049D01*
X017723Y010955D01*
X017723Y010823D01*
X017011Y010823D01*
X016963Y010871D01*
X016890Y010871D01*
X016890Y011439D01*
X016950Y011499D01*
X016999Y011617D01*
X016999Y011743D01*
X016950Y011861D01*
X016861Y011950D01*
X016743Y011999D01*
X016617Y011999D01*
X016499Y011950D01*
X016410Y011861D01*
X016361Y011743D01*
X016361Y011617D01*
X016410Y011499D01*
X016470Y011439D01*
X016470Y010871D01*
X016397Y010871D01*
X016320Y010794D01*
X016320Y011517D01*
X016305Y011532D02*
X016396Y011532D01*
X016361Y011690D02*
X016147Y011690D01*
X015988Y011849D02*
X016404Y011849D01*
X016057Y012166D02*
X019685Y012166D01*
X019847Y012007D02*
X015875Y012007D01*
X015683Y012166D02*
X015299Y012166D01*
X016320Y011056D02*
X016470Y011056D01*
X016470Y010898D02*
X016320Y010898D01*
X016890Y010898D02*
X017723Y010898D01*
X018437Y010898D02*
X019280Y010898D01*
X019280Y011056D02*
X016890Y011056D01*
X016890Y011215D02*
X019318Y011215D01*
X019476Y011373D02*
X016890Y011373D01*
X016964Y011532D02*
X019635Y011532D01*
X019869Y011690D02*
X016999Y011690D01*
X016956Y011849D02*
X019869Y011849D01*
X019103Y010739D02*
X018437Y010739D01*
X018437Y010581D02*
X018664Y010581D01*
X018505Y010422D02*
X018437Y010422D01*
X019931Y013275D02*
X015750Y013275D01*
X015869Y013434D02*
X022480Y013434D01*
X022480Y013592D02*
X021876Y013592D01*
X022019Y013751D02*
X022480Y013751D01*
X022480Y013909D02*
X022058Y013909D01*
X022028Y014068D02*
X022480Y014068D01*
X022480Y014226D02*
X021909Y014226D01*
X021451Y014226D02*
X021238Y014226D01*
X021196Y013592D02*
X021484Y013592D01*
X021189Y013275D02*
X022001Y013275D01*
X022359Y013275D02*
X022480Y013275D01*
X022900Y013275D02*
X023090Y013275D01*
X023090Y013117D02*
X022900Y013117D01*
X022900Y012958D02*
X023090Y012958D01*
X023090Y012800D02*
X022900Y012800D01*
X022900Y012641D02*
X022994Y012641D01*
X022900Y013434D02*
X023090Y013434D01*
X023090Y013592D02*
X022900Y013592D01*
X022900Y013751D02*
X023090Y013751D01*
X023090Y013909D02*
X022900Y013909D01*
X022900Y014068D02*
X023090Y014068D01*
X023099Y014226D02*
X022900Y014226D01*
X022900Y014385D02*
X023232Y014385D01*
X023243Y014543D02*
X022900Y014543D01*
X022900Y014702D02*
X023337Y014702D01*
X022900Y014860D02*
X024423Y014860D01*
X024470Y015019D02*
X022900Y015019D01*
X022900Y015177D02*
X024470Y015177D01*
X024470Y015336D02*
X022900Y015336D01*
X022900Y015494D02*
X024470Y015494D01*
X024470Y015653D02*
X022900Y015653D01*
X022900Y015811D02*
X024470Y015811D01*
X024470Y015970D02*
X022900Y015970D01*
X022900Y016128D02*
X024470Y016128D01*
X024470Y016287D02*
X022900Y016287D01*
X022900Y016445D02*
X024470Y016445D01*
X024459Y016604D02*
X022900Y016604D01*
X022895Y016762D02*
X024301Y016762D01*
X023988Y016921D02*
X022736Y016921D01*
X022578Y017079D02*
X023876Y017079D01*
X023861Y017238D02*
X022419Y017238D01*
X022261Y017396D02*
X023945Y017396D01*
X024387Y017555D02*
X019800Y017555D01*
X019200Y017555D02*
X018890Y017555D01*
X018890Y017713D02*
X024361Y017713D01*
X024420Y017872D02*
X022768Y017872D01*
X022926Y018030D02*
X024920Y018030D01*
X024940Y017872D02*
X025130Y017872D01*
X025130Y017713D02*
X024999Y017713D01*
X025102Y017555D02*
X025130Y017555D01*
X024825Y017238D02*
X024499Y017238D01*
X024532Y017396D02*
X024415Y017396D01*
X024578Y017079D02*
X024870Y017079D01*
X024870Y016921D02*
X024736Y016921D01*
X025900Y016921D02*
X026353Y016921D01*
X026397Y016877D02*
X026500Y016835D01*
X026660Y016835D01*
X026715Y016780D01*
X026643Y016708D01*
X026643Y016182D01*
X026737Y016089D01*
X027303Y016089D01*
X027397Y016182D01*
X027397Y016240D01*
X027477Y016240D01*
X027600Y016363D01*
X027670Y016433D01*
X027670Y015103D01*
X027597Y015103D01*
X027503Y015010D01*
X027503Y014655D01*
X027377Y014655D01*
X027377Y014728D01*
X027325Y014780D01*
X027377Y014832D01*
X027377Y015397D01*
X027283Y015491D01*
X026757Y015491D01*
X026663Y015397D01*
X026663Y015325D01*
X026539Y015325D01*
X026511Y015394D01*
X026404Y015501D01*
X026265Y015558D01*
X026115Y015558D01*
X025976Y015501D01*
X025900Y015425D01*
X025900Y017235D01*
X026006Y017129D01*
X026145Y017072D01*
X026202Y017072D01*
X026397Y016877D01*
X026697Y016762D02*
X025900Y016762D01*
X025900Y016604D02*
X026643Y016604D01*
X026643Y016445D02*
X025900Y016445D01*
X025900Y016287D02*
X026643Y016287D01*
X026698Y016128D02*
X025900Y016128D01*
X025900Y015970D02*
X027670Y015970D01*
X027670Y016128D02*
X027342Y016128D01*
X027524Y016287D02*
X027670Y016287D01*
X028090Y016287D02*
X030570Y016287D01*
X030570Y016445D02*
X028090Y016445D01*
X028251Y016604D02*
X028954Y016604D01*
X028952Y016606D02*
X028976Y016565D01*
X029010Y016532D01*
X029051Y016508D01*
X029096Y016496D01*
X029308Y016496D01*
X029308Y017002D01*
X028940Y017002D01*
X028940Y016652D01*
X028952Y016606D01*
X028940Y016762D02*
X028257Y016762D01*
X028257Y016921D02*
X028940Y016921D01*
X028940Y017058D02*
X029308Y017058D01*
X029308Y017002D01*
X029365Y017002D01*
X029365Y017058D01*
X029733Y017058D01*
X029733Y017408D01*
X029721Y017454D01*
X029697Y017495D01*
X029664Y017528D01*
X029623Y017552D01*
X029577Y017564D01*
X029365Y017564D01*
X029365Y017058D01*
X029308Y017058D01*
X029308Y017564D01*
X029096Y017564D01*
X029051Y017552D01*
X029010Y017528D01*
X028976Y017495D01*
X028952Y017454D01*
X028940Y017408D01*
X028940Y017058D01*
X028940Y017079D02*
X028257Y017079D01*
X028257Y017238D02*
X028940Y017238D01*
X028940Y017396D02*
X028257Y017396D01*
X027503Y017396D02*
X027378Y017396D01*
X027397Y017238D02*
X027503Y017238D01*
X027503Y017079D02*
X027397Y017079D01*
X027397Y016921D02*
X027503Y016921D01*
X027405Y016762D02*
X027343Y016762D01*
X028090Y016128D02*
X030570Y016128D01*
X030570Y015970D02*
X028090Y015970D01*
X028090Y015811D02*
X030570Y015811D01*
X030570Y015653D02*
X028090Y015653D01*
X028090Y015494D02*
X030570Y015494D01*
X030570Y015336D02*
X028090Y015336D01*
X028090Y015177D02*
X030570Y015177D01*
X030570Y015019D02*
X029718Y015019D01*
X029721Y015013D02*
X029697Y015054D01*
X029664Y015087D01*
X029623Y015111D01*
X029577Y015123D01*
X029365Y015123D01*
X029365Y014617D01*
X029733Y014617D01*
X029733Y014967D01*
X029721Y015013D01*
X029733Y014860D02*
X030570Y014860D01*
X030570Y014702D02*
X029733Y014702D01*
X029733Y014561D02*
X029365Y014561D01*
X029365Y014617D01*
X029308Y014617D01*
X029308Y014561D01*
X029365Y014561D01*
X029365Y014055D01*
X029577Y014055D01*
X029623Y014067D01*
X029664Y014091D01*
X029697Y014124D01*
X029721Y014165D01*
X029733Y014211D01*
X029733Y014561D01*
X029733Y014543D02*
X030570Y014543D01*
X030570Y014385D02*
X029733Y014385D01*
X029733Y014226D02*
X030570Y014226D01*
X030570Y014068D02*
X029624Y014068D01*
X029365Y014068D02*
X029308Y014068D01*
X029308Y014226D02*
X029365Y014226D01*
X029365Y014385D02*
X029308Y014385D01*
X029308Y014543D02*
X029365Y014543D01*
X029308Y014617D02*
X028940Y014617D01*
X028940Y014967D01*
X028952Y015013D01*
X028976Y015054D01*
X029010Y015087D01*
X029051Y015111D01*
X029096Y015123D01*
X029308Y015123D01*
X029308Y014617D01*
X029308Y014702D02*
X029365Y014702D01*
X029365Y014860D02*
X029308Y014860D01*
X029308Y015019D02*
X029365Y015019D01*
X028956Y015019D02*
X028248Y015019D01*
X028257Y014860D02*
X028940Y014860D01*
X028940Y014702D02*
X028257Y014702D01*
X028257Y014543D02*
X028940Y014543D01*
X028940Y014385D02*
X028257Y014385D01*
X028257Y014226D02*
X028940Y014226D01*
X028583Y014068D02*
X028090Y014068D01*
X028026Y013909D02*
X028480Y013909D01*
X028462Y013751D02*
X028010Y013751D01*
X028010Y013592D02*
X028440Y013592D01*
X029218Y013751D02*
X030504Y013751D01*
X030570Y013909D02*
X029200Y013909D01*
X030603Y012800D02*
X031337Y012800D01*
X031496Y012958D02*
X030762Y012958D01*
X030921Y013117D02*
X031654Y013117D01*
X031803Y013266D02*
X031018Y012480D01*
X030762Y012480D01*
X030761Y012484D01*
X030654Y012591D01*
X030515Y012648D01*
X030450Y012648D01*
X031297Y013490D01*
X031358Y013551D01*
X031420Y013612D01*
X031420Y013613D01*
X031420Y013700D01*
X031420Y013786D01*
X031420Y013787D01*
X031420Y017058D01*
X031470Y017037D01*
X031470Y016093D01*
X031803Y015760D01*
X031803Y015252D01*
X031875Y015180D01*
X031803Y015108D01*
X031803Y014582D01*
X031897Y014489D01*
X031970Y014489D01*
X031970Y014371D01*
X031897Y014371D01*
X031803Y014278D01*
X031803Y013752D01*
X031875Y013680D01*
X031803Y013608D01*
X031803Y013266D01*
X031803Y013275D02*
X031081Y013275D01*
X031240Y013434D02*
X031803Y013434D01*
X031803Y013592D02*
X031399Y013592D01*
X031420Y013613D02*
X031420Y013613D01*
X031420Y013751D02*
X031804Y013751D01*
X031803Y013909D02*
X031420Y013909D01*
X031420Y014068D02*
X031803Y014068D01*
X031803Y014226D02*
X031420Y014226D01*
X031420Y014385D02*
X031970Y014385D01*
X031843Y014543D02*
X031420Y014543D01*
X031420Y014702D02*
X031803Y014702D01*
X031803Y014860D02*
X031420Y014860D01*
X031420Y015019D02*
X031803Y015019D01*
X031872Y015177D02*
X031420Y015177D01*
X031420Y015336D02*
X031803Y015336D01*
X031803Y015494D02*
X031420Y015494D01*
X031420Y015653D02*
X031803Y015653D01*
X031752Y015811D02*
X031420Y015811D01*
X031420Y015970D02*
X031593Y015970D01*
X031470Y016128D02*
X031420Y016128D01*
X031420Y016287D02*
X031470Y016287D01*
X031470Y016445D02*
X031420Y016445D01*
X031420Y016604D02*
X031470Y016604D01*
X031470Y016762D02*
X031420Y016762D01*
X031420Y016921D02*
X031470Y016921D01*
X030570Y016921D02*
X029733Y016921D01*
X029733Y017002D02*
X029365Y017002D01*
X029365Y016496D01*
X029577Y016496D01*
X029623Y016508D01*
X029664Y016532D01*
X029697Y016565D01*
X029721Y016606D01*
X029733Y016652D01*
X029733Y017002D01*
X029733Y017079D02*
X030496Y017079D01*
X030409Y017238D02*
X029733Y017238D01*
X029733Y017396D02*
X030402Y017396D01*
X030470Y017555D02*
X029614Y017555D01*
X029365Y017555D02*
X029308Y017555D01*
X029308Y017396D02*
X029365Y017396D01*
X029365Y017238D02*
X029308Y017238D01*
X029308Y017079D02*
X029365Y017079D01*
X029365Y016921D02*
X029308Y016921D01*
X029308Y016762D02*
X029365Y016762D01*
X029365Y016604D02*
X029308Y016604D01*
X029719Y016604D02*
X030570Y016604D01*
X030570Y016762D02*
X029733Y016762D01*
X029060Y017555D02*
X026586Y017555D01*
X026492Y017713D02*
X031000Y017713D01*
X031000Y017872D02*
X026460Y017872D01*
X026460Y018030D02*
X031153Y018030D01*
X031312Y018189D02*
X026460Y018189D01*
X026460Y018347D02*
X027996Y018347D01*
X027966Y018359D02*
X028105Y018302D01*
X028255Y018302D01*
X028394Y018359D01*
X028501Y018466D01*
X028502Y018470D01*
X029489Y018470D01*
X029489Y018397D01*
X029582Y018303D01*
X030108Y018303D01*
X030180Y018375D01*
X030252Y018303D01*
X030778Y018303D01*
X030871Y018397D01*
X030871Y018470D01*
X032267Y018470D01*
X032451Y018654D01*
X032451Y018597D01*
X032500Y018479D01*
X032589Y018390D01*
X032707Y018341D01*
X032833Y018341D01*
X032951Y018390D01*
X033040Y018479D01*
X033089Y018597D01*
X033089Y018682D01*
X033140Y018733D01*
X033140Y020577D01*
X033017Y020700D01*
X032801Y020916D01*
X032734Y020916D01*
X032734Y021067D01*
X032640Y021161D01*
X032114Y021161D01*
X032101Y021148D01*
X032089Y021161D01*
X031563Y021161D01*
X031469Y021067D01*
X031469Y020890D01*
X030871Y020890D01*
X030871Y020963D01*
X030778Y021057D01*
X030252Y021057D01*
X030180Y020985D01*
X030108Y021057D01*
X029582Y021057D01*
X029489Y020963D01*
X029489Y020890D01*
X028502Y020890D01*
X028501Y020894D01*
X028394Y021001D01*
X028255Y021058D01*
X028105Y021058D01*
X027966Y021001D01*
X027859Y020894D01*
X027802Y020755D01*
X027802Y020605D01*
X027859Y020466D01*
X027966Y020359D01*
X028105Y020302D01*
X028255Y020302D01*
X028394Y020359D01*
X028501Y020466D01*
X028502Y020470D01*
X029489Y020470D01*
X029489Y020397D01*
X029582Y020303D01*
X030108Y020303D01*
X030180Y020375D01*
X030252Y020303D01*
X030778Y020303D01*
X030871Y020397D01*
X030871Y020470D01*
X031469Y020470D01*
X031469Y020344D01*
X031563Y020250D01*
X032089Y020250D01*
X032101Y020263D01*
X032114Y020250D01*
X032640Y020250D01*
X032720Y020330D01*
X032720Y019703D01*
X032640Y019783D01*
X032114Y019783D01*
X032101Y019770D01*
X032089Y019783D01*
X031563Y019783D01*
X031469Y019689D01*
X031469Y019540D01*
X031387Y019540D01*
X031037Y019890D01*
X030871Y019890D01*
X030871Y019963D01*
X030778Y020057D01*
X030252Y020057D01*
X030180Y019985D01*
X030108Y020057D01*
X029582Y020057D01*
X029489Y019963D01*
X029489Y019890D01*
X028502Y019890D01*
X028501Y019894D01*
X028394Y020001D01*
X028255Y020058D01*
X028105Y020058D01*
X027966Y020001D01*
X027859Y019894D01*
X027802Y019755D01*
X027802Y019605D01*
X027859Y019466D01*
X027966Y019359D01*
X028105Y019302D01*
X028255Y019302D01*
X028394Y019359D01*
X028501Y019466D01*
X028502Y019470D01*
X029489Y019470D01*
X029489Y019397D01*
X029582Y019303D01*
X030108Y019303D01*
X030180Y019375D01*
X030252Y019303D01*
X030778Y019303D01*
X030871Y019397D01*
X030871Y019462D01*
X031090Y019243D01*
X031213Y019120D01*
X031469Y019120D01*
X031469Y018966D01*
X031545Y018890D01*
X030871Y018890D01*
X030871Y018963D01*
X030778Y019057D01*
X030252Y019057D01*
X030180Y018985D01*
X030108Y019057D01*
X029582Y019057D01*
X029489Y018963D01*
X029489Y018890D01*
X028502Y018890D01*
X028501Y018894D01*
X028394Y019001D01*
X028255Y019058D01*
X028105Y019058D01*
X027966Y019001D01*
X027859Y018894D01*
X027802Y018755D01*
X027802Y018605D01*
X027859Y018466D01*
X027966Y018359D01*
X027843Y018506D02*
X026460Y018506D01*
X026460Y018664D02*
X027802Y018664D01*
X027830Y018823D02*
X026460Y018823D01*
X026460Y018981D02*
X027946Y018981D01*
X028414Y018981D02*
X029507Y018981D01*
X029489Y019457D02*
X028491Y019457D01*
X028463Y019932D02*
X029489Y019932D01*
X029489Y020408D02*
X028442Y020408D01*
X027918Y020408D02*
X026348Y020408D01*
X026454Y020249D02*
X032720Y020249D01*
X032720Y020091D02*
X026460Y020091D01*
X026460Y019932D02*
X027897Y019932D01*
X027809Y019774D02*
X026460Y019774D01*
X026460Y019615D02*
X027802Y019615D01*
X027869Y019457D02*
X026460Y019457D01*
X026460Y019298D02*
X031035Y019298D01*
X031193Y019140D02*
X026460Y019140D01*
X025900Y019140D02*
X025900Y019140D01*
X025900Y019298D02*
X025873Y019298D01*
X025900Y019457D02*
X025715Y019457D01*
X025556Y019615D02*
X025900Y019615D01*
X025900Y019774D02*
X025487Y019774D01*
X025379Y019932D02*
X025900Y019932D01*
X025873Y020091D02*
X023460Y020091D01*
X023470Y020249D02*
X025715Y020249D01*
X026190Y020566D02*
X027818Y020566D01*
X027802Y020725D02*
X026031Y020725D01*
X025873Y020883D02*
X027855Y020883D01*
X028065Y021042D02*
X023540Y021042D01*
X023681Y021517D02*
X023179Y021517D01*
X023200Y021526D02*
X023334Y021660D01*
X023407Y021835D01*
X023407Y022025D01*
X023334Y022200D01*
X023200Y022334D01*
X023025Y022407D01*
X022835Y022407D01*
X022660Y022334D01*
X022526Y022200D01*
X022453Y022025D01*
X022453Y021835D01*
X022526Y021660D01*
X022660Y021526D01*
X022835Y021453D01*
X023025Y021453D01*
X023200Y021526D01*
X023341Y021676D02*
X023519Y021676D01*
X023526Y021660D02*
X023660Y021526D01*
X023835Y021453D01*
X024025Y021453D01*
X024200Y021526D01*
X024334Y021660D01*
X024407Y021835D01*
X024407Y022025D01*
X024334Y022200D01*
X024200Y022334D01*
X024025Y022407D01*
X023835Y022407D01*
X023660Y022334D01*
X023526Y022200D01*
X023453Y022025D01*
X023453Y021835D01*
X023526Y021660D01*
X023454Y021834D02*
X023406Y021834D01*
X023407Y021993D02*
X023453Y021993D01*
X023505Y022151D02*
X023355Y022151D01*
X023225Y022310D02*
X023635Y022310D01*
X023660Y022526D02*
X023835Y022453D01*
X024025Y022453D01*
X024200Y022526D01*
X024334Y022660D01*
X024407Y022835D01*
X024407Y023025D01*
X024334Y023200D01*
X024200Y023334D01*
X024025Y023407D01*
X023835Y023407D01*
X023660Y023334D01*
X023526Y023200D01*
X023453Y023025D01*
X023453Y022835D01*
X023526Y022660D01*
X023660Y022526D01*
X023559Y022627D02*
X023301Y022627D01*
X023334Y022660D02*
X023407Y022835D01*
X023407Y023025D01*
X023334Y023200D01*
X023200Y023334D01*
X023025Y023407D01*
X022835Y023407D01*
X022660Y023334D01*
X022526Y023200D01*
X022453Y023025D01*
X022453Y022835D01*
X022526Y022660D01*
X022660Y022526D01*
X022835Y022453D01*
X023025Y022453D01*
X023200Y022526D01*
X023334Y022660D01*
X023386Y022785D02*
X023474Y022785D01*
X023453Y022944D02*
X023407Y022944D01*
X023375Y023102D02*
X023485Y023102D01*
X023586Y023261D02*
X023274Y023261D01*
X022586Y023261D02*
X022274Y023261D01*
X022334Y023200D02*
X022200Y023334D01*
X022025Y023407D01*
X021835Y023407D01*
X021660Y023334D01*
X021526Y023200D01*
X021453Y023025D01*
X021453Y022835D01*
X021526Y022660D01*
X021660Y022526D01*
X021835Y022453D01*
X022025Y022453D01*
X022200Y022526D01*
X022334Y022660D01*
X022407Y022835D01*
X022407Y023025D01*
X022334Y023200D01*
X022375Y023102D02*
X022485Y023102D01*
X022453Y022944D02*
X022407Y022944D01*
X022386Y022785D02*
X022474Y022785D01*
X022559Y022627D02*
X022301Y022627D01*
X022061Y022468D02*
X022799Y022468D01*
X022635Y022310D02*
X022225Y022310D01*
X022200Y022334D02*
X022334Y022200D01*
X022407Y022025D01*
X022407Y021835D01*
X022334Y021660D01*
X022200Y021526D01*
X022025Y021453D01*
X021835Y021453D01*
X021660Y021526D01*
X021526Y021660D01*
X021453Y021835D01*
X021453Y022025D01*
X021526Y022200D01*
X021660Y022334D01*
X021835Y022407D01*
X022025Y022407D01*
X022200Y022334D01*
X022355Y022151D02*
X022505Y022151D01*
X022453Y021993D02*
X022407Y021993D01*
X022406Y021834D02*
X022454Y021834D01*
X022519Y021676D02*
X022341Y021676D01*
X022179Y021517D02*
X022681Y021517D01*
X022820Y021042D02*
X022540Y021042D01*
X022648Y020883D02*
X022712Y020883D01*
X022741Y020408D02*
X022619Y020408D01*
X022470Y020249D02*
X022890Y020249D01*
X022900Y020091D02*
X015886Y020091D01*
X015728Y020249D02*
X020871Y020249D01*
X020902Y020227D02*
X020977Y020189D01*
X021056Y020163D01*
X021138Y020150D01*
X021160Y020150D01*
X021160Y020660D01*
X020650Y020660D01*
X020650Y020638D01*
X020663Y020556D01*
X020689Y020477D01*
X020727Y020402D01*
X020776Y020335D01*
X020835Y020276D01*
X020902Y020227D01*
X020724Y020408D02*
X015640Y020408D01*
X015640Y020337D02*
X015640Y021546D01*
X015660Y021526D01*
X015835Y021453D01*
X016025Y021453D01*
X016200Y021526D01*
X016334Y021660D01*
X016407Y021835D01*
X016407Y022025D01*
X016334Y022200D01*
X016200Y022334D01*
X016025Y022407D01*
X015835Y022407D01*
X015660Y022334D01*
X015640Y022314D01*
X015640Y022546D01*
X015660Y022526D01*
X015835Y022453D01*
X016025Y022453D01*
X016200Y022526D01*
X016334Y022660D01*
X016407Y022835D01*
X016407Y023025D01*
X016334Y023200D01*
X016200Y023334D01*
X016025Y023407D01*
X015835Y023407D01*
X015660Y023334D01*
X015526Y023200D01*
X015453Y023025D01*
X015453Y022835D01*
X015511Y022696D01*
X015397Y022810D01*
X015407Y022835D01*
X015407Y023025D01*
X015334Y023200D01*
X015200Y023334D01*
X015025Y023407D01*
X014835Y023407D01*
X014660Y023334D01*
X014526Y023200D01*
X014453Y023025D01*
X014453Y022835D01*
X014526Y022660D01*
X014660Y022526D01*
X014835Y022453D01*
X015025Y022453D01*
X015120Y022493D01*
X015220Y022393D01*
X015220Y022314D01*
X015200Y022334D01*
X015025Y022407D01*
X014835Y022407D01*
X014660Y022334D01*
X014526Y022200D01*
X014453Y022025D01*
X014453Y021835D01*
X014526Y021660D01*
X014660Y021526D01*
X014835Y021453D01*
X015025Y021453D01*
X015200Y021526D01*
X015220Y021546D01*
X015220Y020163D01*
X015343Y020040D01*
X015343Y020040D01*
X016470Y018913D01*
X016593Y018790D01*
X019168Y018790D01*
X019169Y018786D01*
X019276Y018679D01*
X019415Y018622D01*
X019565Y018622D01*
X019704Y018679D01*
X019811Y018786D01*
X019868Y018925D01*
X019868Y019075D01*
X019811Y019214D01*
X019704Y019321D01*
X019565Y019378D01*
X019415Y019378D01*
X019276Y019321D01*
X019169Y019214D01*
X019168Y019210D01*
X016767Y019210D01*
X015640Y020337D01*
X015640Y020566D02*
X020661Y020566D01*
X020650Y020722D02*
X020663Y020804D01*
X020689Y020883D01*
X020792Y021042D02*
X015640Y021042D01*
X015640Y021200D02*
X021075Y021200D01*
X021160Y021200D02*
X021200Y021200D01*
X021285Y021200D02*
X032945Y021200D01*
X032945Y021042D02*
X032734Y021042D01*
X032834Y020883D02*
X032987Y020883D01*
X032945Y020984D02*
X033095Y020622D01*
X033372Y020345D01*
X033734Y020195D01*
X034126Y020195D01*
X034488Y020345D01*
X034765Y020622D01*
X034915Y020984D01*
X034915Y021376D01*
X034765Y021738D01*
X034488Y022015D01*
X034126Y022165D01*
X033734Y022165D01*
X033372Y022015D01*
X033095Y021738D01*
X032945Y021376D01*
X032945Y020984D01*
X032992Y020725D02*
X033053Y020725D01*
X033140Y020566D02*
X033151Y020566D01*
X033140Y020408D02*
X033309Y020408D01*
X033140Y020249D02*
X033604Y020249D01*
X033140Y020091D02*
X035748Y020091D01*
X035696Y020249D02*
X034256Y020249D01*
X034551Y020408D02*
X035645Y020408D01*
X035584Y020566D02*
X034709Y020566D01*
X034807Y020725D02*
X035503Y020725D01*
X035422Y020883D02*
X034873Y020883D01*
X034915Y021042D02*
X035342Y021042D01*
X035258Y021200D02*
X034915Y021200D01*
X034915Y021359D02*
X035143Y021359D01*
X035027Y021517D02*
X034857Y021517D01*
X034912Y021676D02*
X034791Y021676D01*
X034786Y021834D02*
X034669Y021834D01*
X034628Y021993D02*
X034510Y021993D01*
X034469Y022151D02*
X034160Y022151D01*
X034311Y022310D02*
X032225Y022310D01*
X032200Y022334D02*
X032334Y022200D01*
X032407Y022025D01*
X032407Y021835D01*
X032334Y021660D01*
X032200Y021526D01*
X032025Y021453D01*
X031835Y021453D01*
X031660Y021526D01*
X031526Y021660D01*
X031453Y021835D01*
X031453Y022025D01*
X031526Y022200D01*
X031660Y022334D01*
X031835Y022407D01*
X032025Y022407D01*
X032200Y022334D01*
X032061Y022468D02*
X034099Y022468D01*
X033881Y022627D02*
X032301Y022627D01*
X032386Y022785D02*
X033653Y022785D01*
X033342Y022944D02*
X032407Y022944D01*
X032375Y023102D02*
X033031Y023102D01*
X032552Y023261D02*
X032274Y023261D01*
X031816Y023419D02*
X010018Y023419D01*
X010046Y023415D02*
X009969Y023427D01*
X009948Y023427D01*
X009948Y022948D01*
X010427Y022948D01*
X010427Y022969D01*
X010415Y023046D01*
X010390Y023121D01*
X010355Y023190D01*
X010309Y023254D01*
X010254Y023309D01*
X010190Y023355D01*
X010121Y023390D01*
X010046Y023415D01*
X009948Y023419D02*
X009912Y023419D01*
X009912Y023427D02*
X009891Y023427D01*
X009814Y023415D01*
X009739Y023390D01*
X009670Y023355D01*
X009606Y023309D01*
X009551Y023254D01*
X009505Y023190D01*
X009470Y023121D01*
X009445Y023046D01*
X009433Y022969D01*
X009433Y022948D01*
X009912Y022948D01*
X009912Y022912D01*
X009948Y022912D01*
X009948Y022948D01*
X009912Y022948D01*
X009912Y023427D01*
X009842Y023419D02*
X006068Y023419D01*
X006167Y023261D02*
X009558Y023261D01*
X009463Y023102D02*
X006200Y023102D01*
X006200Y023060D02*
X005400Y023060D01*
X005400Y022580D01*
X005739Y022580D01*
X005817Y022592D01*
X005892Y022617D01*
X005962Y022652D01*
X006026Y022699D01*
X006081Y022754D01*
X006128Y022818D01*
X006163Y022888D01*
X006188Y022963D01*
X006200Y023041D01*
X006200Y023060D01*
X006181Y022944D02*
X009912Y022944D01*
X009912Y022912D02*
X009433Y022912D01*
X009433Y022891D01*
X009445Y022814D01*
X009470Y022739D01*
X009505Y022670D01*
X009551Y022606D01*
X009606Y022551D01*
X009670Y022505D01*
X009739Y022470D01*
X009814Y022445D01*
X009891Y022433D01*
X009912Y022433D01*
X009912Y022912D01*
X009948Y022912D02*
X009948Y022433D01*
X009969Y022433D01*
X010046Y022445D01*
X010121Y022470D01*
X010190Y022505D01*
X010254Y022551D01*
X010309Y022606D01*
X010355Y022670D01*
X010390Y022739D01*
X010415Y022814D01*
X010427Y022891D01*
X010427Y022912D01*
X009948Y022912D01*
X009948Y022944D02*
X010453Y022944D01*
X010453Y023025D02*
X010453Y022835D01*
X010526Y022660D01*
X010660Y022526D01*
X010835Y022453D01*
X011025Y022453D01*
X011200Y022526D01*
X011334Y022660D01*
X011407Y022835D01*
X011407Y023025D01*
X011334Y023200D01*
X011200Y023334D01*
X011025Y023407D01*
X010835Y023407D01*
X010660Y023334D01*
X010526Y023200D01*
X010453Y023025D01*
X010485Y023102D02*
X010397Y023102D01*
X010302Y023261D02*
X010586Y023261D01*
X010474Y022785D02*
X010405Y022785D01*
X010324Y022627D02*
X010559Y022627D01*
X010799Y022468D02*
X010116Y022468D01*
X010271Y022427D02*
X009948Y022427D01*
X009948Y021948D01*
X010427Y021948D01*
X010427Y022271D01*
X010415Y022316D01*
X010391Y022357D01*
X010357Y022391D01*
X010316Y022415D01*
X010271Y022427D01*
X010416Y022310D02*
X010635Y022310D01*
X010660Y022334D02*
X010526Y022200D01*
X010453Y022025D01*
X010453Y021835D01*
X010526Y021660D01*
X010660Y021526D01*
X010835Y021453D01*
X011025Y021453D01*
X011200Y021526D01*
X011334Y021660D01*
X011407Y021835D01*
X011407Y022025D01*
X011334Y022200D01*
X011200Y022334D01*
X011025Y022407D01*
X010835Y022407D01*
X010660Y022334D01*
X010505Y022151D02*
X010427Y022151D01*
X010427Y021993D02*
X010453Y021993D01*
X010427Y021912D02*
X009948Y021912D01*
X009948Y021948D01*
X009912Y021948D01*
X009912Y021912D01*
X009948Y021912D01*
X009948Y021433D01*
X010271Y021433D01*
X010316Y021445D01*
X010357Y021469D01*
X010391Y021503D01*
X010415Y021544D01*
X010427Y021589D01*
X010427Y021912D01*
X010427Y021834D02*
X010454Y021834D01*
X010427Y021676D02*
X010519Y021676D01*
X010399Y021517D02*
X010681Y021517D01*
X011179Y021517D02*
X011681Y021517D01*
X011660Y021526D02*
X011835Y021453D01*
X012025Y021453D01*
X012200Y021526D01*
X012334Y021660D01*
X012407Y021835D01*
X012407Y022025D01*
X012334Y022200D01*
X012200Y022334D01*
X012025Y022407D01*
X011835Y022407D01*
X011660Y022334D01*
X011526Y022200D01*
X011453Y022025D01*
X011453Y021835D01*
X011526Y021660D01*
X011660Y021526D01*
X011519Y021676D02*
X011341Y021676D01*
X011406Y021834D02*
X011454Y021834D01*
X011453Y021993D02*
X011407Y021993D01*
X011355Y022151D02*
X011505Y022151D01*
X011635Y022310D02*
X011225Y022310D01*
X011061Y022468D02*
X011799Y022468D01*
X011835Y022453D02*
X012025Y022453D01*
X012200Y022526D01*
X012334Y022660D01*
X012407Y022835D01*
X012407Y023025D01*
X012334Y023200D01*
X012200Y023334D01*
X012025Y023407D01*
X011835Y023407D01*
X011660Y023334D01*
X011526Y023200D01*
X011453Y023025D01*
X011453Y022835D01*
X011526Y022660D01*
X011660Y022526D01*
X011835Y022453D01*
X012061Y022468D02*
X012799Y022468D01*
X012835Y022453D02*
X013025Y022453D01*
X013200Y022526D01*
X013334Y022660D01*
X013407Y022835D01*
X013407Y023025D01*
X013334Y023200D01*
X013200Y023334D01*
X013025Y023407D01*
X012835Y023407D01*
X012660Y023334D01*
X012526Y023200D01*
X012453Y023025D01*
X012453Y022835D01*
X012526Y022660D01*
X012660Y022526D01*
X012835Y022453D01*
X012835Y022407D02*
X012660Y022334D01*
X012526Y022200D01*
X012453Y022025D01*
X012453Y021835D01*
X012526Y021660D01*
X012660Y021526D01*
X012835Y021453D01*
X013025Y021453D01*
X013200Y021526D01*
X013334Y021660D01*
X013407Y021835D01*
X013407Y022025D01*
X013334Y022200D01*
X013200Y022334D01*
X013025Y022407D01*
X012835Y022407D01*
X012635Y022310D02*
X012225Y022310D01*
X012355Y022151D02*
X012505Y022151D01*
X012453Y021993D02*
X012407Y021993D01*
X012406Y021834D02*
X012454Y021834D01*
X012519Y021676D02*
X012341Y021676D01*
X012179Y021517D02*
X012681Y021517D01*
X012674Y021210D02*
X012591Y021197D01*
X012512Y021171D01*
X012438Y021133D01*
X012370Y021084D01*
X012311Y021025D01*
X012262Y020958D01*
X012224Y020883D01*
X012183Y020883D01*
X012224Y020883D02*
X012206Y020828D01*
X012148Y020969D01*
X012004Y021112D01*
X011817Y021190D01*
X011614Y021190D01*
X011427Y021112D01*
X011283Y020969D01*
X011205Y020781D01*
X011205Y020579D01*
X011283Y020391D01*
X011427Y020248D01*
X011614Y020170D01*
X011817Y020170D01*
X012004Y020248D01*
X012148Y020391D01*
X012206Y020532D01*
X012224Y020477D01*
X012262Y020402D01*
X012311Y020335D01*
X012370Y020276D01*
X012438Y020227D01*
X012512Y020189D01*
X012591Y020163D01*
X012674Y020150D01*
X012695Y020150D01*
X012695Y020660D01*
X012735Y020660D01*
X012735Y020150D01*
X012757Y020150D01*
X012840Y020163D01*
X012919Y020189D01*
X012993Y020227D01*
X013061Y020276D01*
X013120Y020335D01*
X013169Y020402D01*
X013207Y020477D01*
X013232Y020556D01*
X013245Y020638D01*
X013245Y020660D01*
X012735Y020660D01*
X012735Y020700D01*
X012695Y020700D01*
X012695Y021210D01*
X012674Y021210D01*
X012695Y021200D02*
X012735Y021200D01*
X012735Y021210D02*
X012757Y021210D01*
X012840Y021197D01*
X012919Y021171D01*
X012993Y021133D01*
X013061Y021084D01*
X013120Y021025D01*
X013169Y020958D01*
X013207Y020883D01*
X015220Y020883D01*
X015220Y020725D02*
X013245Y020725D01*
X013245Y020722D02*
X013232Y020804D01*
X013207Y020883D01*
X013245Y020722D02*
X013245Y020700D01*
X012735Y020700D01*
X012735Y021210D01*
X012820Y021200D02*
X015220Y021200D01*
X015220Y021042D02*
X013103Y021042D01*
X012735Y021042D02*
X012695Y021042D01*
X012695Y020883D02*
X012735Y020883D01*
X012735Y020725D02*
X012695Y020725D01*
X012695Y020566D02*
X012735Y020566D01*
X012735Y020408D02*
X012695Y020408D01*
X012695Y020249D02*
X012735Y020249D01*
X013024Y020249D02*
X015220Y020249D01*
X015220Y020408D02*
X013171Y020408D01*
X013234Y020566D02*
X015220Y020566D01*
X015292Y020091D02*
X009772Y020091D01*
X009772Y020249D02*
X011425Y020249D01*
X011276Y020408D02*
X009772Y020408D01*
X009691Y020566D02*
X011211Y020566D01*
X011205Y020725D02*
X007960Y020725D01*
X007876Y020883D02*
X011248Y020883D01*
X011356Y021042D02*
X007718Y021042D01*
X007856Y020903D02*
X007856Y020903D01*
X007720Y020700D02*
X007720Y019768D01*
X007702Y019750D01*
X007168Y019774D02*
X006072Y019774D01*
X006158Y019932D02*
X007168Y019932D01*
X007168Y020091D02*
X006180Y020091D01*
X006150Y020249D02*
X007168Y020249D01*
X007168Y020408D02*
X006051Y020408D01*
X006023Y020725D02*
X007356Y020725D01*
X007249Y020566D02*
X004635Y020566D01*
X004635Y020408D02*
X004709Y020408D01*
X004737Y020725D02*
X004635Y020725D01*
X005380Y021080D02*
X007340Y021080D01*
X007720Y020700D01*
X008156Y020566D02*
X008784Y020566D01*
X008704Y020408D02*
X008236Y020408D01*
X008236Y020249D02*
X008704Y020249D01*
X008704Y020091D02*
X008236Y020091D01*
X008236Y019932D02*
X008704Y019932D01*
X008704Y019774D02*
X008236Y019774D01*
X008236Y019615D02*
X008704Y019615D01*
X008704Y019457D02*
X008236Y019457D01*
X008236Y019298D02*
X008704Y019298D01*
X008704Y019140D02*
X008236Y019140D01*
X008203Y018981D02*
X008737Y018981D01*
X008840Y018640D02*
X009250Y019050D01*
X009250Y019738D01*
X009238Y019750D01*
X009772Y019774D02*
X015609Y019774D01*
X015451Y019932D02*
X009772Y019932D01*
X009772Y019615D02*
X015768Y019615D01*
X015926Y019457D02*
X009772Y019457D01*
X009772Y019298D02*
X016085Y019298D01*
X016243Y019140D02*
X009772Y019140D01*
X009738Y018981D02*
X016402Y018981D01*
X016470Y018913D02*
X016470Y018913D01*
X016560Y018823D02*
X009362Y018823D01*
X009203Y018664D02*
X019313Y018664D01*
X019667Y018664D02*
X022768Y018664D01*
X022900Y018823D02*
X019826Y018823D01*
X019868Y018981D02*
X022900Y018981D01*
X022900Y019140D02*
X019841Y019140D01*
X019727Y019298D02*
X022900Y019298D01*
X022900Y019457D02*
X016520Y019457D01*
X016362Y019615D02*
X022900Y019615D01*
X022900Y019774D02*
X016203Y019774D01*
X016045Y019932D02*
X022900Y019932D01*
X023460Y019932D02*
X024981Y019932D01*
X024873Y019774D02*
X023460Y019774D01*
X023460Y019615D02*
X024862Y019615D01*
X024952Y019457D02*
X023460Y019457D01*
X023460Y019298D02*
X025251Y019298D01*
X025409Y019140D02*
X023460Y019140D01*
X023460Y018981D02*
X025460Y018981D01*
X025460Y018823D02*
X023460Y018823D01*
X023460Y018664D02*
X025460Y018664D01*
X025460Y018506D02*
X025303Y018506D01*
X025349Y018347D02*
X025460Y018347D01*
X025900Y018347D02*
X025900Y018347D01*
X025900Y018189D02*
X025900Y018189D01*
X025900Y018030D02*
X025900Y018030D01*
X025900Y017872D02*
X025900Y017872D01*
X025900Y017713D02*
X025900Y017713D01*
X025900Y017079D02*
X026128Y017079D01*
X024743Y018189D02*
X023085Y018189D01*
X023243Y018347D02*
X024711Y018347D01*
X024757Y018506D02*
X023402Y018506D01*
X022610Y018506D02*
X009045Y018506D01*
X008840Y018640D02*
X007560Y018640D01*
X007262Y018342D01*
X007262Y018070D01*
X006944Y018030D02*
X006180Y018030D01*
X006175Y018189D02*
X006944Y018189D01*
X006998Y018347D02*
X006109Y018347D01*
X005927Y018506D02*
X007086Y018506D01*
X007245Y018664D02*
X005950Y018664D01*
X006113Y018823D02*
X007403Y018823D01*
X007202Y018981D02*
X006179Y018981D01*
X006180Y019140D02*
X007168Y019140D01*
X007168Y019298D02*
X006129Y019298D01*
X006002Y019457D02*
X007168Y019457D01*
X007168Y019615D02*
X005832Y019615D01*
X004928Y019615D02*
X004635Y019615D01*
X004635Y019457D02*
X004758Y019457D01*
X004688Y019774D02*
X004635Y019774D01*
X004635Y018823D02*
X004647Y018823D01*
X004635Y018664D02*
X004810Y018664D01*
X004833Y018506D02*
X004635Y018506D01*
X004635Y018347D02*
X004651Y018347D01*
X006012Y017713D02*
X007530Y017713D01*
X006944Y017872D02*
X006133Y017872D01*
X008490Y017713D02*
X018470Y017713D01*
X018470Y017555D02*
X010764Y017555D01*
X010596Y017555D02*
X010345Y017555D01*
X010999Y017396D02*
X018470Y017396D01*
X018470Y017238D02*
X011058Y017238D01*
X011047Y017079D02*
X018470Y017079D01*
X018470Y016921D02*
X015974Y016921D01*
X016055Y016762D02*
X018470Y016762D01*
X018470Y016604D02*
X016058Y016604D01*
X015980Y016445D02*
X018470Y016445D01*
X018470Y016287D02*
X017385Y016287D01*
X017543Y016128D02*
X018470Y016128D01*
X018470Y015970D02*
X017925Y015970D01*
X018035Y015811D02*
X018470Y015811D01*
X018356Y015653D02*
X018058Y015653D01*
X018012Y015494D02*
X018197Y015494D01*
X018633Y015336D02*
X022480Y015336D01*
X022480Y015494D02*
X018791Y015494D01*
X018890Y015653D02*
X022480Y015653D01*
X022480Y015811D02*
X018890Y015811D01*
X018890Y015970D02*
X022480Y015970D01*
X022480Y016128D02*
X018890Y016128D01*
X018890Y016287D02*
X022480Y016287D01*
X022480Y016445D02*
X018890Y016445D01*
X018890Y016604D02*
X022459Y016604D01*
X022301Y016762D02*
X018890Y016762D01*
X018890Y016921D02*
X022142Y016921D01*
X021984Y017079D02*
X019794Y017079D01*
X019206Y017079D02*
X018890Y017079D01*
X018890Y017238D02*
X019125Y017238D01*
X019122Y017396D02*
X018890Y017396D01*
X019253Y019298D02*
X016679Y019298D01*
X016835Y021453D02*
X016660Y021526D01*
X016526Y021660D01*
X016453Y021835D01*
X016453Y022025D01*
X016526Y022200D01*
X016660Y022334D01*
X016835Y022407D01*
X017025Y022407D01*
X017200Y022334D01*
X017334Y022200D01*
X017407Y022025D01*
X017407Y021835D01*
X017334Y021660D01*
X017200Y021526D01*
X017025Y021453D01*
X016835Y021453D01*
X016681Y021517D02*
X016179Y021517D01*
X016341Y021676D02*
X016519Y021676D01*
X016454Y021834D02*
X016406Y021834D01*
X016407Y021993D02*
X016453Y021993D01*
X016505Y022151D02*
X016355Y022151D01*
X016225Y022310D02*
X016635Y022310D01*
X016660Y022526D02*
X016835Y022453D01*
X017025Y022453D01*
X017200Y022526D01*
X017334Y022660D01*
X017407Y022835D01*
X017407Y023025D01*
X017334Y023200D01*
X017200Y023334D01*
X017025Y023407D01*
X016835Y023407D01*
X016660Y023334D01*
X016526Y023200D01*
X016453Y023025D01*
X016453Y022835D01*
X016526Y022660D01*
X016660Y022526D01*
X016559Y022627D02*
X016301Y022627D01*
X016386Y022785D02*
X016474Y022785D01*
X016453Y022944D02*
X016407Y022944D01*
X016375Y023102D02*
X016485Y023102D01*
X016586Y023261D02*
X016274Y023261D01*
X015586Y023261D02*
X015274Y023261D01*
X015375Y023102D02*
X015485Y023102D01*
X015453Y022944D02*
X015407Y022944D01*
X015422Y022785D02*
X015474Y022785D01*
X015640Y022468D02*
X015799Y022468D01*
X016061Y022468D02*
X016799Y022468D01*
X017061Y022468D02*
X017799Y022468D01*
X017835Y022453D02*
X018025Y022453D01*
X018200Y022526D01*
X018334Y022660D01*
X018407Y022835D01*
X018407Y023025D01*
X018334Y023200D01*
X018200Y023334D01*
X018025Y023407D01*
X017835Y023407D01*
X017660Y023334D01*
X017526Y023200D01*
X017453Y023025D01*
X017453Y022835D01*
X017526Y022660D01*
X017660Y022526D01*
X017835Y022453D01*
X017835Y022407D02*
X017660Y022334D01*
X017526Y022200D01*
X017453Y022025D01*
X017453Y021835D01*
X017526Y021660D01*
X017660Y021526D01*
X017835Y021453D01*
X018025Y021453D01*
X018200Y021526D01*
X018334Y021660D01*
X018407Y021835D01*
X018407Y022025D01*
X018334Y022200D01*
X018200Y022334D01*
X018025Y022407D01*
X017835Y022407D01*
X017635Y022310D02*
X017225Y022310D01*
X017355Y022151D02*
X017505Y022151D01*
X017453Y021993D02*
X017407Y021993D01*
X017406Y021834D02*
X017454Y021834D01*
X017519Y021676D02*
X017341Y021676D01*
X017179Y021517D02*
X017681Y021517D01*
X018179Y021517D02*
X018681Y021517D01*
X018660Y021526D02*
X018835Y021453D01*
X019025Y021453D01*
X019200Y021526D01*
X019334Y021660D01*
X019407Y021835D01*
X019407Y022025D01*
X019334Y022200D01*
X019200Y022334D01*
X019025Y022407D01*
X018835Y022407D01*
X018660Y022334D01*
X018526Y022200D01*
X018453Y022025D01*
X018453Y021835D01*
X018526Y021660D01*
X018660Y021526D01*
X018519Y021676D02*
X018341Y021676D01*
X018406Y021834D02*
X018454Y021834D01*
X018453Y021993D02*
X018407Y021993D01*
X018355Y022151D02*
X018505Y022151D01*
X018635Y022310D02*
X018225Y022310D01*
X018061Y022468D02*
X018799Y022468D01*
X018835Y022453D02*
X019025Y022453D01*
X019200Y022526D01*
X019334Y022660D01*
X019407Y022835D01*
X019407Y023025D01*
X019334Y023200D01*
X019200Y023334D01*
X019025Y023407D01*
X018835Y023407D01*
X018660Y023334D01*
X018526Y023200D01*
X018453Y023025D01*
X018453Y022835D01*
X018526Y022660D01*
X018660Y022526D01*
X018835Y022453D01*
X019061Y022468D02*
X019799Y022468D01*
X019835Y022453D02*
X019660Y022526D01*
X019526Y022660D01*
X019453Y022835D01*
X019453Y023025D01*
X019526Y023200D01*
X019660Y023334D01*
X019835Y023407D01*
X020025Y023407D01*
X020200Y023334D01*
X020334Y023200D01*
X020407Y023025D01*
X020407Y022835D01*
X020334Y022660D01*
X020200Y022526D01*
X020025Y022453D01*
X019835Y022453D01*
X019835Y022407D02*
X019660Y022334D01*
X019526Y022200D01*
X019453Y022025D01*
X019453Y021835D01*
X019526Y021660D01*
X019660Y021526D01*
X019835Y021453D01*
X020025Y021453D01*
X020200Y021526D01*
X020334Y021660D01*
X020407Y021835D01*
X020407Y022025D01*
X020334Y022200D01*
X020200Y022334D01*
X020025Y022407D01*
X019835Y022407D01*
X019635Y022310D02*
X019225Y022310D01*
X019355Y022151D02*
X019505Y022151D01*
X019453Y021993D02*
X019407Y021993D01*
X019406Y021834D02*
X019454Y021834D01*
X019519Y021676D02*
X019341Y021676D01*
X019179Y021517D02*
X019681Y021517D01*
X020179Y021517D02*
X020681Y021517D01*
X020660Y021526D02*
X020835Y021453D01*
X021025Y021453D01*
X021200Y021526D01*
X021334Y021660D01*
X021407Y021835D01*
X021407Y022025D01*
X021334Y022200D01*
X021200Y022334D01*
X021025Y022407D01*
X020835Y022407D01*
X020660Y022334D01*
X020526Y022200D01*
X020453Y022025D01*
X020453Y021835D01*
X020526Y021660D01*
X020660Y021526D01*
X020519Y021676D02*
X020341Y021676D01*
X020406Y021834D02*
X020454Y021834D01*
X020453Y021993D02*
X020407Y021993D01*
X020355Y022151D02*
X020505Y022151D01*
X020635Y022310D02*
X020225Y022310D01*
X020061Y022468D02*
X020799Y022468D01*
X020835Y022453D02*
X021025Y022453D01*
X021200Y022526D01*
X021334Y022660D01*
X021407Y022835D01*
X021407Y023025D01*
X021334Y023200D01*
X021200Y023334D01*
X021025Y023407D01*
X020835Y023407D01*
X020660Y023334D01*
X020526Y023200D01*
X020453Y023025D01*
X020453Y022835D01*
X020526Y022660D01*
X020660Y022526D01*
X020835Y022453D01*
X021061Y022468D02*
X021799Y022468D01*
X021635Y022310D02*
X021225Y022310D01*
X021355Y022151D02*
X021505Y022151D01*
X021453Y021993D02*
X021407Y021993D01*
X021406Y021834D02*
X021454Y021834D01*
X021519Y021676D02*
X021341Y021676D01*
X021179Y021517D02*
X021681Y021517D01*
X021568Y021042D02*
X021820Y021042D01*
X021200Y021042D02*
X021160Y021042D01*
X021160Y020883D02*
X021200Y020883D01*
X021200Y020725D02*
X021160Y020725D01*
X021160Y020566D02*
X021200Y020566D01*
X021200Y020408D02*
X021160Y020408D01*
X021160Y020249D02*
X021200Y020249D01*
X021489Y020249D02*
X021890Y020249D01*
X021741Y020408D02*
X021636Y020408D01*
X024179Y021517D02*
X024681Y021517D01*
X024660Y021526D02*
X024835Y021453D01*
X025025Y021453D01*
X025200Y021526D01*
X025334Y021660D01*
X025407Y021835D01*
X025407Y022025D01*
X025334Y022200D01*
X025200Y022334D01*
X025025Y022407D01*
X024835Y022407D01*
X024660Y022334D01*
X024526Y022200D01*
X024453Y022025D01*
X024453Y021835D01*
X024526Y021660D01*
X024660Y021526D01*
X024519Y021676D02*
X024341Y021676D01*
X024406Y021834D02*
X024454Y021834D01*
X024453Y021993D02*
X024407Y021993D01*
X024355Y022151D02*
X024505Y022151D01*
X024635Y022310D02*
X024225Y022310D01*
X024061Y022468D02*
X024799Y022468D01*
X024835Y022453D02*
X025025Y022453D01*
X025200Y022526D01*
X025334Y022660D01*
X025407Y022835D01*
X025407Y023025D01*
X025334Y023200D01*
X025200Y023334D01*
X025025Y023407D01*
X024835Y023407D01*
X024660Y023334D01*
X024526Y023200D01*
X024453Y023025D01*
X024453Y022835D01*
X024526Y022660D01*
X024660Y022526D01*
X024835Y022453D01*
X025061Y022468D02*
X025799Y022468D01*
X025835Y022453D02*
X026025Y022453D01*
X026200Y022526D01*
X026334Y022660D01*
X026407Y022835D01*
X026407Y023025D01*
X026334Y023200D01*
X026200Y023334D01*
X026025Y023407D01*
X025835Y023407D01*
X025660Y023334D01*
X025526Y023200D01*
X025453Y023025D01*
X025453Y022835D01*
X025526Y022660D01*
X025660Y022526D01*
X025835Y022453D01*
X025835Y022407D02*
X025660Y022334D01*
X025526Y022200D01*
X025453Y022025D01*
X025453Y021835D01*
X025526Y021660D01*
X025660Y021526D01*
X025835Y021453D01*
X026025Y021453D01*
X026200Y021526D01*
X026334Y021660D01*
X026407Y021835D01*
X026407Y022025D01*
X026334Y022200D01*
X026200Y022334D01*
X026025Y022407D01*
X025835Y022407D01*
X025635Y022310D02*
X025225Y022310D01*
X025355Y022151D02*
X025505Y022151D01*
X025453Y021993D02*
X025407Y021993D01*
X025406Y021834D02*
X025454Y021834D01*
X025519Y021676D02*
X025341Y021676D01*
X025179Y021517D02*
X025681Y021517D01*
X026179Y021517D02*
X026681Y021517D01*
X026660Y021526D02*
X026835Y021453D01*
X027025Y021453D01*
X027200Y021526D01*
X027334Y021660D01*
X027407Y021835D01*
X027407Y022025D01*
X027334Y022200D01*
X027200Y022334D01*
X027025Y022407D01*
X026835Y022407D01*
X026660Y022334D01*
X026526Y022200D01*
X026453Y022025D01*
X026453Y021835D01*
X026526Y021660D01*
X026660Y021526D01*
X026519Y021676D02*
X026341Y021676D01*
X026406Y021834D02*
X026454Y021834D01*
X026453Y021993D02*
X026407Y021993D01*
X026355Y022151D02*
X026505Y022151D01*
X026635Y022310D02*
X026225Y022310D01*
X026061Y022468D02*
X026799Y022468D01*
X026835Y022453D02*
X027025Y022453D01*
X027200Y022526D01*
X027334Y022660D01*
X027407Y022835D01*
X027407Y023025D01*
X027334Y023200D01*
X027200Y023334D01*
X027025Y023407D01*
X026835Y023407D01*
X026660Y023334D01*
X026526Y023200D01*
X026453Y023025D01*
X026453Y022835D01*
X026526Y022660D01*
X026660Y022526D01*
X026835Y022453D01*
X027061Y022468D02*
X027799Y022468D01*
X027835Y022453D02*
X028025Y022453D01*
X028200Y022526D01*
X028334Y022660D01*
X028407Y022835D01*
X028407Y023025D01*
X028334Y023200D01*
X028200Y023334D01*
X028025Y023407D01*
X027835Y023407D01*
X027660Y023334D01*
X027526Y023200D01*
X027453Y023025D01*
X027453Y022835D01*
X027526Y022660D01*
X027660Y022526D01*
X027835Y022453D01*
X027835Y022407D02*
X027660Y022334D01*
X027526Y022200D01*
X027453Y022025D01*
X027453Y021835D01*
X027526Y021660D01*
X027660Y021526D01*
X027835Y021453D01*
X028025Y021453D01*
X028200Y021526D01*
X028334Y021660D01*
X028407Y021835D01*
X028407Y022025D01*
X028334Y022200D01*
X028200Y022334D01*
X028025Y022407D01*
X027835Y022407D01*
X027635Y022310D02*
X027225Y022310D01*
X027355Y022151D02*
X027505Y022151D01*
X027453Y021993D02*
X027407Y021993D01*
X027406Y021834D02*
X027454Y021834D01*
X027519Y021676D02*
X027341Y021676D01*
X027179Y021517D02*
X027681Y021517D01*
X028179Y021517D02*
X028681Y021517D01*
X028660Y021526D02*
X028835Y021453D01*
X029025Y021453D01*
X029200Y021526D01*
X029334Y021660D01*
X029407Y021835D01*
X029407Y022025D01*
X029334Y022200D01*
X029200Y022334D01*
X029025Y022407D01*
X028835Y022407D01*
X028660Y022334D01*
X028526Y022200D01*
X028453Y022025D01*
X028453Y021835D01*
X028526Y021660D01*
X028660Y021526D01*
X028519Y021676D02*
X028341Y021676D01*
X028406Y021834D02*
X028454Y021834D01*
X028453Y021993D02*
X028407Y021993D01*
X028355Y022151D02*
X028505Y022151D01*
X028635Y022310D02*
X028225Y022310D01*
X028061Y022468D02*
X028799Y022468D01*
X028835Y022453D02*
X029025Y022453D01*
X029200Y022526D01*
X029334Y022660D01*
X029407Y022835D01*
X029407Y023025D01*
X029334Y023200D01*
X029200Y023334D01*
X029025Y023407D01*
X028835Y023407D01*
X028660Y023334D01*
X028526Y023200D01*
X028453Y023025D01*
X028453Y022835D01*
X028526Y022660D01*
X028660Y022526D01*
X028835Y022453D01*
X029061Y022468D02*
X029799Y022468D01*
X029835Y022453D02*
X030025Y022453D01*
X030200Y022526D01*
X030334Y022660D01*
X030407Y022835D01*
X030407Y023025D01*
X030334Y023200D01*
X030200Y023334D01*
X030025Y023407D01*
X029835Y023407D01*
X029660Y023334D01*
X029526Y023200D01*
X029453Y023025D01*
X029453Y022835D01*
X029526Y022660D01*
X029660Y022526D01*
X029835Y022453D01*
X029835Y022407D02*
X029660Y022334D01*
X029526Y022200D01*
X029453Y022025D01*
X029453Y021835D01*
X029526Y021660D01*
X029660Y021526D01*
X029835Y021453D01*
X030025Y021453D01*
X030200Y021526D01*
X030334Y021660D01*
X030407Y021835D01*
X030407Y022025D01*
X030334Y022200D01*
X030200Y022334D01*
X030025Y022407D01*
X029835Y022407D01*
X029635Y022310D02*
X029225Y022310D01*
X029355Y022151D02*
X029505Y022151D01*
X029453Y021993D02*
X029407Y021993D01*
X029406Y021834D02*
X029454Y021834D01*
X029519Y021676D02*
X029341Y021676D01*
X029179Y021517D02*
X029681Y021517D01*
X030179Y021517D02*
X030681Y021517D01*
X030660Y021526D02*
X030835Y021453D01*
X031025Y021453D01*
X031200Y021526D01*
X031334Y021660D01*
X031407Y021835D01*
X031407Y022025D01*
X031334Y022200D01*
X031200Y022334D01*
X031025Y022407D01*
X030835Y022407D01*
X030660Y022334D01*
X030526Y022200D01*
X030453Y022025D01*
X030453Y021835D01*
X030526Y021660D01*
X030660Y021526D01*
X030519Y021676D02*
X030341Y021676D01*
X030406Y021834D02*
X030454Y021834D01*
X030453Y021993D02*
X030407Y021993D01*
X030355Y022151D02*
X030505Y022151D01*
X030635Y022310D02*
X030225Y022310D01*
X030061Y022468D02*
X030799Y022468D01*
X030835Y022453D02*
X031025Y022453D01*
X031200Y022526D01*
X031334Y022660D01*
X031407Y022835D01*
X031407Y023025D01*
X031334Y023200D01*
X031200Y023334D01*
X031025Y023407D01*
X030835Y023407D01*
X030660Y023334D01*
X030526Y023200D01*
X030453Y023025D01*
X030453Y022835D01*
X030526Y022660D01*
X030660Y022526D01*
X030835Y022453D01*
X031061Y022468D02*
X031799Y022468D01*
X031635Y022310D02*
X031225Y022310D01*
X031355Y022151D02*
X031505Y022151D01*
X031453Y021993D02*
X031407Y021993D01*
X031406Y021834D02*
X031454Y021834D01*
X031519Y021676D02*
X031341Y021676D01*
X031179Y021517D02*
X031681Y021517D01*
X032179Y021517D02*
X033003Y021517D01*
X032945Y021359D02*
X015640Y021359D01*
X015640Y021517D02*
X015681Y021517D01*
X015220Y021517D02*
X015179Y021517D01*
X015220Y021359D02*
X006100Y021359D01*
X005899Y021517D02*
X009461Y021517D01*
X009469Y021503D02*
X009503Y021469D01*
X009544Y021445D01*
X009589Y021433D01*
X009912Y021433D01*
X009912Y021912D01*
X009433Y021912D01*
X009433Y021589D01*
X009445Y021544D01*
X009469Y021503D01*
X009433Y021676D02*
X005994Y021676D01*
X006026Y021699D02*
X006081Y021754D01*
X006128Y021818D01*
X006163Y021888D01*
X006188Y021963D01*
X006200Y022041D01*
X006200Y022060D01*
X005400Y022060D01*
X005400Y021580D01*
X005739Y021580D01*
X005817Y021592D01*
X005892Y021617D01*
X005962Y021652D01*
X006026Y021699D01*
X006136Y021834D02*
X009433Y021834D01*
X009433Y021948D02*
X009912Y021948D01*
X009912Y022427D01*
X009589Y022427D01*
X009544Y022415D01*
X009503Y022391D01*
X009469Y022357D01*
X009445Y022316D01*
X009433Y022271D01*
X009433Y021948D01*
X009433Y021993D02*
X006192Y021993D01*
X006200Y022100D02*
X006200Y022119D01*
X006188Y022197D01*
X006163Y022272D01*
X006128Y022342D01*
X006081Y022406D01*
X006026Y022461D01*
X005962Y022508D01*
X005892Y022543D01*
X005817Y022568D01*
X005739Y022580D01*
X005400Y022580D01*
X005400Y022100D01*
X006200Y022100D01*
X006195Y022151D02*
X009433Y022151D01*
X009444Y022310D02*
X006144Y022310D01*
X006017Y022468D02*
X009744Y022468D01*
X009912Y022468D02*
X009948Y022468D01*
X009948Y022310D02*
X009912Y022310D01*
X009912Y022151D02*
X009948Y022151D01*
X009948Y021993D02*
X009912Y021993D01*
X009912Y021834D02*
X009948Y021834D01*
X009948Y021676D02*
X009912Y021676D01*
X009912Y021517D02*
X009948Y021517D01*
X009912Y022627D02*
X009948Y022627D01*
X009948Y022785D02*
X009912Y022785D01*
X009536Y022627D02*
X005911Y022627D01*
X006104Y022785D02*
X009455Y022785D01*
X009912Y023102D02*
X009948Y023102D01*
X009948Y023261D02*
X009912Y023261D01*
X011274Y023261D02*
X011586Y023261D01*
X011485Y023102D02*
X011375Y023102D01*
X011407Y022944D02*
X011453Y022944D01*
X011474Y022785D02*
X011386Y022785D01*
X011301Y022627D02*
X011559Y022627D01*
X012301Y022627D02*
X012559Y022627D01*
X012474Y022785D02*
X012386Y022785D01*
X012407Y022944D02*
X012453Y022944D01*
X012485Y023102D02*
X012375Y023102D01*
X012274Y023261D02*
X012586Y023261D01*
X013274Y023261D02*
X013586Y023261D01*
X013526Y023200D02*
X013453Y023025D01*
X013453Y022835D01*
X013526Y022660D01*
X013660Y022526D01*
X013835Y022453D01*
X014025Y022453D01*
X014200Y022526D01*
X014334Y022660D01*
X014407Y022835D01*
X014407Y023025D01*
X014334Y023200D01*
X014200Y023334D01*
X014025Y023407D01*
X013835Y023407D01*
X013660Y023334D01*
X013526Y023200D01*
X013485Y023102D02*
X013375Y023102D01*
X013407Y022944D02*
X013453Y022944D01*
X013474Y022785D02*
X013386Y022785D01*
X013301Y022627D02*
X013559Y022627D01*
X013799Y022468D02*
X013061Y022468D01*
X013225Y022310D02*
X013635Y022310D01*
X013660Y022334D02*
X013526Y022200D01*
X013453Y022025D01*
X013453Y021835D01*
X013526Y021660D01*
X013660Y021526D01*
X013835Y021453D01*
X014025Y021453D01*
X014200Y021526D01*
X014334Y021660D01*
X014407Y021835D01*
X014407Y022025D01*
X014334Y022200D01*
X014200Y022334D01*
X014025Y022407D01*
X013835Y022407D01*
X013660Y022334D01*
X013505Y022151D02*
X013355Y022151D01*
X013407Y021993D02*
X013453Y021993D01*
X013454Y021834D02*
X013406Y021834D01*
X013341Y021676D02*
X013519Y021676D01*
X013681Y021517D02*
X013179Y021517D01*
X012611Y021200D02*
X007559Y021200D01*
X005400Y021676D02*
X005360Y021676D01*
X005360Y021834D02*
X005400Y021834D01*
X005400Y021993D02*
X005360Y021993D01*
X005360Y022151D02*
X005400Y022151D01*
X005400Y022310D02*
X005360Y022310D01*
X005360Y022468D02*
X005400Y022468D01*
X005360Y022580D02*
X005021Y022580D01*
X005360Y022580D01*
X005360Y022627D02*
X005400Y022627D01*
X005400Y022785D02*
X005360Y022785D01*
X005360Y022944D02*
X005400Y022944D01*
X005021Y022580D02*
X004943Y022592D01*
X004868Y022617D01*
X004798Y022652D01*
X004734Y022699D01*
X004679Y022754D01*
X004635Y022814D01*
X004635Y022346D01*
X004679Y022406D01*
X004734Y022461D01*
X004798Y022508D01*
X004868Y022543D01*
X004943Y022568D01*
X005021Y022580D01*
X004849Y022627D02*
X004635Y022627D01*
X004635Y022785D02*
X004656Y022785D01*
X004635Y022468D02*
X004743Y022468D01*
X004766Y021676D02*
X004635Y021676D01*
X004635Y021517D02*
X004861Y021517D01*
X004660Y021359D02*
X004635Y021359D01*
X010385Y016921D02*
X010405Y016921D01*
X010385Y016762D02*
X010470Y016762D01*
X010470Y016604D02*
X010385Y016604D01*
X010385Y016445D02*
X010470Y016445D01*
X010470Y016287D02*
X010385Y016287D01*
X010385Y016128D02*
X010470Y016128D01*
X010470Y015970D02*
X010385Y015970D01*
X010385Y015811D02*
X010470Y015811D01*
X010470Y015653D02*
X010385Y015653D01*
X010890Y016287D02*
X011975Y016287D01*
X011980Y016445D02*
X015380Y016445D01*
X015386Y016921D02*
X011974Y016921D01*
X011386Y016921D02*
X010955Y016921D01*
X010890Y016762D02*
X011305Y016762D01*
X011302Y016604D02*
X010890Y016604D01*
X010890Y016445D02*
X011380Y016445D01*
X010965Y014860D02*
X010890Y014860D01*
X010890Y014702D02*
X015051Y014702D01*
X014930Y014823D02*
X014930Y014823D01*
X014611Y015336D02*
X014510Y015336D01*
X014524Y015811D02*
X014611Y015811D01*
X015875Y015336D02*
X016727Y015336D01*
X016886Y015177D02*
X015827Y015177D01*
X015875Y014543D02*
X016440Y014543D01*
X016598Y014385D02*
X015875Y014385D01*
X015875Y014226D02*
X016757Y014226D01*
X016915Y014068D02*
X015875Y014068D01*
X015875Y013909D02*
X017074Y013909D01*
X017232Y013751D02*
X015859Y013751D01*
X015898Y013592D02*
X019924Y013592D01*
X020527Y013592D02*
X020593Y013592D01*
X020600Y013275D02*
X020520Y013275D01*
X019882Y014226D02*
X017351Y014226D01*
X017192Y014385D02*
X022480Y014385D01*
X022480Y014543D02*
X017034Y014543D01*
X016875Y014702D02*
X022480Y014702D01*
X022480Y014860D02*
X016717Y014860D01*
X016558Y015019D02*
X017044Y015019D01*
X018316Y015019D02*
X022480Y015019D01*
X022480Y015177D02*
X018474Y015177D01*
X023883Y014702D02*
X024265Y014702D01*
X024106Y014543D02*
X023977Y014543D01*
X025900Y015494D02*
X025969Y015494D01*
X025900Y015653D02*
X027670Y015653D01*
X027670Y015811D02*
X025900Y015811D01*
X026411Y015494D02*
X027670Y015494D01*
X027670Y015336D02*
X027377Y015336D01*
X027377Y015177D02*
X027670Y015177D01*
X027512Y015019D02*
X027377Y015019D01*
X027377Y014860D02*
X027503Y014860D01*
X027503Y014702D02*
X027377Y014702D01*
X026663Y015336D02*
X026535Y015336D01*
X030532Y012641D02*
X031179Y012641D01*
X031020Y012483D02*
X030761Y012483D01*
X031297Y013490D02*
X031297Y013490D01*
X032485Y013680D02*
X032557Y013752D01*
X032557Y014278D01*
X032463Y014371D01*
X032390Y014371D01*
X032390Y014489D01*
X032463Y014489D01*
X032557Y014582D01*
X032557Y014635D01*
X032822Y014635D01*
X033007Y014820D01*
X033130Y014943D01*
X033130Y016473D01*
X033267Y016610D01*
X033524Y016610D01*
X033590Y016544D01*
X034608Y016544D01*
X034631Y016566D01*
X034657Y016566D01*
X034657Y016495D01*
X034712Y016364D01*
X034802Y016273D01*
X034169Y016273D01*
X034169Y015770D01*
X034009Y015770D01*
X034009Y015610D01*
X033220Y015610D01*
X033220Y015263D01*
X033233Y015217D01*
X033253Y015182D01*
X033233Y015147D01*
X033220Y015101D01*
X033220Y014754D01*
X034009Y014754D01*
X034009Y014594D01*
X033220Y014594D01*
X033220Y014247D01*
X033233Y014201D01*
X033256Y014160D01*
X033290Y014127D01*
X033331Y014103D01*
X033377Y014091D01*
X034009Y014091D01*
X034009Y014594D01*
X034169Y014594D01*
X034169Y014091D01*
X034802Y014091D01*
X034712Y014000D01*
X034657Y013869D01*
X034657Y013800D01*
X034653Y013804D01*
X034612Y013828D01*
X034566Y013840D01*
X034099Y013840D01*
X033633Y013840D01*
X033587Y013828D01*
X033546Y013804D01*
X033512Y013771D01*
X033489Y013730D01*
X033476Y013684D01*
X033476Y013562D01*
X034099Y013562D01*
X034099Y013562D01*
X034099Y013840D01*
X034099Y013562D01*
X034099Y013562D01*
X033476Y013562D01*
X033476Y013478D01*
X033450Y013541D01*
X033361Y013630D01*
X033243Y013679D01*
X033117Y013679D01*
X032999Y013630D01*
X032910Y013541D01*
X032861Y013423D01*
X032861Y013297D01*
X032868Y013279D01*
X032710Y013437D01*
X032587Y013560D01*
X032557Y013560D01*
X032557Y013608D01*
X032485Y013680D01*
X032556Y013751D02*
X033501Y013751D01*
X033476Y013592D02*
X033399Y013592D01*
X032961Y013592D02*
X032557Y013592D01*
X032713Y013434D02*
X032865Y013434D01*
X032557Y013909D02*
X034674Y013909D01*
X034779Y014068D02*
X032557Y014068D01*
X032557Y014226D02*
X033226Y014226D01*
X033220Y014385D02*
X032390Y014385D01*
X032517Y014543D02*
X033220Y014543D01*
X033220Y014860D02*
X033047Y014860D01*
X033130Y015019D02*
X033220Y015019D01*
X033250Y015177D02*
X033130Y015177D01*
X033130Y015336D02*
X033220Y015336D01*
X033220Y015494D02*
X033130Y015494D01*
X033130Y015653D02*
X034009Y015653D01*
X034009Y015610D02*
X034169Y015610D01*
X034169Y014754D01*
X034009Y014754D01*
X034009Y015258D01*
X034009Y015610D01*
X034009Y015494D02*
X034169Y015494D01*
X034169Y015610D02*
X034169Y015770D01*
X034795Y015770D01*
X035486Y015770D01*
X035486Y016273D01*
X035227Y016273D01*
X035317Y016364D01*
X035372Y016495D01*
X035372Y016637D01*
X035344Y016704D01*
X035373Y016692D01*
X035523Y016692D01*
X035662Y016749D01*
X035768Y016856D01*
X035826Y016995D01*
X035826Y017145D01*
X035768Y017284D01*
X035662Y017391D01*
X035523Y017448D01*
X035373Y017448D01*
X035234Y017391D01*
X035153Y017310D01*
X034916Y017310D01*
X034828Y017273D01*
X034702Y017148D01*
X034702Y017881D01*
X034710Y017894D01*
X034722Y017940D01*
X034722Y018062D01*
X034722Y018085D01*
X034812Y017995D01*
X034944Y017941D01*
X035086Y017941D01*
X035217Y017995D01*
X035317Y018096D01*
X035372Y018227D01*
X035372Y018369D01*
X035317Y018500D01*
X035227Y018591D01*
X035486Y018591D01*
X035486Y019094D01*
X035646Y019094D01*
X035646Y018591D01*
X035975Y018591D01*
X035975Y016273D01*
X035646Y016273D01*
X035646Y015770D01*
X035486Y015770D01*
X035486Y015610D01*
X035646Y015610D01*
X035646Y014754D01*
X035486Y014754D01*
X035486Y015106D01*
X035486Y015610D01*
X034169Y015610D01*
X034169Y015653D02*
X035486Y015653D01*
X035486Y015811D02*
X035646Y015811D01*
X035646Y015970D02*
X035486Y015970D01*
X035486Y016128D02*
X035646Y016128D01*
X035975Y016287D02*
X035240Y016287D01*
X035351Y016445D02*
X035975Y016445D01*
X035975Y016604D02*
X035372Y016604D01*
X035674Y016762D02*
X035975Y016762D01*
X035975Y016921D02*
X035795Y016921D01*
X035826Y017079D02*
X035975Y017079D01*
X035975Y017238D02*
X035788Y017238D01*
X035649Y017396D02*
X035975Y017396D01*
X035975Y017555D02*
X034702Y017555D01*
X034702Y017713D02*
X035975Y017713D01*
X035975Y017872D02*
X034702Y017872D01*
X034722Y018030D02*
X034778Y018030D01*
X034722Y018062D02*
X034099Y018062D01*
X034722Y018062D01*
X034657Y018347D02*
X032848Y018347D01*
X032692Y018347D02*
X030821Y018347D01*
X030208Y018347D02*
X030152Y018347D01*
X029539Y018347D02*
X028364Y018347D01*
X025900Y018506D02*
X025900Y018506D01*
X025900Y018664D02*
X025900Y018664D01*
X025900Y018823D02*
X025900Y018823D01*
X025900Y018981D02*
X025900Y018981D01*
X028295Y021042D02*
X029567Y021042D01*
X030123Y021042D02*
X030237Y021042D01*
X030793Y021042D02*
X031469Y021042D01*
X031469Y020408D02*
X030871Y020408D01*
X030871Y019932D02*
X032720Y019932D01*
X032720Y019774D02*
X032649Y019774D01*
X033140Y019774D02*
X035847Y019774D01*
X035799Y019932D02*
X033140Y019932D01*
X033290Y019722D02*
X033256Y019688D01*
X033233Y019647D01*
X033220Y019601D01*
X033220Y019254D01*
X034009Y019254D01*
X034009Y019758D01*
X033377Y019758D01*
X033331Y019745D01*
X033290Y019722D01*
X033224Y019615D02*
X033140Y019615D01*
X033140Y019457D02*
X033220Y019457D01*
X033220Y019298D02*
X033140Y019298D01*
X033140Y019140D02*
X034009Y019140D01*
X034009Y019298D02*
X034169Y019298D01*
X034169Y019254D02*
X034958Y019254D01*
X035486Y019254D01*
X035486Y019094D01*
X034169Y019094D01*
X034169Y019254D01*
X034169Y019140D02*
X035486Y019140D01*
X035486Y019298D02*
X035646Y019298D01*
X035646Y019457D02*
X035486Y019457D01*
X035486Y019615D02*
X035646Y019615D01*
X035646Y018981D02*
X035486Y018981D01*
X035486Y018823D02*
X035646Y018823D01*
X035646Y018664D02*
X035486Y018664D01*
X035312Y018506D02*
X035975Y018506D01*
X035975Y018347D02*
X035372Y018347D01*
X035356Y018189D02*
X035975Y018189D01*
X035975Y018030D02*
X035252Y018030D01*
X034717Y018506D02*
X033051Y018506D01*
X033089Y018664D02*
X033254Y018664D01*
X033220Y018823D02*
X033140Y018823D01*
X033140Y018981D02*
X033220Y018981D01*
X032489Y018506D02*
X032303Y018506D01*
X032058Y018189D02*
X033478Y018189D01*
X033476Y018030D02*
X032217Y018030D01*
X031469Y018981D02*
X030853Y018981D01*
X030871Y019457D02*
X030876Y019457D01*
X031153Y019774D02*
X031553Y019774D01*
X031469Y019615D02*
X031312Y019615D01*
X032098Y019774D02*
X032104Y019774D01*
X034009Y019615D02*
X034169Y019615D01*
X034169Y019457D02*
X034009Y019457D01*
X034009Y018981D02*
X034169Y018981D01*
X034169Y018823D02*
X034009Y018823D01*
X034009Y018664D02*
X034169Y018664D01*
X034099Y018189D02*
X034099Y018189D01*
X034099Y018062D02*
X034099Y018062D01*
X034702Y017396D02*
X035247Y017396D01*
X035448Y017070D02*
X034964Y017070D01*
X034700Y016806D01*
X034103Y016806D01*
X034099Y016802D02*
X034090Y016800D01*
X034702Y017238D02*
X034792Y017238D01*
X034678Y016445D02*
X033130Y016445D01*
X033130Y016287D02*
X034789Y016287D01*
X034169Y016128D02*
X034009Y016128D01*
X034009Y016273D02*
X034009Y015770D01*
X033220Y015770D01*
X033220Y016117D01*
X033233Y016163D01*
X033256Y016204D01*
X033290Y016237D01*
X033331Y016261D01*
X033377Y016273D01*
X034009Y016273D01*
X034009Y015970D02*
X034169Y015970D01*
X034169Y015811D02*
X034009Y015811D01*
X034009Y015336D02*
X034169Y015336D01*
X034169Y015177D02*
X034009Y015177D01*
X034009Y015019D02*
X034169Y015019D01*
X034169Y014860D02*
X034009Y014860D01*
X034009Y014702D02*
X032889Y014702D01*
X034009Y014543D02*
X034169Y014543D01*
X034169Y014594D02*
X034169Y014754D01*
X034958Y014754D01*
X035486Y014754D01*
X035486Y014594D01*
X034169Y014594D01*
X034169Y014702D02*
X035486Y014702D01*
X035486Y014860D02*
X035646Y014860D01*
X035646Y015019D02*
X035486Y015019D01*
X035486Y015177D02*
X035646Y015177D01*
X035646Y015336D02*
X035486Y015336D01*
X035486Y015494D02*
X035646Y015494D01*
X035646Y014543D02*
X035486Y014543D01*
X035486Y014385D02*
X035646Y014385D01*
X035646Y014226D02*
X035486Y014226D01*
X035250Y014068D02*
X035975Y014068D01*
X035975Y013909D02*
X035355Y013909D01*
X035372Y013751D02*
X035975Y013751D01*
X035975Y013592D02*
X035314Y013592D01*
X034722Y013562D02*
X034099Y013562D01*
X034099Y013562D01*
X034722Y013562D01*
X034721Y013434D02*
X035975Y013434D01*
X035975Y013275D02*
X034702Y013275D01*
X034702Y013117D02*
X035975Y013117D01*
X035975Y012958D02*
X034702Y012958D01*
X034702Y012800D02*
X035223Y012800D01*
X035169Y012491D02*
X034873Y012491D01*
X034684Y012302D01*
X034099Y012302D01*
X034120Y012300D01*
X034657Y012007D02*
X032654Y012007D01*
X032495Y011849D02*
X034727Y011849D01*
X034169Y011690D02*
X034009Y011690D01*
X034009Y011532D02*
X034169Y011532D01*
X034169Y011373D02*
X034009Y011373D01*
X034009Y010898D02*
X034169Y010898D01*
X034169Y010739D02*
X034009Y010739D01*
X034009Y010581D02*
X034169Y010581D01*
X034169Y010422D02*
X034009Y010422D01*
X034009Y010264D02*
X034169Y010264D01*
X034169Y009788D02*
X034009Y009788D01*
X034009Y009630D02*
X034169Y009630D01*
X034722Y008996D02*
X034808Y008996D01*
X034702Y008837D02*
X035975Y008837D01*
X035975Y008679D02*
X034702Y008679D01*
X034702Y008520D02*
X035281Y008520D01*
X035615Y008520D02*
X035975Y008520D01*
X035975Y008362D02*
X035782Y008362D01*
X035826Y008203D02*
X035975Y008203D01*
X035975Y008045D02*
X035801Y008045D01*
X035688Y007886D02*
X035975Y007886D01*
X035975Y007728D02*
X035333Y007728D01*
X035372Y007569D02*
X035975Y007569D01*
X035975Y007411D02*
X035339Y007411D01*
X035486Y007252D02*
X035646Y007252D01*
X035646Y007094D02*
X035486Y007094D01*
X035486Y006935D02*
X035646Y006935D01*
X035646Y006777D02*
X035486Y006777D01*
X035486Y006766D02*
X035486Y006606D01*
X034169Y006606D01*
X034169Y006766D01*
X034958Y006766D01*
X035486Y006766D01*
X035486Y006618D02*
X034169Y006618D01*
X034169Y006460D02*
X034009Y006460D01*
X034009Y006301D02*
X034169Y006301D01*
X034169Y006143D02*
X034009Y006143D01*
X034009Y006777D02*
X034169Y006777D01*
X034169Y006935D02*
X034009Y006935D01*
X034009Y007094D02*
X034169Y007094D01*
X034169Y007252D02*
X034009Y007252D01*
X034692Y007798D02*
X035074Y008180D01*
X035448Y008180D01*
X035207Y007886D02*
X035165Y007886D01*
X034757Y008203D02*
X034702Y008203D01*
X034702Y008362D02*
X034916Y008362D01*
X035221Y008996D02*
X035975Y008996D01*
X035975Y009154D02*
X035343Y009154D01*
X035372Y009313D02*
X035975Y009313D01*
X035975Y009471D02*
X035328Y009471D01*
X035486Y009630D02*
X035646Y009630D01*
X035646Y009788D02*
X035486Y009788D01*
X035486Y009947D02*
X035646Y009947D01*
X035646Y011373D02*
X035486Y011373D01*
X035486Y011532D02*
X035646Y011532D01*
X035646Y011690D02*
X035486Y011690D01*
X035302Y011849D02*
X035975Y011849D01*
X035975Y012007D02*
X035372Y012007D01*
X035652Y012166D02*
X035975Y012166D01*
X035975Y012324D02*
X035788Y012324D01*
X035826Y012483D02*
X035975Y012483D01*
X035975Y012641D02*
X035794Y012641D01*
X035673Y012800D02*
X035975Y012800D01*
X035448Y012490D02*
X035169Y012491D01*
X034099Y013592D02*
X034099Y013592D01*
X034099Y013751D02*
X034099Y013751D01*
X034169Y014226D02*
X034009Y014226D01*
X034009Y014385D02*
X034169Y014385D01*
X033220Y015811D02*
X033130Y015811D01*
X033130Y015970D02*
X033220Y015970D01*
X033223Y016128D02*
X033130Y016128D01*
X033261Y016604D02*
X033530Y016604D01*
X033248Y011690D02*
X032390Y011690D01*
X032390Y011532D02*
X033220Y011532D01*
X035486Y006460D02*
X035646Y006460D01*
X035646Y006301D02*
X035486Y006301D01*
X035486Y006143D02*
X035646Y006143D01*
X033046Y004241D02*
X032319Y004241D01*
X032403Y004082D02*
X033135Y004082D01*
X031948Y004082D02*
X031912Y004082D01*
X031912Y004241D02*
X031948Y004241D01*
X031541Y004241D02*
X031319Y004241D01*
X031403Y004082D02*
X031457Y004082D01*
X031461Y003765D02*
X031399Y003765D01*
X031309Y003607D02*
X031551Y003607D01*
X030948Y003607D02*
X030912Y003607D01*
X030912Y003765D02*
X030948Y003765D01*
X030551Y003607D02*
X030281Y003607D01*
X030378Y003765D02*
X030461Y003765D01*
X030587Y003290D02*
X030245Y003290D01*
X030363Y003131D02*
X030475Y003131D01*
X030434Y002973D02*
X030407Y002973D01*
X030330Y002656D02*
X030515Y002656D01*
X030685Y002497D02*
X030131Y002497D01*
X030912Y002497D02*
X030948Y002497D01*
X030948Y002656D02*
X030912Y002656D01*
X030912Y002814D02*
X030948Y002814D01*
X032175Y002497D02*
X032269Y002497D01*
X030948Y004082D02*
X030912Y004082D01*
X030912Y004241D02*
X030948Y004241D01*
X028796Y005192D02*
X027399Y005192D01*
X027387Y005180D02*
X027680Y005473D01*
X027680Y005660D01*
X027200Y005660D01*
X027200Y005700D01*
X027160Y005700D01*
X027160Y006180D01*
X026973Y006180D01*
X026680Y005887D01*
X026680Y005700D01*
X027160Y005700D01*
X027160Y005660D01*
X027200Y005660D01*
X027200Y005180D01*
X027387Y005180D01*
X027200Y005192D02*
X027160Y005192D01*
X027160Y005180D02*
X027160Y005660D01*
X026680Y005660D01*
X026680Y005473D01*
X026973Y005180D01*
X027160Y005180D01*
X027160Y005350D02*
X027200Y005350D01*
X027200Y005509D02*
X027160Y005509D01*
X027160Y005667D02*
X026390Y005667D01*
X026390Y005826D02*
X026680Y005826D01*
X026777Y005984D02*
X026390Y005984D01*
X026439Y006143D02*
X026935Y006143D01*
X026880Y006301D02*
X026598Y006301D01*
X027160Y006143D02*
X027200Y006143D01*
X027200Y005984D02*
X027160Y005984D01*
X027160Y005826D02*
X027200Y005826D01*
X027200Y005667D02*
X027700Y005667D01*
X027700Y005509D02*
X027680Y005509D01*
X027557Y005350D02*
X027831Y005350D01*
X027700Y005826D02*
X027680Y005826D01*
X027470Y006143D02*
X027425Y006143D01*
X028396Y006143D02*
X028421Y006143D01*
X028555Y005984D02*
X028579Y005984D01*
X028660Y005826D02*
X028700Y005826D01*
X028700Y005667D02*
X028660Y005667D01*
X028660Y005509D02*
X028700Y005509D01*
X028831Y005350D02*
X028529Y005350D01*
X028637Y005033D02*
X025830Y005033D01*
X025988Y005192D02*
X026961Y005192D01*
X026803Y005350D02*
X026147Y005350D01*
X026305Y005509D02*
X026680Y005509D01*
X014541Y004241D02*
X014294Y004241D01*
X014383Y004082D02*
X014457Y004082D01*
X009948Y004082D02*
X009912Y004082D01*
X009912Y004241D02*
X009948Y004241D01*
X012006Y020249D02*
X012407Y020249D01*
X012259Y020408D02*
X012155Y020408D01*
X012075Y021042D02*
X012327Y021042D01*
X014179Y021517D02*
X014681Y021517D01*
X014519Y021676D02*
X014341Y021676D01*
X014406Y021834D02*
X014454Y021834D01*
X014453Y021993D02*
X014407Y021993D01*
X014355Y022151D02*
X014505Y022151D01*
X014635Y022310D02*
X014225Y022310D01*
X014061Y022468D02*
X014799Y022468D01*
X015061Y022468D02*
X015145Y022468D01*
X014559Y022627D02*
X014301Y022627D01*
X014386Y022785D02*
X014474Y022785D01*
X014453Y022944D02*
X014407Y022944D01*
X014375Y023102D02*
X014485Y023102D01*
X014586Y023261D02*
X014274Y023261D01*
X017274Y023261D02*
X017586Y023261D01*
X017485Y023102D02*
X017375Y023102D01*
X017407Y022944D02*
X017453Y022944D01*
X017474Y022785D02*
X017386Y022785D01*
X017301Y022627D02*
X017559Y022627D01*
X018301Y022627D02*
X018559Y022627D01*
X018474Y022785D02*
X018386Y022785D01*
X018407Y022944D02*
X018453Y022944D01*
X018485Y023102D02*
X018375Y023102D01*
X018274Y023261D02*
X018586Y023261D01*
X019274Y023261D02*
X019586Y023261D01*
X019485Y023102D02*
X019375Y023102D01*
X019407Y022944D02*
X019453Y022944D01*
X019474Y022785D02*
X019386Y022785D01*
X019301Y022627D02*
X019559Y022627D01*
X020301Y022627D02*
X020559Y022627D01*
X020474Y022785D02*
X020386Y022785D01*
X020407Y022944D02*
X020453Y022944D01*
X020485Y023102D02*
X020375Y023102D01*
X020274Y023261D02*
X020586Y023261D01*
X021274Y023261D02*
X021586Y023261D01*
X021485Y023102D02*
X021375Y023102D01*
X021407Y022944D02*
X021453Y022944D01*
X021474Y022785D02*
X021386Y022785D01*
X021301Y022627D02*
X021559Y022627D01*
X023061Y022468D02*
X023799Y022468D01*
X024301Y022627D02*
X024559Y022627D01*
X024474Y022785D02*
X024386Y022785D01*
X024407Y022944D02*
X024453Y022944D01*
X024485Y023102D02*
X024375Y023102D01*
X024274Y023261D02*
X024586Y023261D01*
X025274Y023261D02*
X025586Y023261D01*
X025485Y023102D02*
X025375Y023102D01*
X025407Y022944D02*
X025453Y022944D01*
X025474Y022785D02*
X025386Y022785D01*
X025301Y022627D02*
X025559Y022627D01*
X026301Y022627D02*
X026559Y022627D01*
X026474Y022785D02*
X026386Y022785D01*
X026407Y022944D02*
X026453Y022944D01*
X026485Y023102D02*
X026375Y023102D01*
X026274Y023261D02*
X026586Y023261D01*
X027274Y023261D02*
X027586Y023261D01*
X027485Y023102D02*
X027375Y023102D01*
X027407Y022944D02*
X027453Y022944D01*
X027474Y022785D02*
X027386Y022785D01*
X027301Y022627D02*
X027559Y022627D01*
X028301Y022627D02*
X028559Y022627D01*
X028474Y022785D02*
X028386Y022785D01*
X028407Y022944D02*
X028453Y022944D01*
X028485Y023102D02*
X028375Y023102D01*
X028274Y023261D02*
X028586Y023261D01*
X029274Y023261D02*
X029586Y023261D01*
X029485Y023102D02*
X029375Y023102D01*
X029407Y022944D02*
X029453Y022944D01*
X029474Y022785D02*
X029386Y022785D01*
X029301Y022627D02*
X029559Y022627D01*
X030301Y022627D02*
X030559Y022627D01*
X030474Y022785D02*
X030386Y022785D01*
X030407Y022944D02*
X030453Y022944D01*
X030485Y023102D02*
X030375Y023102D01*
X030274Y023261D02*
X030586Y023261D01*
X031274Y023261D02*
X031586Y023261D01*
X031485Y023102D02*
X031375Y023102D01*
X031407Y022944D02*
X031453Y022944D01*
X031474Y022785D02*
X031386Y022785D01*
X031301Y022627D02*
X031559Y022627D01*
X032355Y022151D02*
X033700Y022151D01*
X033350Y021993D02*
X032407Y021993D01*
X032406Y021834D02*
X033191Y021834D01*
X033069Y021676D02*
X032341Y021676D01*
D38*
X025680Y019180D02*
X025180Y019680D01*
X025680Y019180D02*
X025680Y014360D01*
X026300Y013730D01*
X026300Y012650D01*
X026580Y012370D01*
X027078Y012370D01*
X027390Y012373D02*
X027390Y012650D01*
X027200Y012840D01*
X026970Y012840D01*
X026890Y012920D01*
X026890Y013380D01*
X027360Y013070D02*
X027360Y013770D01*
X027360Y013070D02*
X027708Y012722D01*
X027708Y012370D01*
X028337Y012370D02*
X028337Y013023D01*
X028230Y013170D01*
X028660Y013610D02*
X028840Y013790D01*
X028660Y013610D02*
X028660Y012378D01*
X025410Y013850D02*
X025410Y010900D01*
X024910Y011260D02*
X024910Y013130D01*
X024640Y013400D01*
X023954Y010302D02*
X024081Y010175D01*
X025460Y010175D02*
X025475Y010160D01*
X025690Y010160D01*
X025957Y009893D01*
X026490Y009893D01*
X025460Y009505D02*
X025460Y008215D01*
X029873Y009890D02*
X030230Y009890D01*
X030370Y009750D01*
X030370Y006940D01*
X030370Y006520D01*
X030710Y006180D01*
X034089Y006686D02*
X035566Y006686D01*
X035566Y010170D02*
X035566Y011190D01*
X034089Y011190D01*
X034089Y010170D01*
X034089Y014674D02*
X034089Y015690D01*
X035566Y015690D01*
X035566Y014674D01*
X017680Y015680D02*
X017180Y016180D01*
X012180Y016180D01*
X011180Y015180D01*
X011680Y016680D02*
X015680Y016680D01*
X014180Y010180D02*
X014180Y007680D01*
X015680Y007680D02*
X015845Y007845D01*
X016680Y007845D01*
X016680Y007110D02*
X016680Y006515D01*
X015680Y005680D02*
X015680Y007680D01*
X016680Y008515D02*
X016680Y009080D01*
X012680Y009180D02*
X011680Y009180D01*
X010820Y008320D01*
X004257Y008320D01*
X004257Y008005D02*
X006355Y008005D01*
X006680Y007680D01*
X006180Y007180D02*
X005670Y007690D01*
X004257Y007690D01*
D39*
X006180Y007180D03*
X006680Y007680D03*
X013680Y011680D03*
X013680Y012350D03*
X012180Y013680D03*
X012180Y014680D03*
X015870Y012430D03*
X016680Y011680D03*
X019180Y011680D03*
X018680Y014680D03*
X024180Y017180D03*
X024680Y017680D03*
X025030Y018330D03*
X025180Y019680D03*
X026180Y016180D03*
X031180Y013040D03*
X033180Y013360D03*
X029120Y010680D03*
X028560Y010070D03*
X028180Y009680D03*
X029040Y009670D03*
X031170Y008590D03*
X032560Y008740D03*
X031180Y006680D03*
X022680Y007180D03*
X032770Y018660D03*
M02*
