%
M48
M72
T01C0.0118
T02C0.0236
T03C0.0354
T04C0.0394
T05C0.0400
T06C0.1250
%
T01
X6180Y7180
X6680Y7680
X13680Y11680
X13680Y12350
X12180Y13680
X12180Y14680
X15870Y12430
X16680Y11680
X19180Y11680
X18680Y14680
X24180Y17180
X24680Y17680
X25030Y18330
X25180Y19680
X26180Y16180
X31180Y13040
X33180Y13360
X29120Y10680
X28560Y10070
X28180Y9680
X29040Y9670
X31170Y8590
X32560Y8740
X31180Y6680
X22680Y7180
X32770Y18660
T02
X31630Y17380
X30780Y17330
X32180Y16680
X35448Y17070
X29760Y12970
X30440Y12270
X31690Y11840
X31680Y11180
X28230Y13170
X28840Y13790
X27360Y13770
X26850Y13390
X25410Y13850
X26310Y14430
X26190Y15180
X24640Y13400
X23610Y14440
X21680Y13920
X22180Y12940
X21450Y11930
X24910Y11260
X25410Y10900
X25900Y11470
X26460Y8760
X26930Y8330
X25400Y6630
X25390Y5840
X22360Y6630
X22200Y6050
X21680Y5680
X20180Y5180
X20180Y6510
X20180Y8520
X16680Y9080
X16680Y7110
X14180Y7680
X14180Y10180
X12180Y11680
X14950Y12310
X15520Y13580
X14220Y15580
X15680Y16680
X17680Y15680
X19500Y17320
X19490Y19000
X26220Y17450
X28180Y18680
X28180Y19680
X28180Y20680
X35448Y12490
X31680Y8680
X30780Y8180
X35448Y8180
X11680Y16680
X10680Y17180
X11180Y15180
T03
X3341Y8556
X3341Y6824
X35015Y7562
X35015Y9294
X35015Y12066
X35015Y13798
X35015Y16566
X35015Y18298
T04
X31930Y21930
X30930Y21930
X29930Y21930
X28930Y21930
X27930Y21930
X26930Y21930
X25930Y21930
X24930Y21930
X23930Y21930
X22930Y21930
X21930Y21930
X20930Y21930
X19930Y21930
X18930Y21930
X17930Y21930
X16930Y21930
X15930Y21930
X14930Y21930
X13930Y21930
X12930Y21930
X11930Y21930
X10930Y21930
X9930Y21930
X9930Y22930
X10930Y22930
X11930Y22930
X12930Y22930
X13930Y22930
X14930Y22930
X15930Y22930
X16930Y22930
X17930Y22930
X18930Y22930
X19930Y22930
X20930Y22930
X21930Y22930
X22930Y22930
X23930Y22930
X24930Y22930
X25930Y22930
X26930Y22930
X27930Y22930
X28930Y22930
X29930Y22930
X30930Y22930
X31930Y22930
X31930Y3930
X30930Y3930
X29930Y3930
X28930Y3930
X27930Y3930
X26930Y3930
X25930Y3930
X24930Y3930
X23930Y3930
X22930Y3930
X21930Y3930
X20930Y3930
X19930Y3930
X18930Y3930
X17930Y3930
X16930Y3930
X15930Y3930
X14930Y3930
X13930Y3930
X12930Y3930
X11930Y3930
X10930Y3930
X9930Y3930
X9930Y2930
X10930Y2930
X11930Y2930
X12930Y2930
X13930Y2930
X14930Y2930
X15930Y2930
X16930Y2930
X17930Y2930
X18930Y2930
X19930Y2930
X20930Y2930
X21930Y2930
X22930Y2930
X23930Y2930
X24930Y2930
X25930Y2930
X26930Y2930
X27930Y2930
X28930Y2930
X29930Y2930
X30930Y2930
X31930Y2930
T05
X29180Y5680
X28180Y5680
X27180Y5680
X27180Y6680
X28180Y6680
X29180Y6680
X12680Y6180
X12680Y7180
X12680Y8180
X12680Y9180
X5380Y18080
X5380Y19080
X5380Y20080
X5380Y21080
X5380Y22080
X5380Y23080
X11715Y20680
X12715Y20680
X21180Y20680
X22180Y20680
X23180Y20680
T06
X7930Y3430
X33930Y4680
X33930Y21180
M30
