G75*
G70*
%OFA0B0*%
%FSLAX24Y24*%
%IPPOS*%
%LPD*%
%AMOC8*
5,1,8,0,0,1.08239X$1,22.5*
%
%ADD10C,0.0100*%
%ADD11C,0.0160*%
%ADD12C,0.0030*%
%ADD13C,0.0090*%
%ADD14R,0.0006X0.0156*%
%ADD15R,0.0006X0.0144*%
%ADD16R,0.0006X0.0216*%
%ADD17R,0.0006X0.0246*%
%ADD18R,0.0006X0.0264*%
%ADD19R,0.0006X0.0270*%
%ADD20R,0.0006X0.0288*%
%ADD21R,0.0006X0.0294*%
%ADD22R,0.0006X0.0318*%
%ADD23R,0.0006X0.0306*%
%ADD24R,0.0006X0.0330*%
%ADD25R,0.0006X0.0342*%
%ADD26R,0.0006X0.0324*%
%ADD27R,0.0006X0.0354*%
%ADD28R,0.0006X0.0360*%
%ADD29R,0.0006X0.0336*%
%ADD30R,0.0006X0.0348*%
%ADD31R,0.0006X0.0372*%
%ADD32R,0.0006X0.0378*%
%ADD33R,0.0006X0.0384*%
%ADD34R,0.0006X0.0366*%
%ADD35R,0.0006X0.0390*%
%ADD36R,0.0006X0.0384*%
%ADD37R,0.0006X0.0378*%
%ADD38R,0.0006X0.0396*%
%ADD39R,0.0006X0.0354*%
%ADD40R,0.0006X0.0990*%
%ADD41R,0.0006X0.0984*%
%ADD42R,0.0006X0.0978*%
%ADD43R,0.0006X0.0966*%
%ADD44R,0.0006X0.0960*%
%ADD45R,0.0006X0.0954*%
%ADD46R,0.0006X0.0948*%
%ADD47R,0.0006X0.0936*%
%ADD48R,0.0006X0.0930*%
%ADD49R,0.0006X0.0924*%
%ADD50R,0.0006X0.0918*%
%ADD51R,0.0006X0.0906*%
%ADD52R,0.0006X0.0900*%
%ADD53R,0.0006X0.0894*%
%ADD54R,0.0006X0.0888*%
%ADD55R,0.0006X0.0876*%
%ADD56R,0.0006X0.0870*%
%ADD57R,0.0006X0.0864*%
%ADD58R,0.0006X0.0858*%
%ADD59R,0.0006X0.0846*%
%ADD60R,0.0006X0.0840*%
%ADD61R,0.0006X0.0834*%
%ADD62R,0.0006X0.0828*%
%ADD63R,0.0006X0.0816*%
%ADD64R,0.0006X0.0810*%
%ADD65R,0.0006X0.0804*%
%ADD66R,0.0006X0.0798*%
%ADD67R,0.0006X0.0792*%
%ADD68R,0.0006X0.0786*%
%ADD69R,0.0006X0.0780*%
%ADD70R,0.0006X0.0774*%
%ADD71R,0.0006X0.0768*%
%ADD72R,0.0006X0.0762*%
%ADD73R,0.0006X0.0756*%
%ADD74R,0.0006X0.0750*%
%ADD75R,0.0006X0.0744*%
%ADD76R,0.0006X0.0030*%
%ADD77R,0.0006X0.0738*%
%ADD78R,0.0006X0.0186*%
%ADD79R,0.0006X0.0732*%
%ADD80R,0.0006X0.0096*%
%ADD81R,0.0006X0.1542*%
%ADD82R,0.0006X0.1566*%
%ADD83R,0.0006X0.1584*%
%ADD84R,0.0006X0.1602*%
%ADD85R,0.0006X0.1614*%
%ADD86R,0.0006X0.1626*%
%ADD87R,0.0006X0.1638*%
%ADD88R,0.0006X0.1644*%
%ADD89R,0.0006X0.1650*%
%ADD90R,0.0006X0.1656*%
%ADD91R,0.0006X0.1662*%
%ADD92R,0.0006X0.1668*%
%ADD93R,0.0006X0.1674*%
%ADD94R,0.0006X0.1680*%
%ADD95R,0.0006X0.1686*%
%ADD96R,0.0006X0.1674*%
%ADD97R,0.0006X0.1620*%
%ADD98R,0.0006X0.1608*%
%ADD99R,0.0006X0.1590*%
%ADD100R,0.0006X0.1572*%
%ADD101R,0.0006X0.1548*%
%ADD102R,0.0006X0.1524*%
%ADD103R,0.0006X0.1494*%
%ADD104R,0.0006X0.1452*%
%ADD105R,0.0006X0.1392*%
%ADD106R,0.0006X0.1284*%
%ADD107R,0.0006X0.1164*%
%ADD108R,0.0006X0.1074*%
%ADD109R,0.0006X0.1056*%
%ADD110R,0.0006X0.1032*%
%ADD111R,0.0006X0.0714*%
%ADD112R,0.0006X0.0054*%
%ADD113R,0.0006X0.0684*%
%ADD114R,0.0006X0.0672*%
%ADD115R,0.0006X0.1050*%
%ADD116R,0.0006X0.1122*%
%ADD117R,0.0006X0.1182*%
%ADD118R,0.0006X0.1224*%
%ADD119R,0.0006X0.1266*%
%ADD120R,0.0006X0.1296*%
%ADD121R,0.0006X0.1326*%
%ADD122R,0.0006X0.1350*%
%ADD123R,0.0006X0.1368*%
%ADD124R,0.0006X0.1404*%
%ADD125R,0.0006X0.1416*%
%ADD126R,0.0006X0.1440*%
%ADD127R,0.0006X0.1446*%
%ADD128R,0.0006X0.1458*%
%ADD129R,0.0006X0.1470*%
%ADD130R,0.0006X0.1482*%
%ADD131R,0.0006X0.1488*%
%ADD132R,0.0006X0.1500*%
%ADD133R,0.0006X0.1512*%
%ADD134R,0.0006X0.1536*%
%ADD135R,0.0006X0.1560*%
%ADD136R,0.0006X0.1584*%
%ADD137R,0.0006X0.0240*%
%ADD138R,0.0006X0.0222*%
%ADD139R,0.0006X0.0666*%
%ADD140R,0.0006X0.0204*%
%ADD141R,0.0006X0.0480*%
%ADD142R,0.0006X0.0192*%
%ADD143R,0.0006X0.0180*%
%ADD144R,0.0006X0.0318*%
%ADD145R,0.0006X0.0174*%
%ADD146R,0.0006X0.0276*%
%ADD147R,0.0006X0.0168*%
%ADD148R,0.0006X0.0162*%
%ADD149R,0.0006X0.0168*%
%ADD150R,0.0006X0.0234*%
%ADD151R,0.0006X0.0210*%
%ADD152R,0.0006X0.0048*%
%ADD153R,0.0006X0.0198*%
%ADD154R,0.0006X0.0108*%
%ADD155R,0.0006X0.0150*%
%ADD156R,0.0006X0.0138*%
%ADD157R,0.0006X0.0114*%
%ADD158R,0.0006X0.0234*%
%ADD159R,0.0006X0.0174*%
%ADD160R,0.0006X0.0228*%
%ADD161R,0.0006X0.0258*%
%ADD162R,0.0006X0.0264*%
%ADD163R,0.0006X0.0138*%
%ADD164R,0.0006X0.0288*%
%ADD165R,0.0006X0.0294*%
%ADD166R,0.0006X0.0144*%
%ADD167R,0.0006X0.0300*%
%ADD168R,0.0006X0.0312*%
%ADD169R,0.0006X0.0132*%
%ADD170R,0.0006X0.0348*%
%ADD171R,0.0006X0.0324*%
%ADD172R,0.0006X0.0126*%
%ADD173R,0.0006X0.0282*%
%ADD174R,0.0006X0.0090*%
%ADD175R,0.0006X0.0012*%
%ADD176R,0.0006X0.0204*%
%ADD177R,0.0006X0.0252*%
%ADD178R,0.0006X0.0420*%
%ADD179R,0.0006X0.0510*%
%ADD180R,0.0006X0.0606*%
%ADD181R,0.0006X0.0702*%
%ADD182R,0.0006X0.0468*%
%ADD183R,0.0006X0.1524*%
%ADD184R,0.0006X0.1494*%
%ADD185R,0.0006X0.1476*%
%ADD186R,0.0006X0.1464*%
%ADD187R,0.0006X0.1428*%
%ADD188R,0.0006X0.1386*%
%ADD189R,0.0006X0.1368*%
%ADD190R,0.0006X0.1332*%
%ADD191R,0.0006X0.1308*%
%ADD192R,0.0006X0.1278*%
%ADD193R,0.0006X0.1242*%
%ADD194R,0.0006X0.1212*%
%ADD195R,0.0006X0.1176*%
%ADD196R,0.0006X0.1134*%
%ADD197R,0.0006X0.1098*%
%ADD198R,0.0006X0.1044*%
%ADD199R,0.0006X0.0996*%
%ADD200R,0.0006X0.0720*%
%ADD201R,0.0006X0.0612*%
%ADD202R,0.0006X0.0498*%
%ADD203R,0.0021X0.0007*%
%ADD204R,0.0042X0.0007*%
%ADD205R,0.0056X0.0007*%
%ADD206R,0.0063X0.0007*%
%ADD207R,0.0063X0.0007*%
%ADD208R,0.0035X0.0007*%
%ADD209R,0.0042X0.0007*%
%ADD210R,0.0021X0.0007*%
%ADD211R,0.0021X0.0007*%
%ADD212R,0.0014X0.0007*%
%ADD213R,0.0014X0.0007*%
%ADD214R,0.0028X0.0007*%
%ADD215R,0.0007X0.0007*%
%ADD216R,0.0091X0.0007*%
%ADD217R,0.0147X0.0007*%
%ADD218R,0.0084X0.0007*%
%ADD219R,0.0035X0.0007*%
%ADD220R,0.0042X0.0007*%
%ADD221R,0.0028X0.0007*%
%ADD222R,0.0084X0.0007*%
%ADD223R,0.0028X0.0007*%
%ADD224R,0.0070X0.0007*%
%ADD225R,0.0077X0.0007*%
%ADD226R,0.0105X0.0007*%
%ADD227R,0.0154X0.0007*%
%ADD228R,0.0112X0.0007*%
%ADD229R,0.0049X0.0007*%
%ADD230R,0.0056X0.0007*%
%ADD231R,0.0091X0.0007*%
%ADD232R,0.0049X0.0007*%
%ADD233R,0.0182X0.0007*%
%ADD234R,0.0133X0.0007*%
%ADD235R,0.0168X0.0007*%
%ADD236R,0.0126X0.0007*%
%ADD237R,0.0063X0.0007*%
%ADD238R,0.0119X0.0007*%
%ADD239R,0.0189X0.0007*%
%ADD240R,0.0119X0.0007*%
%ADD241R,0.0147X0.0007*%
%ADD242R,0.0175X0.0007*%
%ADD243R,0.0140X0.0007*%
%ADD244R,0.0203X0.0007*%
%ADD245R,0.0112X0.0007*%
%ADD246R,0.0133X0.0007*%
%ADD247R,0.0161X0.0007*%
%ADD248R,0.0175X0.0007*%
%ADD249R,0.0154X0.0007*%
%ADD250R,0.0056X0.0007*%
%ADD251R,0.0063X0.0007*%
%ADD252R,0.0049X0.0007*%
%ADD253R,0.0105X0.0007*%
%ADD254R,0.0049X0.0007*%
%ADD255R,0.0147X0.0007*%
%ADD256R,0.0217X0.0007*%
%ADD257R,0.0147X0.0007*%
%ADD258R,0.0161X0.0007*%
%ADD259R,0.0182X0.0007*%
%ADD260R,0.0189X0.0007*%
%ADD261R,0.0168X0.0007*%
%ADD262R,0.0070X0.0007*%
%ADD263R,0.0091X0.0007*%
%ADD264R,0.0077X0.0007*%
%ADD265R,0.0077X0.0007*%
%ADD266R,0.0084X0.0007*%
%ADD267R,0.0098X0.0007*%
%ADD268R,0.0014X0.0007*%
%ADD269R,0.0154X0.0007*%
%ADD270R,0.0126X0.0007*%
%ADD271R,0.0126X0.0007*%
%ADD272R,0.0126X0.0007*%
%ADD273R,0.0042X0.0007*%
%ADD274R,0.0112X0.0007*%
%ADD275R,0.0196X0.0007*%
%ADD276R,0.0007X0.0007*%
%ADD277R,0.0021X0.0007*%
%ADD278R,0.0098X0.0007*%
%ADD279R,0.0056X0.0007*%
%ADD280R,0.0140X0.0007*%
%ADD281R,0.0196X0.0007*%
%ADD282R,0.0210X0.0007*%
%ADD283R,0.0217X0.0007*%
%ADD284R,0.0231X0.0007*%
%ADD285R,0.0245X0.0007*%
%ADD286R,0.0252X0.0007*%
%ADD287R,0.0266X0.0007*%
%ADD288R,0.0280X0.0007*%
%ADD289R,0.0287X0.0007*%
%ADD290R,0.0301X0.0007*%
%ADD291R,0.0315X0.0007*%
%ADD292R,0.0098X0.0007*%
%ADD293R,0.0322X0.0007*%
%ADD294R,0.0336X0.0007*%
%ADD295R,0.0336X0.0007*%
%ADD296R,0.0483X0.0007*%
%ADD297R,0.0483X0.0007*%
%ADD298R,0.0490X0.0007*%
%ADD299R,0.0497X0.0007*%
%ADD300R,0.0504X0.0007*%
%ADD301R,0.0511X0.0007*%
%ADD302R,0.0518X0.0007*%
%ADD303R,0.0525X0.0007*%
%ADD304R,0.0532X0.0007*%
%ADD305R,0.0539X0.0007*%
%ADD306R,0.0546X0.0007*%
%ADD307R,0.0553X0.0007*%
%ADD308R,0.0553X0.0007*%
%ADD309R,0.0553X0.0007*%
%ADD310R,0.0546X0.0007*%
%ADD311R,0.0546X0.0007*%
%ADD312R,0.0539X0.0007*%
%ADD313R,0.0539X0.0007*%
%ADD314R,0.0525X0.0007*%
%ADD315R,0.0532X0.0007*%
%ADD316R,0.0532X0.0007*%
%ADD317R,0.0518X0.0007*%
%ADD318R,0.0511X0.0007*%
%ADD319R,0.0511X0.0007*%
%ADD320R,0.0504X0.0007*%
%ADD321R,0.0511X0.0007*%
%ADD322R,0.0504X0.0007*%
%ADD323R,0.0497X0.0007*%
%ADD324R,0.0504X0.0007*%
%ADD325R,0.0560X0.0007*%
%ADD326R,0.0553X0.0007*%
%ADD327R,0.0560X0.0007*%
%ADD328R,0.0567X0.0007*%
%ADD329R,0.0574X0.0007*%
%ADD330R,0.0581X0.0007*%
%ADD331R,0.0588X0.0007*%
%ADD332R,0.0581X0.0007*%
%ADD333R,0.0588X0.0007*%
%ADD334R,0.0595X0.0007*%
%ADD335R,0.0595X0.0007*%
%ADD336R,0.0581X0.0007*%
%ADD337R,0.0574X0.0007*%
%ADD338R,0.0567X0.0007*%
%ADD339R,0.0567X0.0007*%
%ADD340R,0.0630X0.0007*%
%ADD341R,0.0665X0.0007*%
%ADD342R,0.0658X0.0007*%
%ADD343R,0.0693X0.0007*%
%ADD344R,0.0700X0.0007*%
%ADD345R,0.0728X0.0007*%
%ADD346R,0.0728X0.0007*%
%ADD347R,0.0749X0.0007*%
%ADD348R,0.0742X0.0007*%
%ADD349R,0.0742X0.0007*%
%ADD350R,0.0735X0.0007*%
%ADD351R,0.0728X0.0007*%
%ADD352R,0.0728X0.0007*%
%ADD353R,0.0721X0.0007*%
%ADD354R,0.0721X0.0007*%
%ADD355R,0.0714X0.0007*%
%ADD356R,0.0735X0.0007*%
%ADD357R,0.0756X0.0007*%
%ADD358R,0.0749X0.0007*%
%ADD359R,0.0742X0.0007*%
%ADD360R,0.0707X0.0007*%
%ADD361R,0.0672X0.0007*%
%ADD362R,0.0672X0.0007*%
%ADD363R,0.0644X0.0007*%
%ADD364R,0.0644X0.0007*%
%ADD365R,0.0616X0.0007*%
%ADD366R,0.0609X0.0007*%
%ADD367R,0.0546X0.0007*%
%ADD368R,0.0609X0.0007*%
%ADD369R,0.0609X0.0007*%
%ADD370R,0.0623X0.0007*%
%ADD371R,0.1379X0.0007*%
%ADD372R,0.1372X0.0007*%
%ADD373R,0.1365X0.0007*%
%ADD374R,0.1358X0.0007*%
%ADD375R,0.1351X0.0007*%
%ADD376R,0.1344X0.0007*%
%ADD377R,0.1344X0.0007*%
%ADD378R,0.1337X0.0007*%
%ADD379R,0.1330X0.0007*%
%ADD380R,0.1323X0.0007*%
%ADD381R,0.1316X0.0007*%
%ADD382R,0.1309X0.0007*%
%ADD383R,0.1302X0.0007*%
%ADD384R,0.1295X0.0007*%
%ADD385R,0.1295X0.0007*%
%ADD386R,0.1337X0.0007*%
%ADD387R,0.1379X0.0007*%
%ADD388R,0.1386X0.0007*%
%ADD389R,0.1400X0.0007*%
%ADD390R,0.1407X0.0007*%
%ADD391R,0.1421X0.0007*%
%ADD392R,0.1428X0.0007*%
%ADD393R,0.1435X0.0007*%
%ADD394R,0.1449X0.0007*%
%ADD395R,0.1456X0.0007*%
%ADD396R,0.1463X0.0007*%
%ADD397R,0.1477X0.0007*%
%ADD398R,0.1484X0.0007*%
%ADD399R,0.1491X0.0007*%
%ADD400R,0.1505X0.0007*%
%ADD401R,0.1512X0.0007*%
%ADD402R,0.1526X0.0007*%
%ADD403R,0.1533X0.0007*%
%ADD404R,0.1540X0.0007*%
%ADD405R,0.1554X0.0007*%
%ADD406R,0.1561X0.0007*%
%ADD407R,0.1575X0.0007*%
%ADD408R,0.1582X0.0007*%
%ADD409R,0.1582X0.0007*%
%ADD410R,0.1547X0.0007*%
%ADD411R,0.1533X0.0007*%
%ADD412R,0.1519X0.0007*%
%ADD413R,0.0371X0.0007*%
%ADD414R,0.0378X0.0007*%
%ADD415R,0.0357X0.0007*%
%ADD416R,0.0336X0.0007*%
%ADD417R,0.0658X0.0007*%
%ADD418R,0.0343X0.0007*%
%ADD419R,0.0322X0.0007*%
%ADD420R,0.0308X0.0007*%
%ADD421R,0.0287X0.0007*%
%ADD422R,0.0273X0.0007*%
%ADD423R,0.0252X0.0007*%
%ADD424R,0.0490X0.0007*%
%ADD425R,0.0231X0.0007*%
%ADD426R,0.0455X0.0007*%
%ADD427R,0.0238X0.0007*%
%ADD428R,0.0217X0.0007*%
%ADD429R,0.0420X0.0007*%
%ADD430R,0.0392X0.0007*%
%ADD431R,0.0378X0.0007*%
%ADD432R,0.0168X0.0007*%
%ADD433R,0.0371X0.0007*%
%ADD434R,0.0364X0.0007*%
%ADD435R,0.0357X0.0007*%
%ADD436R,0.0084X0.0007*%
%ADD437R,0.0350X0.0007*%
%ADD438R,0.0350X0.0007*%
%ADD439R,0.0343X0.0007*%
%ADD440R,0.0329X0.0007*%
%ADD441R,0.0322X0.0007*%
%ADD442R,0.0322X0.0007*%
%ADD443R,0.0315X0.0007*%
%ADD444R,0.0308X0.0007*%
%ADD445R,0.0308X0.0007*%
%ADD446R,0.0301X0.0007*%
%ADD447R,0.0294X0.0007*%
%ADD448R,0.0294X0.0007*%
%ADD449R,0.0280X0.0007*%
%ADD450R,0.0273X0.0007*%
%ADD451C,0.0080*%
%ADD452C,0.0060*%
%ADD453C,0.0050*%
%ADD454C,0.0020*%
%ADD455R,0.1024X0.0591*%
D10*
X012960Y004470D02*
X012960Y004510D01*
X007450Y022328D02*
X007452Y022380D01*
X007458Y022432D01*
X007468Y022484D01*
X007481Y022534D01*
X007498Y022584D01*
X007519Y022632D01*
X007544Y022678D01*
X007572Y022722D01*
X007603Y022764D01*
X007637Y022804D01*
X007674Y022841D01*
X007714Y022875D01*
X007756Y022906D01*
X007800Y022934D01*
X007846Y022959D01*
X007894Y022980D01*
X007944Y022997D01*
X007994Y023010D01*
X008046Y023020D01*
X008098Y023026D01*
X008150Y023028D01*
X008202Y023026D01*
X008254Y023020D01*
X008306Y023010D01*
X008356Y022997D01*
X008406Y022980D01*
X008454Y022959D01*
X008500Y022934D01*
X008544Y022906D01*
X008586Y022875D01*
X008626Y022841D01*
X008663Y022804D01*
X008697Y022764D01*
X008728Y022722D01*
X008756Y022678D01*
X008781Y022632D01*
X008802Y022584D01*
X008819Y022534D01*
X008832Y022484D01*
X008842Y022432D01*
X008848Y022380D01*
X008850Y022328D01*
X008848Y022276D01*
X008842Y022224D01*
X008832Y022172D01*
X008819Y022122D01*
X008802Y022072D01*
X008781Y022024D01*
X008756Y021978D01*
X008728Y021934D01*
X008697Y021892D01*
X008663Y021852D01*
X008626Y021815D01*
X008586Y021781D01*
X008544Y021750D01*
X008500Y021722D01*
X008454Y021697D01*
X008406Y021676D01*
X008356Y021659D01*
X008306Y021646D01*
X008254Y021636D01*
X008202Y021630D01*
X008150Y021628D01*
X008098Y021630D01*
X008046Y021636D01*
X007994Y021646D01*
X007944Y021659D01*
X007894Y021676D01*
X007846Y021697D01*
X007800Y021722D01*
X007756Y021750D01*
X007714Y021781D01*
X007674Y021815D01*
X007637Y021852D01*
X007603Y021892D01*
X007572Y021934D01*
X007544Y021978D01*
X007519Y022024D01*
X007498Y022072D01*
X007481Y022122D01*
X007468Y022172D01*
X007458Y022224D01*
X007452Y022276D01*
X007450Y022328D01*
D11*
X006180Y004680D02*
X005180Y003680D01*
X004830Y004040D01*
D12*
X004549Y005065D02*
X004404Y005065D01*
X004404Y005355D01*
X004549Y005355D01*
X004598Y005307D01*
X004598Y005113D01*
X004549Y005065D01*
X004303Y005065D02*
X004303Y005355D01*
X004110Y005355D02*
X004303Y005065D01*
X004110Y005065D02*
X004110Y005355D01*
X004008Y005307D02*
X003960Y005355D01*
X003863Y005355D01*
X003815Y005307D01*
X003815Y005113D01*
X003863Y005065D01*
X003960Y005065D01*
X004008Y005113D01*
X004008Y005210D01*
X003912Y005210D01*
X012105Y004907D02*
X012105Y004858D01*
X012153Y004810D01*
X012250Y004810D01*
X012298Y004762D01*
X012298Y004713D01*
X012250Y004665D01*
X012153Y004665D01*
X012105Y004713D01*
X012105Y004907D02*
X012153Y004955D01*
X012250Y004955D01*
X012298Y004907D01*
X012400Y004907D02*
X012496Y004810D01*
X012496Y004665D01*
X012496Y004810D02*
X012593Y004907D01*
X012593Y004955D01*
X012694Y004907D02*
X012694Y004858D01*
X012743Y004810D01*
X012839Y004810D01*
X012888Y004762D01*
X012888Y004713D01*
X012839Y004665D01*
X012743Y004665D01*
X012694Y004713D01*
X012694Y004907D02*
X012743Y004955D01*
X012839Y004955D01*
X012888Y004907D01*
X012989Y004617D02*
X013182Y004617D01*
X013284Y004713D02*
X013332Y004665D01*
X013429Y004665D01*
X013477Y004713D01*
X013477Y004810D01*
X013429Y004858D01*
X013380Y004858D01*
X013284Y004810D01*
X013284Y004955D01*
X013477Y004955D01*
X013578Y004955D02*
X013578Y004762D01*
X013675Y004665D01*
X013772Y004762D01*
X013772Y004955D01*
X012400Y004955D02*
X012400Y004907D01*
X020685Y004996D02*
X020782Y005093D01*
X020975Y005093D01*
X020975Y005194D02*
X020685Y005194D01*
X020685Y005339D01*
X020733Y005388D01*
X020830Y005388D01*
X020878Y005339D01*
X020878Y005194D01*
X020878Y005291D02*
X020975Y005388D01*
X020975Y005586D02*
X020685Y005586D01*
X020685Y005682D02*
X020685Y005489D01*
X020782Y005784D02*
X020685Y005880D01*
X020975Y005880D01*
X020975Y005784D02*
X020975Y005977D01*
X021023Y006078D02*
X021023Y006272D01*
X020975Y006470D02*
X020685Y006470D01*
X020685Y006566D02*
X020685Y006373D01*
X020685Y006668D02*
X020975Y006861D01*
X020975Y006962D02*
X020975Y007107D01*
X020927Y007156D01*
X020733Y007156D01*
X020685Y007107D01*
X020685Y006962D01*
X020975Y006962D01*
X020975Y006668D02*
X020685Y006861D01*
X021535Y006861D02*
X021825Y006668D01*
X021825Y006566D02*
X021728Y006470D01*
X021728Y006518D02*
X021728Y006373D01*
X021825Y006373D02*
X021535Y006373D01*
X021535Y006518D01*
X021583Y006566D01*
X021680Y006566D01*
X021728Y006518D01*
X021535Y006668D02*
X021825Y006861D01*
X021825Y006962D02*
X021825Y007107D01*
X021777Y007156D01*
X021583Y007156D01*
X021535Y007107D01*
X021535Y006962D01*
X021825Y006962D01*
X021873Y006272D02*
X021873Y006078D01*
X021825Y005977D02*
X021825Y005784D01*
X021825Y005880D02*
X021535Y005880D01*
X021632Y005784D01*
X021535Y005682D02*
X021535Y005489D01*
X021535Y005586D02*
X021825Y005586D01*
X021825Y005388D02*
X021728Y005291D01*
X021728Y005339D02*
X021728Y005194D01*
X021825Y005194D02*
X021535Y005194D01*
X021535Y005339D01*
X021583Y005388D01*
X021680Y005388D01*
X021728Y005339D01*
X021680Y005093D02*
X021680Y004900D01*
X021632Y004900D02*
X021825Y004900D01*
X021777Y004798D02*
X021535Y004798D01*
X021632Y004900D02*
X021535Y004996D01*
X021632Y005093D01*
X021825Y005093D01*
X021777Y004798D02*
X021825Y004750D01*
X021825Y004653D01*
X021777Y004605D01*
X021535Y004605D01*
X020975Y004653D02*
X020975Y004750D01*
X020927Y004798D01*
X020685Y004798D01*
X020782Y004900D02*
X020685Y004996D01*
X020782Y004900D02*
X020975Y004900D01*
X020830Y004900D02*
X020830Y005093D01*
X020975Y004653D02*
X020927Y004605D01*
X020685Y004605D01*
X029925Y005775D02*
X029925Y005872D01*
X029925Y005823D02*
X030215Y005823D01*
X030215Y005775D02*
X030215Y005872D01*
X030167Y005971D02*
X030215Y006020D01*
X030215Y006117D01*
X030167Y006165D01*
X030167Y006266D02*
X030215Y006314D01*
X030215Y006411D01*
X030167Y006460D01*
X030118Y006460D01*
X030070Y006411D01*
X030070Y006314D01*
X030022Y006266D01*
X029973Y006266D01*
X029925Y006314D01*
X029925Y006411D01*
X029973Y006460D01*
X029925Y006561D02*
X029925Y006706D01*
X029973Y006754D01*
X030070Y006754D01*
X030118Y006706D01*
X030118Y006561D01*
X030215Y006561D02*
X029925Y006561D01*
X029973Y006165D02*
X029925Y006117D01*
X029925Y006020D01*
X029973Y005971D01*
X030167Y005971D01*
X030805Y005389D02*
X030805Y005244D01*
X031095Y005244D01*
X031095Y005389D01*
X031047Y005438D01*
X030853Y005438D01*
X030805Y005389D01*
X030805Y005143D02*
X031095Y005143D01*
X030805Y004950D01*
X031095Y004950D01*
X031047Y004848D02*
X030950Y004848D01*
X030950Y004752D01*
X031047Y004848D02*
X031095Y004800D01*
X031095Y004703D01*
X031047Y004655D01*
X030853Y004655D01*
X030805Y004703D01*
X030805Y004800D01*
X030853Y004848D01*
X031765Y004800D02*
X031765Y004703D01*
X031813Y004655D01*
X032007Y004655D01*
X032055Y004703D01*
X032055Y004800D01*
X032007Y004848D01*
X031910Y004848D01*
X031910Y004752D01*
X031813Y004848D02*
X031765Y004800D01*
X031765Y004950D02*
X032055Y005143D01*
X031765Y005143D01*
X031765Y005244D02*
X031765Y005389D01*
X031813Y005438D01*
X032007Y005438D01*
X032055Y005389D01*
X032055Y005244D01*
X031765Y005244D01*
X031765Y004950D02*
X032055Y004950D01*
X032786Y003800D02*
X032725Y003738D01*
X032725Y003615D01*
X032786Y003553D01*
X032848Y003553D01*
X032910Y003615D01*
X032910Y003800D01*
X033033Y003800D02*
X032786Y003800D01*
X033033Y003800D02*
X033095Y003738D01*
X033095Y003615D01*
X033033Y003553D01*
X032910Y003432D02*
X032786Y003432D01*
X032725Y003370D01*
X032725Y003185D01*
X033095Y003185D01*
X032972Y003185D02*
X032972Y003370D01*
X032910Y003432D01*
X030095Y014215D02*
X029805Y014215D01*
X029805Y014360D01*
X029853Y014408D01*
X029950Y014408D01*
X029998Y014360D01*
X029998Y014215D01*
X029998Y014312D02*
X030095Y014408D01*
X030095Y014510D02*
X029805Y014510D01*
X029805Y014703D01*
X029853Y014804D02*
X029902Y014804D01*
X029950Y014853D01*
X029950Y014949D01*
X029998Y014998D01*
X030047Y014998D01*
X030095Y014949D01*
X030095Y014853D01*
X030047Y014804D01*
X030095Y014703D02*
X030095Y014510D01*
X029950Y014510D02*
X029950Y014606D01*
X029853Y014804D02*
X029805Y014853D01*
X029805Y014949D01*
X029853Y014998D01*
X029805Y015099D02*
X030095Y015099D01*
X030095Y015292D01*
X029950Y015196D02*
X029950Y015099D01*
X029805Y015099D02*
X029805Y015292D01*
X029805Y015394D02*
X029805Y015587D01*
X029805Y015490D02*
X030095Y015490D01*
X029947Y016535D02*
X029995Y016583D01*
X029995Y016680D01*
X029947Y016728D01*
X029898Y016728D01*
X029850Y016680D01*
X029850Y016583D01*
X029802Y016535D01*
X029753Y016535D01*
X029705Y016583D01*
X029705Y016680D01*
X029753Y016728D01*
X029705Y016830D02*
X029995Y016830D01*
X029898Y016926D01*
X029995Y017023D01*
X029705Y017023D01*
X029802Y017124D02*
X029705Y017221D01*
X029995Y017221D01*
X029995Y017124D02*
X029995Y017318D01*
X032323Y021182D02*
X032226Y021278D01*
X032323Y021375D01*
X032516Y021375D01*
X032371Y021375D02*
X032371Y021182D01*
X032323Y021182D02*
X032516Y021182D01*
X032715Y022165D02*
X032715Y022350D01*
X032776Y022412D01*
X032900Y022412D01*
X032962Y022350D01*
X032962Y022165D01*
X033085Y022165D02*
X032715Y022165D01*
X032776Y022533D02*
X032838Y022533D01*
X032900Y022595D01*
X032900Y022718D01*
X032962Y022780D01*
X033023Y022780D01*
X033085Y022718D01*
X033085Y022595D01*
X033023Y022533D01*
X032962Y022533D01*
X032900Y022595D01*
X032900Y022718D02*
X032838Y022780D01*
X032776Y022780D01*
X032715Y022718D01*
X032715Y022595D01*
X032776Y022533D01*
X015465Y020989D02*
X015368Y020892D01*
X015368Y020940D02*
X015368Y020795D01*
X015465Y020795D02*
X015175Y020795D01*
X015175Y020940D01*
X015223Y020989D01*
X015320Y020989D01*
X015368Y020940D01*
X015175Y020694D02*
X015175Y020501D01*
X015175Y020597D02*
X015465Y020597D01*
X015417Y020400D02*
X015223Y020400D01*
X015175Y020351D01*
X015175Y020206D01*
X015465Y020206D01*
X015465Y020351D01*
X015417Y020400D01*
X015513Y020105D02*
X015513Y019911D01*
X015368Y019810D02*
X015175Y019810D01*
X015368Y019810D02*
X015465Y019713D01*
X015368Y019617D01*
X015175Y019617D01*
X015175Y019322D02*
X015465Y019322D01*
X015465Y019516D01*
X015464Y016257D02*
X015658Y016257D01*
X015513Y016257D02*
X015513Y016064D01*
X015464Y016064D02*
X015368Y016160D01*
X015464Y016257D01*
X015464Y016064D02*
X015658Y016064D01*
X015658Y012320D02*
X015464Y012320D01*
X015368Y012223D01*
X015464Y012126D01*
X015658Y012126D01*
X015513Y012126D02*
X015513Y012320D01*
X006928Y017945D02*
X006831Y018042D01*
X006879Y018042D02*
X006734Y018042D01*
X006734Y017945D02*
X006734Y018235D01*
X006879Y018235D01*
X006928Y018187D01*
X006928Y018090D01*
X006879Y018042D01*
X006633Y018235D02*
X006440Y018235D01*
X006536Y018235D02*
X006536Y017945D01*
X006338Y017993D02*
X006338Y018187D01*
X006290Y018235D01*
X006145Y018235D01*
X006145Y017945D01*
X006290Y017945D01*
X006338Y017993D01*
X006242Y018945D02*
X006242Y019235D01*
X006338Y019235D02*
X006145Y019235D01*
X006440Y019235D02*
X006633Y018945D01*
X006440Y018945D02*
X006633Y019235D01*
X006633Y019945D02*
X006440Y020235D01*
X006338Y020187D02*
X006338Y020090D01*
X006290Y020042D01*
X006145Y020042D01*
X006242Y020042D02*
X006338Y019945D01*
X006440Y019945D02*
X006633Y020235D01*
X006338Y020187D02*
X006290Y020235D01*
X006145Y020235D01*
X006145Y019945D01*
X006242Y020945D02*
X006338Y021042D01*
X006338Y021235D01*
X006440Y021235D02*
X006440Y020993D01*
X006488Y020945D01*
X006585Y020945D01*
X006633Y020993D01*
X006633Y021235D01*
X006734Y021187D02*
X006734Y021138D01*
X006783Y021090D01*
X006879Y021090D01*
X006928Y021042D01*
X006928Y020993D01*
X006879Y020945D01*
X006783Y020945D01*
X006734Y020993D01*
X006734Y021187D02*
X006783Y021235D01*
X006879Y021235D01*
X006928Y021187D01*
X007029Y021235D02*
X007174Y021235D01*
X007222Y021187D01*
X007222Y021138D01*
X007174Y021090D01*
X007029Y021090D01*
X007029Y020945D02*
X007029Y021235D01*
X007174Y021090D02*
X007222Y021042D01*
X007222Y020993D01*
X007174Y020945D01*
X007029Y020945D01*
X006242Y020945D02*
X006145Y021042D01*
X006145Y021235D01*
X006193Y021945D02*
X006290Y021945D01*
X006338Y021993D01*
X006338Y022090D01*
X006242Y022090D01*
X006338Y022187D02*
X006290Y022235D01*
X006193Y022235D01*
X006145Y022187D01*
X006145Y021993D01*
X006193Y021945D01*
X006440Y021945D02*
X006440Y022235D01*
X006633Y021945D01*
X006633Y022235D01*
X006734Y022235D02*
X006734Y021945D01*
X006879Y021945D01*
X006928Y021993D01*
X006928Y022187D01*
X006879Y022235D01*
X006734Y022235D01*
X006734Y022945D02*
X006879Y022945D01*
X006928Y022993D01*
X006928Y023187D01*
X006879Y023235D01*
X006734Y023235D01*
X006734Y022945D01*
X006633Y022945D02*
X006633Y023235D01*
X006440Y023235D02*
X006633Y022945D01*
X006440Y022945D02*
X006440Y023235D01*
X006338Y023187D02*
X006290Y023235D01*
X006193Y023235D01*
X006145Y023187D01*
X006145Y022993D01*
X006193Y022945D01*
X006290Y022945D01*
X006338Y022993D01*
X006338Y023090D01*
X006242Y023090D01*
X007858Y022465D02*
X007858Y022218D01*
X007920Y022156D01*
X008043Y022156D01*
X008105Y022218D01*
X008226Y022218D02*
X008226Y022465D01*
X008288Y022526D01*
X008411Y022526D01*
X008473Y022465D01*
X008473Y022218D02*
X008411Y022156D01*
X008288Y022156D01*
X008226Y022218D01*
X008105Y022465D02*
X008043Y022526D01*
X007920Y022526D01*
X007858Y022465D01*
X009775Y021139D02*
X009775Y020994D01*
X010065Y020994D01*
X010065Y021139D01*
X010017Y021188D01*
X009823Y021188D01*
X009775Y021139D01*
X009775Y020893D02*
X010065Y020893D01*
X009775Y020700D01*
X010065Y020700D01*
X010017Y020598D02*
X009920Y020598D01*
X009920Y020502D01*
X010017Y020598D02*
X010065Y020550D01*
X010065Y020453D01*
X010017Y020405D01*
X009823Y020405D01*
X009775Y020453D01*
X009775Y020550D01*
X009823Y020598D01*
D13*
X004425Y003305D02*
X004425Y002895D01*
X004425Y003032D02*
X004630Y003032D01*
X004699Y003100D01*
X004699Y003237D01*
X004630Y003305D01*
X004425Y003305D01*
X004562Y003032D02*
X004699Y002895D01*
X004885Y002963D02*
X004885Y003237D01*
X004954Y003305D01*
X005091Y003305D01*
X005159Y003237D01*
X005159Y002963D01*
X005091Y002895D01*
X004954Y002895D01*
X004885Y002963D01*
X005346Y002895D02*
X005346Y003305D01*
X005346Y003100D02*
X005619Y003100D01*
X005806Y003169D02*
X005875Y003100D01*
X006011Y003100D01*
X006080Y003032D01*
X006080Y002963D01*
X006011Y002895D01*
X005875Y002895D01*
X005806Y002963D01*
X005619Y002895D02*
X005619Y003305D01*
X005806Y003237D02*
X005875Y003305D01*
X006011Y003305D01*
X006080Y003237D01*
X005806Y003237D02*
X005806Y003169D01*
D14*
X016562Y012317D03*
X016904Y012317D03*
X016910Y012317D03*
X016916Y012317D03*
X018542Y013433D03*
X016724Y013769D03*
X016706Y013769D03*
X016700Y013769D03*
X016694Y013769D03*
X016688Y013769D03*
X016682Y013769D03*
X016526Y013733D03*
X016520Y013727D03*
D15*
X016550Y013745D03*
X016556Y013745D03*
X016568Y013751D03*
X016574Y013751D03*
X016580Y013751D03*
X016628Y013763D03*
X016634Y013763D03*
X018536Y012653D03*
X016868Y012305D03*
X016862Y012305D03*
X016856Y012305D03*
X016850Y012305D03*
X016592Y012305D03*
X016586Y012305D03*
X016580Y012311D03*
X016574Y012311D03*
D16*
X016616Y013325D03*
X018536Y013433D03*
X018530Y012653D03*
D17*
X018530Y013436D03*
X016946Y013724D03*
X016856Y013322D03*
X016628Y013322D03*
X016862Y012692D03*
X016628Y012680D03*
D18*
X016640Y012683D03*
X016640Y013325D03*
X016850Y013325D03*
X016952Y013715D03*
X018524Y012653D03*
D19*
X018524Y013436D03*
X017006Y012392D03*
X016646Y012680D03*
D20*
X017708Y012383D03*
X018518Y012653D03*
D21*
X018518Y013436D03*
X016964Y013700D03*
X016484Y013646D03*
X016826Y012686D03*
X016670Y012680D03*
X016664Y012680D03*
D22*
X016706Y012686D03*
X016778Y012686D03*
X016784Y012686D03*
X016790Y012686D03*
X016814Y013322D03*
X016820Y013322D03*
X016688Y013322D03*
X016682Y013322D03*
X018506Y013436D03*
X018512Y012650D03*
D23*
X018512Y013436D03*
X016826Y013322D03*
X016670Y013322D03*
X016814Y012686D03*
X016682Y012680D03*
D24*
X016748Y012686D03*
X016754Y012686D03*
X016760Y012686D03*
X016802Y013322D03*
X016808Y013322D03*
X016706Y013322D03*
X016700Y013322D03*
X016694Y013322D03*
X018494Y013436D03*
X018506Y012650D03*
D25*
X018500Y012650D03*
X017012Y012428D03*
X016268Y013154D03*
X016718Y013322D03*
X016724Y013322D03*
X016730Y013322D03*
X016736Y013322D03*
X016742Y013322D03*
X016748Y013322D03*
X016754Y013322D03*
X016760Y013322D03*
X016784Y013322D03*
X016790Y013322D03*
D26*
X016742Y012683D03*
X016736Y012683D03*
X016730Y012683D03*
X016724Y012683D03*
X016718Y012683D03*
X016712Y012683D03*
X018500Y013433D03*
D27*
X018470Y013430D03*
X018230Y012698D03*
X018224Y012698D03*
X018182Y012710D03*
X018176Y012710D03*
X018170Y012710D03*
X018164Y012716D03*
X018158Y012716D03*
X018152Y012716D03*
X018494Y012650D03*
D28*
X018488Y012647D03*
X018482Y012647D03*
X018248Y012695D03*
X018242Y012695D03*
X018236Y012695D03*
X018218Y012701D03*
X018212Y012701D03*
X018188Y012707D03*
X018464Y013427D03*
X016478Y013607D03*
D29*
X016712Y013325D03*
X016796Y013319D03*
X016502Y012419D03*
X018488Y013433D03*
D30*
X018482Y013433D03*
X018476Y013433D03*
X016976Y013673D03*
D31*
X018290Y012683D03*
X018296Y012683D03*
X018302Y012683D03*
X018470Y012647D03*
X018476Y012647D03*
X018452Y013427D03*
X018446Y013427D03*
D32*
X018440Y013424D03*
X018434Y013424D03*
X018428Y013424D03*
X018314Y012680D03*
X018308Y012680D03*
X018320Y012674D03*
X018326Y012674D03*
X018332Y012674D03*
X018464Y012650D03*
D33*
X018458Y012647D03*
X018452Y012647D03*
X018236Y013367D03*
X018230Y013367D03*
X018272Y013379D03*
X018182Y013349D03*
X018176Y013349D03*
X018152Y013337D03*
X018380Y013409D03*
X018386Y013409D03*
D34*
X018458Y013430D03*
X018266Y012692D03*
X018260Y012692D03*
X018254Y012692D03*
X018272Y012686D03*
X018278Y012686D03*
X018284Y012686D03*
D35*
X018356Y012668D03*
X018380Y012662D03*
X018386Y012662D03*
X018392Y012662D03*
X018404Y012656D03*
X018410Y012656D03*
X018416Y012656D03*
X018422Y012656D03*
X018440Y012650D03*
X018446Y012650D03*
X018224Y013364D03*
X018242Y013370D03*
X018260Y013376D03*
X018266Y013376D03*
X018278Y013382D03*
X018284Y013382D03*
X018296Y013388D03*
X018302Y013388D03*
X018308Y013388D03*
X018320Y013394D03*
X018326Y013394D03*
X018332Y013394D03*
X018338Y013400D03*
X018344Y013400D03*
X018350Y013400D03*
X018356Y013400D03*
X018368Y013406D03*
X018374Y013406D03*
X018392Y013412D03*
X018170Y013346D03*
X016982Y013652D03*
D36*
X018158Y013343D03*
X018164Y013343D03*
X018188Y013355D03*
X018194Y013355D03*
X018200Y013355D03*
X018206Y013361D03*
X018212Y013361D03*
X018218Y013361D03*
X018248Y013373D03*
X018254Y013373D03*
X018290Y013385D03*
X018314Y013391D03*
X018362Y013403D03*
X018398Y013415D03*
X018404Y013415D03*
X018410Y013415D03*
X018422Y013421D03*
X018350Y012671D03*
X018344Y012671D03*
X018338Y012671D03*
X018362Y012665D03*
X018368Y012665D03*
X018374Y012665D03*
X018428Y012653D03*
X018434Y012653D03*
D37*
X018416Y013418D03*
D38*
X018398Y012659D03*
D39*
X018206Y012704D03*
X018200Y012704D03*
X018194Y012704D03*
D40*
X018146Y013034D03*
D41*
X018140Y013037D03*
D42*
X018134Y013034D03*
X018128Y013034D03*
X018122Y013034D03*
D43*
X018116Y013034D03*
X018110Y013034D03*
X017252Y013064D03*
D44*
X018098Y013031D03*
X018104Y013031D03*
D45*
X018092Y013034D03*
D46*
X018086Y013031D03*
X018080Y013031D03*
X018074Y013031D03*
D47*
X018068Y013031D03*
X018062Y013031D03*
X016304Y013079D03*
D48*
X018050Y013028D03*
X018056Y013028D03*
D49*
X018044Y013031D03*
D50*
X018038Y013028D03*
X018032Y013028D03*
X018026Y013028D03*
D51*
X018020Y013028D03*
X018014Y013028D03*
X017006Y013388D03*
D52*
X018002Y013025D03*
X018008Y013025D03*
D53*
X017996Y013028D03*
D54*
X017990Y013025D03*
X017984Y013025D03*
X017978Y013025D03*
D55*
X017972Y013025D03*
X017966Y013025D03*
D56*
X017960Y013022D03*
X017954Y013022D03*
X016298Y013088D03*
D57*
X017258Y013055D03*
X017948Y013025D03*
D58*
X017942Y013022D03*
X017936Y013022D03*
X017930Y013022D03*
D59*
X017924Y013022D03*
X017918Y013022D03*
D60*
X017912Y013019D03*
X017906Y013019D03*
D61*
X017900Y013022D03*
D62*
X017894Y013019D03*
X017888Y013019D03*
X017882Y013019D03*
X016472Y012677D03*
D63*
X017864Y013019D03*
X017870Y013019D03*
X017876Y013019D03*
D64*
X017858Y013016D03*
X017852Y013016D03*
D65*
X017846Y013019D03*
D66*
X017840Y013016D03*
X017834Y013016D03*
X017828Y013016D03*
X016292Y013100D03*
D67*
X017822Y013019D03*
D68*
X017816Y013016D03*
X017810Y013016D03*
X017000Y013448D03*
D69*
X017804Y013019D03*
D70*
X017798Y013016D03*
X017792Y013016D03*
X017786Y013016D03*
D71*
X017780Y013019D03*
D72*
X017774Y013016D03*
X017768Y013016D03*
X017762Y013016D03*
D73*
X017756Y013019D03*
D74*
X017750Y013016D03*
X017744Y013016D03*
D75*
X017738Y013019D03*
X017732Y013019D03*
X017726Y013019D03*
D76*
X016892Y013328D03*
X016574Y012680D03*
X017720Y012344D03*
D77*
X017720Y013016D03*
D78*
X016874Y013328D03*
X016892Y013760D03*
X016898Y013760D03*
X016502Y013706D03*
X016976Y012344D03*
X017714Y012362D03*
D79*
X017714Y013019D03*
X017708Y013019D03*
D80*
X017708Y013667D03*
X016580Y012683D03*
D81*
X017090Y013052D03*
X017702Y012992D03*
D82*
X017696Y012998D03*
D83*
X017690Y013001D03*
D84*
X017684Y013004D03*
X017402Y012998D03*
D85*
X017678Y013004D03*
D86*
X017672Y013004D03*
X017666Y013004D03*
X017420Y012992D03*
D87*
X017426Y012992D03*
X017432Y012992D03*
X017660Y013004D03*
D88*
X017654Y013001D03*
D89*
X017648Y013004D03*
X017642Y013004D03*
X017450Y012992D03*
X017444Y012992D03*
X017438Y012992D03*
D90*
X017636Y013001D03*
D91*
X017630Y013004D03*
X017468Y012992D03*
X017462Y012992D03*
X017456Y012992D03*
D92*
X017612Y013001D03*
X017618Y013001D03*
X017624Y013001D03*
D93*
X017606Y012998D03*
X017600Y012998D03*
D94*
X017594Y013001D03*
X017588Y013001D03*
X017534Y012995D03*
X017528Y012995D03*
X017522Y012995D03*
X017516Y012995D03*
X017510Y012995D03*
X017504Y012995D03*
X017498Y012995D03*
D95*
X017540Y012998D03*
X017546Y012998D03*
X017552Y012998D03*
X017558Y012998D03*
X017564Y012998D03*
X017570Y012998D03*
X017576Y012998D03*
X017582Y012998D03*
D96*
X017492Y012992D03*
X017486Y012992D03*
X017480Y012992D03*
X017474Y012992D03*
D97*
X017414Y012995D03*
D98*
X017408Y012995D03*
D99*
X017396Y012998D03*
D100*
X017390Y013001D03*
X017042Y013049D03*
X017036Y013049D03*
X017030Y013049D03*
X017024Y013049D03*
D101*
X017072Y013049D03*
X017078Y013049D03*
X017084Y013049D03*
X017384Y013007D03*
D102*
X017378Y013019D03*
X017114Y013049D03*
X017108Y013049D03*
D103*
X017138Y013046D03*
X017372Y013028D03*
D104*
X017366Y013043D03*
X016412Y013025D03*
D105*
X017192Y013043D03*
X017360Y013067D03*
D106*
X017354Y013109D03*
D107*
X017348Y013157D03*
D108*
X017342Y013190D03*
D109*
X017336Y013181D03*
D110*
X017330Y013169D03*
X017012Y013325D03*
D111*
X017324Y013010D03*
D112*
X017324Y013598D03*
D113*
X017318Y012995D03*
D114*
X017312Y012983D03*
X017306Y012983D03*
X017300Y012983D03*
X017294Y012983D03*
X017288Y012983D03*
X017282Y012983D03*
X017276Y012983D03*
X017270Y012983D03*
X017264Y012983D03*
D115*
X017246Y013058D03*
D116*
X017240Y013052D03*
D117*
X017234Y013046D03*
D118*
X017228Y013043D03*
D119*
X017222Y013040D03*
D120*
X017216Y013043D03*
D121*
X017210Y013040D03*
D122*
X017204Y013040D03*
X016370Y013028D03*
D123*
X017198Y013043D03*
D124*
X017186Y013043D03*
X016388Y013025D03*
D125*
X016394Y013025D03*
X017180Y013043D03*
D126*
X017174Y013043D03*
X016406Y013025D03*
D127*
X017168Y013046D03*
D128*
X017162Y013046D03*
D129*
X017156Y013046D03*
X016424Y013022D03*
D130*
X017150Y013046D03*
D131*
X017144Y013049D03*
X016436Y013025D03*
D132*
X016448Y013025D03*
X017132Y013049D03*
D133*
X017126Y013049D03*
X017120Y013049D03*
X016460Y013025D03*
X016454Y013025D03*
D134*
X017096Y013049D03*
X017102Y013049D03*
D135*
X017066Y013049D03*
X017060Y013049D03*
X017054Y013049D03*
X017048Y013049D03*
D136*
X017018Y013049D03*
D137*
X016490Y013673D03*
X016940Y013733D03*
X017000Y012377D03*
D138*
X016994Y012362D03*
X016616Y012680D03*
X016874Y012692D03*
X016928Y013742D03*
D139*
X016994Y013508D03*
D140*
X016916Y013751D03*
X016610Y013325D03*
X016880Y012695D03*
X016988Y012353D03*
D141*
X016988Y013607D03*
D142*
X016904Y013757D03*
X016604Y013325D03*
X016886Y012695D03*
X016982Y012347D03*
X016532Y012341D03*
D143*
X016964Y012335D03*
X016970Y012341D03*
X016886Y013763D03*
X016880Y013763D03*
X016874Y013763D03*
D144*
X016970Y013688D03*
D145*
X016508Y013712D03*
X016538Y012332D03*
X016958Y012332D03*
D146*
X016844Y012689D03*
X016844Y013325D03*
X016646Y013325D03*
X016958Y013709D03*
D147*
X016850Y013769D03*
X016844Y013769D03*
X016838Y013769D03*
X016832Y013769D03*
X016826Y013769D03*
X016820Y013769D03*
X016892Y012695D03*
X016946Y012329D03*
X016952Y012329D03*
D148*
X016940Y012326D03*
X016928Y012320D03*
X016922Y012320D03*
X016556Y012320D03*
X016880Y013328D03*
X016814Y013772D03*
X016808Y013772D03*
X016802Y013772D03*
X016796Y013772D03*
X016790Y013772D03*
X016784Y013772D03*
X016778Y013772D03*
X016772Y013772D03*
X016766Y013772D03*
X016760Y013772D03*
X016754Y013772D03*
X016748Y013772D03*
X016742Y013772D03*
X016736Y013772D03*
X016730Y013772D03*
X016514Y013724D03*
D149*
X016550Y012323D03*
X016934Y012323D03*
D150*
X016622Y012680D03*
X016934Y013736D03*
D151*
X016922Y013748D03*
X016496Y013694D03*
X016868Y013328D03*
X016610Y012680D03*
D152*
X016910Y012701D03*
D153*
X016604Y012680D03*
X016910Y013754D03*
D154*
X016904Y012695D03*
D155*
X016592Y012680D03*
X016568Y012314D03*
X016874Y012308D03*
X016880Y012308D03*
X016886Y012314D03*
X016892Y012314D03*
X016898Y012314D03*
X016592Y013328D03*
X016532Y013736D03*
X016544Y013742D03*
X016562Y013748D03*
X016586Y013754D03*
X016616Y013760D03*
X016622Y013760D03*
X016640Y013766D03*
X016646Y013766D03*
X016652Y013766D03*
X016658Y013766D03*
X016664Y013766D03*
X016670Y013766D03*
X016676Y013766D03*
X016712Y013772D03*
X016718Y013772D03*
D156*
X016898Y012698D03*
D157*
X016886Y013328D03*
D158*
X016622Y013322D03*
X016868Y012692D03*
D159*
X016598Y012680D03*
X016544Y012326D03*
X016598Y013328D03*
X016856Y013766D03*
X016862Y013766D03*
X016868Y013766D03*
D160*
X016862Y013325D03*
X016520Y012359D03*
D161*
X016634Y012680D03*
X016856Y012692D03*
X016634Y013322D03*
D162*
X016850Y012689D03*
D163*
X016844Y012302D03*
X016838Y012302D03*
X016832Y012302D03*
X016820Y012296D03*
X016814Y012296D03*
X016808Y012296D03*
X016802Y012296D03*
X016796Y012296D03*
X016604Y012302D03*
X016598Y012302D03*
D164*
X016508Y012395D03*
X016832Y012689D03*
X016838Y012689D03*
X016838Y013325D03*
D165*
X016832Y013322D03*
X016658Y013322D03*
D166*
X016538Y013739D03*
X016592Y013757D03*
X016598Y013757D03*
X016604Y013757D03*
X016610Y013757D03*
X016826Y012299D03*
D167*
X016820Y012689D03*
X016676Y012683D03*
X016664Y013325D03*
D168*
X016676Y013325D03*
X016688Y012683D03*
X016694Y012683D03*
X016700Y012683D03*
X016796Y012689D03*
X016802Y012689D03*
X016808Y012689D03*
D169*
X016790Y012293D03*
X016784Y012293D03*
X016778Y012293D03*
X016772Y012293D03*
X016766Y012293D03*
X016760Y012293D03*
X016754Y012293D03*
X016748Y012293D03*
X016628Y012299D03*
X016622Y012299D03*
X016616Y012299D03*
X016610Y012299D03*
D170*
X016766Y013319D03*
X016772Y013319D03*
X016778Y013319D03*
D171*
X016772Y012689D03*
X016766Y012689D03*
D172*
X016586Y012680D03*
X016634Y012296D03*
X016640Y012296D03*
X016646Y012296D03*
X016652Y012296D03*
X016658Y012296D03*
X016664Y012296D03*
X016670Y012290D03*
X016676Y012290D03*
X016682Y012290D03*
X016688Y012290D03*
X016694Y012290D03*
X016700Y012290D03*
X016706Y012290D03*
X016712Y012290D03*
X016718Y012290D03*
X016724Y012290D03*
X016730Y012290D03*
X016736Y012290D03*
X016742Y012290D03*
X016586Y013328D03*
D173*
X016652Y013322D03*
X016652Y012680D03*
X016658Y012680D03*
D174*
X016580Y013334D03*
D175*
X016574Y013343D03*
D176*
X016526Y012347D03*
D177*
X016514Y012377D03*
D178*
X016496Y012461D03*
D179*
X016490Y012512D03*
D180*
X016484Y012560D03*
D181*
X016478Y012614D03*
D182*
X016472Y013553D03*
D183*
X016466Y013025D03*
D184*
X016442Y013022D03*
D185*
X016430Y013025D03*
D186*
X016418Y013025D03*
D187*
X016400Y013025D03*
D188*
X016382Y013022D03*
D189*
X016376Y013025D03*
D190*
X016364Y013025D03*
D191*
X016358Y013031D03*
D192*
X016352Y013034D03*
D193*
X016346Y013040D03*
D194*
X016340Y013043D03*
D195*
X016334Y013049D03*
D196*
X016328Y013052D03*
D197*
X016322Y013058D03*
D198*
X016316Y013067D03*
D199*
X016310Y013073D03*
D200*
X016286Y013109D03*
D201*
X016280Y013127D03*
D202*
X016274Y013142D03*
D203*
X025105Y018532D03*
X025735Y019134D03*
X026225Y018777D03*
X026925Y018882D03*
D204*
X026915Y018861D03*
X026915Y018854D03*
X026915Y018847D03*
X026915Y018840D03*
X026915Y018826D03*
X026915Y018819D03*
X026915Y018812D03*
X026915Y018805D03*
X026915Y018791D03*
X026915Y018784D03*
X026915Y018777D03*
X026915Y018770D03*
X026915Y018756D03*
X026915Y018749D03*
X026915Y018742D03*
X026915Y018735D03*
X026915Y018721D03*
X026915Y018714D03*
X026915Y018707D03*
X026915Y018700D03*
X026915Y018686D03*
X026915Y018679D03*
X026838Y018700D03*
X026838Y018707D03*
X026838Y018714D03*
X026838Y018721D03*
X026838Y018735D03*
X026838Y018742D03*
X026838Y018749D03*
X026838Y018756D03*
X026838Y018770D03*
X026838Y018777D03*
X026838Y018784D03*
X026838Y018791D03*
X026838Y018805D03*
X026838Y018812D03*
X026838Y018882D03*
X026838Y018889D03*
X026838Y018896D03*
X026838Y018910D03*
X026838Y018917D03*
X026838Y018924D03*
X026838Y018931D03*
X026838Y018945D03*
X026838Y018952D03*
X026838Y018959D03*
X026705Y018812D03*
X026705Y018805D03*
X026607Y018805D03*
X026607Y018812D03*
X026607Y018791D03*
X026705Y018700D03*
X026376Y018700D03*
X026376Y018707D03*
X026376Y018714D03*
X026376Y018721D03*
X026376Y018735D03*
X026376Y018742D03*
X026376Y018686D03*
X026376Y018679D03*
X026376Y018672D03*
X026376Y018665D03*
X026376Y018651D03*
X026376Y018644D03*
X026376Y018637D03*
X026376Y018805D03*
X026376Y018812D03*
X026243Y018812D03*
X026243Y018805D03*
X026145Y018805D03*
X026145Y018812D03*
X026145Y018791D03*
X026145Y018784D03*
X026145Y018777D03*
X026145Y018770D03*
X026145Y018756D03*
X026145Y018749D03*
X026145Y018742D03*
X026145Y018735D03*
X026145Y018721D03*
X026145Y018714D03*
X026145Y018707D03*
X026145Y018700D03*
X026145Y018686D03*
X026145Y018679D03*
X026145Y018672D03*
X026145Y018665D03*
X026145Y018651D03*
X026145Y018644D03*
X026145Y018637D03*
X025116Y018539D03*
X026936Y019141D03*
X027090Y018861D03*
X027090Y018854D03*
X027090Y018847D03*
X027090Y018840D03*
X027090Y018826D03*
X027090Y018819D03*
X027090Y018812D03*
X027090Y018805D03*
X027090Y018791D03*
X027090Y018784D03*
X027090Y018777D03*
X027090Y018770D03*
X027090Y018756D03*
X027090Y018749D03*
X027090Y018742D03*
X027090Y018735D03*
X027090Y018721D03*
X027090Y018714D03*
X027090Y018707D03*
X027090Y018700D03*
X027090Y018686D03*
X027090Y018679D03*
X027167Y018805D03*
X027167Y018812D03*
X027300Y018812D03*
X027300Y018805D03*
X027300Y018742D03*
X027300Y018735D03*
X027300Y018721D03*
X027300Y018714D03*
X027300Y018707D03*
X027300Y018700D03*
X027300Y018686D03*
X027300Y018679D03*
X027300Y018672D03*
X027300Y018665D03*
X027300Y018651D03*
X027300Y018644D03*
X027300Y018637D03*
X027398Y018637D03*
X027398Y018644D03*
X027398Y018651D03*
X027398Y018665D03*
X027398Y018672D03*
X027398Y018679D03*
X027398Y018686D03*
X027398Y018700D03*
X027398Y018707D03*
X027398Y018714D03*
X027398Y018721D03*
X027398Y018735D03*
X027398Y018742D03*
X027398Y018749D03*
X027398Y018756D03*
X027398Y018770D03*
X027398Y018777D03*
X027398Y018784D03*
X027398Y018791D03*
X027398Y018805D03*
X027398Y018812D03*
X027531Y018812D03*
X027531Y018805D03*
X027531Y018791D03*
X027762Y018805D03*
X027762Y018812D03*
X027762Y018714D03*
X027762Y018707D03*
X027762Y018700D03*
D205*
X027755Y018679D03*
X027748Y018672D03*
X027643Y018672D03*
X027755Y018826D03*
X027405Y018826D03*
X027293Y018826D03*
X027293Y018791D03*
X026600Y018826D03*
X026250Y018826D03*
X026250Y018714D03*
X026250Y018672D03*
X026138Y018826D03*
X026075Y018882D03*
X025613Y018812D03*
X025613Y018805D03*
X025613Y018791D03*
X025613Y018784D03*
X025613Y018777D03*
X025613Y018770D03*
X025613Y018756D03*
X025613Y018749D03*
X025613Y018742D03*
X025613Y018735D03*
X025613Y018721D03*
X025613Y018714D03*
X025613Y018707D03*
X025613Y018700D03*
X025613Y018686D03*
X025613Y018679D03*
X025613Y018672D03*
X025613Y018665D03*
X025613Y018651D03*
X025613Y018644D03*
X025508Y018721D03*
X025368Y018784D03*
X025368Y018791D03*
X025368Y018805D03*
X025263Y018805D03*
X025263Y018812D03*
X025263Y018791D03*
X025263Y018784D03*
X025263Y018777D03*
X025263Y018770D03*
X025263Y018756D03*
X025263Y018749D03*
X025263Y018742D03*
X025263Y018735D03*
X025263Y018721D03*
X025263Y018714D03*
X025130Y018819D03*
X025018Y018812D03*
X025018Y018707D03*
X024885Y018707D03*
X024885Y018714D03*
X024885Y018721D03*
X024885Y018735D03*
X024885Y018742D03*
X024885Y018749D03*
X024885Y018756D03*
X024885Y018770D03*
X024885Y018777D03*
X024885Y018784D03*
X024885Y018791D03*
X024885Y018805D03*
X024885Y018812D03*
X025123Y018546D03*
D206*
X025126Y018553D03*
X025126Y018588D03*
X025126Y018623D03*
X025126Y018728D03*
X025126Y018763D03*
X025126Y018798D03*
X025021Y018798D03*
X025021Y018763D03*
X025021Y018728D03*
X027751Y018833D03*
D207*
X027751Y018791D03*
X026771Y018882D03*
X025616Y018826D03*
X025616Y018819D03*
X025371Y018819D03*
X025371Y018812D03*
X025371Y018714D03*
X025371Y018707D03*
X025371Y018700D03*
X025126Y018707D03*
X025126Y018714D03*
X025126Y018721D03*
X025126Y018735D03*
X025126Y018742D03*
X025126Y018749D03*
X025126Y018756D03*
X025126Y018770D03*
X025126Y018777D03*
X025126Y018784D03*
X025126Y018791D03*
X025126Y018805D03*
X025126Y018812D03*
X025021Y018805D03*
X025021Y018791D03*
X025021Y018784D03*
X025021Y018777D03*
X025021Y018770D03*
X025021Y018756D03*
X025021Y018749D03*
X025021Y018742D03*
X025021Y018735D03*
X025021Y018721D03*
X025021Y018714D03*
X025126Y018616D03*
X025126Y018609D03*
X025126Y018602D03*
X025126Y018595D03*
X025126Y018581D03*
X025126Y018574D03*
X025126Y018567D03*
X025126Y018560D03*
X025196Y018896D03*
X024951Y018896D03*
D208*
X024951Y018623D03*
X026771Y018623D03*
X027044Y018623D03*
X027695Y018623D03*
D209*
X027531Y018798D03*
X027398Y018798D03*
X027398Y018763D03*
X027398Y018728D03*
X027398Y018693D03*
X027398Y018658D03*
X027300Y018658D03*
X027300Y018693D03*
X027300Y018728D03*
X027300Y018798D03*
X027230Y018623D03*
X027090Y018693D03*
X027090Y018728D03*
X027090Y018763D03*
X027090Y018798D03*
X027090Y018833D03*
X027090Y018868D03*
X026915Y018868D03*
X026915Y018833D03*
X026915Y018798D03*
X026915Y018763D03*
X026915Y018728D03*
X026915Y018693D03*
X026838Y018728D03*
X026838Y018763D03*
X026838Y018798D03*
X026838Y018903D03*
X026838Y018938D03*
X026607Y018798D03*
X026705Y018693D03*
X026376Y018693D03*
X026376Y018658D03*
X026376Y018728D03*
X026376Y018798D03*
X026306Y018623D03*
X026145Y018658D03*
X026145Y018693D03*
X026145Y018728D03*
X026145Y018763D03*
X026145Y018798D03*
X025438Y018623D03*
X025193Y018623D03*
D210*
X025595Y018623D03*
X026022Y018973D03*
X027772Y018728D03*
D211*
X025728Y018623D03*
D212*
X025991Y018623D03*
X026131Y018623D03*
X026362Y018623D03*
X026852Y018973D03*
X027286Y018623D03*
D213*
X026453Y018623D03*
D214*
X026957Y018623D03*
D215*
X027380Y018623D03*
D216*
X027219Y018637D03*
X027233Y018875D03*
X027464Y018875D03*
X026351Y018777D03*
X026309Y018875D03*
X024951Y018889D03*
X024951Y018630D03*
D217*
X025168Y018630D03*
X026309Y018847D03*
X026540Y018847D03*
X027233Y018847D03*
X027464Y018847D03*
X027695Y018847D03*
X025749Y020660D03*
D218*
X025438Y018630D03*
X026768Y018630D03*
X027223Y018630D03*
D219*
X027156Y018784D03*
X027009Y018875D03*
X026918Y018875D03*
X026631Y019225D03*
X026232Y018784D03*
X026463Y018630D03*
X026015Y018966D03*
X025602Y018630D03*
X025518Y018742D03*
X027765Y018721D03*
D220*
X027629Y018707D03*
X027629Y018700D03*
X027629Y018770D03*
X027629Y018777D03*
X027629Y018784D03*
X027629Y018791D03*
X027629Y018805D03*
X027629Y018812D03*
X026474Y018812D03*
X026474Y018805D03*
X025739Y018630D03*
X025739Y019141D03*
X025739Y020702D03*
D221*
X026936Y020709D03*
X026936Y019134D03*
X026845Y018966D03*
X027097Y018875D03*
X027293Y018630D03*
X027391Y018630D03*
X026600Y018784D03*
X026138Y018630D03*
X025998Y018630D03*
X026040Y019225D03*
D222*
X026026Y019246D03*
X026026Y018840D03*
X025732Y018840D03*
X025634Y018840D03*
X025487Y018840D03*
X025389Y018840D03*
X025242Y018840D03*
X025144Y018840D03*
X025004Y018840D03*
X024899Y018840D03*
X025137Y018686D03*
X026299Y018630D03*
D223*
X026369Y018630D03*
X027524Y018784D03*
X025739Y020709D03*
D224*
X026642Y019239D03*
X026586Y018840D03*
X026495Y018840D03*
X026355Y018840D03*
X026362Y018784D03*
X026264Y018840D03*
X026257Y018721D03*
X026124Y018840D03*
X025501Y018826D03*
X025438Y018896D03*
X025375Y018826D03*
X025256Y018826D03*
X025130Y018700D03*
X025382Y018686D03*
X025494Y018686D03*
X026726Y018840D03*
X026957Y018630D03*
X027048Y018630D03*
X027181Y018721D03*
X027188Y018840D03*
X027279Y018840D03*
X027286Y018784D03*
X027419Y018840D03*
X027510Y018840D03*
X027650Y018840D03*
X027741Y018840D03*
D225*
X027744Y018784D03*
X027695Y018630D03*
X027002Y018665D03*
X026820Y018840D03*
X026932Y019155D03*
X026645Y019246D03*
X025742Y019155D03*
X025497Y018805D03*
X025378Y018721D03*
X025252Y018686D03*
X025007Y018686D03*
X024895Y018686D03*
D226*
X024951Y018637D03*
X026015Y019260D03*
X026344Y018770D03*
X026288Y018742D03*
X026288Y018644D03*
X026771Y018637D03*
X027212Y018644D03*
X027212Y018742D03*
X027268Y018770D03*
X027695Y018637D03*
D227*
X027692Y018665D03*
X027244Y018749D03*
X026782Y018861D03*
X025417Y018756D03*
X025172Y018637D03*
X026922Y020660D03*
D228*
X025746Y020674D03*
X025746Y019169D03*
X025438Y018882D03*
X025480Y018791D03*
X025396Y018735D03*
X025438Y018637D03*
X026278Y018665D03*
X026285Y018651D03*
X026656Y019260D03*
X027202Y018665D03*
X027727Y018770D03*
D229*
X027758Y018819D03*
X027758Y018686D03*
X027401Y018819D03*
X027296Y018819D03*
X027163Y018791D03*
X027163Y018700D03*
X027163Y018686D03*
X027086Y018672D03*
X026918Y018672D03*
X026834Y018686D03*
X026708Y018686D03*
X026701Y018707D03*
X026701Y018714D03*
X026701Y018721D03*
X026701Y018735D03*
X026701Y018742D03*
X026701Y018749D03*
X026701Y018756D03*
X026701Y018770D03*
X026701Y018777D03*
X026701Y018784D03*
X026701Y018791D03*
X026708Y018819D03*
X026603Y018819D03*
X026834Y018819D03*
X026638Y019232D03*
X026246Y018819D03*
X026239Y018791D03*
X026246Y018707D03*
X026239Y018700D03*
X026239Y018686D03*
X026246Y018679D03*
X026141Y018819D03*
X026008Y018812D03*
X026008Y018805D03*
X026008Y018791D03*
X026008Y018784D03*
X026008Y018777D03*
X026008Y018770D03*
X026008Y018756D03*
X026008Y018749D03*
X026008Y018742D03*
X026008Y018735D03*
X026008Y018721D03*
X026008Y018714D03*
X026008Y018707D03*
X026008Y018700D03*
X026008Y018686D03*
X026008Y018679D03*
X026008Y018672D03*
X026008Y018665D03*
X026008Y018651D03*
X026008Y018644D03*
X026008Y018637D03*
X026008Y018882D03*
X026008Y018889D03*
X026008Y018896D03*
X026008Y018910D03*
X026008Y018917D03*
X026008Y018924D03*
X026008Y018931D03*
X026008Y018945D03*
X026008Y018952D03*
X026008Y018959D03*
X026036Y019232D03*
X025511Y018735D03*
X025609Y018637D03*
D230*
X025746Y018637D03*
X025746Y018819D03*
X026012Y018819D03*
X026369Y018826D03*
X026369Y018791D03*
X026481Y018826D03*
X026712Y018826D03*
X026831Y018826D03*
X026831Y018679D03*
X026824Y018672D03*
X026922Y018665D03*
X026719Y018672D03*
X026712Y018679D03*
X027174Y018672D03*
X027174Y018714D03*
X027174Y018826D03*
X027524Y018826D03*
X027636Y018826D03*
X027692Y018882D03*
X027636Y018679D03*
D231*
X027695Y018875D03*
X027275Y018777D03*
X026540Y018875D03*
X026295Y018637D03*
X025742Y019162D03*
D232*
X026372Y018819D03*
X026470Y018791D03*
X026470Y018784D03*
X026470Y018777D03*
X026470Y018770D03*
X026470Y018756D03*
X026470Y018749D03*
X026470Y018742D03*
X026470Y018735D03*
X026470Y018721D03*
X026470Y018714D03*
X026470Y018707D03*
X026470Y018700D03*
X026470Y018686D03*
X026470Y018679D03*
X026470Y018672D03*
X026470Y018665D03*
X026470Y018651D03*
X026470Y018644D03*
X026470Y018637D03*
X026477Y018819D03*
X027002Y018819D03*
X027002Y018812D03*
X027002Y018805D03*
X027002Y018791D03*
X027002Y018784D03*
X027002Y018777D03*
X027002Y018770D03*
X027002Y018756D03*
X027002Y018749D03*
X027002Y018742D03*
X027002Y018735D03*
X027002Y018721D03*
X027002Y018714D03*
X027002Y018707D03*
X027002Y018700D03*
X027002Y018686D03*
X027002Y018679D03*
X027002Y018826D03*
X027002Y018840D03*
X027002Y018847D03*
X027002Y018854D03*
X027002Y018861D03*
X027170Y018819D03*
X027170Y018707D03*
X027170Y018679D03*
X027527Y018819D03*
X027632Y018819D03*
X027632Y018714D03*
X027632Y018686D03*
X026932Y020702D03*
D233*
X026999Y018637D03*
D234*
X026771Y018651D03*
X024951Y018644D03*
X024951Y018875D03*
D235*
X025179Y018644D03*
D236*
X025403Y018742D03*
X025473Y018784D03*
X025438Y018644D03*
D237*
X025504Y018700D03*
X025504Y018707D03*
X025504Y018714D03*
X025504Y018812D03*
X025504Y018819D03*
X025679Y018896D03*
X025742Y018826D03*
X025749Y018812D03*
X025749Y018805D03*
X025749Y018791D03*
X025749Y018784D03*
X025749Y018777D03*
X025749Y018770D03*
X025749Y018756D03*
X025749Y018749D03*
X025749Y018742D03*
X025749Y018735D03*
X025749Y018721D03*
X025749Y018714D03*
X025749Y018707D03*
X025749Y018700D03*
X025749Y018686D03*
X025749Y018679D03*
X025749Y018672D03*
X025749Y018665D03*
X025749Y018651D03*
X025749Y018644D03*
X026015Y018826D03*
X026309Y018882D03*
X026540Y018882D03*
X027002Y018672D03*
X027079Y018665D03*
X027233Y018882D03*
X027464Y018882D03*
X027639Y018721D03*
X026029Y019239D03*
X025259Y018819D03*
X025259Y018707D03*
X025259Y018700D03*
X025133Y018826D03*
X025014Y018826D03*
X025014Y018819D03*
X025014Y018700D03*
X024888Y018700D03*
X024888Y018819D03*
X024888Y018826D03*
X025742Y020695D03*
X026932Y020695D03*
D238*
X025679Y018882D03*
X025196Y018882D03*
X024951Y018882D03*
X026771Y018644D03*
D239*
X027002Y018644D03*
D240*
X027695Y018644D03*
X026925Y020674D03*
D241*
X027681Y018756D03*
X024951Y018651D03*
D242*
X024951Y018672D03*
X024951Y018847D03*
X025196Y018847D03*
X025182Y018651D03*
X025679Y018847D03*
D243*
X025683Y018875D03*
X025438Y018875D03*
X025410Y018749D03*
X025438Y018651D03*
X025193Y018875D03*
X026054Y018875D03*
X026327Y018756D03*
X026537Y018854D03*
X027251Y018756D03*
X027461Y018854D03*
X027699Y018854D03*
D244*
X027002Y018651D03*
X026918Y020639D03*
D245*
X026929Y019169D03*
X027209Y018651D03*
X027664Y018742D03*
D246*
X027695Y018651D03*
X027695Y018861D03*
X027464Y018861D03*
X027233Y018861D03*
X027233Y018854D03*
X026792Y018875D03*
X026540Y018861D03*
X026309Y018861D03*
X026309Y018854D03*
X026925Y019176D03*
X026925Y020667D03*
X025749Y020667D03*
D247*
X024951Y018658D03*
D248*
X025182Y018658D03*
X025427Y018763D03*
D249*
X025438Y018658D03*
X025438Y018868D03*
D250*
X025368Y018798D03*
X025263Y018798D03*
X025263Y018763D03*
X025263Y018728D03*
X025508Y018728D03*
X025613Y018728D03*
X025613Y018693D03*
X025613Y018658D03*
X025613Y018763D03*
X025613Y018798D03*
X024885Y018798D03*
X024885Y018763D03*
X024885Y018728D03*
X026593Y018833D03*
D251*
X026484Y018833D03*
X026715Y018833D03*
X026827Y018833D03*
X026932Y019148D03*
X027289Y018833D03*
X027408Y018833D03*
X027639Y018833D03*
X025749Y018798D03*
X025749Y018763D03*
X025749Y018728D03*
X025749Y018693D03*
X025749Y018658D03*
X025497Y018693D03*
X025378Y018693D03*
X025014Y018693D03*
D252*
X026008Y018693D03*
X026008Y018658D03*
X026008Y018728D03*
X026008Y018763D03*
X026008Y018798D03*
X026008Y018903D03*
X026008Y018938D03*
X026239Y018798D03*
X026239Y018693D03*
X026701Y018728D03*
X026701Y018763D03*
X026701Y018798D03*
X026834Y018693D03*
X027163Y018693D03*
X027163Y018798D03*
X027758Y018798D03*
X027758Y018693D03*
D253*
X027695Y018868D03*
X027464Y018868D03*
X027233Y018868D03*
X027205Y018658D03*
X026540Y018868D03*
X026309Y018868D03*
X026281Y018658D03*
D254*
X026470Y018658D03*
X026470Y018693D03*
X026470Y018728D03*
X026470Y018763D03*
X026470Y018798D03*
X027002Y018798D03*
X027002Y018763D03*
X027002Y018728D03*
X027002Y018693D03*
X027002Y018833D03*
X027002Y018868D03*
X027632Y018693D03*
D255*
X026771Y018658D03*
X025196Y018868D03*
X024951Y018868D03*
D256*
X027002Y018658D03*
D257*
X026925Y019183D03*
X027695Y018658D03*
X026057Y018868D03*
X025679Y018868D03*
X025749Y019183D03*
D258*
X025749Y019190D03*
X025679Y018861D03*
X025441Y018861D03*
X025434Y018665D03*
X025196Y018861D03*
X024951Y018861D03*
X024951Y018665D03*
X026064Y018854D03*
X026064Y018861D03*
X026778Y018854D03*
X026778Y018847D03*
X026771Y018665D03*
D259*
X026922Y019197D03*
X025753Y019197D03*
X025438Y018847D03*
X025438Y018679D03*
X025186Y018665D03*
X025753Y020646D03*
X026922Y020646D03*
D260*
X025434Y018770D03*
X025189Y018679D03*
X025189Y018672D03*
X024951Y018679D03*
D261*
X024955Y018854D03*
X025193Y018854D03*
X025438Y018854D03*
X025438Y018672D03*
X025683Y018854D03*
X026068Y018847D03*
X026922Y019190D03*
D262*
X026019Y018833D03*
X025739Y018833D03*
X025494Y018833D03*
X025382Y018833D03*
X025256Y018693D03*
X025130Y018693D03*
X025137Y018833D03*
X025011Y018833D03*
X024892Y018833D03*
X024892Y018693D03*
D263*
X025385Y018728D03*
X025490Y018798D03*
X026652Y019253D03*
D264*
X026267Y018728D03*
X025623Y018833D03*
X025252Y018833D03*
X025742Y020688D03*
D265*
X027191Y018728D03*
D266*
X027650Y018728D03*
D267*
X027657Y018735D03*
X027202Y018735D03*
X026278Y018735D03*
X025683Y018889D03*
X025438Y018889D03*
X025193Y018889D03*
X025746Y020681D03*
D268*
X027104Y018882D03*
X025529Y018749D03*
D269*
X026320Y018749D03*
D270*
X025746Y019176D03*
X027671Y018749D03*
D271*
X026334Y018763D03*
D272*
X027258Y018763D03*
D273*
X027629Y018763D03*
X027629Y018798D03*
D274*
X027713Y018763D03*
D275*
X025753Y019204D03*
X025438Y018777D03*
X025753Y020639D03*
D276*
X026589Y018777D03*
X027513Y018777D03*
D277*
X027149Y018777D03*
X027016Y018882D03*
D278*
X026929Y019162D03*
X027734Y018777D03*
X026929Y020681D03*
D279*
X025739Y019148D03*
X026131Y018833D03*
X026257Y018833D03*
X026362Y018833D03*
X027181Y018833D03*
X027517Y018833D03*
D280*
X026789Y018868D03*
D281*
X026922Y019204D03*
D282*
X025753Y019211D03*
D283*
X026918Y019211D03*
X026918Y020632D03*
D284*
X026918Y019218D03*
X025756Y019218D03*
D285*
X025756Y019225D03*
D286*
X026915Y019225D03*
D287*
X026915Y019232D03*
X025760Y019232D03*
X025760Y020611D03*
D288*
X025760Y019239D03*
D289*
X026911Y019239D03*
X026911Y020604D03*
D290*
X025763Y020597D03*
X025763Y019246D03*
X026911Y019246D03*
D291*
X025763Y019253D03*
D292*
X026019Y019253D03*
D293*
X026908Y019253D03*
D294*
X025767Y019260D03*
X026334Y020751D03*
D295*
X026908Y019260D03*
D296*
X025833Y019267D03*
D297*
X026841Y019267D03*
D298*
X025830Y019274D03*
D299*
X026841Y019274D03*
D300*
X026845Y019281D03*
X026740Y019526D03*
X026740Y019540D03*
X025935Y019540D03*
X025935Y019547D03*
X025928Y019526D03*
X025928Y019519D03*
X025830Y019281D03*
D301*
X025826Y019288D03*
X026848Y019288D03*
D302*
X026782Y019456D03*
X026775Y019470D03*
X026768Y019477D03*
X025935Y019554D03*
X025935Y019561D03*
X025907Y019484D03*
X025900Y019470D03*
X025823Y019295D03*
D303*
X025882Y019442D03*
X025889Y019449D03*
X025889Y019456D03*
X026736Y019561D03*
X026785Y019449D03*
X026785Y019442D03*
X026792Y019435D03*
X026848Y019295D03*
X026337Y020611D03*
D304*
X025935Y019582D03*
X025935Y019575D03*
X025872Y019421D03*
X025865Y019414D03*
X025865Y019407D03*
X025823Y019302D03*
X026740Y019575D03*
X026803Y019421D03*
X026803Y019414D03*
X026810Y019407D03*
X026852Y019302D03*
D305*
X026813Y019400D03*
X026736Y019582D03*
X026736Y019589D03*
X026806Y019736D03*
X025868Y019736D03*
X025861Y019400D03*
X025854Y019386D03*
X025819Y019309D03*
D306*
X025844Y019365D03*
X025844Y019372D03*
X025886Y019715D03*
X026789Y019722D03*
X026796Y019729D03*
X026824Y019379D03*
X026831Y019365D03*
X026852Y019316D03*
X026852Y019309D03*
D307*
X026848Y019330D03*
X026848Y019337D03*
X026785Y019715D03*
X025833Y019351D03*
X025819Y019330D03*
X025819Y019316D03*
X026337Y020604D03*
D308*
X026778Y019708D03*
X026834Y019358D03*
X026848Y019323D03*
X025819Y019323D03*
X025889Y019708D03*
D309*
X025826Y019344D03*
X025826Y019337D03*
X026736Y019596D03*
X026841Y019344D03*
X026806Y020107D03*
X026771Y020142D03*
X025896Y020135D03*
D310*
X025865Y020107D03*
X025935Y019596D03*
X025935Y019589D03*
X026838Y019351D03*
X026775Y020135D03*
D311*
X026782Y020128D03*
X025837Y019358D03*
D312*
X025847Y019379D03*
X025882Y019722D03*
X025875Y019729D03*
X025882Y020121D03*
X026785Y020121D03*
X026792Y020114D03*
X026820Y019386D03*
X026827Y019372D03*
D313*
X026813Y019393D03*
X025854Y019393D03*
D314*
X025875Y019428D03*
X026736Y019568D03*
D315*
X026796Y019428D03*
X025935Y019568D03*
D316*
X025879Y019435D03*
X025879Y020114D03*
D317*
X025893Y019463D03*
X026775Y019463D03*
D318*
X026764Y019484D03*
X026764Y019491D03*
X026736Y019547D03*
X026736Y019554D03*
X025903Y019477D03*
D319*
X025910Y019491D03*
X025917Y019505D03*
X026750Y019512D03*
D320*
X025914Y019498D03*
D321*
X026757Y019498D03*
D322*
X026754Y019505D03*
X026747Y019519D03*
X025921Y019512D03*
D323*
X025931Y019533D03*
D324*
X026740Y019533D03*
D325*
X025935Y019603D03*
D326*
X026736Y019603D03*
D327*
X026740Y019610D03*
X026775Y019701D03*
X025935Y019617D03*
X025935Y019610D03*
X025900Y019701D03*
X025900Y020142D03*
X025907Y020149D03*
D328*
X026736Y019624D03*
X026736Y019617D03*
D329*
X025935Y019624D03*
X025935Y019631D03*
D330*
X026736Y019631D03*
D331*
X026747Y019673D03*
X026747Y020163D03*
X025935Y019638D03*
D332*
X025924Y020163D03*
X026736Y019638D03*
D333*
X026740Y020170D03*
X025935Y019652D03*
X025935Y019645D03*
D334*
X025931Y019659D03*
X025931Y019666D03*
X025826Y019750D03*
X025931Y020170D03*
X026337Y020597D03*
X026841Y019750D03*
X026743Y019666D03*
X026736Y019659D03*
X026736Y019652D03*
X026736Y019645D03*
D335*
X025924Y019673D03*
D336*
X025917Y019680D03*
X026757Y019680D03*
X026827Y020100D03*
D337*
X026754Y020156D03*
X026761Y019687D03*
X025914Y019687D03*
X025844Y020100D03*
X025914Y020156D03*
D338*
X025903Y019694D03*
X026764Y019694D03*
X026764Y020149D03*
D339*
X026820Y019743D03*
X025847Y019743D03*
D340*
X025809Y019757D03*
X025956Y020184D03*
X026866Y019757D03*
D341*
X025784Y019764D03*
D342*
X026887Y019764D03*
D343*
X025763Y019771D03*
X026337Y020576D03*
D344*
X026908Y019771D03*
D345*
X025746Y019778D03*
X025711Y019848D03*
X025711Y019988D03*
D346*
X026929Y019778D03*
X026964Y019848D03*
X026964Y019988D03*
D347*
X026953Y020037D03*
X026953Y020044D03*
X026946Y020051D03*
X026953Y019806D03*
X026953Y019799D03*
X026946Y019792D03*
X026946Y019785D03*
X025728Y019785D03*
X025721Y019792D03*
X025721Y019799D03*
X025721Y020044D03*
X025721Y020051D03*
D348*
X025718Y020037D03*
X025718Y020030D03*
X025718Y019806D03*
X026957Y019820D03*
X026957Y020016D03*
X026957Y020030D03*
X026936Y020065D03*
D349*
X026957Y020023D03*
X026957Y019813D03*
X025718Y019813D03*
D350*
X025714Y019820D03*
X025714Y019827D03*
X025714Y019834D03*
X025714Y020009D03*
X025714Y020016D03*
X026960Y020009D03*
X026960Y020002D03*
X026960Y019995D03*
X026960Y019841D03*
X026960Y019834D03*
X026960Y019827D03*
D351*
X025711Y019841D03*
X025711Y019855D03*
X025711Y019981D03*
X025711Y019995D03*
X025711Y020002D03*
D352*
X026334Y020569D03*
X026964Y019981D03*
X026964Y019974D03*
X026964Y019967D03*
X026964Y019876D03*
X026964Y019869D03*
X026964Y019862D03*
X026964Y019855D03*
D353*
X026967Y019890D03*
X026967Y019897D03*
X026967Y019904D03*
X026967Y019911D03*
X026967Y019925D03*
X026967Y019932D03*
X026967Y019939D03*
X026967Y019946D03*
X026967Y019960D03*
X025707Y019960D03*
X025707Y019967D03*
X025707Y019974D03*
X025707Y019946D03*
X025707Y019939D03*
X025707Y019932D03*
X025707Y019925D03*
X025707Y019911D03*
X025707Y019904D03*
X025707Y019897D03*
X025707Y019890D03*
X025707Y019876D03*
X025707Y019869D03*
X025707Y019862D03*
D354*
X025707Y019883D03*
X025707Y019953D03*
X026967Y019953D03*
X026967Y019918D03*
X026967Y019883D03*
D355*
X025704Y019918D03*
D356*
X025714Y020023D03*
D357*
X025725Y020058D03*
D358*
X026946Y020058D03*
D359*
X025739Y020065D03*
D360*
X025756Y020072D03*
X026911Y020072D03*
D361*
X026691Y020191D03*
X025977Y020191D03*
X025781Y020079D03*
D362*
X026894Y020079D03*
D363*
X025802Y020086D03*
D364*
X026873Y020086D03*
D365*
X025823Y020093D03*
D366*
X026848Y020093D03*
D367*
X025893Y020128D03*
D368*
X025945Y020177D03*
D369*
X026729Y020177D03*
D370*
X026715Y020184D03*
X026337Y020590D03*
D371*
X026337Y020198D03*
D372*
X026334Y020205D03*
X026334Y020359D03*
D373*
X026337Y020212D03*
D374*
X026334Y020219D03*
X026334Y020352D03*
D375*
X026337Y020345D03*
X026337Y020226D03*
D376*
X026334Y020233D03*
D377*
X026334Y020240D03*
D378*
X026337Y020247D03*
D379*
X026334Y020254D03*
X026334Y020331D03*
D380*
X026337Y020324D03*
X026337Y020261D03*
D381*
X026334Y020268D03*
D382*
X026337Y020275D03*
X026337Y020282D03*
X026337Y020317D03*
D383*
X026334Y020310D03*
X026334Y020289D03*
D384*
X026337Y020296D03*
D385*
X026337Y020303D03*
D386*
X026337Y020338D03*
D387*
X026337Y020366D03*
D388*
X026334Y020373D03*
D389*
X026334Y020380D03*
D390*
X026337Y020387D03*
D391*
X026337Y020394D03*
D392*
X026334Y020401D03*
D393*
X026337Y020408D03*
D394*
X026337Y020415D03*
D395*
X026334Y020422D03*
D396*
X026337Y020429D03*
D397*
X026337Y020436D03*
D398*
X026334Y020443D03*
D399*
X026337Y020450D03*
D400*
X026337Y020457D03*
D401*
X026334Y020464D03*
D402*
X026334Y020471D03*
D403*
X026337Y020478D03*
D404*
X026334Y020485D03*
D405*
X026334Y020492D03*
D406*
X026337Y020499D03*
X026337Y020541D03*
D407*
X026337Y020534D03*
X026337Y020506D03*
D408*
X026334Y020513D03*
D409*
X026334Y020520D03*
X026334Y020527D03*
D410*
X026337Y020548D03*
D411*
X026337Y020555D03*
D412*
X026337Y020562D03*
D413*
X026337Y020660D03*
X026337Y020667D03*
X025770Y020569D03*
D414*
X026901Y020569D03*
D415*
X026904Y020576D03*
X026337Y020695D03*
X026337Y020702D03*
X025770Y020576D03*
D416*
X025767Y020583D03*
X026334Y020758D03*
D417*
X026334Y020583D03*
D418*
X026904Y020583D03*
D419*
X026908Y020590D03*
X025767Y020590D03*
D420*
X026908Y020597D03*
D421*
X026337Y020877D03*
X026337Y020884D03*
X026337Y020891D03*
X025763Y020604D03*
D422*
X026911Y020611D03*
D423*
X026915Y020618D03*
X025760Y020618D03*
D424*
X026334Y020618D03*
D425*
X025756Y020625D03*
D426*
X026337Y020625D03*
D427*
X026915Y020625D03*
D428*
X025756Y020632D03*
D429*
X026334Y020632D03*
D430*
X026334Y020639D03*
D431*
X026334Y020646D03*
D432*
X025753Y020653D03*
X026922Y020653D03*
D433*
X026337Y020653D03*
D434*
X026334Y020674D03*
X026334Y020681D03*
D435*
X026337Y020688D03*
D436*
X026929Y020688D03*
D437*
X026334Y020709D03*
X026334Y020716D03*
D438*
X026334Y020723D03*
D439*
X026337Y020730D03*
X026337Y020737D03*
X026337Y020744D03*
D440*
X026337Y020765D03*
X026337Y020772D03*
X026337Y020779D03*
D441*
X026334Y020786D03*
D442*
X026334Y020793D03*
D443*
X026337Y020800D03*
X026337Y020807D03*
X026337Y020814D03*
X026337Y020821D03*
D444*
X026334Y020828D03*
D445*
X026334Y020835D03*
D446*
X026337Y020842D03*
X026337Y020849D03*
X026337Y020856D03*
D447*
X026334Y020863D03*
D448*
X026334Y020870D03*
D449*
X026334Y020898D03*
D450*
X026337Y020905D03*
D451*
X015330Y021205D02*
X015330Y021696D01*
X015330Y022089D02*
X015330Y022580D01*
X015180Y022730D01*
D452*
X015430Y023180D02*
X015430Y021680D01*
X015680Y021430D01*
X016180Y021430D01*
X016430Y021680D01*
X016430Y023180D01*
X016680Y023430D01*
X017180Y023430D01*
X017430Y023180D01*
X017430Y021680D01*
X017180Y021430D01*
X016680Y021430D01*
X016430Y021680D01*
X015430Y021680D02*
X015180Y021430D01*
X014680Y021430D01*
X014430Y021680D01*
X014430Y023180D01*
X014680Y023430D01*
X015180Y023430D01*
X015430Y023180D01*
X015680Y023430D01*
X016180Y023430D01*
X016430Y023180D01*
X017430Y023180D02*
X017680Y023430D01*
X018180Y023430D01*
X018430Y023180D01*
X018430Y021680D01*
X018180Y021430D01*
X017680Y021430D01*
X017430Y021680D01*
X018430Y021680D02*
X018680Y021430D01*
X019180Y021430D01*
X019430Y021680D01*
X019430Y023180D01*
X019680Y023430D01*
X020180Y023430D01*
X020430Y023180D01*
X020430Y021680D01*
X020180Y021430D01*
X019680Y021430D01*
X019430Y021680D01*
X020430Y021680D02*
X020680Y021430D01*
X021180Y021430D01*
X021430Y021680D01*
X021430Y023180D01*
X021680Y023430D01*
X022180Y023430D01*
X022430Y023180D01*
X022430Y021680D01*
X022180Y021430D01*
X021680Y021430D01*
X021430Y021680D01*
X022430Y021680D02*
X022680Y021430D01*
X023180Y021430D01*
X023430Y021680D01*
X023430Y023180D01*
X023680Y023430D01*
X024180Y023430D01*
X024430Y023180D01*
X024430Y021680D01*
X024180Y021430D01*
X023680Y021430D01*
X023430Y021680D01*
X024430Y021680D02*
X024680Y021430D01*
X025180Y021430D01*
X025430Y021680D01*
X025680Y021430D01*
X026180Y021430D01*
X026430Y021680D01*
X026680Y021430D01*
X027180Y021430D01*
X027430Y021680D01*
X027680Y021430D01*
X028180Y021430D01*
X028430Y021680D01*
X028680Y021430D01*
X029180Y021430D01*
X029430Y021680D01*
X029680Y021430D01*
X030180Y021430D01*
X030430Y021680D01*
X030680Y021430D01*
X031180Y021430D01*
X031430Y021680D01*
X031680Y021430D01*
X032180Y021430D01*
X032430Y021680D01*
X032430Y023180D01*
X032180Y023430D01*
X031680Y023430D01*
X031430Y023180D01*
X031430Y021680D01*
X030430Y021680D02*
X030430Y023180D01*
X030680Y023430D01*
X031180Y023430D01*
X031430Y023180D01*
X030430Y023180D02*
X030180Y023430D01*
X029680Y023430D01*
X029430Y023180D01*
X029430Y021680D01*
X028430Y021680D02*
X028430Y023180D01*
X028680Y023430D01*
X029180Y023430D01*
X029430Y023180D01*
X028430Y023180D02*
X028180Y023430D01*
X027680Y023430D01*
X027430Y023180D01*
X027430Y021680D01*
X026430Y021680D02*
X026430Y023180D01*
X026680Y023430D01*
X027180Y023430D01*
X027430Y023180D01*
X026430Y023180D02*
X026180Y023430D01*
X025680Y023430D01*
X025430Y023180D01*
X025430Y021680D01*
X025430Y023180D02*
X025180Y023430D01*
X024680Y023430D01*
X024430Y023180D01*
X023430Y023180D02*
X023180Y023430D01*
X022680Y023430D01*
X022430Y023180D01*
X021430Y023180D02*
X021180Y023430D01*
X020680Y023430D01*
X020430Y023180D01*
X019430Y023180D02*
X019180Y023430D01*
X018680Y023430D01*
X018430Y023180D01*
X014430Y023180D02*
X014180Y023430D01*
X013680Y023430D01*
X013430Y023180D01*
X013430Y021680D01*
X013680Y021430D01*
X014180Y021430D01*
X014430Y021680D01*
X013430Y021680D02*
X013180Y021430D01*
X012680Y021430D01*
X012430Y021680D01*
X012430Y023180D01*
X012680Y023430D01*
X013180Y023430D01*
X013430Y023180D01*
X012430Y023180D02*
X012180Y023430D01*
X011680Y023430D01*
X011430Y023180D01*
X011430Y021680D01*
X011680Y021430D01*
X012180Y021430D01*
X012430Y021680D01*
X011430Y021680D02*
X011180Y021430D01*
X010680Y021430D01*
X010430Y021680D01*
X010430Y023180D01*
X010680Y023430D01*
X011180Y023430D01*
X011430Y023180D01*
X010430Y023180D02*
X010180Y023430D01*
X009680Y023430D01*
X009430Y023180D01*
X009430Y021680D01*
X009680Y021430D01*
X010180Y021430D01*
X010430Y021680D01*
X005880Y021830D02*
X005630Y021580D01*
X005880Y021330D01*
X005880Y020830D01*
X005630Y020580D01*
X005880Y020330D01*
X005880Y019830D01*
X005630Y019580D01*
X005880Y019330D01*
X005880Y018830D01*
X005630Y018580D01*
X005880Y018330D01*
X005880Y017830D01*
X005630Y017580D01*
X005130Y017580D01*
X004880Y017830D01*
X004880Y018330D01*
X005130Y018580D01*
X004880Y018830D01*
X004880Y019330D01*
X005130Y019580D01*
X005630Y019580D01*
X005130Y019580D02*
X004880Y019830D01*
X004880Y020330D01*
X005130Y020580D01*
X004880Y020830D01*
X004880Y021330D01*
X005130Y021580D01*
X004880Y021830D01*
X004880Y022330D01*
X005130Y022580D01*
X004880Y022830D01*
X004880Y023330D01*
X005130Y023580D01*
X005630Y023580D01*
X005880Y023330D01*
X005880Y022830D01*
X005630Y022580D01*
X005880Y022330D01*
X005880Y021830D01*
X005630Y021580D02*
X005130Y021580D01*
X005130Y020580D02*
X005630Y020580D01*
X005630Y018580D02*
X005130Y018580D01*
X005130Y022580D02*
X005630Y022580D01*
X023104Y010682D02*
X023504Y010682D01*
X023104Y010682D02*
X023087Y010680D01*
X023070Y010676D01*
X023054Y010669D01*
X023040Y010659D01*
X023027Y010646D01*
X023017Y010632D01*
X023010Y010616D01*
X023006Y010599D01*
X023004Y010582D01*
X023004Y010577D02*
X023004Y008907D01*
X023004Y007952D02*
X023004Y006282D01*
X023006Y006265D01*
X023010Y006248D01*
X023017Y006232D01*
X023027Y006218D01*
X023040Y006205D01*
X023054Y006195D01*
X023070Y006188D01*
X023087Y006184D01*
X023104Y006182D01*
X023504Y006182D01*
X024404Y006182D02*
X024804Y006182D01*
X024821Y006184D01*
X024838Y006188D01*
X024854Y006195D01*
X024868Y006205D01*
X024881Y006218D01*
X024891Y006232D01*
X024898Y006248D01*
X024902Y006265D01*
X024904Y006282D01*
X024904Y010582D01*
X024902Y010599D01*
X024898Y010616D01*
X024891Y010632D01*
X024881Y010646D01*
X024868Y010659D01*
X024854Y010669D01*
X024838Y010676D01*
X024821Y010680D01*
X024804Y010682D01*
X024404Y010682D01*
X026800Y011920D02*
X026800Y009300D01*
X029560Y009300D01*
X029560Y012060D01*
X026940Y012060D01*
X026800Y011920D01*
X026959Y011760D02*
X026961Y011783D01*
X026967Y011806D01*
X026976Y011827D01*
X026989Y011847D01*
X027005Y011864D01*
X027023Y011878D01*
X027043Y011889D01*
X027065Y011897D01*
X027088Y011901D01*
X027112Y011901D01*
X027135Y011897D01*
X027157Y011889D01*
X027177Y011878D01*
X027195Y011864D01*
X027211Y011847D01*
X027224Y011827D01*
X027233Y011806D01*
X027239Y011783D01*
X027241Y011760D01*
X027239Y011737D01*
X027233Y011714D01*
X027224Y011693D01*
X027211Y011673D01*
X027195Y011656D01*
X027177Y011642D01*
X027157Y011631D01*
X027135Y011623D01*
X027112Y011619D01*
X027088Y011619D01*
X027065Y011623D01*
X027043Y011631D01*
X027023Y011642D01*
X027005Y011656D01*
X026989Y011673D01*
X026976Y011693D01*
X026967Y011714D01*
X026961Y011737D01*
X026959Y011760D01*
X026930Y007180D02*
X027430Y007180D01*
X027680Y006930D01*
X027930Y007180D01*
X028430Y007180D01*
X028680Y006930D01*
X028930Y007180D01*
X029430Y007180D01*
X029680Y006930D01*
X029680Y005430D01*
X029430Y005180D01*
X028930Y005180D01*
X028680Y005430D01*
X028430Y005180D01*
X027930Y005180D01*
X027680Y005430D01*
X027430Y005180D01*
X026930Y005180D01*
X026680Y005430D01*
X026680Y006930D01*
X026930Y007180D01*
X027180Y004430D02*
X026680Y004430D01*
X026430Y004180D01*
X026430Y002680D01*
X026680Y002430D01*
X027180Y002430D01*
X027430Y002680D01*
X027680Y002430D01*
X028180Y002430D01*
X028430Y002680D01*
X028680Y002430D01*
X029180Y002430D01*
X029430Y002680D01*
X029680Y002430D01*
X030180Y002430D01*
X030430Y002680D01*
X030680Y002430D01*
X031180Y002430D01*
X031430Y002680D01*
X031680Y002430D01*
X032180Y002430D01*
X032430Y002680D01*
X032430Y004180D01*
X032180Y004430D01*
X031680Y004430D01*
X031430Y004180D01*
X031430Y002680D01*
X030430Y002680D02*
X030430Y004180D01*
X030680Y004430D01*
X031180Y004430D01*
X031430Y004180D01*
X030430Y004180D02*
X030180Y004430D01*
X029680Y004430D01*
X029430Y004180D01*
X029430Y002680D01*
X028430Y002680D02*
X028430Y004180D01*
X028680Y004430D01*
X029180Y004430D01*
X029430Y004180D01*
X028430Y004180D02*
X028180Y004430D01*
X027680Y004430D01*
X027430Y004180D01*
X027430Y002680D01*
X026430Y002680D02*
X026180Y002430D01*
X025680Y002430D01*
X025430Y002680D01*
X025430Y004180D01*
X025680Y004430D01*
X026180Y004430D01*
X026430Y004180D01*
X027180Y004430D02*
X027430Y004180D01*
X025430Y004180D02*
X025180Y004430D01*
X024680Y004430D01*
X024430Y004180D01*
X024430Y002680D01*
X024180Y002430D01*
X023680Y002430D01*
X023430Y002680D01*
X023430Y004180D01*
X023680Y004430D01*
X024180Y004430D01*
X024430Y004180D01*
X023430Y004180D02*
X023180Y004430D01*
X022680Y004430D01*
X022430Y004180D01*
X022430Y002680D01*
X022180Y002430D01*
X021680Y002430D01*
X021430Y002680D01*
X021430Y004180D01*
X021680Y004430D01*
X022180Y004430D01*
X022430Y004180D01*
X021430Y004180D02*
X021180Y004430D01*
X020680Y004430D01*
X020430Y004180D01*
X020430Y002680D01*
X020180Y002430D01*
X019680Y002430D01*
X019430Y002680D01*
X019430Y004180D01*
X019680Y004430D01*
X020180Y004430D01*
X020430Y004180D01*
X019430Y004180D02*
X019180Y004430D01*
X018680Y004430D01*
X018430Y004180D01*
X018430Y002680D01*
X018180Y002430D01*
X017680Y002430D01*
X017430Y002680D01*
X017430Y004180D01*
X017680Y004430D01*
X018180Y004430D01*
X018430Y004180D01*
X017430Y004180D02*
X017180Y004430D01*
X016680Y004430D01*
X016430Y004180D01*
X016430Y002680D01*
X016180Y002430D01*
X015680Y002430D01*
X015430Y002680D01*
X015430Y004180D01*
X015680Y004430D01*
X016180Y004430D01*
X016430Y004180D01*
X015430Y004180D02*
X015180Y004430D01*
X014680Y004430D01*
X014430Y004180D01*
X014430Y002680D01*
X014680Y002430D01*
X015180Y002430D01*
X015430Y002680D01*
X016430Y002680D02*
X016680Y002430D01*
X017180Y002430D01*
X017430Y002680D01*
X018430Y002680D02*
X018680Y002430D01*
X019180Y002430D01*
X019430Y002680D01*
X020430Y002680D02*
X020680Y002430D01*
X021180Y002430D01*
X021430Y002680D01*
X022430Y002680D02*
X022680Y002430D01*
X023180Y002430D01*
X023430Y002680D01*
X024430Y002680D02*
X024680Y002430D01*
X025180Y002430D01*
X025430Y002680D01*
X018640Y006107D02*
X018640Y006440D01*
X018329Y006440D01*
X017821Y006440D02*
X017520Y006440D01*
X017520Y006107D01*
X017520Y008107D02*
X017520Y008440D01*
X017821Y008440D01*
X018329Y008440D02*
X018640Y008440D01*
X018640Y008107D01*
X018640Y010107D02*
X018640Y010440D01*
X018329Y010440D01*
X017821Y010440D02*
X017520Y010440D01*
X017520Y010107D01*
X014180Y004430D02*
X013680Y004430D01*
X013430Y004180D01*
X013430Y002680D01*
X013680Y002430D01*
X014180Y002430D01*
X014430Y002680D01*
X013430Y002680D02*
X013180Y002430D01*
X012680Y002430D01*
X012430Y002680D01*
X012430Y004180D01*
X012680Y004430D01*
X013180Y004430D01*
X013430Y004180D01*
X014180Y004430D02*
X014430Y004180D01*
X012430Y004180D02*
X012180Y004430D01*
X011680Y004430D01*
X011430Y004180D01*
X011430Y002680D01*
X011680Y002430D01*
X012180Y002430D01*
X012430Y002680D01*
X011430Y002680D02*
X011180Y002430D01*
X010680Y002430D01*
X010430Y002680D01*
X010430Y004180D01*
X010680Y004430D01*
X011180Y004430D01*
X011430Y004180D01*
X010430Y004180D02*
X010180Y004430D01*
X009680Y004430D01*
X009430Y004180D01*
X009430Y002680D01*
X009680Y002430D01*
X010180Y002430D01*
X010430Y002680D01*
D453*
X013286Y005420D02*
X006987Y005420D01*
X006987Y009948D01*
X013286Y009948D01*
X013286Y005420D01*
X026145Y005530D02*
X026220Y005455D01*
X026370Y005455D01*
X026445Y005530D01*
X026445Y005605D01*
X026370Y005680D01*
X026145Y005680D01*
X026145Y005530D01*
X026145Y005680D02*
X026295Y005830D01*
X026445Y005905D01*
X028995Y007355D02*
X029295Y007355D01*
X029145Y007355D02*
X029145Y007805D01*
X028995Y007655D01*
X029080Y015130D02*
X028180Y015130D01*
X027880Y015430D01*
X027880Y016230D01*
X028180Y016530D01*
X029080Y016530D01*
X029380Y016230D01*
X029380Y015430D01*
X029080Y015130D01*
X028236Y015830D02*
X028238Y015869D01*
X028244Y015908D01*
X028254Y015946D01*
X028267Y015983D01*
X028284Y016018D01*
X028304Y016052D01*
X028328Y016083D01*
X028355Y016112D01*
X028384Y016138D01*
X028416Y016161D01*
X028450Y016181D01*
X028486Y016197D01*
X028523Y016209D01*
X028562Y016218D01*
X028601Y016223D01*
X028640Y016224D01*
X028679Y016221D01*
X028718Y016214D01*
X028755Y016203D01*
X028792Y016189D01*
X028827Y016171D01*
X028860Y016150D01*
X028891Y016125D01*
X028919Y016098D01*
X028944Y016068D01*
X028966Y016035D01*
X028985Y016001D01*
X029000Y015965D01*
X029012Y015927D01*
X029020Y015889D01*
X029024Y015850D01*
X029024Y015810D01*
X029020Y015771D01*
X029012Y015733D01*
X029000Y015695D01*
X028985Y015659D01*
X028966Y015625D01*
X028944Y015592D01*
X028919Y015562D01*
X028891Y015535D01*
X028860Y015510D01*
X028827Y015489D01*
X028792Y015471D01*
X028755Y015457D01*
X028718Y015446D01*
X028679Y015439D01*
X028640Y015436D01*
X028601Y015437D01*
X028562Y015442D01*
X028523Y015451D01*
X028486Y015463D01*
X028450Y015479D01*
X028416Y015499D01*
X028384Y015522D01*
X028355Y015548D01*
X028328Y015577D01*
X028304Y015608D01*
X028284Y015642D01*
X028267Y015677D01*
X028254Y015714D01*
X028244Y015752D01*
X028238Y015791D01*
X028236Y015830D01*
X023526Y015759D02*
X023526Y021074D01*
X011322Y021074D01*
X011322Y015759D01*
X023526Y015759D01*
D454*
X023455Y009790D02*
X023455Y008885D01*
X023155Y008890D02*
X023155Y009795D01*
X023454Y009782D02*
X023455Y009820D01*
X023460Y009857D01*
X023467Y009894D01*
X023476Y009930D01*
X023489Y009966D01*
X023504Y010000D01*
X023154Y009782D02*
X023156Y009838D01*
X023162Y009893D01*
X023171Y009948D01*
X023185Y010002D01*
X023202Y010055D01*
X023223Y010106D01*
X023247Y010156D01*
X023275Y010204D01*
X023306Y010251D01*
X023340Y010294D01*
X023377Y010336D01*
X023417Y010375D01*
X023459Y010411D01*
X023504Y010443D01*
X024404Y010000D02*
X024419Y009966D01*
X024432Y009930D01*
X024441Y009894D01*
X024448Y009857D01*
X024453Y009820D01*
X024454Y009782D01*
X024454Y007082D01*
X024754Y007082D02*
X024754Y009782D01*
X024752Y009838D01*
X024746Y009893D01*
X024737Y009948D01*
X024723Y010002D01*
X024706Y010055D01*
X024685Y010106D01*
X024661Y010156D01*
X024633Y010204D01*
X024602Y010251D01*
X024568Y010295D01*
X024531Y010336D01*
X024491Y010375D01*
X024449Y010411D01*
X024404Y010443D01*
X023455Y007970D02*
X023455Y007065D01*
X023155Y007065D02*
X023155Y007970D01*
X023154Y007082D02*
X023156Y007026D01*
X023162Y006971D01*
X023171Y006916D01*
X023185Y006862D01*
X023202Y006809D01*
X023223Y006758D01*
X023247Y006708D01*
X023275Y006660D01*
X023306Y006613D01*
X023340Y006569D01*
X023377Y006528D01*
X023417Y006489D01*
X023459Y006453D01*
X023504Y006421D01*
X024404Y006421D02*
X024449Y006453D01*
X024491Y006489D01*
X024531Y006528D01*
X024568Y006570D01*
X024602Y006613D01*
X024633Y006660D01*
X024661Y006708D01*
X024685Y006758D01*
X024706Y006809D01*
X024723Y006862D01*
X024737Y006916D01*
X024746Y006971D01*
X024752Y007026D01*
X024754Y007082D01*
X024454Y007082D02*
X024453Y007044D01*
X024448Y007007D01*
X024441Y006970D01*
X024432Y006934D01*
X024419Y006898D01*
X024404Y006864D01*
X023504Y006864D02*
X023489Y006898D01*
X023476Y006934D01*
X023467Y006970D01*
X023460Y007007D01*
X023455Y007044D01*
X023454Y007082D01*
D455*
X015243Y010965D03*
X015243Y014902D03*
X032101Y020021D03*
M02*
