G75*
G70*
%OFA0B0*%
%FSLAX24Y24*%
%IPPOS*%
%LPD*%
%AMOC8*
5,1,8,0,0,1.08239X$1,22.5*
%
%ADD10R,0.0500X0.0220*%
%ADD11R,0.0220X0.0500*%
%ADD12R,0.0433X0.0709*%
%ADD13R,0.0433X0.0394*%
%ADD14R,0.0394X0.0433*%
%ADD15R,0.0827X0.2205*%
%ADD16R,0.1575X0.0827*%
%ADD17R,0.1181X0.0807*%
%ADD18R,0.1378X0.0807*%
%ADD19R,0.0886X0.0197*%
%ADD20R,0.0394X0.0551*%
%ADD21R,0.0748X0.1339*%
%ADD22R,0.0787X0.0433*%
%ADD23R,0.0315X0.0315*%
%ADD24R,0.0394X0.0591*%
D10*
X026490Y009578D03*
X026490Y009893D03*
X026490Y010208D03*
X026490Y010523D03*
X026490Y010837D03*
X026490Y011152D03*
X026490Y011467D03*
X026490Y011782D03*
X029870Y011782D03*
X029870Y011467D03*
X029870Y011152D03*
X029870Y010837D03*
X029870Y010523D03*
X029870Y010208D03*
X029870Y009893D03*
X029870Y009578D03*
D11*
X029282Y008990D03*
X028967Y008990D03*
X028652Y008990D03*
X028337Y008990D03*
X028023Y008990D03*
X027708Y008990D03*
X027393Y008990D03*
X027078Y008990D03*
X027078Y012370D03*
X027393Y012370D03*
X027708Y012370D03*
X028023Y012370D03*
X028337Y012370D03*
X028652Y012370D03*
X028967Y012370D03*
X029282Y012370D03*
D12*
X029337Y014589D03*
X027880Y014589D03*
X027880Y017030D03*
X029337Y017030D03*
D13*
X027020Y017115D03*
X027020Y016445D03*
X032180Y015515D03*
X032180Y014845D03*
X032180Y014015D03*
X032180Y013345D03*
X032180Y010515D03*
X032180Y009845D03*
X019480Y009845D03*
X019480Y010515D03*
X019480Y008515D03*
X019480Y007845D03*
X019480Y006515D03*
X019480Y005845D03*
X016680Y005845D03*
X016680Y006515D03*
X016680Y007845D03*
X016680Y008515D03*
X016680Y009845D03*
X016680Y010515D03*
D14*
X020225Y011930D03*
X020895Y011930D03*
X020895Y012930D03*
X020225Y012930D03*
X020225Y013930D03*
X020895Y013930D03*
X025460Y010175D03*
X025460Y009505D03*
X025460Y008215D03*
X025460Y007545D03*
X031180Y009845D03*
X031180Y010515D03*
X027020Y014445D03*
X027020Y015115D03*
X029845Y018680D03*
X030515Y018680D03*
X030515Y019680D03*
X029845Y019680D03*
X029845Y020680D03*
X030515Y020680D03*
D15*
X023954Y010302D03*
X023954Y006562D03*
D16*
X023580Y008432D03*
D17*
X002790Y005948D03*
X002790Y009432D03*
X035566Y010170D03*
X035566Y011190D03*
X035566Y014674D03*
X035566Y015690D03*
X035566Y019174D03*
X035566Y006686D03*
D18*
X034089Y006686D03*
X034089Y010170D03*
X034089Y011190D03*
X034089Y014674D03*
X034089Y015690D03*
X034089Y019174D03*
X004267Y009432D03*
X004267Y005948D03*
D19*
X004257Y007060D03*
X004257Y007375D03*
X004257Y007690D03*
X004257Y008005D03*
X004257Y008320D03*
X034099Y008428D03*
X034099Y008743D03*
X034099Y009058D03*
X034099Y008113D03*
X034099Y007798D03*
X034099Y012302D03*
X034099Y012617D03*
X034099Y012932D03*
X034099Y013247D03*
X034099Y013562D03*
X034099Y016802D03*
X034099Y017117D03*
X034099Y017432D03*
X034099Y017747D03*
X034099Y018062D03*
D20*
X018454Y009747D03*
X017706Y009747D03*
X018080Y010613D03*
X018080Y008613D03*
X017706Y007747D03*
X018454Y007747D03*
X018080Y006613D03*
X017706Y005747D03*
X018454Y005747D03*
D21*
X009238Y019750D03*
X007702Y019750D03*
D22*
X008010Y018070D03*
D23*
X007262Y018070D03*
D24*
X014967Y015587D03*
X015519Y015587D03*
X015519Y014210D03*
X014967Y014210D03*
X014967Y011650D03*
X015519Y011650D03*
X015519Y010273D03*
X014967Y010273D03*
X031826Y019328D03*
X032377Y019328D03*
X032377Y020706D03*
X031826Y020706D03*
M02*
