G75*
G70*
%OFA0B0*%
%FSLAX24Y24*%
%IPPOS*%
%LPD*%
%AMOC8*
5,1,8,0,0,1.08239X$1,22.5*
%
%ADD10C,0.0720*%
%ADD11OC8,0.0720*%
%ADD12C,0.0434*%
%ADD13C,0.0720*%
%ADD14R,0.0714X0.0714*%
%ADD15C,0.0714*%
%ADD16C,0.1730*%
%ADD17C,0.0780*%
D10*
X029180Y006680D03*
D11*
X028180Y006680D03*
X027180Y006680D03*
X027180Y005680D03*
X028180Y005680D03*
X029180Y005680D03*
D12*
X035015Y007562D03*
X035015Y009294D03*
X035015Y012066D03*
X035015Y013798D03*
X035015Y016566D03*
X035015Y018298D03*
X003341Y008556D03*
X003341Y006824D03*
D13*
X005060Y018080D02*
X005700Y018080D01*
X005700Y019080D02*
X005060Y019080D01*
X005060Y020080D02*
X005700Y020080D01*
X005700Y021080D02*
X005060Y021080D01*
X005060Y022080D02*
X005700Y022080D01*
X005700Y023080D02*
X005060Y023080D01*
D14*
X009930Y021930D03*
X009930Y002930D03*
D15*
X010930Y002930D03*
X011930Y002930D03*
X012930Y002930D03*
X013930Y002930D03*
X014930Y002930D03*
X015930Y002930D03*
X016930Y002930D03*
X017930Y002930D03*
X018930Y002930D03*
X019930Y002930D03*
X020930Y002930D03*
X021930Y002930D03*
X022930Y002930D03*
X023930Y002930D03*
X024930Y002930D03*
X025930Y002930D03*
X026930Y002930D03*
X027930Y002930D03*
X028930Y002930D03*
X029930Y002930D03*
X030930Y002930D03*
X031930Y002930D03*
X031930Y003930D03*
X030930Y003930D03*
X029930Y003930D03*
X028930Y003930D03*
X027930Y003930D03*
X026930Y003930D03*
X025930Y003930D03*
X024930Y003930D03*
X023930Y003930D03*
X022930Y003930D03*
X021930Y003930D03*
X020930Y003930D03*
X019930Y003930D03*
X018930Y003930D03*
X017930Y003930D03*
X016930Y003930D03*
X015930Y003930D03*
X014930Y003930D03*
X013930Y003930D03*
X012930Y003930D03*
X011930Y003930D03*
X010930Y003930D03*
X009930Y003930D03*
X010930Y021930D03*
X011930Y021930D03*
X012930Y021930D03*
X013930Y021930D03*
X014930Y021930D03*
X015930Y021930D03*
X016930Y021930D03*
X017930Y021930D03*
X018930Y021930D03*
X019930Y021930D03*
X020930Y021930D03*
X021930Y021930D03*
X022930Y021930D03*
X023930Y021930D03*
X024930Y021930D03*
X025930Y021930D03*
X026930Y021930D03*
X027930Y021930D03*
X028930Y021930D03*
X029930Y021930D03*
X030930Y021930D03*
X031930Y021930D03*
X031930Y022930D03*
X030930Y022930D03*
X029930Y022930D03*
X028930Y022930D03*
X027930Y022930D03*
X026930Y022930D03*
X025930Y022930D03*
X024930Y022930D03*
X023930Y022930D03*
X022930Y022930D03*
X021930Y022930D03*
X020930Y022930D03*
X019930Y022930D03*
X018930Y022930D03*
X017930Y022930D03*
X016930Y022930D03*
X015930Y022930D03*
X014930Y022930D03*
X013930Y022930D03*
X012930Y022930D03*
X011930Y022930D03*
X010930Y022930D03*
X009930Y022930D03*
D16*
X007930Y003430D03*
X033930Y004680D03*
X033930Y021180D03*
D17*
X023180Y020680D03*
X022180Y020680D03*
X021180Y020680D03*
X012715Y020680D03*
X011715Y020680D03*
X012680Y009180D03*
X012680Y008180D03*
X012680Y007180D03*
X012680Y006180D03*
M02*
